{
  "header": {
    "keySignatures": [
      {
        "key": "B",
        "scale": "major",
        "ticks": 0
      }
    ],
    "meta": [
      {
        "ticks": 0,
        "type": "portPrefix"
      }
    ],
    "name": "",
    "ppq": 480,
    "tempos": [
      {
        "bpm": 124.99973958387586,
        "ticks": 0
      },
      {
        "bpm": 115.00024916720653,
        "ticks": 119040
      },
      {
        "bpm": 100.00016666694445,
        "ticks": 120960
      }
    ],
    "timeSignatures": [
      {
        "ticks": 0,
        "timeSignature": [
          4,
          4
        ],
        "measures": 0
      }
    ]
  },
  "tracks": [
    {
      "channel": 0,
      "controlChanges": {
        "7": [
          {
            "number": 7,
            "ticks": 0,
            "time": 0,
            "value": 0.7874015748031497
          }
        ],
        "10": [
          {
            "number": 10,
            "ticks": 0,
            "time": 0,
            "value": 0.5039370078740157
          }
        ],
        "91": [
          {
            "number": 91,
            "ticks": 0,
            "time": 0,
            "value": 0
          }
        ],
        "93": [
          {
            "number": 93,
            "ticks": 0,
            "time": 0,
            "value": 0
          }
        ],
        "121": [
          {
            "number": 121,
            "ticks": 0,
            "time": 0,
            "value": 0
          }
        ]
      },
      "instrument": {
        "family": "piano",
        "name": "acoustic grand piano",
        "number": 0
      },
      "name": "",
      "notes": [
        {
          "duration": 0.22700047291666667,
          "durationTicks": 227,
          "midi": 73,
          "name": "C#5",
          "ticks": 0,
          "time": 0,
          "velocity": 0.6299212598425197
        },
        {
          "duration": 0.22700047291666664,
          "durationTicks": 227,
          "midi": 76,
          "name": "E5",
          "ticks": 240,
          "time": 0.2400005,
          "velocity": 0.6299212598425197
        },
        {
          "duration": 0.2270004729166667,
          "durationTicks": 227,
          "midi": 73,
          "name": "C#5",
          "ticks": 480,
          "time": 0.480001,
          "velocity": 0.6299212598425197
        },
        {
          "duration": 0.2270004729166667,
          "durationTicks": 227,
          "midi": 76,
          "name": "E5",
          "ticks": 720,
          "time": 0.7200015,
          "velocity": 0.6299212598425197
        },
        {
          "duration": 0.2270004729166668,
          "durationTicks": 227,
          "midi": 73,
          "name": "C#5",
          "ticks": 960,
          "time": 0.960002,
          "velocity": 0.6299212598425197
        },
        {
          "duration": 0.2270004729166668,
          "durationTicks": 227,
          "midi": 76,
          "name": "E5",
          "ticks": 1200,
          "time": 1.2000025,
          "velocity": 0.6299212598425197
        },
        {
          "duration": 0.2270004729166668,
          "durationTicks": 227,
          "midi": 73,
          "name": "C#5",
          "ticks": 1440,
          "time": 1.440003,
          "velocity": 0.6299212598425197
        },
        {
          "duration": 0.2270004729166668,
          "durationTicks": 227,
          "midi": 76,
          "name": "E5",
          "ticks": 1680,
          "time": 1.6800035,
          "velocity": 0.6299212598425197
        },
        {
          "duration": 0.22700047291666658,
          "durationTicks": 227,
          "midi": 71,
          "name": "B4",
          "ticks": 1920,
          "time": 1.920004,
          "velocity": 0.6299212598425197
        },
        {
          "duration": 0.22700047291666658,
          "durationTicks": 227,
          "midi": 75,
          "name": "D#5",
          "ticks": 2160,
          "time": 2.1600045,
          "velocity": 0.6299212598425197
        },
        {
          "duration": 0.22700047291666658,
          "durationTicks": 227,
          "midi": 71,
          "name": "B4",
          "ticks": 2400,
          "time": 2.400005,
          "velocity": 0.6299212598425197
        },
        {
          "duration": 0.22700047291666658,
          "durationTicks": 227,
          "midi": 75,
          "name": "D#5",
          "ticks": 2640,
          "time": 2.6400055,
          "velocity": 0.6299212598425197
        },
        {
          "duration": 0.22700047291666658,
          "durationTicks": 227,
          "midi": 71,
          "name": "B4",
          "ticks": 2880,
          "time": 2.880006,
          "velocity": 0.6299212598425197
        },
        {
          "duration": 0.22700047291666658,
          "durationTicks": 227,
          "midi": 75,
          "name": "D#5",
          "ticks": 3120,
          "time": 3.1200065,
          "velocity": 0.6299212598425197
        },
        {
          "duration": 0.22700047291666658,
          "durationTicks": 227,
          "midi": 71,
          "name": "B4",
          "ticks": 3360,
          "time": 3.360007,
          "velocity": 0.6299212598425197
        },
        {
          "duration": 0.22700047291666658,
          "durationTicks": 227,
          "midi": 75,
          "name": "D#5",
          "ticks": 3600,
          "time": 3.6000075000000002,
          "velocity": 0.6299212598425197
        },
        {
          "duration": 0.22700047291666614,
          "durationTicks": 227,
          "midi": 66,
          "name": "F#4",
          "ticks": 3840,
          "time": 3.840008,
          "velocity": 0.6299212598425197
        },
        {
          "duration": 0.22700047291666614,
          "durationTicks": 227,
          "midi": 70,
          "name": "A#4",
          "ticks": 3840,
          "time": 3.840008,
          "velocity": 0.6299212598425197
        },
        {
          "duration": 0.22700047291666703,
          "durationTicks": 227,
          "midi": 73,
          "name": "C#5",
          "ticks": 4080,
          "time": 4.0800085,
          "velocity": 0.6299212598425197
        },
        {
          "duration": 0.22700047291666703,
          "durationTicks": 227,
          "midi": 66,
          "name": "F#4",
          "ticks": 4320,
          "time": 4.320009,
          "velocity": 0.6299212598425197
        },
        {
          "duration": 0.22700047291666703,
          "durationTicks": 227,
          "midi": 70,
          "name": "A#4",
          "ticks": 4320,
          "time": 4.320009,
          "velocity": 0.6299212598425197
        },
        {
          "duration": 0.22700047291666614,
          "durationTicks": 227,
          "midi": 73,
          "name": "C#5",
          "ticks": 4560,
          "time": 4.5600095000000005,
          "velocity": 0.6299212598425197
        },
        {
          "duration": 0.22700047291666614,
          "durationTicks": 227,
          "midi": 66,
          "name": "F#4",
          "ticks": 4800,
          "time": 4.80001,
          "velocity": 0.6299212598425197
        },
        {
          "duration": 0.22700047291666614,
          "durationTicks": 227,
          "midi": 70,
          "name": "A#4",
          "ticks": 4800,
          "time": 4.80001,
          "velocity": 0.6299212598425197
        },
        {
          "duration": 0.22700047291666614,
          "durationTicks": 227,
          "midi": 73,
          "name": "C#5",
          "ticks": 5040,
          "time": 5.0400105,
          "velocity": 0.6299212598425197
        },
        {
          "duration": 0.22700047291666703,
          "durationTicks": 227,
          "midi": 66,
          "name": "F#4",
          "ticks": 5280,
          "time": 5.280011,
          "velocity": 0.6299212598425197
        },
        {
          "duration": 0.22700047291666703,
          "durationTicks": 227,
          "midi": 70,
          "name": "A#4",
          "ticks": 5280,
          "time": 5.280011,
          "velocity": 0.6299212598425197
        },
        {
          "duration": 0.22700047291666703,
          "durationTicks": 227,
          "midi": 73,
          "name": "C#5",
          "ticks": 5520,
          "time": 5.5200115,
          "velocity": 0.6299212598425197
        },
        {
          "duration": 0.22700047291666703,
          "durationTicks": 227,
          "midi": 66,
          "name": "F#4",
          "ticks": 5760,
          "time": 5.760012,
          "velocity": 0.6299212598425197
        },
        {
          "duration": 0.22700047291666703,
          "durationTicks": 227,
          "midi": 70,
          "name": "A#4",
          "ticks": 5760,
          "time": 5.760012,
          "velocity": 0.6299212598425197
        },
        {
          "duration": 0.22700047291666614,
          "durationTicks": 227,
          "midi": 73,
          "name": "C#5",
          "ticks": 6000,
          "time": 6.0000125,
          "velocity": 0.6299212598425197
        },
        {
          "duration": 0.22700047291666614,
          "durationTicks": 227,
          "midi": 66,
          "name": "F#4",
          "ticks": 6240,
          "time": 6.240013,
          "velocity": 0.6299212598425197
        },
        {
          "duration": 0.22700047291666614,
          "durationTicks": 227,
          "midi": 70,
          "name": "A#4",
          "ticks": 6240,
          "time": 6.240013,
          "velocity": 0.6299212598425197
        },
        {
          "duration": 0.22700047291666703,
          "durationTicks": 227,
          "midi": 73,
          "name": "C#5",
          "ticks": 6480,
          "time": 6.4800135,
          "velocity": 0.6299212598425197
        },
        {
          "duration": 0.22700047291666703,
          "durationTicks": 227,
          "midi": 73,
          "name": "C#5",
          "ticks": 6720,
          "time": 6.720014,
          "velocity": 0.6299212598425197
        },
        {
          "duration": 0.22700047291666703,
          "durationTicks": 227,
          "midi": 70,
          "name": "A#4",
          "ticks": 6960,
          "time": 6.9600145,
          "velocity": 0.6299212598425197
        },
        {
          "duration": 0.22700047291666614,
          "durationTicks": 227,
          "midi": 66,
          "name": "F#4",
          "ticks": 7200,
          "time": 7.2000150000000005,
          "velocity": 0.6299212598425197
        },
        {
          "duration": 0.22700047291666614,
          "durationTicks": 227,
          "midi": 73,
          "name": "C#5",
          "ticks": 7440,
          "time": 7.4400155,
          "velocity": 0.6299212598425197
        },
        {
          "duration": 0.22700047291666614,
          "durationTicks": 227,
          "midi": 73,
          "name": "C#5",
          "ticks": 7680,
          "time": 7.680016,
          "velocity": 0.6299212598425197
        },
        {
          "duration": 0.22700047291666703,
          "durationTicks": 227,
          "midi": 76,
          "name": "E5",
          "ticks": 7920,
          "time": 7.9200165,
          "velocity": 0.6299212598425197
        },
        {
          "duration": 0.22700047291666614,
          "durationTicks": 227,
          "midi": 73,
          "name": "C#5",
          "ticks": 8160,
          "time": 8.160017,
          "velocity": 0.6299212598425197
        },
        {
          "duration": 0.22700047291666614,
          "durationTicks": 227,
          "midi": 76,
          "name": "E5",
          "ticks": 8400,
          "time": 8.4000175,
          "velocity": 0.6299212598425197
        },
        {
          "duration": 0.22700047291666792,
          "durationTicks": 227,
          "midi": 73,
          "name": "C#5",
          "ticks": 8640,
          "time": 8.640018,
          "velocity": 0.6299212598425197
        },
        {
          "duration": 0.22700047291666614,
          "durationTicks": 227,
          "midi": 76,
          "name": "E5",
          "ticks": 8880,
          "time": 8.8800185,
          "velocity": 0.6299212598425197
        },
        {
          "duration": 0.22700047291666614,
          "durationTicks": 227,
          "midi": 73,
          "name": "C#5",
          "ticks": 9120,
          "time": 9.120019000000001,
          "velocity": 0.6299212598425197
        },
        {
          "duration": 0.22700047291666614,
          "durationTicks": 227,
          "midi": 76,
          "name": "E5",
          "ticks": 9360,
          "time": 9.3600195,
          "velocity": 0.6299212598425197
        },
        {
          "duration": 0.22700047291666614,
          "durationTicks": 227,
          "midi": 71,
          "name": "B4",
          "ticks": 9600,
          "time": 9.60002,
          "velocity": 0.6299212598425197
        },
        {
          "duration": 0.22700047291666792,
          "durationTicks": 227,
          "midi": 75,
          "name": "D#5",
          "ticks": 9840,
          "time": 9.8400205,
          "velocity": 0.6299212598425197
        },
        {
          "duration": 0.22700047291666614,
          "durationTicks": 227,
          "midi": 71,
          "name": "B4",
          "ticks": 10080,
          "time": 10.080021,
          "velocity": 0.6299212598425197
        },
        {
          "duration": 0.22700047291666614,
          "durationTicks": 227,
          "midi": 75,
          "name": "D#5",
          "ticks": 10320,
          "time": 10.320021500000001,
          "velocity": 0.6299212598425197
        },
        {
          "duration": 0.22700047291666614,
          "durationTicks": 227,
          "midi": 71,
          "name": "B4",
          "ticks": 10560,
          "time": 10.560022,
          "velocity": 0.6299212598425197
        },
        {
          "duration": 0.22700047291666614,
          "durationTicks": 227,
          "midi": 75,
          "name": "D#5",
          "ticks": 10800,
          "time": 10.8000225,
          "velocity": 0.6299212598425197
        },
        {
          "duration": 0.22700047291666792,
          "durationTicks": 227,
          "midi": 71,
          "name": "B4",
          "ticks": 11040,
          "time": 11.040023,
          "velocity": 0.6299212598425197
        },
        {
          "duration": 0.22700047291666614,
          "durationTicks": 227,
          "midi": 75,
          "name": "D#5",
          "ticks": 11280,
          "time": 11.2800235,
          "velocity": 0.6299212598425197
        },
        {
          "duration": 0.22700047291666792,
          "durationTicks": 227,
          "midi": 66,
          "name": "F#4",
          "ticks": 11520,
          "time": 11.520024,
          "velocity": 0.6299212598425197
        },
        {
          "duration": 0.22700047291666792,
          "durationTicks": 227,
          "midi": 70,
          "name": "A#4",
          "ticks": 11520,
          "time": 11.520024,
          "velocity": 0.6299212598425197
        },
        {
          "duration": 0.22700047291666614,
          "durationTicks": 227,
          "midi": 73,
          "name": "C#5",
          "ticks": 11760,
          "time": 11.7600245,
          "velocity": 0.6299212598425197
        },
        {
          "duration": 0.22700047291666614,
          "durationTicks": 227,
          "midi": 66,
          "name": "F#4",
          "ticks": 12000,
          "time": 12.000025,
          "velocity": 0.6299212598425197
        },
        {
          "duration": 0.22700047291666614,
          "durationTicks": 227,
          "midi": 70,
          "name": "A#4",
          "ticks": 12000,
          "time": 12.000025,
          "velocity": 0.6299212598425197
        },
        {
          "duration": 0.22700047291666792,
          "durationTicks": 227,
          "midi": 73,
          "name": "C#5",
          "ticks": 12240,
          "time": 12.2400255,
          "velocity": 0.6299212598425197
        },
        {
          "duration": 0.22700047291666614,
          "durationTicks": 227,
          "midi": 66,
          "name": "F#4",
          "ticks": 12480,
          "time": 12.480026,
          "velocity": 0.6299212598425197
        },
        {
          "duration": 0.22700047291666614,
          "durationTicks": 227,
          "midi": 70,
          "name": "A#4",
          "ticks": 12480,
          "time": 12.480026,
          "velocity": 0.6299212598425197
        },
        {
          "duration": 0.22700047291666792,
          "durationTicks": 227,
          "midi": 73,
          "name": "C#5",
          "ticks": 12720,
          "time": 12.7200265,
          "velocity": 0.6299212598425197
        },
        {
          "duration": 0.22700047291666614,
          "durationTicks": 227,
          "midi": 66,
          "name": "F#4",
          "ticks": 12960,
          "time": 12.960027,
          "velocity": 0.6299212598425197
        },
        {
          "duration": 0.22700047291666614,
          "durationTicks": 227,
          "midi": 70,
          "name": "A#4",
          "ticks": 12960,
          "time": 12.960027,
          "velocity": 0.6299212598425197
        },
        {
          "duration": 0.22700047291666614,
          "durationTicks": 227,
          "midi": 73,
          "name": "C#5",
          "ticks": 13200,
          "time": 13.200027500000001,
          "velocity": 0.6299212598425197
        },
        {
          "duration": 0.22700047291666614,
          "durationTicks": 227,
          "midi": 66,
          "name": "F#4",
          "ticks": 13440,
          "time": 13.440028,
          "velocity": 0.6299212598425197
        },
        {
          "duration": 0.22700047291666614,
          "durationTicks": 227,
          "midi": 70,
          "name": "A#4",
          "ticks": 13440,
          "time": 13.440028,
          "velocity": 0.6299212598425197
        },
        {
          "duration": 0.22700047291666614,
          "durationTicks": 227,
          "midi": 73,
          "name": "C#5",
          "ticks": 13680,
          "time": 13.6800285,
          "velocity": 0.6299212598425197
        },
        {
          "duration": 0.22700047291666792,
          "durationTicks": 227,
          "midi": 66,
          "name": "F#4",
          "ticks": 13920,
          "time": 13.920029,
          "velocity": 0.6299212598425197
        },
        {
          "duration": 0.22700047291666792,
          "durationTicks": 227,
          "midi": 70,
          "name": "A#4",
          "ticks": 13920,
          "time": 13.920029,
          "velocity": 0.6299212598425197
        },
        {
          "duration": 0.22700047291666614,
          "durationTicks": 227,
          "midi": 73,
          "name": "C#5",
          "ticks": 14160,
          "time": 14.1600295,
          "velocity": 0.6299212598425197
        },
        {
          "duration": 0.22700047291666614,
          "durationTicks": 227,
          "midi": 73,
          "name": "C#5",
          "ticks": 14400,
          "time": 14.400030000000001,
          "velocity": 0.6299212598425197
        },
        {
          "duration": 0.22700047291666614,
          "durationTicks": 227,
          "midi": 70,
          "name": "A#4",
          "ticks": 14640,
          "time": 14.6400305,
          "velocity": 0.6299212598425197
        },
        {
          "duration": 0.22700047291666614,
          "durationTicks": 227,
          "midi": 66,
          "name": "F#4",
          "ticks": 14880,
          "time": 14.880031,
          "velocity": 0.6299212598425197
        },
        {
          "duration": 0.22700047291666792,
          "durationTicks": 227,
          "midi": 73,
          "name": "C#5",
          "ticks": 15120,
          "time": 15.1200315,
          "velocity": 0.6299212598425197
        },
        {
          "duration": 0.22700047291666792,
          "durationTicks": 227,
          "midi": 76,
          "name": "E5",
          "ticks": 15360,
          "time": 15.360032,
          "velocity": 0.6299212598425197
        },
        {
          "duration": 0.11300023541666526,
          "durationTicks": 113,
          "midi": 73,
          "name": "C#5",
          "ticks": 15600,
          "time": 15.600032500000001,
          "velocity": 0.6299212598425197
        },
        {
          "duration": 0.11300023541666704,
          "durationTicks": 113,
          "midi": 76,
          "name": "E5",
          "ticks": 15720,
          "time": 15.72003275,
          "velocity": 0.6299212598425197
        },
        {
          "duration": 0.2270004729166697,
          "durationTicks": 227,
          "midi": 73,
          "name": "C#5",
          "ticks": 15840,
          "time": 15.840033,
          "velocity": 0.6299212598425197
        },
        {
          "duration": 0.22700047291666792,
          "durationTicks": 227,
          "midi": 76,
          "name": "E5",
          "ticks": 16080,
          "time": 16.0800335,
          "velocity": 0.6299212598425197
        },
        {
          "duration": 0.22700047291666792,
          "durationTicks": 227,
          "midi": 78,
          "name": "F#5",
          "ticks": 16320,
          "time": 16.320034,
          "velocity": 0.6299212598425197
        },
        {
          "duration": 0.22700047291666792,
          "durationTicks": 227,
          "midi": 78,
          "name": "F#5",
          "ticks": 16560,
          "time": 16.5600345,
          "velocity": 0.6299212598425197
        },
        {
          "duration": 0.4550009479166661,
          "durationTicks": 455,
          "midi": 76,
          "name": "E5",
          "ticks": 16800,
          "time": 16.800035,
          "velocity": 0.6299212598425197
        },
        {
          "duration": 0.22700047291666792,
          "durationTicks": 227,
          "midi": 73,
          "name": "C#5",
          "ticks": 17280,
          "time": 17.280036,
          "velocity": 0.6299212598425197
        },
        {
          "duration": 0.22700047291666792,
          "durationTicks": 227,
          "midi": 73,
          "name": "C#5",
          "ticks": 17520,
          "time": 17.5200365,
          "velocity": 0.6299212598425197
        },
        {
          "duration": 0.22700047291666792,
          "durationTicks": 227,
          "midi": 75,
          "name": "D#5",
          "ticks": 17760,
          "time": 17.760037,
          "velocity": 0.6299212598425197
        },
        {
          "duration": 0.22700047291666792,
          "durationTicks": 227,
          "midi": 76,
          "name": "E5",
          "ticks": 18000,
          "time": 18.0000375,
          "velocity": 0.6299212598425197
        },
        {
          "duration": 0.22700047291666792,
          "durationTicks": 227,
          "midi": 78,
          "name": "F#5",
          "ticks": 18240,
          "time": 18.240038000000002,
          "velocity": 0.6299212598425197
        },
        {
          "duration": 0.22700047291666792,
          "durationTicks": 227,
          "midi": 78,
          "name": "F#5",
          "ticks": 18480,
          "time": 18.4800385,
          "velocity": 0.6299212598425197
        },
        {
          "duration": 0.4550009479166661,
          "durationTicks": 455,
          "midi": 78,
          "name": "F#5",
          "ticks": 18720,
          "time": 18.720039,
          "velocity": 0.6299212598425197
        },
        {
          "duration": 0.22700047291666792,
          "durationTicks": 227,
          "midi": 76,
          "name": "E5",
          "ticks": 19200,
          "time": 19.20004,
          "velocity": 0.6299212598425197
        },
        {
          "duration": 0.11300023541666349,
          "durationTicks": 113,
          "midi": 75,
          "name": "D#5",
          "ticks": 19440,
          "time": 19.440040500000002,
          "velocity": 0.6299212598425197
        },
        {
          "duration": 0.11300023541666704,
          "durationTicks": 113,
          "midi": 73,
          "name": "C#5",
          "ticks": 19560,
          "time": 19.56004075,
          "velocity": 0.6299212598425197
        },
        {
          "duration": 0.11300023541666704,
          "durationTicks": 113,
          "midi": 75,
          "name": "D#5",
          "ticks": 19680,
          "time": 19.680041,
          "velocity": 0.6299212598425197
        },
        {
          "duration": 0.11300023541666704,
          "durationTicks": 113,
          "midi": 76,
          "name": "E5",
          "ticks": 19800,
          "time": 19.80004125,
          "velocity": 0.6299212598425197
        },
        {
          "duration": 0.22700047291666792,
          "durationTicks": 227,
          "midi": 78,
          "name": "F#5",
          "ticks": 19920,
          "time": 19.9200415,
          "velocity": 0.6299212598425197
        },
        {
          "duration": 0.22700047291666792,
          "durationTicks": 227,
          "midi": 76,
          "name": "E5",
          "ticks": 20160,
          "time": 20.160042,
          "velocity": 0.6299212598425197
        },
        {
          "duration": 0.11300023541666704,
          "durationTicks": 113,
          "midi": 75,
          "name": "D#5",
          "ticks": 20400,
          "time": 20.4000425,
          "velocity": 0.6299212598425197
        },
        {
          "duration": 0.11300023541666349,
          "durationTicks": 113,
          "midi": 73,
          "name": "C#5",
          "ticks": 20520,
          "time": 20.52004275,
          "velocity": 0.6299212598425197
        },
        {
          "duration": 0.22700047291666792,
          "durationTicks": 227,
          "midi": 75,
          "name": "D#5",
          "ticks": 20640,
          "time": 20.640043000000002,
          "velocity": 0.6299212598425197
        },
        {
          "duration": 0.22700047291666792,
          "durationTicks": 227,
          "midi": 71,
          "name": "B4",
          "ticks": 20880,
          "time": 20.8800435,
          "velocity": 0.6299212598425197
        },
        {
          "duration": 0.11300023541666704,
          "durationTicks": 113,
          "midi": 76,
          "name": "E5",
          "ticks": 21120,
          "time": 21.120044,
          "velocity": 0.6299212598425197
        },
        {
          "duration": 0.11300023541666704,
          "durationTicks": 113,
          "midi": 78,
          "name": "F#5",
          "ticks": 21240,
          "time": 21.24004425,
          "velocity": 0.6299212598425197
        },
        {
          "duration": 0.22700047291666792,
          "durationTicks": 227,
          "midi": 75,
          "name": "D#5",
          "ticks": 21360,
          "time": 21.3600445,
          "velocity": 0.6299212598425197
        },
        {
          "duration": 0.22700047291666792,
          "durationTicks": 227,
          "midi": 76,
          "name": "E5",
          "ticks": 21600,
          "time": 21.600045,
          "velocity": 0.6299212598425197
        },
        {
          "duration": 0.22700047291666792,
          "durationTicks": 227,
          "midi": 73,
          "name": "C#5",
          "ticks": 21840,
          "time": 21.840045500000002,
          "velocity": 0.6299212598425197
        },
        {
          "duration": 0.11300023541666704,
          "durationTicks": 113,
          "midi": 75,
          "name": "D#5",
          "ticks": 22080,
          "time": 22.080046,
          "velocity": 0.6299212598425197
        },
        {
          "duration": 0.11300023541666704,
          "durationTicks": 113,
          "midi": 75,
          "name": "D#5",
          "ticks": 22200,
          "time": 22.20004625,
          "velocity": 0.6299212598425197
        },
        {
          "duration": 0.11300023541666704,
          "durationTicks": 113,
          "midi": 78,
          "name": "F#5",
          "ticks": 22320,
          "time": 22.3200465,
          "velocity": 0.6299212598425197
        },
        {
          "duration": 0.11300023541666704,
          "durationTicks": 113,
          "midi": 75,
          "name": "D#5",
          "ticks": 22440,
          "time": 22.44004675,
          "velocity": 0.6299212598425197
        },
        {
          "duration": 0.22700047291666792,
          "durationTicks": 227,
          "midi": 76,
          "name": "E5",
          "ticks": 22560,
          "time": 22.560047,
          "velocity": 0.6299212598425197
        },
        {
          "duration": 0.22700047291666792,
          "durationTicks": 227,
          "midi": 73,
          "name": "C#5",
          "ticks": 22800,
          "time": 22.8000475,
          "velocity": 0.6299212598425197
        },
        {
          "duration": 0.22700047291667147,
          "durationTicks": 227,
          "midi": 76,
          "name": "E5",
          "ticks": 23040,
          "time": 23.040048,
          "velocity": 0.6299212598425197
        },
        {
          "duration": 0.11300023541666704,
          "durationTicks": 113,
          "midi": 73,
          "name": "C#5",
          "ticks": 23280,
          "time": 23.2800485,
          "velocity": 0.6299212598425197
        },
        {
          "duration": 0.11300023541666704,
          "durationTicks": 113,
          "midi": 76,
          "name": "E5",
          "ticks": 23400,
          "time": 23.40004875,
          "velocity": 0.6299212598425197
        },
        {
          "duration": 0.22700047291666792,
          "durationTicks": 227,
          "midi": 73,
          "name": "C#5",
          "ticks": 23520,
          "time": 23.520049,
          "velocity": 0.6299212598425197
        },
        {
          "duration": 0.22700047291666792,
          "durationTicks": 227,
          "midi": 76,
          "name": "E5",
          "ticks": 23760,
          "time": 23.7600495,
          "velocity": 0.6299212598425197
        },
        {
          "duration": 0.22700047291666792,
          "durationTicks": 227,
          "midi": 78,
          "name": "F#5",
          "ticks": 24000,
          "time": 24.00005,
          "velocity": 0.6299212598425197
        },
        {
          "duration": 0.22700047291667147,
          "durationTicks": 227,
          "midi": 78,
          "name": "F#5",
          "ticks": 24240,
          "time": 24.2400505,
          "velocity": 0.6299212598425197
        },
        {
          "duration": 0.4550009479166661,
          "durationTicks": 455,
          "midi": 76,
          "name": "E5",
          "ticks": 24480,
          "time": 24.480051,
          "velocity": 0.6299212598425197
        },
        {
          "duration": 0.22700047291666792,
          "durationTicks": 227,
          "midi": 73,
          "name": "C#5",
          "ticks": 24960,
          "time": 24.960052,
          "velocity": 0.6299212598425197
        },
        {
          "duration": 0.22700047291666792,
          "durationTicks": 227,
          "midi": 73,
          "name": "C#5",
          "ticks": 25200,
          "time": 25.2000525,
          "velocity": 0.6299212598425197
        },
        {
          "duration": 0.22700047291667147,
          "durationTicks": 227,
          "midi": 75,
          "name": "D#5",
          "ticks": 25440,
          "time": 25.440053,
          "velocity": 0.6299212598425197
        },
        {
          "duration": 0.22700047291666792,
          "durationTicks": 227,
          "midi": 76,
          "name": "E5",
          "ticks": 25680,
          "time": 25.6800535,
          "velocity": 0.6299212598425197
        },
        {
          "duration": 0.22700047291666792,
          "durationTicks": 227,
          "midi": 78,
          "name": "F#5",
          "ticks": 25920,
          "time": 25.920054,
          "velocity": 0.6299212598425197
        },
        {
          "duration": 0.22700047291666792,
          "durationTicks": 227,
          "midi": 78,
          "name": "F#5",
          "ticks": 26160,
          "time": 26.1600545,
          "velocity": 0.6299212598425197
        },
        {
          "duration": 0.45500094791666257,
          "durationTicks": 455,
          "midi": 78,
          "name": "F#5",
          "ticks": 26400,
          "time": 26.400055000000002,
          "velocity": 0.6299212598425197
        },
        {
          "duration": 0.22700047291666792,
          "durationTicks": 227,
          "midi": 76,
          "name": "E5",
          "ticks": 26880,
          "time": 26.880056,
          "velocity": 0.6299212598425197
        },
        {
          "duration": 0.11300023541666704,
          "durationTicks": 113,
          "midi": 75,
          "name": "D#5",
          "ticks": 27120,
          "time": 27.1200565,
          "velocity": 0.6299212598425197
        },
        {
          "duration": 0.11300023541666704,
          "durationTicks": 113,
          "midi": 73,
          "name": "C#5",
          "ticks": 27240,
          "time": 27.24005675,
          "velocity": 0.6299212598425197
        },
        {
          "duration": 0.11300023541666704,
          "durationTicks": 113,
          "midi": 75,
          "name": "D#5",
          "ticks": 27360,
          "time": 27.360057,
          "velocity": 0.6299212598425197
        },
        {
          "duration": 0.11300023541666704,
          "durationTicks": 113,
          "midi": 76,
          "name": "E5",
          "ticks": 27480,
          "time": 27.48005725,
          "velocity": 0.6299212598425197
        },
        {
          "duration": 0.22700047291666792,
          "durationTicks": 227,
          "midi": 78,
          "name": "F#5",
          "ticks": 27600,
          "time": 27.600057500000002,
          "velocity": 0.6299212598425197
        },
        {
          "duration": 0.22700047291667147,
          "durationTicks": 227,
          "midi": 76,
          "name": "E5",
          "ticks": 27840,
          "time": 27.840058,
          "velocity": 0.6299212598425197
        },
        {
          "duration": 0.11300023541666704,
          "durationTicks": 113,
          "midi": 75,
          "name": "D#5",
          "ticks": 28080,
          "time": 28.0800585,
          "velocity": 0.6299212598425197
        },
        {
          "duration": 0.11300023541666704,
          "durationTicks": 113,
          "midi": 73,
          "name": "C#5",
          "ticks": 28200,
          "time": 28.20005875,
          "velocity": 0.6299212598425197
        },
        {
          "duration": 0.22700047291666792,
          "durationTicks": 227,
          "midi": 75,
          "name": "D#5",
          "ticks": 28320,
          "time": 28.320059,
          "velocity": 0.6299212598425197
        },
        {
          "duration": 0.22700047291666792,
          "durationTicks": 227,
          "midi": 71,
          "name": "B4",
          "ticks": 28560,
          "time": 28.5600595,
          "velocity": 0.6299212598425197
        },
        {
          "duration": 0.11300023541666349,
          "durationTicks": 113,
          "midi": 76,
          "name": "E5",
          "ticks": 28800,
          "time": 28.800060000000002,
          "velocity": 0.6299212598425197
        },
        {
          "duration": 0.11300023541666349,
          "durationTicks": 113,
          "midi": 78,
          "name": "F#5",
          "ticks": 28920,
          "time": 28.920060250000002,
          "velocity": 0.6299212598425197
        },
        {
          "duration": 0.22700047291667147,
          "durationTicks": 227,
          "midi": 75,
          "name": "D#5",
          "ticks": 29040,
          "time": 29.0400605,
          "velocity": 0.6299212598425197
        },
        {
          "duration": 0.22700047291666792,
          "durationTicks": 227,
          "midi": 76,
          "name": "E5",
          "ticks": 29280,
          "time": 29.280061,
          "velocity": 0.6299212598425197
        },
        {
          "duration": 0.22700047291666792,
          "durationTicks": 227,
          "midi": 73,
          "name": "C#5",
          "ticks": 29520,
          "time": 29.5200615,
          "velocity": 0.6299212598425197
        },
        {
          "duration": 0.11300023541666704,
          "durationTicks": 113,
          "midi": 75,
          "name": "D#5",
          "ticks": 29760,
          "time": 29.760062,
          "velocity": 0.6299212598425197
        },
        {
          "duration": 0.11300023541666349,
          "durationTicks": 113,
          "midi": 75,
          "name": "D#5",
          "ticks": 29880,
          "time": 29.88006225,
          "velocity": 0.6299212598425197
        },
        {
          "duration": 0.11300023541666349,
          "durationTicks": 113,
          "midi": 78,
          "name": "F#5",
          "ticks": 30000,
          "time": 30.000062500000002,
          "velocity": 0.6299212598425197
        },
        {
          "duration": 0.11300023541666349,
          "durationTicks": 113,
          "midi": 75,
          "name": "D#5",
          "ticks": 30120,
          "time": 30.120062750000002,
          "velocity": 0.6299212598425197
        },
        {
          "duration": 0.22700047291667147,
          "durationTicks": 227,
          "midi": 78,
          "name": "F#5",
          "ticks": 30240,
          "time": 30.240063,
          "velocity": 0.6299212598425197
        },
        {
          "duration": 0.22700047291666792,
          "durationTicks": 227,
          "midi": 78,
          "name": "F#5",
          "ticks": 30480,
          "time": 30.4800635,
          "velocity": 0.6299212598425197
        },
        {
          "duration": 0.11300023541666704,
          "durationTicks": 113,
          "midi": 76,
          "name": "E5",
          "ticks": 30720,
          "time": 30.720064,
          "velocity": 0.6299212598425197
        },
        {
          "duration": 0.11300023541666704,
          "durationTicks": 113,
          "midi": 73,
          "name": "C#5",
          "ticks": 30840,
          "time": 30.84006425,
          "velocity": 0.6299212598425197
        },
        {
          "duration": 0.11300023541666704,
          "durationTicks": 113,
          "midi": 76,
          "name": "E5",
          "ticks": 30960,
          "time": 30.9600645,
          "velocity": 0.6299212598425197
        },
        {
          "duration": 0.11300023541666349,
          "durationTicks": 113,
          "midi": 73,
          "name": "C#5",
          "ticks": 31080,
          "time": 31.080064750000002,
          "velocity": 0.6299212598425197
        },
        {
          "duration": 0.11300023541666349,
          "durationTicks": 113,
          "midi": 78,
          "name": "F#5",
          "ticks": 31200,
          "time": 31.200065000000002,
          "velocity": 0.6299212598425197
        },
        {
          "duration": 0.11300023541666704,
          "durationTicks": 113,
          "midi": 73,
          "name": "C#5",
          "ticks": 31320,
          "time": 31.32006525,
          "velocity": 0.6299212598425197
        },
        {
          "duration": 0.11300023541666704,
          "durationTicks": 113,
          "midi": 76,
          "name": "E5",
          "ticks": 31440,
          "time": 31.4400655,
          "velocity": 0.6299212598425197
        },
        {
          "duration": 0.11300023541666704,
          "durationTicks": 113,
          "midi": 73,
          "name": "C#5",
          "ticks": 31560,
          "time": 31.56006575,
          "velocity": 0.6299212598425197
        },
        {
          "duration": 0.11300023541666704,
          "durationTicks": 113,
          "midi": 78,
          "name": "F#5",
          "ticks": 31680,
          "time": 31.680066,
          "velocity": 0.6299212598425197
        },
        {
          "duration": 0.11300023541666704,
          "durationTicks": 113,
          "midi": 73,
          "name": "C#5",
          "ticks": 31800,
          "time": 31.80006625,
          "velocity": 0.6299212598425197
        },
        {
          "duration": 0.11300023541666704,
          "durationTicks": 113,
          "midi": 76,
          "name": "E5",
          "ticks": 31920,
          "time": 31.9200665,
          "velocity": 0.6299212598425197
        },
        {
          "duration": 0.11300023541666349,
          "durationTicks": 113,
          "midi": 73,
          "name": "C#5",
          "ticks": 32040,
          "time": 32.04006675,
          "velocity": 0.6299212598425197
        },
        {
          "duration": 0.11300023541667059,
          "durationTicks": 113,
          "midi": 78,
          "name": "F#5",
          "ticks": 32160,
          "time": 32.160067,
          "velocity": 0.6299212598425197
        },
        {
          "duration": 0.11300023541666349,
          "durationTicks": 113,
          "midi": 73,
          "name": "C#5",
          "ticks": 32280,
          "time": 32.28006725,
          "velocity": 0.6299212598425197
        },
        {
          "duration": 0.11300023541667059,
          "durationTicks": 113,
          "midi": 76,
          "name": "E5",
          "ticks": 32400,
          "time": 32.4000675,
          "velocity": 0.6299212598425197
        },
        {
          "duration": 0.11300023541666349,
          "durationTicks": 113,
          "midi": 73,
          "name": "C#5",
          "ticks": 32520,
          "time": 32.52006775,
          "velocity": 0.6299212598425197
        },
        {
          "duration": 0.11300023541667059,
          "durationTicks": 113,
          "midi": 75,
          "name": "D#5",
          "ticks": 32640,
          "time": 32.640068,
          "velocity": 0.6299212598425197
        },
        {
          "duration": 0.11300023541666349,
          "durationTicks": 113,
          "midi": 71,
          "name": "B4",
          "ticks": 32760,
          "time": 32.76006825,
          "velocity": 0.6299212598425197
        },
        {
          "duration": 0.11300023541666349,
          "durationTicks": 113,
          "midi": 75,
          "name": "D#5",
          "ticks": 32880,
          "time": 32.8800685,
          "velocity": 0.6299212598425197
        },
        {
          "duration": 0.11300023541666349,
          "durationTicks": 113,
          "midi": 71,
          "name": "B4",
          "ticks": 33000,
          "time": 33.000068750000004,
          "velocity": 0.6299212598425197
        },
        {
          "duration": 0.11300023541666349,
          "durationTicks": 113,
          "midi": 76,
          "name": "E5",
          "ticks": 33120,
          "time": 33.120069,
          "velocity": 0.6299212598425197
        },
        {
          "duration": 0.11300023541667059,
          "durationTicks": 113,
          "midi": 71,
          "name": "B4",
          "ticks": 33240,
          "time": 33.24006925,
          "velocity": 0.6299212598425197
        },
        {
          "duration": 0.11300023541666349,
          "durationTicks": 113,
          "midi": 76,
          "name": "E5",
          "ticks": 33360,
          "time": 33.3600695,
          "velocity": 0.6299212598425197
        },
        {
          "duration": 0.11300023541667059,
          "durationTicks": 113,
          "midi": 71,
          "name": "B4",
          "ticks": 33480,
          "time": 33.48006975,
          "velocity": 0.6299212598425197
        },
        {
          "duration": 0.11300023541666349,
          "durationTicks": 113,
          "midi": 78,
          "name": "F#5",
          "ticks": 33600,
          "time": 33.60007,
          "velocity": 0.6299212598425197
        },
        {
          "duration": 0.11300023541667059,
          "durationTicks": 113,
          "midi": 71,
          "name": "B4",
          "ticks": 33720,
          "time": 33.72007025,
          "velocity": 0.6299212598425197
        },
        {
          "duration": 0.11300023541666349,
          "durationTicks": 113,
          "midi": 78,
          "name": "F#5",
          "ticks": 33840,
          "time": 33.8400705,
          "velocity": 0.6299212598425197
        },
        {
          "duration": 0.11300023541667059,
          "durationTicks": 113,
          "midi": 71,
          "name": "B4",
          "ticks": 33960,
          "time": 33.96007075,
          "velocity": 0.6299212598425197
        },
        {
          "duration": 0.11300023541666349,
          "durationTicks": 113,
          "midi": 78,
          "name": "F#5",
          "ticks": 34080,
          "time": 34.080071000000004,
          "velocity": 0.6299212598425197
        },
        {
          "duration": 0.11300023541666349,
          "durationTicks": 113,
          "midi": 71,
          "name": "B4",
          "ticks": 34200,
          "time": 34.20007125,
          "velocity": 0.6299212598425197
        },
        {
          "duration": 0.11300023541667059,
          "durationTicks": 113,
          "midi": 76,
          "name": "E5",
          "ticks": 34320,
          "time": 34.3200715,
          "velocity": 0.6299212598425197
        },
        {
          "duration": 0.11300023541666349,
          "durationTicks": 113,
          "midi": 71,
          "name": "B4",
          "ticks": 34440,
          "time": 34.44007175,
          "velocity": 0.6299212598425197
        },
        {
          "duration": 0.11300023541667059,
          "durationTicks": 113,
          "midi": 70,
          "name": "A#4",
          "ticks": 34560,
          "time": 34.560072,
          "velocity": 0.6299212598425197
        },
        {
          "duration": 0.11300023541666349,
          "durationTicks": 113,
          "midi": 66,
          "name": "F#4",
          "ticks": 34680,
          "time": 34.68007225,
          "velocity": 0.6299212598425197
        },
        {
          "duration": 0.11300023541667059,
          "durationTicks": 113,
          "midi": 70,
          "name": "A#4",
          "ticks": 34800,
          "time": 34.8000725,
          "velocity": 0.6299212598425197
        },
        {
          "duration": 0.11300023541666349,
          "durationTicks": 113,
          "midi": 66,
          "name": "F#4",
          "ticks": 34920,
          "time": 34.92007275,
          "velocity": 0.6299212598425197
        },
        {
          "duration": 0.11300023541667059,
          "durationTicks": 113,
          "midi": 73,
          "name": "C#5",
          "ticks": 35040,
          "time": 35.040073,
          "velocity": 0.6299212598425197
        },
        {
          "duration": 0.11300023541666349,
          "durationTicks": 113,
          "midi": 66,
          "name": "F#4",
          "ticks": 35160,
          "time": 35.16007325,
          "velocity": 0.6299212598425197
        },
        {
          "duration": 0.11300023541666349,
          "durationTicks": 113,
          "midi": 70,
          "name": "A#4",
          "ticks": 35280,
          "time": 35.2800735,
          "velocity": 0.6299212598425197
        },
        {
          "duration": 0.11300023541666349,
          "durationTicks": 113,
          "midi": 66,
          "name": "F#4",
          "ticks": 35400,
          "time": 35.400073750000004,
          "velocity": 0.6299212598425197
        },
        {
          "duration": 0.11300023541666349,
          "durationTicks": 113,
          "midi": 71,
          "name": "B4",
          "ticks": 35520,
          "time": 35.520074,
          "velocity": 0.6299212598425197
        },
        {
          "duration": 0.11300023541667059,
          "durationTicks": 113,
          "midi": 66,
          "name": "F#4",
          "ticks": 35640,
          "time": 35.64007425,
          "velocity": 0.6299212598425197
        },
        {
          "duration": 0.11300023541666349,
          "durationTicks": 113,
          "midi": 70,
          "name": "A#4",
          "ticks": 35760,
          "time": 35.7600745,
          "velocity": 0.6299212598425197
        },
        {
          "duration": 0.11300023541667059,
          "durationTicks": 113,
          "midi": 66,
          "name": "F#4",
          "ticks": 35880,
          "time": 35.88007475,
          "velocity": 0.6299212598425197
        },
        {
          "duration": 0.4550009479166661,
          "durationTicks": 455,
          "midi": 73,
          "name": "C#5",
          "ticks": 36000,
          "time": 36.000075,
          "velocity": 0.6299212598425197
        },
        {
          "duration": 0.22700047291666436,
          "durationTicks": 227,
          "midi": 66,
          "name": "F#4",
          "ticks": 36480,
          "time": 36.480076000000004,
          "velocity": 0.6299212598425197
        },
        {
          "duration": 0.22700047291667147,
          "durationTicks": 227,
          "midi": 70,
          "name": "A#4",
          "ticks": 36720,
          "time": 36.7200765,
          "velocity": 0.6299212598425197
        },
        {
          "duration": 0.22700047291666436,
          "durationTicks": 227,
          "midi": 73,
          "name": "C#5",
          "ticks": 36960,
          "time": 36.960077,
          "velocity": 0.6299212598425197
        },
        {
          "duration": 0.11300023541667059,
          "durationTicks": 113,
          "midi": 71,
          "name": "B4",
          "ticks": 37200,
          "time": 37.2000775,
          "velocity": 0.6299212598425197
        },
        {
          "duration": 0.34100071041665814,
          "durationTicks": 341,
          "midi": 70,
          "name": "A#4",
          "ticks": 37320,
          "time": 37.32007775,
          "velocity": 0.6299212598425197
        },
        {
          "duration": 0.22700047291666436,
          "durationTicks": 227,
          "midi": 71,
          "name": "B4",
          "ticks": 37680,
          "time": 37.6800785,
          "velocity": 0.6299212598425197
        },
        {
          "duration": 0.22700047291666436,
          "durationTicks": 227,
          "midi": 70,
          "name": "A#4",
          "ticks": 37920,
          "time": 37.920079,
          "velocity": 0.6299212598425197
        },
        {
          "duration": 0.22700047291666436,
          "durationTicks": 227,
          "midi": 68,
          "name": "G#4",
          "ticks": 38160,
          "time": 38.1600795,
          "velocity": 0.6299212598425197
        },
        {
          "duration": 0.11300023541666349,
          "durationTicks": 113,
          "midi": 76,
          "name": "E5",
          "ticks": 38400,
          "time": 38.40008,
          "velocity": 0.6299212598425197
        },
        {
          "duration": 0.11300023541667059,
          "durationTicks": 113,
          "midi": 73,
          "name": "C#5",
          "ticks": 38520,
          "time": 38.52008025,
          "velocity": 0.6299212598425197
        },
        {
          "duration": 0.11300023541666349,
          "durationTicks": 113,
          "midi": 76,
          "name": "E5",
          "ticks": 38640,
          "time": 38.6400805,
          "velocity": 0.6299212598425197
        },
        {
          "duration": 0.11300023541666349,
          "durationTicks": 113,
          "midi": 73,
          "name": "C#5",
          "ticks": 38760,
          "time": 38.76008075,
          "velocity": 0.6299212598425197
        },
        {
          "duration": 0.11300023541666349,
          "durationTicks": 113,
          "midi": 78,
          "name": "F#5",
          "ticks": 38880,
          "time": 38.880081000000004,
          "velocity": 0.6299212598425197
        },
        {
          "duration": 0.11300023541666349,
          "durationTicks": 113,
          "midi": 73,
          "name": "C#5",
          "ticks": 39000,
          "time": 39.00008125,
          "velocity": 0.6299212598425197
        },
        {
          "duration": 0.11300023541667059,
          "durationTicks": 113,
          "midi": 76,
          "name": "E5",
          "ticks": 39120,
          "time": 39.1200815,
          "velocity": 0.6299212598425197
        },
        {
          "duration": 0.11300023541666349,
          "durationTicks": 113,
          "midi": 73,
          "name": "C#5",
          "ticks": 39240,
          "time": 39.24008175,
          "velocity": 0.6299212598425197
        },
        {
          "duration": 0.11300023541667059,
          "durationTicks": 113,
          "midi": 78,
          "name": "F#5",
          "ticks": 39360,
          "time": 39.360082,
          "velocity": 0.6299212598425197
        },
        {
          "duration": 0.11300023541666349,
          "durationTicks": 113,
          "midi": 73,
          "name": "C#5",
          "ticks": 39480,
          "time": 39.48008225,
          "velocity": 0.6299212598425197
        },
        {
          "duration": 0.11300023541667059,
          "durationTicks": 113,
          "midi": 76,
          "name": "E5",
          "ticks": 39600,
          "time": 39.6000825,
          "velocity": 0.6299212598425197
        },
        {
          "duration": 0.11300023541666349,
          "durationTicks": 113,
          "midi": 73,
          "name": "C#5",
          "ticks": 39720,
          "time": 39.72008275,
          "velocity": 0.6299212598425197
        },
        {
          "duration": 0.11300023541667059,
          "durationTicks": 113,
          "midi": 78,
          "name": "F#5",
          "ticks": 39840,
          "time": 39.840083,
          "velocity": 0.6299212598425197
        },
        {
          "duration": 0.11300023541666349,
          "durationTicks": 113,
          "midi": 73,
          "name": "C#5",
          "ticks": 39960,
          "time": 39.960083250000004,
          "velocity": 0.6299212598425197
        },
        {
          "duration": 0.11300023541666349,
          "durationTicks": 113,
          "midi": 76,
          "name": "E5",
          "ticks": 40080,
          "time": 40.0800835,
          "velocity": 0.6299212598425197
        },
        {
          "duration": 0.11300023541667059,
          "durationTicks": 113,
          "midi": 73,
          "name": "C#5",
          "ticks": 40200,
          "time": 40.20008375,
          "velocity": 0.6299212598425197
        },
        {
          "duration": 0.11300023541666349,
          "durationTicks": 113,
          "midi": 75,
          "name": "D#5",
          "ticks": 40320,
          "time": 40.320084,
          "velocity": 0.6299212598425197
        },
        {
          "duration": 0.11300023541667059,
          "durationTicks": 113,
          "midi": 71,
          "name": "B4",
          "ticks": 40440,
          "time": 40.44008425,
          "velocity": 0.6299212598425197
        },
        {
          "duration": 0.11300023541666349,
          "durationTicks": 113,
          "midi": 75,
          "name": "D#5",
          "ticks": 40560,
          "time": 40.5600845,
          "velocity": 0.6299212598425197
        },
        {
          "duration": 0.11300023541667059,
          "durationTicks": 113,
          "midi": 71,
          "name": "B4",
          "ticks": 40680,
          "time": 40.68008475,
          "velocity": 0.6299212598425197
        },
        {
          "duration": 0.11300023541666349,
          "durationTicks": 113,
          "midi": 76,
          "name": "E5",
          "ticks": 40800,
          "time": 40.800085,
          "velocity": 0.6299212598425197
        },
        {
          "duration": 0.11300023541667059,
          "durationTicks": 113,
          "midi": 71,
          "name": "B4",
          "ticks": 40920,
          "time": 40.92008525,
          "velocity": 0.6299212598425197
        },
        {
          "duration": 0.11300023541666349,
          "durationTicks": 113,
          "midi": 76,
          "name": "E5",
          "ticks": 41040,
          "time": 41.0400855,
          "velocity": 0.6299212598425197
        },
        {
          "duration": 0.11300023541666349,
          "durationTicks": 113,
          "midi": 71,
          "name": "B4",
          "ticks": 41160,
          "time": 41.16008575,
          "velocity": 0.6299212598425197
        },
        {
          "duration": 0.11300023541666349,
          "durationTicks": 113,
          "midi": 78,
          "name": "F#5",
          "ticks": 41280,
          "time": 41.280086000000004,
          "velocity": 0.6299212598425197
        },
        {
          "duration": 0.11300023541666349,
          "durationTicks": 113,
          "midi": 71,
          "name": "B4",
          "ticks": 41400,
          "time": 41.40008625,
          "velocity": 0.6299212598425197
        },
        {
          "duration": 0.11300023541667059,
          "durationTicks": 113,
          "midi": 78,
          "name": "F#5",
          "ticks": 41520,
          "time": 41.5200865,
          "velocity": 0.6299212598425197
        },
        {
          "duration": 0.11300023541666349,
          "durationTicks": 113,
          "midi": 71,
          "name": "B4",
          "ticks": 41640,
          "time": 41.64008675,
          "velocity": 0.6299212598425197
        },
        {
          "duration": 0.11300023541667059,
          "durationTicks": 113,
          "midi": 78,
          "name": "F#5",
          "ticks": 41760,
          "time": 41.760087,
          "velocity": 0.6299212598425197
        },
        {
          "duration": 0.11300023541666349,
          "durationTicks": 113,
          "midi": 71,
          "name": "B4",
          "ticks": 41880,
          "time": 41.88008725,
          "velocity": 0.6299212598425197
        },
        {
          "duration": 0.11300023541667059,
          "durationTicks": 113,
          "midi": 76,
          "name": "E5",
          "ticks": 42000,
          "time": 42.0000875,
          "velocity": 0.6299212598425197
        },
        {
          "duration": 0.11300023541666349,
          "durationTicks": 113,
          "midi": 71,
          "name": "B4",
          "ticks": 42120,
          "time": 42.12008775,
          "velocity": 0.6299212598425197
        },
        {
          "duration": 0.11300023541667059,
          "durationTicks": 113,
          "midi": 70,
          "name": "A#4",
          "ticks": 42240,
          "time": 42.240088,
          "velocity": 0.6299212598425197
        },
        {
          "duration": 0.11300023541666349,
          "durationTicks": 113,
          "midi": 66,
          "name": "F#4",
          "ticks": 42360,
          "time": 42.360088250000004,
          "velocity": 0.6299212598425197
        },
        {
          "duration": 0.11300023541666349,
          "durationTicks": 113,
          "midi": 70,
          "name": "A#4",
          "ticks": 42480,
          "time": 42.4800885,
          "velocity": 0.6299212598425197
        },
        {
          "duration": 0.11300023541667059,
          "durationTicks": 113,
          "midi": 66,
          "name": "F#4",
          "ticks": 42600,
          "time": 42.60008875,
          "velocity": 0.6299212598425197
        },
        {
          "duration": 0.11300023541666349,
          "durationTicks": 113,
          "midi": 73,
          "name": "C#5",
          "ticks": 42720,
          "time": 42.720089,
          "velocity": 0.6299212598425197
        },
        {
          "duration": 0.11300023541667059,
          "durationTicks": 113,
          "midi": 66,
          "name": "F#4",
          "ticks": 42840,
          "time": 42.84008925,
          "velocity": 0.6299212598425197
        },
        {
          "duration": 0.11300023541666349,
          "durationTicks": 113,
          "midi": 70,
          "name": "A#4",
          "ticks": 42960,
          "time": 42.9600895,
          "velocity": 0.6299212598425197
        },
        {
          "duration": 0.11300023541667059,
          "durationTicks": 113,
          "midi": 66,
          "name": "F#4",
          "ticks": 43080,
          "time": 43.08008975,
          "velocity": 0.6299212598425197
        },
        {
          "duration": 0.11300023541666349,
          "durationTicks": 113,
          "midi": 71,
          "name": "B4",
          "ticks": 43200,
          "time": 43.20009,
          "velocity": 0.6299212598425197
        },
        {
          "duration": 0.11300023541667059,
          "durationTicks": 113,
          "midi": 66,
          "name": "F#4",
          "ticks": 43320,
          "time": 43.32009025,
          "velocity": 0.6299212598425197
        },
        {
          "duration": 0.11300023541666349,
          "durationTicks": 113,
          "midi": 70,
          "name": "A#4",
          "ticks": 43440,
          "time": 43.440090500000004,
          "velocity": 0.6299212598425197
        },
        {
          "duration": 0.11300023541666349,
          "durationTicks": 113,
          "midi": 66,
          "name": "F#4",
          "ticks": 43560,
          "time": 43.56009075,
          "velocity": 0.6299212598425197
        },
        {
          "duration": 0.4550009479166661,
          "durationTicks": 455,
          "midi": 73,
          "name": "C#5",
          "ticks": 43680,
          "time": 43.680091000000004,
          "velocity": 0.6299212598425197
        },
        {
          "duration": 0.22700047291666436,
          "durationTicks": 227,
          "midi": 66,
          "name": "F#4",
          "ticks": 44160,
          "time": 44.160092,
          "velocity": 0.6299212598425197
        },
        {
          "duration": 0.22700047291666436,
          "durationTicks": 227,
          "midi": 70,
          "name": "A#4",
          "ticks": 44400,
          "time": 44.4000925,
          "velocity": 0.6299212598425197
        },
        {
          "duration": 0.22700047291666436,
          "durationTicks": 227,
          "midi": 73,
          "name": "C#5",
          "ticks": 44640,
          "time": 44.640093,
          "velocity": 0.6299212598425197
        },
        {
          "duration": 0.11300023541666349,
          "durationTicks": 113,
          "midi": 71,
          "name": "B4",
          "ticks": 44880,
          "time": 44.8800935,
          "velocity": 0.6299212598425197
        },
        {
          "duration": 0.34100071041666524,
          "durationTicks": 341,
          "midi": 70,
          "name": "A#4",
          "ticks": 45000,
          "time": 45.00009375,
          "velocity": 0.6299212598425197
        },
        {
          "duration": 0.22700047291666436,
          "durationTicks": 227,
          "midi": 71,
          "name": "B4",
          "ticks": 45360,
          "time": 45.3600945,
          "velocity": 0.6299212598425197
        },
        {
          "duration": 0.22700047291666436,
          "durationTicks": 227,
          "midi": 70,
          "name": "A#4",
          "ticks": 45600,
          "time": 45.600095,
          "velocity": 0.6299212598425197
        },
        {
          "duration": 0.22700047291666436,
          "durationTicks": 227,
          "midi": 68,
          "name": "G#4",
          "ticks": 45840,
          "time": 45.840095500000004,
          "velocity": 0.6299212598425197
        },
        {
          "duration": 0.22700047291667147,
          "durationTicks": 227,
          "midi": 61,
          "name": "C#4",
          "ticks": 46080,
          "time": 46.080096,
          "velocity": 0.5039370078740157
        },
        {
          "duration": 0.22700047291666436,
          "durationTicks": 227,
          "midi": 64,
          "name": "E4",
          "ticks": 46320,
          "time": 46.3200965,
          "velocity": 0.5039370078740157
        },
        {
          "duration": 0.22700047291666436,
          "durationTicks": 227,
          "midi": 61,
          "name": "C#4",
          "ticks": 46560,
          "time": 46.560097,
          "velocity": 0.5039370078740157
        },
        {
          "duration": 0.22700047291666436,
          "durationTicks": 227,
          "midi": 64,
          "name": "E4",
          "ticks": 46800,
          "time": 46.8000975,
          "velocity": 0.5039370078740157
        },
        {
          "duration": 0.22700047291666436,
          "durationTicks": 227,
          "midi": 61,
          "name": "C#4",
          "ticks": 47040,
          "time": 47.040098,
          "velocity": 0.5039370078740157
        },
        {
          "duration": 0.22700047291666436,
          "durationTicks": 227,
          "midi": 64,
          "name": "E4",
          "ticks": 47280,
          "time": 47.2800985,
          "velocity": 0.5039370078740157
        },
        {
          "duration": 0.22700047291666436,
          "durationTicks": 227,
          "midi": 61,
          "name": "C#4",
          "ticks": 47520,
          "time": 47.520099,
          "velocity": 0.5039370078740157
        },
        {
          "duration": 0.22700047291666436,
          "durationTicks": 227,
          "midi": 64,
          "name": "E4",
          "ticks": 47760,
          "time": 47.7600995,
          "velocity": 0.5039370078740157
        },
        {
          "duration": 0.22700047291666436,
          "durationTicks": 227,
          "midi": 59,
          "name": "B3",
          "ticks": 48000,
          "time": 48.0001,
          "velocity": 0.5039370078740157
        },
        {
          "duration": 0.22700047291666436,
          "durationTicks": 227,
          "midi": 63,
          "name": "D#4",
          "ticks": 48240,
          "time": 48.240100500000004,
          "velocity": 0.5039370078740157
        },
        {
          "duration": 0.22700047291667147,
          "durationTicks": 227,
          "midi": 59,
          "name": "B3",
          "ticks": 48480,
          "time": 48.480101,
          "velocity": 0.5039370078740157
        },
        {
          "duration": 0.22700047291666436,
          "durationTicks": 227,
          "midi": 63,
          "name": "D#4",
          "ticks": 48720,
          "time": 48.7201015,
          "velocity": 0.5039370078740157
        },
        {
          "duration": 0.22700047291666436,
          "durationTicks": 227,
          "midi": 59,
          "name": "B3",
          "ticks": 48960,
          "time": 48.960102,
          "velocity": 0.5039370078740157
        },
        {
          "duration": 0.22700047291666436,
          "durationTicks": 227,
          "midi": 63,
          "name": "D#4",
          "ticks": 49200,
          "time": 49.2001025,
          "velocity": 0.5039370078740157
        },
        {
          "duration": 0.22700047291666436,
          "durationTicks": 227,
          "midi": 59,
          "name": "B3",
          "ticks": 49440,
          "time": 49.440103,
          "velocity": 0.5039370078740157
        },
        {
          "duration": 0.22700047291666436,
          "durationTicks": 227,
          "midi": 63,
          "name": "D#4",
          "ticks": 49680,
          "time": 49.6801035,
          "velocity": 0.5039370078740157
        },
        {
          "duration": 0.22700047291666436,
          "durationTicks": 227,
          "midi": 58,
          "name": "A#3",
          "ticks": 49920,
          "time": 49.920104,
          "velocity": 0.5039370078740157
        },
        {
          "duration": 0.22700047291666436,
          "durationTicks": 227,
          "midi": 61,
          "name": "C#4",
          "ticks": 50160,
          "time": 50.1601045,
          "velocity": 0.5039370078740157
        },
        {
          "duration": 0.22700047291666436,
          "durationTicks": 227,
          "midi": 58,
          "name": "A#3",
          "ticks": 50400,
          "time": 50.400105,
          "velocity": 0.5039370078740157
        },
        {
          "duration": 0.22700047291666436,
          "durationTicks": 227,
          "midi": 61,
          "name": "C#4",
          "ticks": 50640,
          "time": 50.640105500000004,
          "velocity": 0.5039370078740157
        },
        {
          "duration": 0.22700047291667147,
          "durationTicks": 227,
          "midi": 58,
          "name": "A#3",
          "ticks": 50880,
          "time": 50.880106,
          "velocity": 0.5039370078740157
        },
        {
          "duration": 0.22700047291666436,
          "durationTicks": 227,
          "midi": 61,
          "name": "C#4",
          "ticks": 51120,
          "time": 51.1201065,
          "velocity": 0.5039370078740157
        },
        {
          "duration": 0.22700047291666436,
          "durationTicks": 227,
          "midi": 58,
          "name": "A#3",
          "ticks": 51360,
          "time": 51.360107,
          "velocity": 0.5039370078740157
        },
        {
          "duration": 0.22700047291666436,
          "durationTicks": 227,
          "midi": 61,
          "name": "C#4",
          "ticks": 51600,
          "time": 51.6001075,
          "velocity": 0.5039370078740157
        },
        {
          "duration": 0.22700047291666436,
          "durationTicks": 227,
          "midi": 58,
          "name": "A#3",
          "ticks": 51840,
          "time": 51.840108,
          "velocity": 0.5039370078740157
        },
        {
          "duration": 0.22700047291666436,
          "durationTicks": 227,
          "midi": 61,
          "name": "C#4",
          "ticks": 52080,
          "time": 52.0801085,
          "velocity": 0.5039370078740157
        },
        {
          "duration": 0.22700047291666436,
          "durationTicks": 227,
          "midi": 58,
          "name": "A#3",
          "ticks": 52320,
          "time": 52.320109,
          "velocity": 0.5039370078740157
        },
        {
          "duration": 0.22700047291666436,
          "durationTicks": 227,
          "midi": 61,
          "name": "C#4",
          "ticks": 52560,
          "time": 52.5601095,
          "velocity": 0.5039370078740157
        },
        {
          "duration": 0.22700047291666436,
          "durationTicks": 227,
          "midi": 61,
          "name": "C#4",
          "ticks": 52800,
          "time": 52.800110000000004,
          "velocity": 0.5039370078740157
        },
        {
          "duration": 0.22700047291666436,
          "durationTicks": 227,
          "midi": 58,
          "name": "A#3",
          "ticks": 53040,
          "time": 53.040110500000004,
          "velocity": 0.5039370078740157
        },
        {
          "duration": 0.22700047291667147,
          "durationTicks": 227,
          "midi": 54,
          "name": "F#3",
          "ticks": 53280,
          "time": 53.280111,
          "velocity": 0.5039370078740157
        },
        {
          "duration": 0.22700047291666436,
          "durationTicks": 227,
          "midi": 61,
          "name": "C#4",
          "ticks": 53520,
          "time": 53.5201115,
          "velocity": 0.5039370078740157
        },
        {
          "duration": 0.22700047291666436,
          "durationTicks": 227,
          "midi": 61,
          "name": "C#4",
          "ticks": 53760,
          "time": 53.760112,
          "velocity": 0.5039370078740157
        },
        {
          "duration": 0.22700047291666436,
          "durationTicks": 227,
          "midi": 64,
          "name": "E4",
          "ticks": 54000,
          "time": 54.0001125,
          "velocity": 0.5039370078740157
        },
        {
          "duration": 0.22700047291666436,
          "durationTicks": 227,
          "midi": 61,
          "name": "C#4",
          "ticks": 54240,
          "time": 54.240113,
          "velocity": 0.5039370078740157
        },
        {
          "duration": 0.22700047291666436,
          "durationTicks": 227,
          "midi": 64,
          "name": "E4",
          "ticks": 54480,
          "time": 54.4801135,
          "velocity": 0.5039370078740157
        },
        {
          "duration": 0.22700047291666436,
          "durationTicks": 227,
          "midi": 61,
          "name": "C#4",
          "ticks": 54720,
          "time": 54.720114,
          "velocity": 0.5039370078740157
        },
        {
          "duration": 0.22700047291666436,
          "durationTicks": 227,
          "midi": 64,
          "name": "E4",
          "ticks": 54960,
          "time": 54.9601145,
          "velocity": 0.5039370078740157
        },
        {
          "duration": 0.22700047291666436,
          "durationTicks": 227,
          "midi": 61,
          "name": "C#4",
          "ticks": 55200,
          "time": 55.200115000000004,
          "velocity": 0.5039370078740157
        },
        {
          "duration": 0.22700047291666436,
          "durationTicks": 227,
          "midi": 64,
          "name": "E4",
          "ticks": 55440,
          "time": 55.440115500000005,
          "velocity": 0.5039370078740157
        },
        {
          "duration": 0.22700047291667147,
          "durationTicks": 227,
          "midi": 59,
          "name": "B3",
          "ticks": 55680,
          "time": 55.680116,
          "velocity": 0.5039370078740157
        },
        {
          "duration": 0.22700047291666436,
          "durationTicks": 227,
          "midi": 63,
          "name": "D#4",
          "ticks": 55920,
          "time": 55.9201165,
          "velocity": 0.5039370078740157
        },
        {
          "duration": 0.22700047291666436,
          "durationTicks": 227,
          "midi": 59,
          "name": "B3",
          "ticks": 56160,
          "time": 56.160117,
          "velocity": 0.5039370078740157
        },
        {
          "duration": 0.22700047291666436,
          "durationTicks": 227,
          "midi": 63,
          "name": "D#4",
          "ticks": 56400,
          "time": 56.4001175,
          "velocity": 0.5039370078740157
        },
        {
          "duration": 0.22700047291666436,
          "durationTicks": 227,
          "midi": 59,
          "name": "B3",
          "ticks": 56640,
          "time": 56.640118,
          "velocity": 0.5039370078740157
        },
        {
          "duration": 0.22700047291666436,
          "durationTicks": 227,
          "midi": 63,
          "name": "D#4",
          "ticks": 56880,
          "time": 56.8801185,
          "velocity": 0.5039370078740157
        },
        {
          "duration": 0.22700047291666436,
          "durationTicks": 227,
          "midi": 59,
          "name": "B3",
          "ticks": 57120,
          "time": 57.120119,
          "velocity": 0.5039370078740157
        },
        {
          "duration": 0.22700047291666436,
          "durationTicks": 227,
          "midi": 63,
          "name": "D#4",
          "ticks": 57360,
          "time": 57.3601195,
          "velocity": 0.5039370078740157
        },
        {
          "duration": 0.22700047291666436,
          "durationTicks": 227,
          "midi": 58,
          "name": "A#3",
          "ticks": 57600,
          "time": 57.600120000000004,
          "velocity": 0.5039370078740157
        },
        {
          "duration": 0.22700047291666436,
          "durationTicks": 227,
          "midi": 61,
          "name": "C#4",
          "ticks": 57840,
          "time": 57.840120500000005,
          "velocity": 0.5039370078740157
        },
        {
          "duration": 0.22700047291666436,
          "durationTicks": 227,
          "midi": 58,
          "name": "A#3",
          "ticks": 58080,
          "time": 58.080121,
          "velocity": 0.5039370078740157
        },
        {
          "duration": 0.22700047291666436,
          "durationTicks": 227,
          "midi": 61,
          "name": "C#4",
          "ticks": 58320,
          "time": 58.3201215,
          "velocity": 0.5039370078740157
        },
        {
          "duration": 0.22700047291666436,
          "durationTicks": 227,
          "midi": 58,
          "name": "A#3",
          "ticks": 58560,
          "time": 58.560122,
          "velocity": 0.5039370078740157
        },
        {
          "duration": 0.22700047291666436,
          "durationTicks": 227,
          "midi": 61,
          "name": "C#4",
          "ticks": 58800,
          "time": 58.8001225,
          "velocity": 0.5039370078740157
        },
        {
          "duration": 0.22700047291666436,
          "durationTicks": 227,
          "midi": 58,
          "name": "A#3",
          "ticks": 59040,
          "time": 59.040123,
          "velocity": 0.5039370078740157
        },
        {
          "duration": 0.22700047291666436,
          "durationTicks": 227,
          "midi": 61,
          "name": "C#4",
          "ticks": 59280,
          "time": 59.2801235,
          "velocity": 0.5039370078740157
        },
        {
          "duration": 0.22700047291666436,
          "durationTicks": 227,
          "midi": 58,
          "name": "A#3",
          "ticks": 59520,
          "time": 59.520124,
          "velocity": 0.5039370078740157
        },
        {
          "duration": 0.22700047291666436,
          "durationTicks": 227,
          "midi": 61,
          "name": "C#4",
          "ticks": 59760,
          "time": 59.7601245,
          "velocity": 0.5039370078740157
        },
        {
          "duration": 0.22700047291666436,
          "durationTicks": 227,
          "midi": 58,
          "name": "A#3",
          "ticks": 60000,
          "time": 60.000125000000004,
          "velocity": 0.5039370078740157
        },
        {
          "duration": 0.22700047291666436,
          "durationTicks": 227,
          "midi": 61,
          "name": "C#4",
          "ticks": 60240,
          "time": 60.240125500000005,
          "velocity": 0.5039370078740157
        },
        {
          "duration": 0.22700047291666436,
          "durationTicks": 227,
          "midi": 61,
          "name": "C#4",
          "ticks": 60480,
          "time": 60.480126,
          "velocity": 0.5039370078740157
        },
        {
          "duration": 0.22700047291666436,
          "durationTicks": 227,
          "midi": 58,
          "name": "A#3",
          "ticks": 60720,
          "time": 60.7201265,
          "velocity": 0.5039370078740157
        },
        {
          "duration": 0.22700047291666436,
          "durationTicks": 227,
          "midi": 54,
          "name": "F#3",
          "ticks": 60960,
          "time": 60.960127,
          "velocity": 0.5039370078740157
        },
        {
          "duration": 0.22700047291666436,
          "durationTicks": 227,
          "midi": 61,
          "name": "C#4",
          "ticks": 61200,
          "time": 61.2001275,
          "velocity": 0.5039370078740157
        },
        {
          "duration": 1.367002847916666,
          "durationTicks": 1367,
          "midi": 73,
          "name": "C#5",
          "ticks": 61440,
          "time": 61.440128,
          "velocity": 0.5039370078740157
        },
        {
          "duration": 0.4550009479166661,
          "durationTicks": 455,
          "midi": 73,
          "name": "C#5",
          "ticks": 62880,
          "time": 62.880131,
          "velocity": 0.5039370078740157
        },
        {
          "duration": 1.3670028479166731,
          "durationTicks": 1367,
          "midi": 71,
          "name": "B4",
          "ticks": 63360,
          "time": 63.360132,
          "velocity": 0.5039370078740157
        },
        {
          "duration": 0.4550009479166732,
          "durationTicks": 455,
          "midi": 71,
          "name": "B4",
          "ticks": 64800,
          "time": 64.800135,
          "velocity": 0.5039370078740157
        },
        {
          "duration": 2.5070052229166606,
          "durationTicks": 2507,
          "midi": 70,
          "name": "A#4",
          "ticks": 65280,
          "time": 65.280136,
          "velocity": 0.5039370078740157
        },
        {
          "duration": 0.22700047291667147,
          "durationTicks": 227,
          "midi": 66,
          "name": "F#4",
          "ticks": 67920,
          "time": 67.9201415,
          "velocity": 0.5039370078740157
        },
        {
          "duration": 0.22700047291665726,
          "durationTicks": 227,
          "midi": 70,
          "name": "A#4",
          "ticks": 68160,
          "time": 68.16014200000001,
          "velocity": 0.5039370078740157
        },
        {
          "duration": 0.455000947916659,
          "durationTicks": 455,
          "midi": 71,
          "name": "B4",
          "ticks": 68400,
          "time": 68.4001425,
          "velocity": 0.5039370078740157
        },
        {
          "duration": 0.22700047291665726,
          "durationTicks": 227,
          "midi": 72,
          "name": "C5",
          "ticks": 68880,
          "time": 68.8801435,
          "velocity": 0.5039370078740157
        },
        {
          "duration": 0.9110018979166767,
          "durationTicks": 911,
          "midi": 73,
          "name": "C#5",
          "ticks": 69120,
          "time": 69.120144,
          "velocity": 0.5039370078740157
        },
        {
          "duration": 0.22700047291667147,
          "durationTicks": 227,
          "midi": 73,
          "name": "C#5",
          "ticks": 70080,
          "time": 70.080146,
          "velocity": 0.5039370078740157
        },
        {
          "duration": 0.22700047291665726,
          "durationTicks": 227,
          "midi": 76,
          "name": "E5",
          "ticks": 70320,
          "time": 70.3201465,
          "velocity": 0.5039370078740157
        },
        {
          "duration": 0.22700047291667147,
          "durationTicks": 227,
          "midi": 78,
          "name": "F#5",
          "ticks": 70560,
          "time": 70.560147,
          "velocity": 0.5039370078740157
        },
        {
          "duration": 0.22700047291665726,
          "durationTicks": 227,
          "midi": 76,
          "name": "E5",
          "ticks": 70800,
          "time": 70.80014750000001,
          "velocity": 0.5039370078740157
        },
        {
          "duration": 0.683001422916675,
          "durationTicks": 683,
          "midi": 78,
          "name": "F#5",
          "ticks": 71040,
          "time": 71.040148,
          "velocity": 0.5039370078740157
        },
        {
          "duration": 0.22700047291667147,
          "durationTicks": 227,
          "midi": 76,
          "name": "E5",
          "ticks": 71760,
          "time": 71.7601495,
          "velocity": 0.5039370078740157
        },
        {
          "duration": 0.455000947916659,
          "durationTicks": 455,
          "midi": 75,
          "name": "D#5",
          "ticks": 72000,
          "time": 72.00015,
          "velocity": 0.5039370078740157
        },
        {
          "duration": 0.22700047291665726,
          "durationTicks": 227,
          "midi": 76,
          "name": "E5",
          "ticks": 72480,
          "time": 72.480151,
          "velocity": 0.5039370078740157
        },
        {
          "duration": 0.22700047291667147,
          "durationTicks": 227,
          "midi": 78,
          "name": "F#5",
          "ticks": 72720,
          "time": 72.7201515,
          "velocity": 0.5039370078740157
        },
        {
          "duration": 0.22700047291665726,
          "durationTicks": 227,
          "midi": 76,
          "name": "E5",
          "ticks": 72960,
          "time": 72.96015200000001,
          "velocity": 0.5039370078740157
        },
        {
          "duration": 0.22700047291667147,
          "durationTicks": 227,
          "midi": 75,
          "name": "D#5",
          "ticks": 73200,
          "time": 73.2001525,
          "velocity": 0.5039370078740157
        },
        {
          "duration": 1.1390023729166785,
          "durationTicks": 1139,
          "midi": 73,
          "name": "C#5",
          "ticks": 73440,
          "time": 73.440153,
          "velocity": 0.5039370078740157
        },
        {
          "duration": 0.22700047291665726,
          "durationTicks": 227,
          "midi": 71,
          "name": "B4",
          "ticks": 74640,
          "time": 74.6401555,
          "velocity": 0.5039370078740157
        },
        {
          "duration": 0.683001422916675,
          "durationTicks": 683,
          "midi": 70,
          "name": "A#4",
          "ticks": 74880,
          "time": 74.880156,
          "velocity": 0.5039370078740157
        },
        {
          "duration": 0.22700047291665726,
          "durationTicks": 227,
          "midi": 66,
          "name": "F#4",
          "ticks": 75600,
          "time": 75.60015750000001,
          "velocity": 0.5039370078740157
        },
        {
          "duration": 0.22700047291665726,
          "durationTicks": 227,
          "midi": 70,
          "name": "A#4",
          "ticks": 75840,
          "time": 75.840158,
          "velocity": 0.5039370078740157
        },
        {
          "duration": 0.4550009479166732,
          "durationTicks": 455,
          "midi": 71,
          "name": "B4",
          "ticks": 76080,
          "time": 76.0801585,
          "velocity": 0.5039370078740157
        },
        {
          "duration": 0.22700047291667147,
          "durationTicks": 227,
          "midi": 72,
          "name": "C5",
          "ticks": 76560,
          "time": 76.5601595,
          "velocity": 0.5039370078740157
        },
        {
          "duration": 0.47900099791665696,
          "durationTicks": 479,
          "midi": 73,
          "name": "C#5",
          "ticks": 76800,
          "time": 76.80016,
          "velocity": 0.5984251968503937
        },
        {
          "duration": 0.47900099791665696,
          "durationTicks": 479,
          "midi": 73,
          "name": "C#5",
          "ticks": 77280,
          "time": 77.280161,
          "velocity": 0.5984251968503937
        },
        {
          "duration": 0.23900049791666333,
          "durationTicks": 239,
          "midi": 73,
          "name": "C#5",
          "ticks": 78000,
          "time": 78.0001625,
          "velocity": 0.5984251968503937
        },
        {
          "duration": 0.47900099791667117,
          "durationTicks": 479,
          "midi": 73,
          "name": "C#5",
          "ticks": 78240,
          "time": 78.240163,
          "velocity": 0.5984251968503937
        },
        {
          "duration": 0.22700047291667147,
          "durationTicks": 227,
          "midi": 76,
          "name": "E5",
          "ticks": 78720,
          "time": 78.720164,
          "velocity": 0.6299212598425197
        },
        {
          "duration": 0.11300023541666349,
          "durationTicks": 113,
          "midi": 73,
          "name": "C#5",
          "ticks": 78960,
          "time": 78.9601645,
          "velocity": 0.6299212598425197
        },
        {
          "duration": 0.11300023541666349,
          "durationTicks": 113,
          "midi": 76,
          "name": "E5",
          "ticks": 79080,
          "time": 79.08016475000001,
          "velocity": 0.6299212598425197
        },
        {
          "duration": 0.22700047291667147,
          "durationTicks": 227,
          "midi": 73,
          "name": "C#5",
          "ticks": 79200,
          "time": 79.200165,
          "velocity": 0.6299212598425197
        },
        {
          "duration": 0.22700047291665726,
          "durationTicks": 227,
          "midi": 76,
          "name": "E5",
          "ticks": 79440,
          "time": 79.4401655,
          "velocity": 0.6299212598425197
        },
        {
          "duration": 0.22700047291667147,
          "durationTicks": 227,
          "midi": 78,
          "name": "F#5",
          "ticks": 79680,
          "time": 79.680166,
          "velocity": 0.6299212598425197
        },
        {
          "duration": 0.22700047291665726,
          "durationTicks": 227,
          "midi": 78,
          "name": "F#5",
          "ticks": 79920,
          "time": 79.92016650000001,
          "velocity": 0.6299212598425197
        },
        {
          "duration": 0.455000947916659,
          "durationTicks": 455,
          "midi": 76,
          "name": "E5",
          "ticks": 80160,
          "time": 80.160167,
          "velocity": 0.6299212598425197
        },
        {
          "duration": 0.22700047291665726,
          "durationTicks": 227,
          "midi": 73,
          "name": "C#5",
          "ticks": 80640,
          "time": 80.640168,
          "velocity": 0.6299212598425197
        },
        {
          "duration": 0.22700047291667147,
          "durationTicks": 227,
          "midi": 73,
          "name": "C#5",
          "ticks": 80880,
          "time": 80.8801685,
          "velocity": 0.6299212598425197
        },
        {
          "duration": 0.22700047291665726,
          "durationTicks": 227,
          "midi": 75,
          "name": "D#5",
          "ticks": 81120,
          "time": 81.120169,
          "velocity": 0.6299212598425197
        },
        {
          "duration": 0.22700047291667147,
          "durationTicks": 227,
          "midi": 76,
          "name": "E5",
          "ticks": 81360,
          "time": 81.3601695,
          "velocity": 0.6299212598425197
        },
        {
          "duration": 0.22700047291665726,
          "durationTicks": 227,
          "midi": 78,
          "name": "F#5",
          "ticks": 81600,
          "time": 81.60017,
          "velocity": 0.6299212598425197
        },
        {
          "duration": 0.22700047291667147,
          "durationTicks": 227,
          "midi": 78,
          "name": "F#5",
          "ticks": 81840,
          "time": 81.8401705,
          "velocity": 0.6299212598425197
        },
        {
          "duration": 0.455000947916659,
          "durationTicks": 455,
          "midi": 78,
          "name": "F#5",
          "ticks": 82080,
          "time": 82.080171,
          "velocity": 0.6299212598425197
        },
        {
          "duration": 0.22700047291665726,
          "durationTicks": 227,
          "midi": 76,
          "name": "E5",
          "ticks": 82560,
          "time": 82.56017200000001,
          "velocity": 0.6299212598425197
        },
        {
          "duration": 0.1130002354166777,
          "durationTicks": 113,
          "midi": 75,
          "name": "D#5",
          "ticks": 82800,
          "time": 82.8001725,
          "velocity": 0.6299212598425197
        },
        {
          "duration": 0.11300023541666349,
          "durationTicks": 113,
          "midi": 73,
          "name": "C#5",
          "ticks": 82920,
          "time": 82.92017275,
          "velocity": 0.6299212598425197
        },
        {
          "duration": 0.1130002354166777,
          "durationTicks": 113,
          "midi": 75,
          "name": "D#5",
          "ticks": 83040,
          "time": 83.040173,
          "velocity": 0.6299212598425197
        },
        {
          "duration": 0.1130002354166777,
          "durationTicks": 113,
          "midi": 76,
          "name": "E5",
          "ticks": 83160,
          "time": 83.16017325,
          "velocity": 0.6299212598425197
        },
        {
          "duration": 0.22700047291665726,
          "durationTicks": 227,
          "midi": 78,
          "name": "F#5",
          "ticks": 83280,
          "time": 83.2801735,
          "velocity": 0.6299212598425197
        },
        {
          "duration": 0.22700047291667147,
          "durationTicks": 227,
          "midi": 76,
          "name": "E5",
          "ticks": 83520,
          "time": 83.520174,
          "velocity": 0.6299212598425197
        },
        {
          "duration": 0.11300023541666349,
          "durationTicks": 113,
          "midi": 75,
          "name": "D#5",
          "ticks": 83760,
          "time": 83.7601745,
          "velocity": 0.6299212598425197
        },
        {
          "duration": 0.11300023541666349,
          "durationTicks": 113,
          "midi": 73,
          "name": "C#5",
          "ticks": 83880,
          "time": 83.88017475000001,
          "velocity": 0.6299212598425197
        },
        {
          "duration": 0.22700047291667147,
          "durationTicks": 227,
          "midi": 75,
          "name": "D#5",
          "ticks": 84000,
          "time": 84.000175,
          "velocity": 0.6299212598425197
        },
        {
          "duration": 0.22700047291665726,
          "durationTicks": 227,
          "midi": 71,
          "name": "B4",
          "ticks": 84240,
          "time": 84.2401755,
          "velocity": 0.6299212598425197
        },
        {
          "duration": 0.1130002354166777,
          "durationTicks": 113,
          "midi": 76,
          "name": "E5",
          "ticks": 84480,
          "time": 84.480176,
          "velocity": 0.6299212598425197
        },
        {
          "duration": 0.1130002354166777,
          "durationTicks": 113,
          "midi": 78,
          "name": "F#5",
          "ticks": 84600,
          "time": 84.60017625,
          "velocity": 0.6299212598425197
        },
        {
          "duration": 0.22700047291665726,
          "durationTicks": 227,
          "midi": 75,
          "name": "D#5",
          "ticks": 84720,
          "time": 84.72017650000001,
          "velocity": 0.6299212598425197
        },
        {
          "duration": 0.22700047291667147,
          "durationTicks": 227,
          "midi": 76,
          "name": "E5",
          "ticks": 84960,
          "time": 84.960177,
          "velocity": 0.6299212598425197
        },
        {
          "duration": 0.22700047291667147,
          "durationTicks": 227,
          "midi": 73,
          "name": "C#5",
          "ticks": 85200,
          "time": 85.2001775,
          "velocity": 0.6299212598425197
        },
        {
          "duration": 0.1130002354166777,
          "durationTicks": 113,
          "midi": 75,
          "name": "D#5",
          "ticks": 85440,
          "time": 85.440178,
          "velocity": 0.6299212598425197
        },
        {
          "duration": 0.11300023541666349,
          "durationTicks": 113,
          "midi": 75,
          "name": "D#5",
          "ticks": 85560,
          "time": 85.56017825,
          "velocity": 0.6299212598425197
        },
        {
          "duration": 0.1130002354166777,
          "durationTicks": 113,
          "midi": 78,
          "name": "F#5",
          "ticks": 85680,
          "time": 85.6801785,
          "velocity": 0.6299212598425197
        },
        {
          "duration": 0.1130002354166777,
          "durationTicks": 113,
          "midi": 75,
          "name": "D#5",
          "ticks": 85800,
          "time": 85.80017875,
          "velocity": 0.6299212598425197
        },
        {
          "duration": 0.22700047291665726,
          "durationTicks": 227,
          "midi": 76,
          "name": "E5",
          "ticks": 85920,
          "time": 85.920179,
          "velocity": 0.6299212598425197
        },
        {
          "duration": 0.22700047291667147,
          "durationTicks": 227,
          "midi": 73,
          "name": "C#5",
          "ticks": 86160,
          "time": 86.1601795,
          "velocity": 0.6299212598425197
        },
        {
          "duration": 0.22700047291665726,
          "durationTicks": 227,
          "midi": 76,
          "name": "E5",
          "ticks": 86400,
          "time": 86.40018,
          "velocity": 0.6299212598425197
        },
        {
          "duration": 0.1130002354166777,
          "durationTicks": 113,
          "midi": 73,
          "name": "C#5",
          "ticks": 86640,
          "time": 86.6401805,
          "velocity": 0.6299212598425197
        },
        {
          "duration": 0.1130002354166777,
          "durationTicks": 113,
          "midi": 76,
          "name": "E5",
          "ticks": 86760,
          "time": 86.76018075,
          "velocity": 0.6299212598425197
        },
        {
          "duration": 0.22700047291665726,
          "durationTicks": 227,
          "midi": 73,
          "name": "C#5",
          "ticks": 86880,
          "time": 86.88018100000001,
          "velocity": 0.6299212598425197
        },
        {
          "duration": 0.22700047291667147,
          "durationTicks": 227,
          "midi": 76,
          "name": "E5",
          "ticks": 87120,
          "time": 87.1201815,
          "velocity": 0.6299212598425197
        },
        {
          "duration": 0.22700047291665726,
          "durationTicks": 227,
          "midi": 78,
          "name": "F#5",
          "ticks": 87360,
          "time": 87.36018200000001,
          "velocity": 0.6299212598425197
        },
        {
          "duration": 0.22700047291665726,
          "durationTicks": 227,
          "midi": 78,
          "name": "F#5",
          "ticks": 87600,
          "time": 87.6001825,
          "velocity": 0.6299212598425197
        },
        {
          "duration": 0.4550009479166732,
          "durationTicks": 455,
          "midi": 76,
          "name": "E5",
          "ticks": 87840,
          "time": 87.840183,
          "velocity": 0.6299212598425197
        },
        {
          "duration": 0.22700047291667147,
          "durationTicks": 227,
          "midi": 73,
          "name": "C#5",
          "ticks": 88320,
          "time": 88.320184,
          "velocity": 0.6299212598425197
        },
        {
          "duration": 0.22700047291665726,
          "durationTicks": 227,
          "midi": 73,
          "name": "C#5",
          "ticks": 88560,
          "time": 88.5601845,
          "velocity": 0.6299212598425197
        },
        {
          "duration": 0.22700047291667147,
          "durationTicks": 227,
          "midi": 75,
          "name": "D#5",
          "ticks": 88800,
          "time": 88.800185,
          "velocity": 0.6299212598425197
        },
        {
          "duration": 0.22700047291665726,
          "durationTicks": 227,
          "midi": 76,
          "name": "E5",
          "ticks": 89040,
          "time": 89.0401855,
          "velocity": 0.6299212598425197
        },
        {
          "duration": 0.22700047291667147,
          "durationTicks": 227,
          "midi": 78,
          "name": "F#5",
          "ticks": 89280,
          "time": 89.280186,
          "velocity": 0.6299212598425197
        },
        {
          "duration": 0.22700047291665726,
          "durationTicks": 227,
          "midi": 78,
          "name": "F#5",
          "ticks": 89520,
          "time": 89.52018650000001,
          "velocity": 0.6299212598425197
        },
        {
          "duration": 0.455000947916659,
          "durationTicks": 455,
          "midi": 78,
          "name": "F#5",
          "ticks": 89760,
          "time": 89.760187,
          "velocity": 0.6299212598425197
        },
        {
          "duration": 0.22700047291665726,
          "durationTicks": 227,
          "midi": 76,
          "name": "E5",
          "ticks": 90240,
          "time": 90.240188,
          "velocity": 0.6299212598425197
        },
        {
          "duration": 0.1130002354166777,
          "durationTicks": 113,
          "midi": 75,
          "name": "D#5",
          "ticks": 90480,
          "time": 90.4801885,
          "velocity": 0.6299212598425197
        },
        {
          "duration": 0.1130002354166777,
          "durationTicks": 113,
          "midi": 73,
          "name": "C#5",
          "ticks": 90600,
          "time": 90.60018875,
          "velocity": 0.6299212598425197
        },
        {
          "duration": 0.11300023541666349,
          "durationTicks": 113,
          "midi": 75,
          "name": "D#5",
          "ticks": 90720,
          "time": 90.720189,
          "velocity": 0.6299212598425197
        },
        {
          "duration": 0.11300023541666349,
          "durationTicks": 113,
          "midi": 76,
          "name": "E5",
          "ticks": 90840,
          "time": 90.84018925000001,
          "velocity": 0.6299212598425197
        },
        {
          "duration": 0.22700047291667147,
          "durationTicks": 227,
          "midi": 78,
          "name": "F#5",
          "ticks": 90960,
          "time": 90.9601895,
          "velocity": 0.6299212598425197
        },
        {
          "duration": 0.22700047291665726,
          "durationTicks": 227,
          "midi": 76,
          "name": "E5",
          "ticks": 91200,
          "time": 91.20019,
          "velocity": 0.6299212598425197
        },
        {
          "duration": 0.1130002354166777,
          "durationTicks": 113,
          "midi": 75,
          "name": "D#5",
          "ticks": 91440,
          "time": 91.4401905,
          "velocity": 0.6299212598425197
        },
        {
          "duration": 0.1130002354166777,
          "durationTicks": 113,
          "midi": 73,
          "name": "C#5",
          "ticks": 91560,
          "time": 91.56019075,
          "velocity": 0.6299212598425197
        },
        {
          "duration": 0.22700047291665726,
          "durationTicks": 227,
          "midi": 75,
          "name": "D#5",
          "ticks": 91680,
          "time": 91.68019100000001,
          "velocity": 0.6299212598425197
        },
        {
          "duration": 0.22700047291667147,
          "durationTicks": 227,
          "midi": 71,
          "name": "B4",
          "ticks": 91920,
          "time": 91.9201915,
          "velocity": 0.6299212598425197
        },
        {
          "duration": 0.1130002354166777,
          "durationTicks": 113,
          "midi": 76,
          "name": "E5",
          "ticks": 92160,
          "time": 92.160192,
          "velocity": 0.6299212598425197
        },
        {
          "duration": 0.1130002354166777,
          "durationTicks": 113,
          "midi": 78,
          "name": "F#5",
          "ticks": 92280,
          "time": 92.28019225,
          "velocity": 0.6299212598425197
        },
        {
          "duration": 0.22700047291665726,
          "durationTicks": 227,
          "midi": 75,
          "name": "D#5",
          "ticks": 92400,
          "time": 92.4001925,
          "velocity": 0.6299212598425197
        },
        {
          "duration": 0.22700047291667147,
          "durationTicks": 227,
          "midi": 76,
          "name": "E5",
          "ticks": 92640,
          "time": 92.640193,
          "velocity": 0.6299212598425197
        },
        {
          "duration": 0.22700047291665726,
          "durationTicks": 227,
          "midi": 73,
          "name": "C#5",
          "ticks": 92880,
          "time": 92.8801935,
          "velocity": 0.6299212598425197
        },
        {
          "duration": 0.1130002354166777,
          "durationTicks": 113,
          "midi": 75,
          "name": "D#5",
          "ticks": 93120,
          "time": 93.120194,
          "velocity": 0.6299212598425197
        },
        {
          "duration": 0.1130002354166777,
          "durationTicks": 113,
          "midi": 75,
          "name": "D#5",
          "ticks": 93240,
          "time": 93.24019425,
          "velocity": 0.6299212598425197
        },
        {
          "duration": 0.11300023541666349,
          "durationTicks": 113,
          "midi": 78,
          "name": "F#5",
          "ticks": 93360,
          "time": 93.3601945,
          "velocity": 0.6299212598425197
        },
        {
          "duration": 0.1130002354166777,
          "durationTicks": 113,
          "midi": 75,
          "name": "D#5",
          "ticks": 93480,
          "time": 93.48019475,
          "velocity": 0.6299212598425197
        },
        {
          "duration": 0.22700047291667147,
          "durationTicks": 227,
          "midi": 78,
          "name": "F#5",
          "ticks": 93600,
          "time": 93.600195,
          "velocity": 0.6299212598425197
        },
        {
          "duration": 0.22700047291665726,
          "durationTicks": 227,
          "midi": 78,
          "name": "F#5",
          "ticks": 93840,
          "time": 93.84019550000001,
          "velocity": 0.6299212598425197
        },
        {
          "duration": 0.1130002354166777,
          "durationTicks": 113,
          "midi": 76,
          "name": "E5",
          "ticks": 94080,
          "time": 94.080196,
          "velocity": 0.6299212598425197
        },
        {
          "duration": 0.11300023541666349,
          "durationTicks": 113,
          "midi": 73,
          "name": "C#5",
          "ticks": 94200,
          "time": 94.20019625,
          "velocity": 0.6299212598425197
        },
        {
          "duration": 0.11300023541666349,
          "durationTicks": 113,
          "midi": 76,
          "name": "E5",
          "ticks": 94320,
          "time": 94.32019650000001,
          "velocity": 0.6299212598425197
        },
        {
          "duration": 0.1130002354166777,
          "durationTicks": 113,
          "midi": 73,
          "name": "C#5",
          "ticks": 94440,
          "time": 94.44019675,
          "velocity": 0.6299212598425197
        },
        {
          "duration": 0.1130002354166777,
          "durationTicks": 113,
          "midi": 78,
          "name": "F#5",
          "ticks": 94560,
          "time": 94.560197,
          "velocity": 0.6299212598425197
        },
        {
          "duration": 0.11300023541666349,
          "durationTicks": 113,
          "midi": 73,
          "name": "C#5",
          "ticks": 94680,
          "time": 94.68019725,
          "velocity": 0.6299212598425197
        },
        {
          "duration": 0.1130002354166777,
          "durationTicks": 113,
          "midi": 76,
          "name": "E5",
          "ticks": 94800,
          "time": 94.8001975,
          "velocity": 0.6299212598425197
        },
        {
          "duration": 0.1130002354166777,
          "durationTicks": 113,
          "midi": 73,
          "name": "C#5",
          "ticks": 94920,
          "time": 94.92019775,
          "velocity": 0.6299212598425197
        },
        {
          "duration": 0.1130002354166777,
          "durationTicks": 113,
          "midi": 78,
          "name": "F#5",
          "ticks": 95040,
          "time": 95.040198,
          "velocity": 0.6299212598425197
        },
        {
          "duration": 0.11300023541666349,
          "durationTicks": 113,
          "midi": 73,
          "name": "C#5",
          "ticks": 95160,
          "time": 95.16019825000001,
          "velocity": 0.6299212598425197
        },
        {
          "duration": 0.1130002354166777,
          "durationTicks": 113,
          "midi": 76,
          "name": "E5",
          "ticks": 95280,
          "time": 95.2801985,
          "velocity": 0.6299212598425197
        },
        {
          "duration": 0.1130002354166777,
          "durationTicks": 113,
          "midi": 73,
          "name": "C#5",
          "ticks": 95400,
          "time": 95.40019875,
          "velocity": 0.6299212598425197
        },
        {
          "duration": 0.11300023541666349,
          "durationTicks": 113,
          "midi": 78,
          "name": "F#5",
          "ticks": 95520,
          "time": 95.520199,
          "velocity": 0.6299212598425197
        },
        {
          "duration": 0.11300023541666349,
          "durationTicks": 113,
          "midi": 73,
          "name": "C#5",
          "ticks": 95640,
          "time": 95.64019925000001,
          "velocity": 0.6299212598425197
        },
        {
          "duration": 0.1130002354166777,
          "durationTicks": 113,
          "midi": 76,
          "name": "E5",
          "ticks": 95760,
          "time": 95.7601995,
          "velocity": 0.6299212598425197
        },
        {
          "duration": 0.1130002354166777,
          "durationTicks": 113,
          "midi": 73,
          "name": "C#5",
          "ticks": 95880,
          "time": 95.88019975,
          "velocity": 0.6299212598425197
        },
        {
          "duration": 0.11300023541666349,
          "durationTicks": 113,
          "midi": 75,
          "name": "D#5",
          "ticks": 96000,
          "time": 96.0002,
          "velocity": 0.6299212598425197
        },
        {
          "duration": 0.1130002354166777,
          "durationTicks": 113,
          "midi": 71,
          "name": "B4",
          "ticks": 96120,
          "time": 96.12020025,
          "velocity": 0.6299212598425197
        },
        {
          "duration": 0.1130002354166777,
          "durationTicks": 113,
          "midi": 75,
          "name": "D#5",
          "ticks": 96240,
          "time": 96.2402005,
          "velocity": 0.6299212598425197
        },
        {
          "duration": 0.1130002354166777,
          "durationTicks": 113,
          "midi": 71,
          "name": "B4",
          "ticks": 96360,
          "time": 96.36020075,
          "velocity": 0.6299212598425197
        },
        {
          "duration": 0.11300023541666349,
          "durationTicks": 113,
          "midi": 76,
          "name": "E5",
          "ticks": 96480,
          "time": 96.48020100000001,
          "velocity": 0.6299212598425197
        },
        {
          "duration": 0.1130002354166777,
          "durationTicks": 113,
          "midi": 71,
          "name": "B4",
          "ticks": 96600,
          "time": 96.60020125,
          "velocity": 0.6299212598425197
        },
        {
          "duration": 0.1130002354166777,
          "durationTicks": 113,
          "midi": 76,
          "name": "E5",
          "ticks": 96720,
          "time": 96.7202015,
          "velocity": 0.6299212598425197
        },
        {
          "duration": 0.11300023541666349,
          "durationTicks": 113,
          "midi": 71,
          "name": "B4",
          "ticks": 96840,
          "time": 96.84020175,
          "velocity": 0.6299212598425197
        },
        {
          "duration": 0.1130002354166777,
          "durationTicks": 113,
          "midi": 78,
          "name": "F#5",
          "ticks": 96960,
          "time": 96.960202,
          "velocity": 0.6299212598425197
        },
        {
          "duration": 0.1130002354166777,
          "durationTicks": 113,
          "midi": 71,
          "name": "B4",
          "ticks": 97080,
          "time": 97.08020225,
          "velocity": 0.6299212598425197
        },
        {
          "duration": 0.1130002354166777,
          "durationTicks": 113,
          "midi": 78,
          "name": "F#5",
          "ticks": 97200,
          "time": 97.2002025,
          "velocity": 0.6299212598425197
        },
        {
          "duration": 0.11300023541666349,
          "durationTicks": 113,
          "midi": 71,
          "name": "B4",
          "ticks": 97320,
          "time": 97.32020275,
          "velocity": 0.6299212598425197
        },
        {
          "duration": 0.1130002354166777,
          "durationTicks": 113,
          "midi": 78,
          "name": "F#5",
          "ticks": 97440,
          "time": 97.440203,
          "velocity": 0.6299212598425197
        },
        {
          "duration": 0.1130002354166777,
          "durationTicks": 113,
          "midi": 71,
          "name": "B4",
          "ticks": 97560,
          "time": 97.56020325,
          "velocity": 0.6299212598425197
        },
        {
          "duration": 0.1130002354166777,
          "durationTicks": 113,
          "midi": 76,
          "name": "E5",
          "ticks": 97680,
          "time": 97.6802035,
          "velocity": 0.6299212598425197
        },
        {
          "duration": 0.11300023541666349,
          "durationTicks": 113,
          "midi": 71,
          "name": "B4",
          "ticks": 97800,
          "time": 97.80020375000001,
          "velocity": 0.6299212598425197
        },
        {
          "duration": 0.1130002354166777,
          "durationTicks": 113,
          "midi": 70,
          "name": "A#4",
          "ticks": 97920,
          "time": 97.920204,
          "velocity": 0.6299212598425197
        },
        {
          "duration": 0.1130002354166777,
          "durationTicks": 113,
          "midi": 66,
          "name": "F#4",
          "ticks": 98040,
          "time": 98.04020425,
          "velocity": 0.6299212598425197
        },
        {
          "duration": 0.11300023541666349,
          "durationTicks": 113,
          "midi": 70,
          "name": "A#4",
          "ticks": 98160,
          "time": 98.1602045,
          "velocity": 0.6299212598425197
        },
        {
          "duration": 0.1130002354166777,
          "durationTicks": 113,
          "midi": 66,
          "name": "F#4",
          "ticks": 98280,
          "time": 98.28020475,
          "velocity": 0.6299212598425197
        },
        {
          "duration": 0.1130002354166777,
          "durationTicks": 113,
          "midi": 73,
          "name": "C#5",
          "ticks": 98400,
          "time": 98.400205,
          "velocity": 0.6299212598425197
        },
        {
          "duration": 0.1130002354166777,
          "durationTicks": 113,
          "midi": 66,
          "name": "F#4",
          "ticks": 98520,
          "time": 98.52020525,
          "velocity": 0.6299212598425197
        },
        {
          "duration": 0.11300023541666349,
          "durationTicks": 113,
          "midi": 70,
          "name": "A#4",
          "ticks": 98640,
          "time": 98.64020550000001,
          "velocity": 0.6299212598425197
        },
        {
          "duration": 0.1130002354166777,
          "durationTicks": 113,
          "midi": 66,
          "name": "F#4",
          "ticks": 98760,
          "time": 98.76020575,
          "velocity": 0.6299212598425197
        },
        {
          "duration": 0.1130002354166777,
          "durationTicks": 113,
          "midi": 71,
          "name": "B4",
          "ticks": 98880,
          "time": 98.880206,
          "velocity": 0.6299212598425197
        },
        {
          "duration": 0.11300023541666349,
          "durationTicks": 113,
          "midi": 66,
          "name": "F#4",
          "ticks": 99000,
          "time": 99.00020625,
          "velocity": 0.6299212598425197
        },
        {
          "duration": 0.11300023541666349,
          "durationTicks": 113,
          "midi": 70,
          "name": "A#4",
          "ticks": 99120,
          "time": 99.12020650000001,
          "velocity": 0.6299212598425197
        },
        {
          "duration": 0.1130002354166777,
          "durationTicks": 113,
          "midi": 66,
          "name": "F#4",
          "ticks": 99240,
          "time": 99.24020675,
          "velocity": 0.6299212598425197
        },
        {
          "duration": 0.455000947916659,
          "durationTicks": 455,
          "midi": 73,
          "name": "C#5",
          "ticks": 99360,
          "time": 99.360207,
          "velocity": 0.6299212598425197
        },
        {
          "duration": 0.22700047291665726,
          "durationTicks": 227,
          "midi": 66,
          "name": "F#4",
          "ticks": 99840,
          "time": 99.840208,
          "velocity": 0.6299212598425197
        },
        {
          "duration": 0.22700047291667147,
          "durationTicks": 227,
          "midi": 70,
          "name": "A#4",
          "ticks": 100080,
          "time": 100.0802085,
          "velocity": 0.6299212598425197
        },
        {
          "duration": 0.22700047291665726,
          "durationTicks": 227,
          "midi": 73,
          "name": "C#5",
          "ticks": 100320,
          "time": 100.320209,
          "velocity": 0.6299212598425197
        },
        {
          "duration": 0.1130002354166777,
          "durationTicks": 113,
          "midi": 71,
          "name": "B4",
          "ticks": 100560,
          "time": 100.5602095,
          "velocity": 0.6299212598425197
        },
        {
          "duration": 0.34100071041666524,
          "durationTicks": 341,
          "midi": 70,
          "name": "A#4",
          "ticks": 100680,
          "time": 100.68020975,
          "velocity": 0.6299212598425197
        },
        {
          "duration": 0.22700047291667147,
          "durationTicks": 227,
          "midi": 71,
          "name": "B4",
          "ticks": 101040,
          "time": 101.0402105,
          "velocity": 0.6299212598425197
        },
        {
          "duration": 0.22700047291665726,
          "durationTicks": 227,
          "midi": 70,
          "name": "A#4",
          "ticks": 101280,
          "time": 101.28021100000001,
          "velocity": 0.6299212598425197
        },
        {
          "duration": 0.22700047291667147,
          "durationTicks": 227,
          "midi": 68,
          "name": "G#4",
          "ticks": 101520,
          "time": 101.5202115,
          "velocity": 0.6299212598425197
        },
        {
          "duration": 0.1130002354166777,
          "durationTicks": 113,
          "midi": 76,
          "name": "E5",
          "ticks": 101760,
          "time": 101.760212,
          "velocity": 0.6299212598425197
        },
        {
          "duration": 0.1130002354166777,
          "durationTicks": 113,
          "midi": 73,
          "name": "C#5",
          "ticks": 101880,
          "time": 101.88021225,
          "velocity": 0.6299212598425197
        },
        {
          "duration": 0.1130002354166777,
          "durationTicks": 113,
          "midi": 76,
          "name": "E5",
          "ticks": 102000,
          "time": 102.0002125,
          "velocity": 0.6299212598425197
        },
        {
          "duration": 0.11300023541666349,
          "durationTicks": 113,
          "midi": 73,
          "name": "C#5",
          "ticks": 102120,
          "time": 102.12021275000001,
          "velocity": 0.6299212598425197
        },
        {
          "duration": 0.1130002354166777,
          "durationTicks": 113,
          "midi": 78,
          "name": "F#5",
          "ticks": 102240,
          "time": 102.240213,
          "velocity": 0.6299212598425197
        },
        {
          "duration": 0.1130002354166777,
          "durationTicks": 113,
          "midi": 73,
          "name": "C#5",
          "ticks": 102360,
          "time": 102.36021325,
          "velocity": 0.6299212598425197
        },
        {
          "duration": 0.11300023541666349,
          "durationTicks": 113,
          "midi": 76,
          "name": "E5",
          "ticks": 102480,
          "time": 102.4802135,
          "velocity": 0.6299212598425197
        },
        {
          "duration": 0.11300023541666349,
          "durationTicks": 113,
          "midi": 73,
          "name": "C#5",
          "ticks": 102600,
          "time": 102.60021375000001,
          "velocity": 0.6299212598425197
        },
        {
          "duration": 0.1130002354166777,
          "durationTicks": 113,
          "midi": 78,
          "name": "F#5",
          "ticks": 102720,
          "time": 102.720214,
          "velocity": 0.6299212598425197
        },
        {
          "duration": 0.1130002354166777,
          "durationTicks": 113,
          "midi": 73,
          "name": "C#5",
          "ticks": 102840,
          "time": 102.84021425,
          "velocity": 0.6299212598425197
        },
        {
          "duration": 0.11300023541666349,
          "durationTicks": 113,
          "midi": 76,
          "name": "E5",
          "ticks": 102960,
          "time": 102.9602145,
          "velocity": 0.6299212598425197
        },
        {
          "duration": 0.1130002354166777,
          "durationTicks": 113,
          "midi": 73,
          "name": "C#5",
          "ticks": 103080,
          "time": 103.08021475,
          "velocity": 0.6299212598425197
        },
        {
          "duration": 0.1130002354166777,
          "durationTicks": 113,
          "midi": 78,
          "name": "F#5",
          "ticks": 103200,
          "time": 103.200215,
          "velocity": 0.6299212598425197
        },
        {
          "duration": 0.1130002354166777,
          "durationTicks": 113,
          "midi": 73,
          "name": "C#5",
          "ticks": 103320,
          "time": 103.32021525,
          "velocity": 0.6299212598425197
        },
        {
          "duration": 0.11300023541666349,
          "durationTicks": 113,
          "midi": 76,
          "name": "E5",
          "ticks": 103440,
          "time": 103.44021550000001,
          "velocity": 0.6299212598425197
        },
        {
          "duration": 0.1130002354166777,
          "durationTicks": 113,
          "midi": 73,
          "name": "C#5",
          "ticks": 103560,
          "time": 103.56021575,
          "velocity": 0.6299212598425197
        },
        {
          "duration": 0.1130002354166777,
          "durationTicks": 113,
          "midi": 75,
          "name": "D#5",
          "ticks": 103680,
          "time": 103.680216,
          "velocity": 0.6299212598425197
        },
        {
          "duration": 0.11300023541666349,
          "durationTicks": 113,
          "midi": 71,
          "name": "B4",
          "ticks": 103800,
          "time": 103.80021625,
          "velocity": 0.6299212598425197
        },
        {
          "duration": 0.11300023541666349,
          "durationTicks": 113,
          "midi": 75,
          "name": "D#5",
          "ticks": 103920,
          "time": 103.92021650000001,
          "velocity": 0.6299212598425197
        },
        {
          "duration": 0.1130002354166777,
          "durationTicks": 113,
          "midi": 71,
          "name": "B4",
          "ticks": 104040,
          "time": 104.04021675,
          "velocity": 0.6299212598425197
        },
        {
          "duration": 0.1130002354166777,
          "durationTicks": 113,
          "midi": 76,
          "name": "E5",
          "ticks": 104160,
          "time": 104.160217,
          "velocity": 0.6299212598425197
        },
        {
          "duration": 0.11300023541666349,
          "durationTicks": 113,
          "midi": 71,
          "name": "B4",
          "ticks": 104280,
          "time": 104.28021725,
          "velocity": 0.6299212598425197
        },
        {
          "duration": 0.1130002354166777,
          "durationTicks": 113,
          "midi": 76,
          "name": "E5",
          "ticks": 104400,
          "time": 104.4002175,
          "velocity": 0.6299212598425197
        },
        {
          "duration": 0.1130002354166777,
          "durationTicks": 113,
          "midi": 71,
          "name": "B4",
          "ticks": 104520,
          "time": 104.52021775,
          "velocity": 0.6299212598425197
        },
        {
          "duration": 0.1130002354166777,
          "durationTicks": 113,
          "midi": 78,
          "name": "F#5",
          "ticks": 104640,
          "time": 104.640218,
          "velocity": 0.6299212598425197
        },
        {
          "duration": 0.11300023541666349,
          "durationTicks": 113,
          "midi": 71,
          "name": "B4",
          "ticks": 104760,
          "time": 104.76021825000001,
          "velocity": 0.6299212598425197
        },
        {
          "duration": 0.1130002354166777,
          "durationTicks": 113,
          "midi": 78,
          "name": "F#5",
          "ticks": 104880,
          "time": 104.8802185,
          "velocity": 0.6299212598425197
        },
        {
          "duration": 0.1130002354166777,
          "durationTicks": 113,
          "midi": 71,
          "name": "B4",
          "ticks": 105000,
          "time": 105.00021875,
          "velocity": 0.6299212598425197
        },
        {
          "duration": 0.11300023541666349,
          "durationTicks": 113,
          "midi": 78,
          "name": "F#5",
          "ticks": 105120,
          "time": 105.120219,
          "velocity": 0.6299212598425197
        },
        {
          "duration": 0.1130002354166777,
          "durationTicks": 113,
          "midi": 71,
          "name": "B4",
          "ticks": 105240,
          "time": 105.24021925,
          "velocity": 0.6299212598425197
        },
        {
          "duration": 0.1130002354166777,
          "durationTicks": 113,
          "midi": 76,
          "name": "E5",
          "ticks": 105360,
          "time": 105.3602195,
          "velocity": 0.6299212598425197
        },
        {
          "duration": 0.1130002354166777,
          "durationTicks": 113,
          "midi": 71,
          "name": "B4",
          "ticks": 105480,
          "time": 105.48021975,
          "velocity": 0.6299212598425197
        },
        {
          "duration": 0.11300023541666349,
          "durationTicks": 113,
          "midi": 70,
          "name": "A#4",
          "ticks": 105600,
          "time": 105.60022000000001,
          "velocity": 0.6299212598425197
        },
        {
          "duration": 0.1130002354166777,
          "durationTicks": 113,
          "midi": 66,
          "name": "F#4",
          "ticks": 105720,
          "time": 105.72022025,
          "velocity": 0.6299212598425197
        },
        {
          "duration": 0.1130002354166777,
          "durationTicks": 113,
          "midi": 70,
          "name": "A#4",
          "ticks": 105840,
          "time": 105.8402205,
          "velocity": 0.6299212598425197
        },
        {
          "duration": 0.1130002354166777,
          "durationTicks": 113,
          "midi": 66,
          "name": "F#4",
          "ticks": 105960,
          "time": 105.96022075,
          "velocity": 0.6299212598425197
        },
        {
          "duration": 0.11300023541666349,
          "durationTicks": 113,
          "midi": 73,
          "name": "C#5",
          "ticks": 106080,
          "time": 106.08022100000001,
          "velocity": 0.6299212598425197
        },
        {
          "duration": 0.1130002354166777,
          "durationTicks": 113,
          "midi": 66,
          "name": "F#4",
          "ticks": 106200,
          "time": 106.20022125,
          "velocity": 0.6299212598425197
        },
        {
          "duration": 0.1130002354166777,
          "durationTicks": 113,
          "midi": 70,
          "name": "A#4",
          "ticks": 106320,
          "time": 106.3202215,
          "velocity": 0.6299212598425197
        },
        {
          "duration": 0.11300023541666349,
          "durationTicks": 113,
          "midi": 66,
          "name": "F#4",
          "ticks": 106440,
          "time": 106.44022175,
          "velocity": 0.6299212598425197
        },
        {
          "duration": 0.1130002354166777,
          "durationTicks": 113,
          "midi": 71,
          "name": "B4",
          "ticks": 106560,
          "time": 106.560222,
          "velocity": 0.6299212598425197
        },
        {
          "duration": 0.1130002354166777,
          "durationTicks": 113,
          "midi": 66,
          "name": "F#4",
          "ticks": 106680,
          "time": 106.68022225,
          "velocity": 0.6299212598425197
        },
        {
          "duration": 0.1130002354166777,
          "durationTicks": 113,
          "midi": 70,
          "name": "A#4",
          "ticks": 106800,
          "time": 106.8002225,
          "velocity": 0.6299212598425197
        },
        {
          "duration": 0.11300023541666349,
          "durationTicks": 113,
          "midi": 66,
          "name": "F#4",
          "ticks": 106920,
          "time": 106.92022275000001,
          "velocity": 0.6299212598425197
        },
        {
          "duration": 0.4550009479166732,
          "durationTicks": 455,
          "midi": 73,
          "name": "C#5",
          "ticks": 107040,
          "time": 107.040223,
          "velocity": 0.6299212598425197
        },
        {
          "duration": 0.22700047291667147,
          "durationTicks": 227,
          "midi": 66,
          "name": "F#4",
          "ticks": 107520,
          "time": 107.520224,
          "velocity": 0.6299212598425197
        },
        {
          "duration": 0.22700047291665726,
          "durationTicks": 227,
          "midi": 70,
          "name": "A#4",
          "ticks": 107760,
          "time": 107.7602245,
          "velocity": 0.6299212598425197
        },
        {
          "duration": 0.22700047291667147,
          "durationTicks": 227,
          "midi": 73,
          "name": "C#5",
          "ticks": 108000,
          "time": 108.000225,
          "velocity": 0.6299212598425197
        },
        {
          "duration": 0.11300023541666349,
          "durationTicks": 113,
          "midi": 71,
          "name": "B4",
          "ticks": 108240,
          "time": 108.24022550000001,
          "velocity": 0.6299212598425197
        },
        {
          "duration": 0.34100071041667945,
          "durationTicks": 341,
          "midi": 70,
          "name": "A#4",
          "ticks": 108360,
          "time": 108.36022575,
          "velocity": 0.6299212598425197
        },
        {
          "duration": 0.22700047291667147,
          "durationTicks": 227,
          "midi": 71,
          "name": "B4",
          "ticks": 108720,
          "time": 108.7202265,
          "velocity": 0.6299212598425197
        },
        {
          "duration": 0.22700047291665726,
          "durationTicks": 227,
          "midi": 70,
          "name": "A#4",
          "ticks": 108960,
          "time": 108.960227,
          "velocity": 0.6299212598425197
        },
        {
          "duration": 0.22700047291667147,
          "durationTicks": 227,
          "midi": 68,
          "name": "G#4",
          "ticks": 109200,
          "time": 109.2002275,
          "velocity": 0.6299212598425197
        },
        {
          "duration": 0.9110018979166625,
          "durationTicks": 911,
          "midi": 73,
          "name": "C#5",
          "ticks": 109440,
          "time": 109.440228,
          "velocity": 0.5039370078740157
        },
        {
          "duration": 0.455000947916659,
          "durationTicks": 455,
          "midi": 76,
          "name": "E5",
          "ticks": 110400,
          "time": 110.40023000000001,
          "velocity": 0.5039370078740157
        },
        {
          "duration": 0.455000947916659,
          "durationTicks": 455,
          "midi": 73,
          "name": "C#5",
          "ticks": 110880,
          "time": 110.88023100000001,
          "velocity": 0.5039370078740157
        },
        {
          "duration": 1.367002847916666,
          "durationTicks": 1367,
          "midi": 71,
          "name": "B4",
          "ticks": 111360,
          "time": 111.360232,
          "velocity": 0.5039370078740157
        },
        {
          "duration": 0.455000947916659,
          "durationTicks": 455,
          "midi": 71,
          "name": "B4",
          "ticks": 112800,
          "time": 112.800235,
          "velocity": 0.5039370078740157
        },
        {
          "duration": 2.5070052229166606,
          "durationTicks": 2507,
          "midi": 70,
          "name": "A#4",
          "ticks": 113280,
          "time": 113.280236,
          "velocity": 0.5039370078740157
        },
        {
          "duration": 0.22700047291667147,
          "durationTicks": 227,
          "midi": 66,
          "name": "F#4",
          "ticks": 115920,
          "time": 115.9202415,
          "velocity": 0.5039370078740157
        },
        {
          "duration": 0.22700047291667147,
          "durationTicks": 227,
          "midi": 70,
          "name": "A#4",
          "ticks": 116160,
          "time": 116.160242,
          "velocity": 0.5039370078740157
        },
        {
          "duration": 0.455000947916659,
          "durationTicks": 455,
          "midi": 71,
          "name": "B4",
          "ticks": 116400,
          "time": 116.4002425,
          "velocity": 0.5039370078740157
        },
        {
          "duration": 0.22700047291665726,
          "durationTicks": 227,
          "midi": 72,
          "name": "C5",
          "ticks": 116880,
          "time": 116.8802435,
          "velocity": 0.5039370078740157
        },
        {
          "duration": 0.9110018979166767,
          "durationTicks": 911,
          "midi": 73,
          "name": "C#5",
          "ticks": 117120,
          "time": 117.120244,
          "velocity": 0.5039370078740157
        },
        {
          "duration": 0.22700047291667147,
          "durationTicks": 227,
          "midi": 73,
          "name": "C#5",
          "ticks": 118080,
          "time": 118.080246,
          "velocity": 0.5039370078740157
        },
        {
          "duration": 0.22700047291667147,
          "durationTicks": 227,
          "midi": 76,
          "name": "E5",
          "ticks": 118320,
          "time": 118.3202465,
          "velocity": 0.5039370078740157
        },
        {
          "duration": 0.22700047291665726,
          "durationTicks": 227,
          "midi": 78,
          "name": "F#5",
          "ticks": 118560,
          "time": 118.560247,
          "velocity": 0.5039370078740157
        },
        {
          "duration": 0.22700047291667147,
          "durationTicks": 227,
          "midi": 76,
          "name": "E5",
          "ticks": 118800,
          "time": 118.8002475,
          "velocity": 0.5039370078740157
        },
        {
          "duration": 0.7423896958333387,
          "durationTicks": 683,
          "midi": 78,
          "name": "F#5",
          "ticks": 119040,
          "time": 119.040248,
          "velocity": 0.5039370078740157
        },
        {
          "duration": 0.24673859583333524,
          "durationTicks": 227,
          "midi": 76,
          "name": "E5",
          "ticks": 119760,
          "time": 119.822855,
          "velocity": 0.5039370078740157
        },
        {
          "duration": 0.49456414583333697,
          "durationTicks": 455,
          "midi": 75,
          "name": "D#5",
          "ticks": 120000,
          "time": 120.083724,
          "velocity": 0.5039370078740157
        },
        {
          "duration": 0.24673859583333524,
          "durationTicks": 227,
          "midi": 76,
          "name": "E5",
          "ticks": 120480,
          "time": 120.605462,
          "velocity": 0.5039370078740157
        },
        {
          "duration": 0.24673859583333524,
          "durationTicks": 227,
          "midi": 78,
          "name": "F#5",
          "ticks": 120720,
          "time": 120.866331,
          "velocity": 0.5039370078740157
        },
        {
          "duration": 0.2837495270833301,
          "durationTicks": 227,
          "midi": 76,
          "name": "E5",
          "ticks": 120960,
          "time": 121.1272,
          "velocity": 0.5039370078740157
        },
        {
          "duration": 0.2837495270833301,
          "durationTicks": 227,
          "midi": 75,
          "name": "D#5",
          "ticks": 121200,
          "time": 121.4271995,
          "velocity": 0.5039370078740157
        },
        {
          "duration": 1.4237476270833298,
          "durationTicks": 1139,
          "midi": 73,
          "name": "C#5",
          "ticks": 121440,
          "time": 121.727199,
          "velocity": 0.5039370078740157
        },
        {
          "duration": 0.2837495270833301,
          "durationTicks": 227,
          "midi": 71,
          "name": "B4",
          "ticks": 122640,
          "time": 123.2271965,
          "velocity": 0.5039370078740157
        },
        {
          "duration": 0.8537485770833371,
          "durationTicks": 683,
          "midi": 70,
          "name": "A#4",
          "ticks": 122880,
          "time": 123.527196,
          "velocity": 0.5039370078740157
        },
        {
          "duration": 0.2837495270833301,
          "durationTicks": 227,
          "midi": 66,
          "name": "F#4",
          "ticks": 123600,
          "time": 124.4271945,
          "velocity": 0.5039370078740157
        },
        {
          "duration": 0.28374952708334433,
          "durationTicks": 227,
          "midi": 70,
          "name": "A#4",
          "ticks": 123840,
          "time": 124.727194,
          "velocity": 0.5039370078740157
        },
        {
          "duration": 0.5687490520833336,
          "durationTicks": 455,
          "midi": 71,
          "name": "B4",
          "ticks": 124080,
          "time": 125.0271935,
          "velocity": 0.5039370078740157
        },
        {
          "duration": 0.2837495270833301,
          "durationTicks": 227,
          "midi": 72,
          "name": "C5",
          "ticks": 124560,
          "time": 125.6271925,
          "velocity": 0.5039370078740157
        },
        {
          "duration": 2.278746202083326,
          "durationTicks": 1823,
          "midi": 64,
          "name": "E4",
          "ticks": 124800,
          "time": 125.927192,
          "velocity": 0.5039370078740157
        },
        {
          "duration": 2.278746202083326,
          "durationTicks": 1823,
          "midi": 68,
          "name": "G#4",
          "ticks": 124800,
          "time": 125.927192,
          "velocity": 0.5039370078740157
        },
        {
          "duration": 2.278746202083326,
          "durationTicks": 1823,
          "midi": 73,
          "name": "C#5",
          "ticks": 124800,
          "time": 125.927192,
          "velocity": 0.5039370078740157
        }
      ]
    },
    {
      "channel": 0,
      "controlChanges": {},
      "instrument": {
        "family": "piano",
        "name": "acoustic grand piano",
        "number": 0
      },
      "name": "",
      "notes": [
        {
          "duration": 1.3670028479166667,
          "durationTicks": 1367,
          "midi": 49,
          "name": "C#3",
          "ticks": 0,
          "time": 0,
          "velocity": 0.6299212598425197
        },
        {
          "duration": 1.3670028479166667,
          "durationTicks": 1367,
          "midi": 56,
          "name": "G#3",
          "ticks": 0,
          "time": 0,
          "velocity": 0.6299212598425197
        },
        {
          "duration": 1.3670028479166667,
          "durationTicks": 1367,
          "midi": 61,
          "name": "C#4",
          "ticks": 0,
          "time": 0,
          "velocity": 0.6299212598425197
        },
        {
          "duration": 0.4550009479166668,
          "durationTicks": 455,
          "midi": 49,
          "name": "C#3",
          "ticks": 1440,
          "time": 1.440003,
          "velocity": 0.6299212598425197
        },
        {
          "duration": 0.4550009479166668,
          "durationTicks": 455,
          "midi": 56,
          "name": "G#3",
          "ticks": 1440,
          "time": 1.440003,
          "velocity": 0.6299212598425197
        },
        {
          "duration": 0.4550009479166668,
          "durationTicks": 455,
          "midi": 61,
          "name": "C#4",
          "ticks": 1440,
          "time": 1.440003,
          "velocity": 0.6299212598425197
        },
        {
          "duration": 1.3670028479166665,
          "durationTicks": 1367,
          "midi": 47,
          "name": "B2",
          "ticks": 1920,
          "time": 1.920004,
          "velocity": 0.6299212598425197
        },
        {
          "duration": 1.3670028479166665,
          "durationTicks": 1367,
          "midi": 54,
          "name": "F#3",
          "ticks": 1920,
          "time": 1.920004,
          "velocity": 0.6299212598425197
        },
        {
          "duration": 1.3670028479166665,
          "durationTicks": 1367,
          "midi": 59,
          "name": "B3",
          "ticks": 1920,
          "time": 1.920004,
          "velocity": 0.6299212598425197
        },
        {
          "duration": 0.455000947916667,
          "durationTicks": 455,
          "midi": 47,
          "name": "B2",
          "ticks": 3360,
          "time": 3.360007,
          "velocity": 0.6299212598425197
        },
        {
          "duration": 0.455000947916667,
          "durationTicks": 455,
          "midi": 54,
          "name": "F#3",
          "ticks": 3360,
          "time": 3.360007,
          "velocity": 0.6299212598425197
        },
        {
          "duration": 0.455000947916667,
          "durationTicks": 455,
          "midi": 59,
          "name": "B3",
          "ticks": 3360,
          "time": 3.360007,
          "velocity": 0.6299212598425197
        },
        {
          "duration": 1.367002847916667,
          "durationTicks": 1367,
          "midi": 42,
          "name": "F#2",
          "ticks": 3840,
          "time": 3.840008,
          "velocity": 0.6299212598425197
        },
        {
          "duration": 1.367002847916667,
          "durationTicks": 1367,
          "midi": 49,
          "name": "C#3",
          "ticks": 3840,
          "time": 3.840008,
          "velocity": 0.6299212598425197
        },
        {
          "duration": 1.367002847916667,
          "durationTicks": 1367,
          "midi": 54,
          "name": "F#3",
          "ticks": 3840,
          "time": 3.840008,
          "velocity": 0.6299212598425197
        },
        {
          "duration": 0.4550009479166661,
          "durationTicks": 455,
          "midi": 42,
          "name": "F#2",
          "ticks": 5280,
          "time": 5.280011,
          "velocity": 0.6299212598425197
        },
        {
          "duration": 0.4550009479166661,
          "durationTicks": 455,
          "midi": 49,
          "name": "C#3",
          "ticks": 5280,
          "time": 5.280011,
          "velocity": 0.6299212598425197
        },
        {
          "duration": 0.4550009479166661,
          "durationTicks": 455,
          "midi": 54,
          "name": "F#3",
          "ticks": 5280,
          "time": 5.280011,
          "velocity": 0.6299212598425197
        },
        {
          "duration": 1.367002847916667,
          "durationTicks": 1367,
          "midi": 42,
          "name": "F#2",
          "ticks": 5760,
          "time": 5.760012,
          "velocity": 0.6299212598425197
        },
        {
          "duration": 1.367002847916667,
          "durationTicks": 1367,
          "midi": 49,
          "name": "C#3",
          "ticks": 5760,
          "time": 5.760012,
          "velocity": 0.6299212598425197
        },
        {
          "duration": 1.367002847916667,
          "durationTicks": 1367,
          "midi": 54,
          "name": "F#3",
          "ticks": 5760,
          "time": 5.760012,
          "velocity": 0.6299212598425197
        },
        {
          "duration": 0.4550009479166661,
          "durationTicks": 455,
          "midi": 42,
          "name": "F#2",
          "ticks": 7200,
          "time": 7.2000150000000005,
          "velocity": 0.6299212598425197
        },
        {
          "duration": 0.4550009479166661,
          "durationTicks": 455,
          "midi": 49,
          "name": "C#3",
          "ticks": 7200,
          "time": 7.2000150000000005,
          "velocity": 0.6299212598425197
        },
        {
          "duration": 0.4550009479166661,
          "durationTicks": 455,
          "midi": 54,
          "name": "F#3",
          "ticks": 7200,
          "time": 7.2000150000000005,
          "velocity": 0.6299212598425197
        },
        {
          "duration": 1.367002847916666,
          "durationTicks": 1367,
          "midi": 49,
          "name": "C#3",
          "ticks": 7680,
          "time": 7.680016,
          "velocity": 0.6299212598425197
        },
        {
          "duration": 1.367002847916666,
          "durationTicks": 1367,
          "midi": 56,
          "name": "G#3",
          "ticks": 7680,
          "time": 7.680016,
          "velocity": 0.6299212598425197
        },
        {
          "duration": 1.367002847916666,
          "durationTicks": 1367,
          "midi": 61,
          "name": "C#4",
          "ticks": 7680,
          "time": 7.680016,
          "velocity": 0.6299212598425197
        },
        {
          "duration": 0.4550009479166661,
          "durationTicks": 455,
          "midi": 49,
          "name": "C#3",
          "ticks": 9120,
          "time": 9.120019000000001,
          "velocity": 0.6299212598425197
        },
        {
          "duration": 0.4550009479166661,
          "durationTicks": 455,
          "midi": 56,
          "name": "G#3",
          "ticks": 9120,
          "time": 9.120019000000001,
          "velocity": 0.6299212598425197
        },
        {
          "duration": 0.4550009479166661,
          "durationTicks": 455,
          "midi": 61,
          "name": "C#4",
          "ticks": 9120,
          "time": 9.120019000000001,
          "velocity": 0.6299212598425197
        },
        {
          "duration": 1.367002847916666,
          "durationTicks": 1367,
          "midi": 47,
          "name": "B2",
          "ticks": 9600,
          "time": 9.60002,
          "velocity": 0.6299212598425197
        },
        {
          "duration": 1.367002847916666,
          "durationTicks": 1367,
          "midi": 54,
          "name": "F#3",
          "ticks": 9600,
          "time": 9.60002,
          "velocity": 0.6299212598425197
        },
        {
          "duration": 1.367002847916666,
          "durationTicks": 1367,
          "midi": 59,
          "name": "B3",
          "ticks": 9600,
          "time": 9.60002,
          "velocity": 0.6299212598425197
        },
        {
          "duration": 0.4550009479166679,
          "durationTicks": 455,
          "midi": 47,
          "name": "B2",
          "ticks": 11040,
          "time": 11.040023,
          "velocity": 0.6299212598425197
        },
        {
          "duration": 0.4550009479166679,
          "durationTicks": 455,
          "midi": 54,
          "name": "F#3",
          "ticks": 11040,
          "time": 11.040023,
          "velocity": 0.6299212598425197
        },
        {
          "duration": 0.4550009479166679,
          "durationTicks": 455,
          "midi": 59,
          "name": "B3",
          "ticks": 11040,
          "time": 11.040023,
          "velocity": 0.6299212598425197
        },
        {
          "duration": 1.3670028479166678,
          "durationTicks": 1367,
          "midi": 42,
          "name": "F#2",
          "ticks": 11520,
          "time": 11.520024,
          "velocity": 0.6299212598425197
        },
        {
          "duration": 1.3670028479166678,
          "durationTicks": 1367,
          "midi": 49,
          "name": "C#3",
          "ticks": 11520,
          "time": 11.520024,
          "velocity": 0.6299212598425197
        },
        {
          "duration": 1.3670028479166678,
          "durationTicks": 1367,
          "midi": 54,
          "name": "F#3",
          "ticks": 11520,
          "time": 11.520024,
          "velocity": 0.6299212598425197
        },
        {
          "duration": 0.4550009479166679,
          "durationTicks": 455,
          "midi": 42,
          "name": "F#2",
          "ticks": 12960,
          "time": 12.960027,
          "velocity": 0.6299212598425197
        },
        {
          "duration": 0.4550009479166679,
          "durationTicks": 455,
          "midi": 49,
          "name": "C#3",
          "ticks": 12960,
          "time": 12.960027,
          "velocity": 0.6299212598425197
        },
        {
          "duration": 0.4550009479166679,
          "durationTicks": 455,
          "midi": 54,
          "name": "F#3",
          "ticks": 12960,
          "time": 12.960027,
          "velocity": 0.6299212598425197
        },
        {
          "duration": 1.3670028479166678,
          "durationTicks": 1367,
          "midi": 42,
          "name": "F#2",
          "ticks": 13440,
          "time": 13.440028,
          "velocity": 0.6299212598425197
        },
        {
          "duration": 1.3670028479166678,
          "durationTicks": 1367,
          "midi": 49,
          "name": "C#3",
          "ticks": 13440,
          "time": 13.440028,
          "velocity": 0.6299212598425197
        },
        {
          "duration": 1.3670028479166678,
          "durationTicks": 1367,
          "midi": 54,
          "name": "F#3",
          "ticks": 13440,
          "time": 13.440028,
          "velocity": 0.6299212598425197
        },
        {
          "duration": 0.4550009479166661,
          "durationTicks": 455,
          "midi": 42,
          "name": "F#2",
          "ticks": 14880,
          "time": 14.880031,
          "velocity": 0.6299212598425197
        },
        {
          "duration": 0.4550009479166661,
          "durationTicks": 455,
          "midi": 49,
          "name": "C#3",
          "ticks": 14880,
          "time": 14.880031,
          "velocity": 0.6299212598425197
        },
        {
          "duration": 0.4550009479166661,
          "durationTicks": 455,
          "midi": 54,
          "name": "F#3",
          "ticks": 14880,
          "time": 14.880031,
          "velocity": 0.6299212598425197
        },
        {
          "duration": 0.22700047291666792,
          "durationTicks": 227,
          "midi": 49,
          "name": "C#3",
          "ticks": 15360,
          "time": 15.360032,
          "velocity": 0.6299212598425197
        },
        {
          "duration": 0.22700047291666792,
          "durationTicks": 227,
          "midi": 56,
          "name": "G#3",
          "ticks": 15600,
          "time": 15.600032500000001,
          "velocity": 0.6299212598425197
        },
        {
          "duration": 0.22700047291666792,
          "durationTicks": 227,
          "midi": 61,
          "name": "C#4",
          "ticks": 15600,
          "time": 15.600032500000001,
          "velocity": 0.6299212598425197
        },
        {
          "duration": 0.2270004729166697,
          "durationTicks": 227,
          "midi": 49,
          "name": "C#3",
          "ticks": 15840,
          "time": 15.840033,
          "velocity": 0.6299212598425197
        },
        {
          "duration": 0.22700047291666792,
          "durationTicks": 227,
          "midi": 56,
          "name": "G#3",
          "ticks": 16080,
          "time": 16.0800335,
          "velocity": 0.6299212598425197
        },
        {
          "duration": 0.22700047291666792,
          "durationTicks": 227,
          "midi": 61,
          "name": "C#4",
          "ticks": 16080,
          "time": 16.0800335,
          "velocity": 0.6299212598425197
        },
        {
          "duration": 0.22700047291666792,
          "durationTicks": 227,
          "midi": 49,
          "name": "C#3",
          "ticks": 16320,
          "time": 16.320034,
          "velocity": 0.6299212598425197
        },
        {
          "duration": 0.22700047291666792,
          "durationTicks": 227,
          "midi": 56,
          "name": "G#3",
          "ticks": 16560,
          "time": 16.5600345,
          "velocity": 0.6299212598425197
        },
        {
          "duration": 0.22700047291666792,
          "durationTicks": 227,
          "midi": 61,
          "name": "C#4",
          "ticks": 16560,
          "time": 16.5600345,
          "velocity": 0.6299212598425197
        },
        {
          "duration": 0.22700047291666792,
          "durationTicks": 227,
          "midi": 49,
          "name": "C#3",
          "ticks": 16800,
          "time": 16.800035,
          "velocity": 0.6299212598425197
        },
        {
          "duration": 0.22700047291666792,
          "durationTicks": 227,
          "midi": 56,
          "name": "G#3",
          "ticks": 17040,
          "time": 17.040035500000002,
          "velocity": 0.6299212598425197
        },
        {
          "duration": 0.22700047291666792,
          "durationTicks": 227,
          "midi": 61,
          "name": "C#4",
          "ticks": 17040,
          "time": 17.040035500000002,
          "velocity": 0.6299212598425197
        },
        {
          "duration": 0.22700047291666792,
          "durationTicks": 227,
          "midi": 47,
          "name": "B2",
          "ticks": 17280,
          "time": 17.280036,
          "velocity": 0.6299212598425197
        },
        {
          "duration": 0.22700047291666792,
          "durationTicks": 227,
          "midi": 54,
          "name": "F#3",
          "ticks": 17520,
          "time": 17.5200365,
          "velocity": 0.6299212598425197
        },
        {
          "duration": 0.22700047291666792,
          "durationTicks": 227,
          "midi": 59,
          "name": "B3",
          "ticks": 17520,
          "time": 17.5200365,
          "velocity": 0.6299212598425197
        },
        {
          "duration": 0.22700047291666792,
          "durationTicks": 227,
          "midi": 47,
          "name": "B2",
          "ticks": 17760,
          "time": 17.760037,
          "velocity": 0.6299212598425197
        },
        {
          "duration": 0.22700047291666792,
          "durationTicks": 227,
          "midi": 54,
          "name": "F#3",
          "ticks": 18000,
          "time": 18.0000375,
          "velocity": 0.6299212598425197
        },
        {
          "duration": 0.22700047291666792,
          "durationTicks": 227,
          "midi": 59,
          "name": "B3",
          "ticks": 18000,
          "time": 18.0000375,
          "velocity": 0.6299212598425197
        },
        {
          "duration": 0.22700047291666792,
          "durationTicks": 227,
          "midi": 47,
          "name": "B2",
          "ticks": 18240,
          "time": 18.240038000000002,
          "velocity": 0.6299212598425197
        },
        {
          "duration": 0.22700047291666792,
          "durationTicks": 227,
          "midi": 54,
          "name": "F#3",
          "ticks": 18480,
          "time": 18.4800385,
          "velocity": 0.6299212598425197
        },
        {
          "duration": 0.22700047291666792,
          "durationTicks": 227,
          "midi": 59,
          "name": "B3",
          "ticks": 18480,
          "time": 18.4800385,
          "velocity": 0.6299212598425197
        },
        {
          "duration": 0.22700047291666792,
          "durationTicks": 227,
          "midi": 47,
          "name": "B2",
          "ticks": 18720,
          "time": 18.720039,
          "velocity": 0.6299212598425197
        },
        {
          "duration": 0.22700047291666792,
          "durationTicks": 227,
          "midi": 54,
          "name": "F#3",
          "ticks": 18960,
          "time": 18.9600395,
          "velocity": 0.6299212598425197
        },
        {
          "duration": 0.22700047291666792,
          "durationTicks": 227,
          "midi": 59,
          "name": "B3",
          "ticks": 18960,
          "time": 18.9600395,
          "velocity": 0.6299212598425197
        },
        {
          "duration": 0.22700047291666792,
          "durationTicks": 227,
          "midi": 42,
          "name": "F#2",
          "ticks": 19200,
          "time": 19.20004,
          "velocity": 0.6299212598425197
        },
        {
          "duration": 0.22700047291666792,
          "durationTicks": 227,
          "midi": 49,
          "name": "C#3",
          "ticks": 19440,
          "time": 19.440040500000002,
          "velocity": 0.6299212598425197
        },
        {
          "duration": 0.22700047291666792,
          "durationTicks": 227,
          "midi": 54,
          "name": "F#3",
          "ticks": 19440,
          "time": 19.440040500000002,
          "velocity": 0.6299212598425197
        },
        {
          "duration": 0.22700047291666792,
          "durationTicks": 227,
          "midi": 42,
          "name": "F#2",
          "ticks": 19680,
          "time": 19.680041,
          "velocity": 0.6299212598425197
        },
        {
          "duration": 0.22700047291666792,
          "durationTicks": 227,
          "midi": 49,
          "name": "C#3",
          "ticks": 19920,
          "time": 19.9200415,
          "velocity": 0.6299212598425197
        },
        {
          "duration": 0.22700047291666792,
          "durationTicks": 227,
          "midi": 54,
          "name": "F#3",
          "ticks": 19920,
          "time": 19.9200415,
          "velocity": 0.6299212598425197
        },
        {
          "duration": 0.22700047291666792,
          "durationTicks": 227,
          "midi": 42,
          "name": "F#2",
          "ticks": 20160,
          "time": 20.160042,
          "velocity": 0.6299212598425197
        },
        {
          "duration": 0.22700047291666792,
          "durationTicks": 227,
          "midi": 49,
          "name": "C#3",
          "ticks": 20400,
          "time": 20.4000425,
          "velocity": 0.6299212598425197
        },
        {
          "duration": 0.22700047291666792,
          "durationTicks": 227,
          "midi": 54,
          "name": "F#3",
          "ticks": 20400,
          "time": 20.4000425,
          "velocity": 0.6299212598425197
        },
        {
          "duration": 0.22700047291666792,
          "durationTicks": 227,
          "midi": 42,
          "name": "F#2",
          "ticks": 20640,
          "time": 20.640043000000002,
          "velocity": 0.6299212598425197
        },
        {
          "duration": 0.22700047291666792,
          "durationTicks": 227,
          "midi": 49,
          "name": "C#3",
          "ticks": 20880,
          "time": 20.8800435,
          "velocity": 0.6299212598425197
        },
        {
          "duration": 0.22700047291666792,
          "durationTicks": 227,
          "midi": 54,
          "name": "F#3",
          "ticks": 20880,
          "time": 20.8800435,
          "velocity": 0.6299212598425197
        },
        {
          "duration": 0.22700047291666792,
          "durationTicks": 227,
          "midi": 42,
          "name": "F#2",
          "ticks": 21120,
          "time": 21.120044,
          "velocity": 0.6299212598425197
        },
        {
          "duration": 0.22700047291666792,
          "durationTicks": 227,
          "midi": 49,
          "name": "C#3",
          "ticks": 21360,
          "time": 21.3600445,
          "velocity": 0.6299212598425197
        },
        {
          "duration": 0.22700047291666792,
          "durationTicks": 227,
          "midi": 54,
          "name": "F#3",
          "ticks": 21360,
          "time": 21.3600445,
          "velocity": 0.6299212598425197
        },
        {
          "duration": 0.22700047291666792,
          "durationTicks": 227,
          "midi": 42,
          "name": "F#2",
          "ticks": 21600,
          "time": 21.600045,
          "velocity": 0.6299212598425197
        },
        {
          "duration": 0.22700047291666792,
          "durationTicks": 227,
          "midi": 49,
          "name": "C#3",
          "ticks": 21840,
          "time": 21.840045500000002,
          "velocity": 0.6299212598425197
        },
        {
          "duration": 0.22700047291666792,
          "durationTicks": 227,
          "midi": 54,
          "name": "F#3",
          "ticks": 21840,
          "time": 21.840045500000002,
          "velocity": 0.6299212598425197
        },
        {
          "duration": 0.22700047291666792,
          "durationTicks": 227,
          "midi": 42,
          "name": "F#2",
          "ticks": 22080,
          "time": 22.080046,
          "velocity": 0.6299212598425197
        },
        {
          "duration": 0.22700047291666792,
          "durationTicks": 227,
          "midi": 49,
          "name": "C#3",
          "ticks": 22320,
          "time": 22.3200465,
          "velocity": 0.6299212598425197
        },
        {
          "duration": 0.22700047291666792,
          "durationTicks": 227,
          "midi": 54,
          "name": "F#3",
          "ticks": 22320,
          "time": 22.3200465,
          "velocity": 0.6299212598425197
        },
        {
          "duration": 0.22700047291666792,
          "durationTicks": 227,
          "midi": 42,
          "name": "F#2",
          "ticks": 22560,
          "time": 22.560047,
          "velocity": 0.6299212598425197
        },
        {
          "duration": 0.22700047291666792,
          "durationTicks": 227,
          "midi": 49,
          "name": "C#3",
          "ticks": 22800,
          "time": 22.8000475,
          "velocity": 0.6299212598425197
        },
        {
          "duration": 0.22700047291666792,
          "durationTicks": 227,
          "midi": 54,
          "name": "F#3",
          "ticks": 22800,
          "time": 22.8000475,
          "velocity": 0.6299212598425197
        },
        {
          "duration": 0.22700047291667147,
          "durationTicks": 227,
          "midi": 49,
          "name": "C#3",
          "ticks": 23040,
          "time": 23.040048,
          "velocity": 0.6299212598425197
        },
        {
          "duration": 0.22700047291666792,
          "durationTicks": 227,
          "midi": 56,
          "name": "G#3",
          "ticks": 23280,
          "time": 23.2800485,
          "velocity": 0.6299212598425197
        },
        {
          "duration": 0.22700047291666792,
          "durationTicks": 227,
          "midi": 61,
          "name": "C#4",
          "ticks": 23280,
          "time": 23.2800485,
          "velocity": 0.6299212598425197
        },
        {
          "duration": 0.22700047291666792,
          "durationTicks": 227,
          "midi": 49,
          "name": "C#3",
          "ticks": 23520,
          "time": 23.520049,
          "velocity": 0.6299212598425197
        },
        {
          "duration": 0.22700047291666792,
          "durationTicks": 227,
          "midi": 56,
          "name": "G#3",
          "ticks": 23760,
          "time": 23.7600495,
          "velocity": 0.6299212598425197
        },
        {
          "duration": 0.22700047291666792,
          "durationTicks": 227,
          "midi": 61,
          "name": "C#4",
          "ticks": 23760,
          "time": 23.7600495,
          "velocity": 0.6299212598425197
        },
        {
          "duration": 0.22700047291666792,
          "durationTicks": 227,
          "midi": 49,
          "name": "C#3",
          "ticks": 24000,
          "time": 24.00005,
          "velocity": 0.6299212598425197
        },
        {
          "duration": 0.22700047291667147,
          "durationTicks": 227,
          "midi": 56,
          "name": "G#3",
          "ticks": 24240,
          "time": 24.2400505,
          "velocity": 0.6299212598425197
        },
        {
          "duration": 0.22700047291667147,
          "durationTicks": 227,
          "midi": 61,
          "name": "C#4",
          "ticks": 24240,
          "time": 24.2400505,
          "velocity": 0.6299212598425197
        },
        {
          "duration": 0.22700047291666792,
          "durationTicks": 227,
          "midi": 49,
          "name": "C#3",
          "ticks": 24480,
          "time": 24.480051,
          "velocity": 0.6299212598425197
        },
        {
          "duration": 0.22700047291666792,
          "durationTicks": 227,
          "midi": 56,
          "name": "G#3",
          "ticks": 24720,
          "time": 24.7200515,
          "velocity": 0.6299212598425197
        },
        {
          "duration": 0.22700047291666792,
          "durationTicks": 227,
          "midi": 61,
          "name": "C#4",
          "ticks": 24720,
          "time": 24.7200515,
          "velocity": 0.6299212598425197
        },
        {
          "duration": 0.22700047291666792,
          "durationTicks": 227,
          "midi": 47,
          "name": "B2",
          "ticks": 24960,
          "time": 24.960052,
          "velocity": 0.6299212598425197
        },
        {
          "duration": 0.22700047291666792,
          "durationTicks": 227,
          "midi": 54,
          "name": "F#3",
          "ticks": 25200,
          "time": 25.2000525,
          "velocity": 0.6299212598425197
        },
        {
          "duration": 0.22700047291666792,
          "durationTicks": 227,
          "midi": 59,
          "name": "B3",
          "ticks": 25200,
          "time": 25.2000525,
          "velocity": 0.6299212598425197
        },
        {
          "duration": 0.22700047291667147,
          "durationTicks": 227,
          "midi": 47,
          "name": "B2",
          "ticks": 25440,
          "time": 25.440053,
          "velocity": 0.6299212598425197
        },
        {
          "duration": 0.22700047291666792,
          "durationTicks": 227,
          "midi": 54,
          "name": "F#3",
          "ticks": 25680,
          "time": 25.6800535,
          "velocity": 0.6299212598425197
        },
        {
          "duration": 0.22700047291666792,
          "durationTicks": 227,
          "midi": 59,
          "name": "B3",
          "ticks": 25680,
          "time": 25.6800535,
          "velocity": 0.6299212598425197
        },
        {
          "duration": 0.22700047291666792,
          "durationTicks": 227,
          "midi": 47,
          "name": "B2",
          "ticks": 25920,
          "time": 25.920054,
          "velocity": 0.6299212598425197
        },
        {
          "duration": 0.22700047291666792,
          "durationTicks": 227,
          "midi": 54,
          "name": "F#3",
          "ticks": 26160,
          "time": 26.1600545,
          "velocity": 0.6299212598425197
        },
        {
          "duration": 0.22700047291666792,
          "durationTicks": 227,
          "midi": 59,
          "name": "B3",
          "ticks": 26160,
          "time": 26.1600545,
          "velocity": 0.6299212598425197
        },
        {
          "duration": 0.22700047291666792,
          "durationTicks": 227,
          "midi": 47,
          "name": "B2",
          "ticks": 26400,
          "time": 26.400055000000002,
          "velocity": 0.6299212598425197
        },
        {
          "duration": 0.22700047291667147,
          "durationTicks": 227,
          "midi": 54,
          "name": "F#3",
          "ticks": 26640,
          "time": 26.6400555,
          "velocity": 0.6299212598425197
        },
        {
          "duration": 0.22700047291667147,
          "durationTicks": 227,
          "midi": 59,
          "name": "B3",
          "ticks": 26640,
          "time": 26.6400555,
          "velocity": 0.6299212598425197
        },
        {
          "duration": 0.22700047291666792,
          "durationTicks": 227,
          "midi": 42,
          "name": "F#2",
          "ticks": 26880,
          "time": 26.880056,
          "velocity": 0.6299212598425197
        },
        {
          "duration": 0.22700047291666792,
          "durationTicks": 227,
          "midi": 49,
          "name": "C#3",
          "ticks": 27120,
          "time": 27.1200565,
          "velocity": 0.6299212598425197
        },
        {
          "duration": 0.22700047291666792,
          "durationTicks": 227,
          "midi": 54,
          "name": "F#3",
          "ticks": 27120,
          "time": 27.1200565,
          "velocity": 0.6299212598425197
        },
        {
          "duration": 0.22700047291666792,
          "durationTicks": 227,
          "midi": 42,
          "name": "F#2",
          "ticks": 27360,
          "time": 27.360057,
          "velocity": 0.6299212598425197
        },
        {
          "duration": 0.22700047291666792,
          "durationTicks": 227,
          "midi": 49,
          "name": "C#3",
          "ticks": 27600,
          "time": 27.600057500000002,
          "velocity": 0.6299212598425197
        },
        {
          "duration": 0.22700047291666792,
          "durationTicks": 227,
          "midi": 54,
          "name": "F#3",
          "ticks": 27600,
          "time": 27.600057500000002,
          "velocity": 0.6299212598425197
        },
        {
          "duration": 0.22700047291667147,
          "durationTicks": 227,
          "midi": 42,
          "name": "F#2",
          "ticks": 27840,
          "time": 27.840058,
          "velocity": 0.6299212598425197
        },
        {
          "duration": 0.22700047291666792,
          "durationTicks": 227,
          "midi": 49,
          "name": "C#3",
          "ticks": 28080,
          "time": 28.0800585,
          "velocity": 0.6299212598425197
        },
        {
          "duration": 0.22700047291666792,
          "durationTicks": 227,
          "midi": 54,
          "name": "F#3",
          "ticks": 28080,
          "time": 28.0800585,
          "velocity": 0.6299212598425197
        },
        {
          "duration": 0.22700047291666792,
          "durationTicks": 227,
          "midi": 42,
          "name": "F#2",
          "ticks": 28320,
          "time": 28.320059,
          "velocity": 0.6299212598425197
        },
        {
          "duration": 0.22700047291666792,
          "durationTicks": 227,
          "midi": 49,
          "name": "C#3",
          "ticks": 28560,
          "time": 28.5600595,
          "velocity": 0.6299212598425197
        },
        {
          "duration": 0.22700047291666792,
          "durationTicks": 227,
          "midi": 54,
          "name": "F#3",
          "ticks": 28560,
          "time": 28.5600595,
          "velocity": 0.6299212598425197
        },
        {
          "duration": 0.22700047291666792,
          "durationTicks": 227,
          "midi": 42,
          "name": "F#2",
          "ticks": 28800,
          "time": 28.800060000000002,
          "velocity": 0.6299212598425197
        },
        {
          "duration": 0.22700047291667147,
          "durationTicks": 227,
          "midi": 49,
          "name": "C#3",
          "ticks": 29040,
          "time": 29.0400605,
          "velocity": 0.6299212598425197
        },
        {
          "duration": 0.22700047291667147,
          "durationTicks": 227,
          "midi": 54,
          "name": "F#3",
          "ticks": 29040,
          "time": 29.0400605,
          "velocity": 0.6299212598425197
        },
        {
          "duration": 0.22700047291666792,
          "durationTicks": 227,
          "midi": 42,
          "name": "F#2",
          "ticks": 29280,
          "time": 29.280061,
          "velocity": 0.6299212598425197
        },
        {
          "duration": 0.22700047291666792,
          "durationTicks": 227,
          "midi": 49,
          "name": "C#3",
          "ticks": 29520,
          "time": 29.5200615,
          "velocity": 0.6299212598425197
        },
        {
          "duration": 0.22700047291666792,
          "durationTicks": 227,
          "midi": 54,
          "name": "F#3",
          "ticks": 29520,
          "time": 29.5200615,
          "velocity": 0.6299212598425197
        },
        {
          "duration": 0.22700047291666792,
          "durationTicks": 227,
          "midi": 42,
          "name": "F#2",
          "ticks": 29760,
          "time": 29.760062,
          "velocity": 0.6299212598425197
        },
        {
          "duration": 0.22700047291666792,
          "durationTicks": 227,
          "midi": 49,
          "name": "C#3",
          "ticks": 30000,
          "time": 30.000062500000002,
          "velocity": 0.6299212598425197
        },
        {
          "duration": 0.22700047291666792,
          "durationTicks": 227,
          "midi": 54,
          "name": "F#3",
          "ticks": 30000,
          "time": 30.000062500000002,
          "velocity": 0.6299212598425197
        },
        {
          "duration": 0.22700047291667147,
          "durationTicks": 227,
          "midi": 42,
          "name": "F#2",
          "ticks": 30240,
          "time": 30.240063,
          "velocity": 0.6299212598425197
        },
        {
          "duration": 0.22700047291666792,
          "durationTicks": 227,
          "midi": 49,
          "name": "C#3",
          "ticks": 30480,
          "time": 30.4800635,
          "velocity": 0.6299212598425197
        },
        {
          "duration": 0.22700047291666792,
          "durationTicks": 227,
          "midi": 54,
          "name": "F#3",
          "ticks": 30480,
          "time": 30.4800635,
          "velocity": 0.6299212598425197
        },
        {
          "duration": 0.22700047291666436,
          "durationTicks": 227,
          "midi": 49,
          "name": "C#3",
          "ticks": 30720,
          "time": 30.720064,
          "velocity": 0.6299212598425197
        },
        {
          "duration": 0.22700047291666436,
          "durationTicks": 227,
          "midi": 56,
          "name": "G#3",
          "ticks": 30960,
          "time": 30.9600645,
          "velocity": 0.6299212598425197
        },
        {
          "duration": 0.22700047291666436,
          "durationTicks": 227,
          "midi": 61,
          "name": "C#4",
          "ticks": 30960,
          "time": 30.9600645,
          "velocity": 0.6299212598425197
        },
        {
          "duration": 0.22700047291666436,
          "durationTicks": 227,
          "midi": 49,
          "name": "C#3",
          "ticks": 31200,
          "time": 31.200065000000002,
          "velocity": 0.6299212598425197
        },
        {
          "duration": 0.22700047291666792,
          "durationTicks": 227,
          "midi": 56,
          "name": "G#3",
          "ticks": 31440,
          "time": 31.4400655,
          "velocity": 0.6299212598425197
        },
        {
          "duration": 0.22700047291666792,
          "durationTicks": 227,
          "midi": 61,
          "name": "C#4",
          "ticks": 31440,
          "time": 31.4400655,
          "velocity": 0.6299212598425197
        },
        {
          "duration": 0.22700047291666436,
          "durationTicks": 227,
          "midi": 49,
          "name": "C#3",
          "ticks": 31680,
          "time": 31.680066,
          "velocity": 0.6299212598425197
        },
        {
          "duration": 0.22700047291666792,
          "durationTicks": 227,
          "midi": 56,
          "name": "G#3",
          "ticks": 31920,
          "time": 31.9200665,
          "velocity": 0.6299212598425197
        },
        {
          "duration": 0.22700047291666792,
          "durationTicks": 227,
          "midi": 61,
          "name": "C#4",
          "ticks": 31920,
          "time": 31.9200665,
          "velocity": 0.6299212598425197
        },
        {
          "duration": 0.22700047291666436,
          "durationTicks": 227,
          "midi": 49,
          "name": "C#3",
          "ticks": 32160,
          "time": 32.160067,
          "velocity": 0.6299212598425197
        },
        {
          "duration": 0.22700047291666436,
          "durationTicks": 227,
          "midi": 56,
          "name": "G#3",
          "ticks": 32400,
          "time": 32.4000675,
          "velocity": 0.6299212598425197
        },
        {
          "duration": 0.22700047291666436,
          "durationTicks": 227,
          "midi": 61,
          "name": "C#4",
          "ticks": 32400,
          "time": 32.4000675,
          "velocity": 0.6299212598425197
        },
        {
          "duration": 0.22700047291666436,
          "durationTicks": 227,
          "midi": 47,
          "name": "B2",
          "ticks": 32640,
          "time": 32.640068,
          "velocity": 0.6299212598425197
        },
        {
          "duration": 0.22700047291666436,
          "durationTicks": 227,
          "midi": 54,
          "name": "F#3",
          "ticks": 32880,
          "time": 32.8800685,
          "velocity": 0.6299212598425197
        },
        {
          "duration": 0.22700047291666436,
          "durationTicks": 227,
          "midi": 59,
          "name": "B3",
          "ticks": 32880,
          "time": 32.8800685,
          "velocity": 0.6299212598425197
        },
        {
          "duration": 0.22700047291666436,
          "durationTicks": 227,
          "midi": 47,
          "name": "B2",
          "ticks": 33120,
          "time": 33.120069,
          "velocity": 0.6299212598425197
        },
        {
          "duration": 0.22700047291666436,
          "durationTicks": 227,
          "midi": 54,
          "name": "F#3",
          "ticks": 33360,
          "time": 33.3600695,
          "velocity": 0.6299212598425197
        },
        {
          "duration": 0.22700047291666436,
          "durationTicks": 227,
          "midi": 59,
          "name": "B3",
          "ticks": 33360,
          "time": 33.3600695,
          "velocity": 0.6299212598425197
        },
        {
          "duration": 0.22700047291666436,
          "durationTicks": 227,
          "midi": 47,
          "name": "B2",
          "ticks": 33600,
          "time": 33.60007,
          "velocity": 0.6299212598425197
        },
        {
          "duration": 0.22700047291666436,
          "durationTicks": 227,
          "midi": 54,
          "name": "F#3",
          "ticks": 33840,
          "time": 33.8400705,
          "velocity": 0.6299212598425197
        },
        {
          "duration": 0.22700047291666436,
          "durationTicks": 227,
          "midi": 59,
          "name": "B3",
          "ticks": 33840,
          "time": 33.8400705,
          "velocity": 0.6299212598425197
        },
        {
          "duration": 0.22700047291666436,
          "durationTicks": 227,
          "midi": 47,
          "name": "B2",
          "ticks": 34080,
          "time": 34.080071000000004,
          "velocity": 0.6299212598425197
        },
        {
          "duration": 0.22700047291667147,
          "durationTicks": 227,
          "midi": 54,
          "name": "F#3",
          "ticks": 34320,
          "time": 34.3200715,
          "velocity": 0.6299212598425197
        },
        {
          "duration": 0.22700047291667147,
          "durationTicks": 227,
          "midi": 59,
          "name": "B3",
          "ticks": 34320,
          "time": 34.3200715,
          "velocity": 0.6299212598425197
        },
        {
          "duration": 0.22700047291666436,
          "durationTicks": 227,
          "midi": 42,
          "name": "F#2",
          "ticks": 34560,
          "time": 34.560072,
          "velocity": 0.6299212598425197
        },
        {
          "duration": 0.22700047291666436,
          "durationTicks": 227,
          "midi": 49,
          "name": "C#3",
          "ticks": 34800,
          "time": 34.8000725,
          "velocity": 0.6299212598425197
        },
        {
          "duration": 0.22700047291666436,
          "durationTicks": 227,
          "midi": 54,
          "name": "F#3",
          "ticks": 34800,
          "time": 34.8000725,
          "velocity": 0.6299212598425197
        },
        {
          "duration": 0.22700047291666436,
          "durationTicks": 227,
          "midi": 42,
          "name": "F#2",
          "ticks": 35040,
          "time": 35.040073,
          "velocity": 0.6299212598425197
        },
        {
          "duration": 0.22700047291666436,
          "durationTicks": 227,
          "midi": 49,
          "name": "C#3",
          "ticks": 35280,
          "time": 35.2800735,
          "velocity": 0.6299212598425197
        },
        {
          "duration": 0.22700047291666436,
          "durationTicks": 227,
          "midi": 54,
          "name": "F#3",
          "ticks": 35280,
          "time": 35.2800735,
          "velocity": 0.6299212598425197
        },
        {
          "duration": 0.22700047291666436,
          "durationTicks": 227,
          "midi": 42,
          "name": "F#2",
          "ticks": 35520,
          "time": 35.520074,
          "velocity": 0.6299212598425197
        },
        {
          "duration": 0.22700047291666436,
          "durationTicks": 227,
          "midi": 49,
          "name": "C#3",
          "ticks": 35760,
          "time": 35.7600745,
          "velocity": 0.6299212598425197
        },
        {
          "duration": 0.22700047291666436,
          "durationTicks": 227,
          "midi": 54,
          "name": "F#3",
          "ticks": 35760,
          "time": 35.7600745,
          "velocity": 0.6299212598425197
        },
        {
          "duration": 0.22700047291666436,
          "durationTicks": 227,
          "midi": 42,
          "name": "F#2",
          "ticks": 36000,
          "time": 36.000075,
          "velocity": 0.6299212598425197
        },
        {
          "duration": 0.22700047291666436,
          "durationTicks": 227,
          "midi": 49,
          "name": "C#3",
          "ticks": 36240,
          "time": 36.2400755,
          "velocity": 0.6299212598425197
        },
        {
          "duration": 0.22700047291666436,
          "durationTicks": 227,
          "midi": 54,
          "name": "F#3",
          "ticks": 36240,
          "time": 36.2400755,
          "velocity": 0.6299212598425197
        },
        {
          "duration": 0.22700047291666436,
          "durationTicks": 227,
          "midi": 42,
          "name": "F#2",
          "ticks": 36480,
          "time": 36.480076000000004,
          "velocity": 0.6299212598425197
        },
        {
          "duration": 0.22700047291667147,
          "durationTicks": 227,
          "midi": 49,
          "name": "C#3",
          "ticks": 36720,
          "time": 36.7200765,
          "velocity": 0.6299212598425197
        },
        {
          "duration": 0.22700047291667147,
          "durationTicks": 227,
          "midi": 54,
          "name": "F#3",
          "ticks": 36720,
          "time": 36.7200765,
          "velocity": 0.6299212598425197
        },
        {
          "duration": 0.22700047291666436,
          "durationTicks": 227,
          "midi": 42,
          "name": "F#2",
          "ticks": 36960,
          "time": 36.960077,
          "velocity": 0.6299212598425197
        },
        {
          "duration": 0.22700047291666436,
          "durationTicks": 227,
          "midi": 49,
          "name": "C#3",
          "ticks": 37200,
          "time": 37.2000775,
          "velocity": 0.6299212598425197
        },
        {
          "duration": 0.22700047291666436,
          "durationTicks": 227,
          "midi": 54,
          "name": "F#3",
          "ticks": 37200,
          "time": 37.2000775,
          "velocity": 0.6299212598425197
        },
        {
          "duration": 0.22700047291666436,
          "durationTicks": 227,
          "midi": 42,
          "name": "F#2",
          "ticks": 37440,
          "time": 37.440078,
          "velocity": 0.6299212598425197
        },
        {
          "duration": 0.22700047291666436,
          "durationTicks": 227,
          "midi": 49,
          "name": "C#3",
          "ticks": 37680,
          "time": 37.6800785,
          "velocity": 0.6299212598425197
        },
        {
          "duration": 0.22700047291666436,
          "durationTicks": 227,
          "midi": 54,
          "name": "F#3",
          "ticks": 37680,
          "time": 37.6800785,
          "velocity": 0.6299212598425197
        },
        {
          "duration": 0.22700047291666436,
          "durationTicks": 227,
          "midi": 42,
          "name": "F#2",
          "ticks": 37920,
          "time": 37.920079,
          "velocity": 0.6299212598425197
        },
        {
          "duration": 0.22700047291666436,
          "durationTicks": 227,
          "midi": 49,
          "name": "C#3",
          "ticks": 38160,
          "time": 38.1600795,
          "velocity": 0.6299212598425197
        },
        {
          "duration": 0.22700047291666436,
          "durationTicks": 227,
          "midi": 54,
          "name": "F#3",
          "ticks": 38160,
          "time": 38.1600795,
          "velocity": 0.6299212598425197
        },
        {
          "duration": 0.22700047291666436,
          "durationTicks": 227,
          "midi": 49,
          "name": "C#3",
          "ticks": 38400,
          "time": 38.40008,
          "velocity": 0.6299212598425197
        },
        {
          "duration": 0.22700047291666436,
          "durationTicks": 227,
          "midi": 56,
          "name": "G#3",
          "ticks": 38640,
          "time": 38.6400805,
          "velocity": 0.6299212598425197
        },
        {
          "duration": 0.22700047291666436,
          "durationTicks": 227,
          "midi": 61,
          "name": "C#4",
          "ticks": 38640,
          "time": 38.6400805,
          "velocity": 0.6299212598425197
        },
        {
          "duration": 0.22700047291666436,
          "durationTicks": 227,
          "midi": 49,
          "name": "C#3",
          "ticks": 38880,
          "time": 38.880081000000004,
          "velocity": 0.6299212598425197
        },
        {
          "duration": 0.22700047291667147,
          "durationTicks": 227,
          "midi": 56,
          "name": "G#3",
          "ticks": 39120,
          "time": 39.1200815,
          "velocity": 0.6299212598425197
        },
        {
          "duration": 0.22700047291667147,
          "durationTicks": 227,
          "midi": 61,
          "name": "C#4",
          "ticks": 39120,
          "time": 39.1200815,
          "velocity": 0.6299212598425197
        },
        {
          "duration": 0.22700047291666436,
          "durationTicks": 227,
          "midi": 49,
          "name": "C#3",
          "ticks": 39360,
          "time": 39.360082,
          "velocity": 0.6299212598425197
        },
        {
          "duration": 0.22700047291666436,
          "durationTicks": 227,
          "midi": 56,
          "name": "G#3",
          "ticks": 39600,
          "time": 39.6000825,
          "velocity": 0.6299212598425197
        },
        {
          "duration": 0.22700047291666436,
          "durationTicks": 227,
          "midi": 61,
          "name": "C#4",
          "ticks": 39600,
          "time": 39.6000825,
          "velocity": 0.6299212598425197
        },
        {
          "duration": 0.22700047291666436,
          "durationTicks": 227,
          "midi": 49,
          "name": "C#3",
          "ticks": 39840,
          "time": 39.840083,
          "velocity": 0.6299212598425197
        },
        {
          "duration": 0.22700047291666436,
          "durationTicks": 227,
          "midi": 56,
          "name": "G#3",
          "ticks": 40080,
          "time": 40.0800835,
          "velocity": 0.6299212598425197
        },
        {
          "duration": 0.22700047291666436,
          "durationTicks": 227,
          "midi": 61,
          "name": "C#4",
          "ticks": 40080,
          "time": 40.0800835,
          "velocity": 0.6299212598425197
        },
        {
          "duration": 0.22700047291666436,
          "durationTicks": 227,
          "midi": 47,
          "name": "B2",
          "ticks": 40320,
          "time": 40.320084,
          "velocity": 0.6299212598425197
        },
        {
          "duration": 0.22700047291666436,
          "durationTicks": 227,
          "midi": 54,
          "name": "F#3",
          "ticks": 40560,
          "time": 40.5600845,
          "velocity": 0.6299212598425197
        },
        {
          "duration": 0.22700047291666436,
          "durationTicks": 227,
          "midi": 59,
          "name": "B3",
          "ticks": 40560,
          "time": 40.5600845,
          "velocity": 0.6299212598425197
        },
        {
          "duration": 0.22700047291666436,
          "durationTicks": 227,
          "midi": 47,
          "name": "B2",
          "ticks": 40800,
          "time": 40.800085,
          "velocity": 0.6299212598425197
        },
        {
          "duration": 0.22700047291666436,
          "durationTicks": 227,
          "midi": 54,
          "name": "F#3",
          "ticks": 41040,
          "time": 41.0400855,
          "velocity": 0.6299212598425197
        },
        {
          "duration": 0.22700047291666436,
          "durationTicks": 227,
          "midi": 59,
          "name": "B3",
          "ticks": 41040,
          "time": 41.0400855,
          "velocity": 0.6299212598425197
        },
        {
          "duration": 0.22700047291666436,
          "durationTicks": 227,
          "midi": 47,
          "name": "B2",
          "ticks": 41280,
          "time": 41.280086000000004,
          "velocity": 0.6299212598425197
        },
        {
          "duration": 0.22700047291666436,
          "durationTicks": 227,
          "midi": 54,
          "name": "F#3",
          "ticks": 41520,
          "time": 41.5200865,
          "velocity": 0.6299212598425197
        },
        {
          "duration": 0.22700047291666436,
          "durationTicks": 227,
          "midi": 59,
          "name": "B3",
          "ticks": 41520,
          "time": 41.5200865,
          "velocity": 0.6299212598425197
        },
        {
          "duration": 0.22700047291666436,
          "durationTicks": 227,
          "midi": 47,
          "name": "B2",
          "ticks": 41760,
          "time": 41.760087,
          "velocity": 0.6299212598425197
        },
        {
          "duration": 0.22700047291666436,
          "durationTicks": 227,
          "midi": 54,
          "name": "F#3",
          "ticks": 42000,
          "time": 42.0000875,
          "velocity": 0.6299212598425197
        },
        {
          "duration": 0.22700047291666436,
          "durationTicks": 227,
          "midi": 59,
          "name": "B3",
          "ticks": 42000,
          "time": 42.0000875,
          "velocity": 0.6299212598425197
        },
        {
          "duration": 0.22700047291666436,
          "durationTicks": 227,
          "midi": 42,
          "name": "F#2",
          "ticks": 42240,
          "time": 42.240088,
          "velocity": 0.6299212598425197
        },
        {
          "duration": 0.22700047291666436,
          "durationTicks": 227,
          "midi": 49,
          "name": "C#3",
          "ticks": 42480,
          "time": 42.4800885,
          "velocity": 0.6299212598425197
        },
        {
          "duration": 0.22700047291666436,
          "durationTicks": 227,
          "midi": 54,
          "name": "F#3",
          "ticks": 42480,
          "time": 42.4800885,
          "velocity": 0.6299212598425197
        },
        {
          "duration": 0.22700047291666436,
          "durationTicks": 227,
          "midi": 42,
          "name": "F#2",
          "ticks": 42720,
          "time": 42.720089,
          "velocity": 0.6299212598425197
        },
        {
          "duration": 0.22700047291666436,
          "durationTicks": 227,
          "midi": 49,
          "name": "C#3",
          "ticks": 42960,
          "time": 42.9600895,
          "velocity": 0.6299212598425197
        },
        {
          "duration": 0.22700047291666436,
          "durationTicks": 227,
          "midi": 54,
          "name": "F#3",
          "ticks": 42960,
          "time": 42.9600895,
          "velocity": 0.6299212598425197
        },
        {
          "duration": 0.22700047291666436,
          "durationTicks": 227,
          "midi": 42,
          "name": "F#2",
          "ticks": 43200,
          "time": 43.20009,
          "velocity": 0.6299212598425197
        },
        {
          "duration": 0.22700047291666436,
          "durationTicks": 227,
          "midi": 49,
          "name": "C#3",
          "ticks": 43440,
          "time": 43.440090500000004,
          "velocity": 0.6299212598425197
        },
        {
          "duration": 0.22700047291666436,
          "durationTicks": 227,
          "midi": 54,
          "name": "F#3",
          "ticks": 43440,
          "time": 43.440090500000004,
          "velocity": 0.6299212598425197
        },
        {
          "duration": 0.22700047291666436,
          "durationTicks": 227,
          "midi": 42,
          "name": "F#2",
          "ticks": 43680,
          "time": 43.680091000000004,
          "velocity": 0.6299212598425197
        },
        {
          "duration": 0.22700047291666436,
          "durationTicks": 227,
          "midi": 49,
          "name": "C#3",
          "ticks": 43920,
          "time": 43.9200915,
          "velocity": 0.6299212598425197
        },
        {
          "duration": 0.22700047291666436,
          "durationTicks": 227,
          "midi": 54,
          "name": "F#3",
          "ticks": 43920,
          "time": 43.9200915,
          "velocity": 0.6299212598425197
        },
        {
          "duration": 0.22700047291666436,
          "durationTicks": 227,
          "midi": 42,
          "name": "F#2",
          "ticks": 44160,
          "time": 44.160092,
          "velocity": 0.6299212598425197
        },
        {
          "duration": 0.22700047291666436,
          "durationTicks": 227,
          "midi": 49,
          "name": "C#3",
          "ticks": 44400,
          "time": 44.4000925,
          "velocity": 0.6299212598425197
        },
        {
          "duration": 0.22700047291666436,
          "durationTicks": 227,
          "midi": 54,
          "name": "F#3",
          "ticks": 44400,
          "time": 44.4000925,
          "velocity": 0.6299212598425197
        },
        {
          "duration": 0.22700047291666436,
          "durationTicks": 227,
          "midi": 42,
          "name": "F#2",
          "ticks": 44640,
          "time": 44.640093,
          "velocity": 0.6299212598425197
        },
        {
          "duration": 0.22700047291666436,
          "durationTicks": 227,
          "midi": 49,
          "name": "C#3",
          "ticks": 44880,
          "time": 44.8800935,
          "velocity": 0.6299212598425197
        },
        {
          "duration": 0.22700047291666436,
          "durationTicks": 227,
          "midi": 54,
          "name": "F#3",
          "ticks": 44880,
          "time": 44.8800935,
          "velocity": 0.6299212598425197
        },
        {
          "duration": 0.22700047291666436,
          "durationTicks": 227,
          "midi": 42,
          "name": "F#2",
          "ticks": 45120,
          "time": 45.120094,
          "velocity": 0.6299212598425197
        },
        {
          "duration": 0.22700047291666436,
          "durationTicks": 227,
          "midi": 49,
          "name": "C#3",
          "ticks": 45360,
          "time": 45.3600945,
          "velocity": 0.6299212598425197
        },
        {
          "duration": 0.22700047291666436,
          "durationTicks": 227,
          "midi": 54,
          "name": "F#3",
          "ticks": 45360,
          "time": 45.3600945,
          "velocity": 0.6299212598425197
        },
        {
          "duration": 0.22700047291666436,
          "durationTicks": 227,
          "midi": 42,
          "name": "F#2",
          "ticks": 45600,
          "time": 45.600095,
          "velocity": 0.6299212598425197
        },
        {
          "duration": 0.22700047291666436,
          "durationTicks": 227,
          "midi": 49,
          "name": "C#3",
          "ticks": 45840,
          "time": 45.840095500000004,
          "velocity": 0.6299212598425197
        },
        {
          "duration": 0.22700047291666436,
          "durationTicks": 227,
          "midi": 54,
          "name": "F#3",
          "ticks": 45840,
          "time": 45.840095500000004,
          "velocity": 0.6299212598425197
        },
        {
          "duration": 1.367002847916666,
          "durationTicks": 1367,
          "midi": 49,
          "name": "C#3",
          "ticks": 46080,
          "time": 46.080096,
          "velocity": 0.5039370078740157
        },
        {
          "duration": 1.367002847916666,
          "durationTicks": 1367,
          "midi": 56,
          "name": "G#3",
          "ticks": 46080,
          "time": 46.080096,
          "velocity": 0.5039370078740157
        },
        {
          "duration": 0.4550009479166661,
          "durationTicks": 455,
          "midi": 49,
          "name": "C#3",
          "ticks": 47520,
          "time": 47.520099,
          "velocity": 0.5039370078740157
        },
        {
          "duration": 0.4550009479166661,
          "durationTicks": 455,
          "midi": 56,
          "name": "G#3",
          "ticks": 47520,
          "time": 47.520099,
          "velocity": 0.5039370078740157
        },
        {
          "duration": 1.367002847916666,
          "durationTicks": 1367,
          "midi": 47,
          "name": "B2",
          "ticks": 48000,
          "time": 48.0001,
          "velocity": 0.5039370078740157
        },
        {
          "duration": 1.367002847916666,
          "durationTicks": 1367,
          "midi": 54,
          "name": "F#3",
          "ticks": 48000,
          "time": 48.0001,
          "velocity": 0.5039370078740157
        },
        {
          "duration": 0.4550009479166661,
          "durationTicks": 455,
          "midi": 47,
          "name": "B2",
          "ticks": 49440,
          "time": 49.440103,
          "velocity": 0.5039370078740157
        },
        {
          "duration": 0.4550009479166661,
          "durationTicks": 455,
          "midi": 54,
          "name": "F#3",
          "ticks": 49440,
          "time": 49.440103,
          "velocity": 0.5039370078740157
        },
        {
          "duration": 1.367002847916666,
          "durationTicks": 1367,
          "midi": 42,
          "name": "F#2",
          "ticks": 49920,
          "time": 49.920104,
          "velocity": 0.5039370078740157
        },
        {
          "duration": 1.367002847916666,
          "durationTicks": 1367,
          "midi": 49,
          "name": "C#3",
          "ticks": 49920,
          "time": 49.920104,
          "velocity": 0.5039370078740157
        },
        {
          "duration": 0.4550009479166732,
          "durationTicks": 455,
          "midi": 42,
          "name": "F#2",
          "ticks": 51360,
          "time": 51.360107,
          "velocity": 0.5039370078740157
        },
        {
          "duration": 0.4550009479166732,
          "durationTicks": 455,
          "midi": 49,
          "name": "C#3",
          "ticks": 51360,
          "time": 51.360107,
          "velocity": 0.5039370078740157
        },
        {
          "duration": 1.367002847916666,
          "durationTicks": 1367,
          "midi": 42,
          "name": "F#2",
          "ticks": 51840,
          "time": 51.840108,
          "velocity": 0.5039370078740157
        },
        {
          "duration": 1.367002847916666,
          "durationTicks": 1367,
          "midi": 49,
          "name": "C#3",
          "ticks": 51840,
          "time": 51.840108,
          "velocity": 0.5039370078740157
        },
        {
          "duration": 0.4550009479166732,
          "durationTicks": 455,
          "midi": 42,
          "name": "F#2",
          "ticks": 53280,
          "time": 53.280111,
          "velocity": 0.5039370078740157
        },
        {
          "duration": 0.4550009479166732,
          "durationTicks": 455,
          "midi": 49,
          "name": "C#3",
          "ticks": 53280,
          "time": 53.280111,
          "velocity": 0.5039370078740157
        },
        {
          "duration": 1.367002847916666,
          "durationTicks": 1367,
          "midi": 49,
          "name": "C#3",
          "ticks": 53760,
          "time": 53.760112,
          "velocity": 0.5039370078740157
        },
        {
          "duration": 1.367002847916666,
          "durationTicks": 1367,
          "midi": 56,
          "name": "G#3",
          "ticks": 53760,
          "time": 53.760112,
          "velocity": 0.5039370078740157
        },
        {
          "duration": 0.4550009479166661,
          "durationTicks": 455,
          "midi": 49,
          "name": "C#3",
          "ticks": 55200,
          "time": 55.200115000000004,
          "velocity": 0.5039370078740157
        },
        {
          "duration": 0.4550009479166661,
          "durationTicks": 455,
          "midi": 56,
          "name": "G#3",
          "ticks": 55200,
          "time": 55.200115000000004,
          "velocity": 0.5039370078740157
        },
        {
          "duration": 1.367002847916666,
          "durationTicks": 1367,
          "midi": 47,
          "name": "B2",
          "ticks": 55680,
          "time": 55.680116,
          "velocity": 0.5039370078740157
        },
        {
          "duration": 1.367002847916666,
          "durationTicks": 1367,
          "midi": 54,
          "name": "F#3",
          "ticks": 55680,
          "time": 55.680116,
          "velocity": 0.5039370078740157
        },
        {
          "duration": 0.4550009479166661,
          "durationTicks": 455,
          "midi": 47,
          "name": "B2",
          "ticks": 57120,
          "time": 57.120119,
          "velocity": 0.5039370078740157
        },
        {
          "duration": 0.4550009479166661,
          "durationTicks": 455,
          "midi": 54,
          "name": "F#3",
          "ticks": 57120,
          "time": 57.120119,
          "velocity": 0.5039370078740157
        },
        {
          "duration": 1.367002847916659,
          "durationTicks": 1367,
          "midi": 42,
          "name": "F#2",
          "ticks": 57600,
          "time": 57.600120000000004,
          "velocity": 0.5039370078740157
        },
        {
          "duration": 1.367002847916659,
          "durationTicks": 1367,
          "midi": 49,
          "name": "C#3",
          "ticks": 57600,
          "time": 57.600120000000004,
          "velocity": 0.5039370078740157
        },
        {
          "duration": 0.4550009479166661,
          "durationTicks": 455,
          "midi": 42,
          "name": "F#2",
          "ticks": 59040,
          "time": 59.040123,
          "velocity": 0.5039370078740157
        },
        {
          "duration": 0.4550009479166661,
          "durationTicks": 455,
          "midi": 49,
          "name": "C#3",
          "ticks": 59040,
          "time": 59.040123,
          "velocity": 0.5039370078740157
        },
        {
          "duration": 1.367002847916666,
          "durationTicks": 1367,
          "midi": 42,
          "name": "F#2",
          "ticks": 59520,
          "time": 59.520124,
          "velocity": 0.5039370078740157
        },
        {
          "duration": 1.367002847916666,
          "durationTicks": 1367,
          "midi": 49,
          "name": "C#3",
          "ticks": 59520,
          "time": 59.520124,
          "velocity": 0.5039370078740157
        },
        {
          "duration": 0.4550009479166732,
          "durationTicks": 455,
          "midi": 42,
          "name": "F#2",
          "ticks": 60960,
          "time": 60.960127,
          "velocity": 0.5039370078740157
        },
        {
          "duration": 0.4550009479166732,
          "durationTicks": 455,
          "midi": 49,
          "name": "C#3",
          "ticks": 60960,
          "time": 60.960127,
          "velocity": 0.5039370078740157
        },
        {
          "duration": 1.367002847916666,
          "durationTicks": 1367,
          "midi": 49,
          "name": "C#3",
          "ticks": 61440,
          "time": 61.440128,
          "velocity": 0.5039370078740157
        },
        {
          "duration": 1.367002847916666,
          "durationTicks": 1367,
          "midi": 56,
          "name": "G#3",
          "ticks": 61440,
          "time": 61.440128,
          "velocity": 0.5039370078740157
        },
        {
          "duration": 1.367002847916666,
          "durationTicks": 1367,
          "midi": 61,
          "name": "C#4",
          "ticks": 61440,
          "time": 61.440128,
          "velocity": 0.5039370078740157
        },
        {
          "duration": 0.4550009479166661,
          "durationTicks": 455,
          "midi": 49,
          "name": "C#3",
          "ticks": 62880,
          "time": 62.880131,
          "velocity": 0.5039370078740157
        },
        {
          "duration": 0.4550009479166661,
          "durationTicks": 455,
          "midi": 56,
          "name": "G#3",
          "ticks": 62880,
          "time": 62.880131,
          "velocity": 0.5039370078740157
        },
        {
          "duration": 0.4550009479166661,
          "durationTicks": 455,
          "midi": 61,
          "name": "C#4",
          "ticks": 62880,
          "time": 62.880131,
          "velocity": 0.5039370078740157
        },
        {
          "duration": 1.3670028479166731,
          "durationTicks": 1367,
          "midi": 47,
          "name": "B2",
          "ticks": 63360,
          "time": 63.360132,
          "velocity": 0.5039370078740157
        },
        {
          "duration": 1.3670028479166731,
          "durationTicks": 1367,
          "midi": 54,
          "name": "F#3",
          "ticks": 63360,
          "time": 63.360132,
          "velocity": 0.5039370078740157
        },
        {
          "duration": 1.3670028479166731,
          "durationTicks": 1367,
          "midi": 59,
          "name": "B3",
          "ticks": 63360,
          "time": 63.360132,
          "velocity": 0.5039370078740157
        },
        {
          "duration": 0.4550009479166732,
          "durationTicks": 455,
          "midi": 47,
          "name": "B2",
          "ticks": 64800,
          "time": 64.800135,
          "velocity": 0.5039370078740157
        },
        {
          "duration": 0.4550009479166732,
          "durationTicks": 455,
          "midi": 54,
          "name": "F#3",
          "ticks": 64800,
          "time": 64.800135,
          "velocity": 0.5039370078740157
        },
        {
          "duration": 0.4550009479166732,
          "durationTicks": 455,
          "midi": 59,
          "name": "B3",
          "ticks": 64800,
          "time": 64.800135,
          "velocity": 0.5039370078740157
        },
        {
          "duration": 1.367002847916666,
          "durationTicks": 1367,
          "midi": 42,
          "name": "F#2",
          "ticks": 65280,
          "time": 65.280136,
          "velocity": 0.5039370078740157
        },
        {
          "duration": 1.367002847916666,
          "durationTicks": 1367,
          "midi": 49,
          "name": "C#3",
          "ticks": 65280,
          "time": 65.280136,
          "velocity": 0.5039370078740157
        },
        {
          "duration": 1.367002847916666,
          "durationTicks": 1367,
          "midi": 54,
          "name": "F#3",
          "ticks": 65280,
          "time": 65.280136,
          "velocity": 0.5039370078740157
        },
        {
          "duration": 0.455000947916659,
          "durationTicks": 455,
          "midi": 42,
          "name": "F#2",
          "ticks": 66720,
          "time": 66.720139,
          "velocity": 0.5039370078740157
        },
        {
          "duration": 0.455000947916659,
          "durationTicks": 455,
          "midi": 49,
          "name": "C#3",
          "ticks": 66720,
          "time": 66.720139,
          "velocity": 0.5039370078740157
        },
        {
          "duration": 0.455000947916659,
          "durationTicks": 455,
          "midi": 54,
          "name": "F#3",
          "ticks": 66720,
          "time": 66.720139,
          "velocity": 0.5039370078740157
        },
        {
          "duration": 1.367002847916666,
          "durationTicks": 1367,
          "midi": 42,
          "name": "F#2",
          "ticks": 67200,
          "time": 67.20014,
          "velocity": 0.5039370078740157
        },
        {
          "duration": 1.367002847916666,
          "durationTicks": 1367,
          "midi": 49,
          "name": "C#3",
          "ticks": 67200,
          "time": 67.20014,
          "velocity": 0.5039370078740157
        },
        {
          "duration": 1.367002847916666,
          "durationTicks": 1367,
          "midi": 54,
          "name": "F#3",
          "ticks": 67200,
          "time": 67.20014,
          "velocity": 0.5039370078740157
        },
        {
          "duration": 0.4550009479166732,
          "durationTicks": 455,
          "midi": 42,
          "name": "F#2",
          "ticks": 68640,
          "time": 68.640143,
          "velocity": 0.5039370078740157
        },
        {
          "duration": 0.4550009479166732,
          "durationTicks": 455,
          "midi": 49,
          "name": "C#3",
          "ticks": 68640,
          "time": 68.640143,
          "velocity": 0.5039370078740157
        },
        {
          "duration": 0.4550009479166732,
          "durationTicks": 455,
          "midi": 54,
          "name": "F#3",
          "ticks": 68640,
          "time": 68.640143,
          "velocity": 0.5039370078740157
        },
        {
          "duration": 1.367002847916666,
          "durationTicks": 1367,
          "midi": 49,
          "name": "C#3",
          "ticks": 69120,
          "time": 69.120144,
          "velocity": 0.5039370078740157
        },
        {
          "duration": 1.367002847916666,
          "durationTicks": 1367,
          "midi": 56,
          "name": "G#3",
          "ticks": 69120,
          "time": 69.120144,
          "velocity": 0.5039370078740157
        },
        {
          "duration": 1.367002847916666,
          "durationTicks": 1367,
          "midi": 61,
          "name": "C#4",
          "ticks": 69120,
          "time": 69.120144,
          "velocity": 0.5039370078740157
        },
        {
          "duration": 0.455000947916659,
          "durationTicks": 455,
          "midi": 49,
          "name": "C#3",
          "ticks": 70560,
          "time": 70.560147,
          "velocity": 0.5039370078740157
        },
        {
          "duration": 0.455000947916659,
          "durationTicks": 455,
          "midi": 56,
          "name": "G#3",
          "ticks": 70560,
          "time": 70.560147,
          "velocity": 0.5039370078740157
        },
        {
          "duration": 0.455000947916659,
          "durationTicks": 455,
          "midi": 61,
          "name": "C#4",
          "ticks": 70560,
          "time": 70.560147,
          "velocity": 0.5039370078740157
        },
        {
          "duration": 1.367002847916666,
          "durationTicks": 1367,
          "midi": 47,
          "name": "B2",
          "ticks": 71040,
          "time": 71.040148,
          "velocity": 0.5039370078740157
        },
        {
          "duration": 1.367002847916666,
          "durationTicks": 1367,
          "midi": 54,
          "name": "F#3",
          "ticks": 71040,
          "time": 71.040148,
          "velocity": 0.5039370078740157
        },
        {
          "duration": 1.367002847916666,
          "durationTicks": 1367,
          "midi": 59,
          "name": "B3",
          "ticks": 71040,
          "time": 71.040148,
          "velocity": 0.5039370078740157
        },
        {
          "duration": 0.455000947916659,
          "durationTicks": 455,
          "midi": 47,
          "name": "B2",
          "ticks": 72480,
          "time": 72.480151,
          "velocity": 0.5039370078740157
        },
        {
          "duration": 0.455000947916659,
          "durationTicks": 455,
          "midi": 54,
          "name": "F#3",
          "ticks": 72480,
          "time": 72.480151,
          "velocity": 0.5039370078740157
        },
        {
          "duration": 0.455000947916659,
          "durationTicks": 455,
          "midi": 59,
          "name": "B3",
          "ticks": 72480,
          "time": 72.480151,
          "velocity": 0.5039370078740157
        },
        {
          "duration": 1.3670028479166518,
          "durationTicks": 1367,
          "midi": 42,
          "name": "F#2",
          "ticks": 72960,
          "time": 72.96015200000001,
          "velocity": 0.5039370078740157
        },
        {
          "duration": 1.3670028479166518,
          "durationTicks": 1367,
          "midi": 49,
          "name": "C#3",
          "ticks": 72960,
          "time": 72.96015200000001,
          "velocity": 0.5039370078740157
        },
        {
          "duration": 1.3670028479166518,
          "durationTicks": 1367,
          "midi": 54,
          "name": "F#3",
          "ticks": 72960,
          "time": 72.96015200000001,
          "velocity": 0.5039370078740157
        },
        {
          "duration": 0.455000947916659,
          "durationTicks": 455,
          "midi": 42,
          "name": "F#2",
          "ticks": 74400,
          "time": 74.400155,
          "velocity": 0.5039370078740157
        },
        {
          "duration": 0.455000947916659,
          "durationTicks": 455,
          "midi": 49,
          "name": "C#3",
          "ticks": 74400,
          "time": 74.400155,
          "velocity": 0.5039370078740157
        },
        {
          "duration": 0.455000947916659,
          "durationTicks": 455,
          "midi": 54,
          "name": "F#3",
          "ticks": 74400,
          "time": 74.400155,
          "velocity": 0.5039370078740157
        },
        {
          "duration": 1.367002847916666,
          "durationTicks": 1367,
          "midi": 42,
          "name": "F#2",
          "ticks": 74880,
          "time": 74.880156,
          "velocity": 0.5039370078740157
        },
        {
          "duration": 1.367002847916666,
          "durationTicks": 1367,
          "midi": 49,
          "name": "C#3",
          "ticks": 74880,
          "time": 74.880156,
          "velocity": 0.5039370078740157
        },
        {
          "duration": 1.367002847916666,
          "durationTicks": 1367,
          "midi": 54,
          "name": "F#3",
          "ticks": 74880,
          "time": 74.880156,
          "velocity": 0.5039370078740157
        },
        {
          "duration": 0.455000947916659,
          "durationTicks": 455,
          "midi": 42,
          "name": "F#2",
          "ticks": 76320,
          "time": 76.320159,
          "velocity": 0.5039370078740157
        },
        {
          "duration": 0.455000947916659,
          "durationTicks": 455,
          "midi": 49,
          "name": "C#3",
          "ticks": 76320,
          "time": 76.320159,
          "velocity": 0.5039370078740157
        },
        {
          "duration": 0.455000947916659,
          "durationTicks": 455,
          "midi": 54,
          "name": "F#3",
          "ticks": 76320,
          "time": 76.320159,
          "velocity": 0.5039370078740157
        },
        {
          "duration": 0.455000947916659,
          "durationTicks": 455,
          "midi": 42,
          "name": "F#2",
          "ticks": 76800,
          "time": 76.80016,
          "velocity": 0.5039370078740157
        },
        {
          "duration": 0.455000947916659,
          "durationTicks": 455,
          "midi": 49,
          "name": "C#3",
          "ticks": 76800,
          "time": 76.80016,
          "velocity": 0.5039370078740157
        },
        {
          "duration": 0.455000947916659,
          "durationTicks": 455,
          "midi": 54,
          "name": "F#3",
          "ticks": 76800,
          "time": 76.80016,
          "velocity": 0.5039370078740157
        },
        {
          "duration": 0.455000947916659,
          "durationTicks": 455,
          "midi": 42,
          "name": "F#2",
          "ticks": 77280,
          "time": 77.280161,
          "velocity": 0.5039370078740157
        },
        {
          "duration": 0.455000947916659,
          "durationTicks": 455,
          "midi": 49,
          "name": "C#3",
          "ticks": 77280,
          "time": 77.280161,
          "velocity": 0.5039370078740157
        },
        {
          "duration": 0.455000947916659,
          "durationTicks": 455,
          "midi": 54,
          "name": "F#3",
          "ticks": 77280,
          "time": 77.280161,
          "velocity": 0.5039370078740157
        },
        {
          "duration": 0.22700047291667147,
          "durationTicks": 227,
          "midi": 42,
          "name": "F#2",
          "ticks": 78000,
          "time": 78.0001625,
          "velocity": 0.5039370078740157
        },
        {
          "duration": 0.22700047291667147,
          "durationTicks": 227,
          "midi": 49,
          "name": "C#3",
          "ticks": 78000,
          "time": 78.0001625,
          "velocity": 0.5039370078740157
        },
        {
          "duration": 0.22700047291667147,
          "durationTicks": 227,
          "midi": 54,
          "name": "F#3",
          "ticks": 78000,
          "time": 78.0001625,
          "velocity": 0.5039370078740157
        },
        {
          "duration": 0.4550009479166732,
          "durationTicks": 455,
          "midi": 42,
          "name": "F#2",
          "ticks": 78240,
          "time": 78.240163,
          "velocity": 0.5039370078740157
        },
        {
          "duration": 0.4550009479166732,
          "durationTicks": 455,
          "midi": 49,
          "name": "C#3",
          "ticks": 78240,
          "time": 78.240163,
          "velocity": 0.5039370078740157
        },
        {
          "duration": 0.4550009479166732,
          "durationTicks": 455,
          "midi": 54,
          "name": "F#3",
          "ticks": 78240,
          "time": 78.240163,
          "velocity": 0.5039370078740157
        },
        {
          "duration": 0.22700047291667147,
          "durationTicks": 227,
          "midi": 49,
          "name": "C#3",
          "ticks": 78720,
          "time": 78.720164,
          "velocity": 0.6299212598425197
        },
        {
          "duration": 0.22700047291665726,
          "durationTicks": 227,
          "midi": 56,
          "name": "G#3",
          "ticks": 78960,
          "time": 78.9601645,
          "velocity": 0.6299212598425197
        },
        {
          "duration": 0.22700047291665726,
          "durationTicks": 227,
          "midi": 61,
          "name": "C#4",
          "ticks": 78960,
          "time": 78.9601645,
          "velocity": 0.6299212598425197
        },
        {
          "duration": 0.22700047291667147,
          "durationTicks": 227,
          "midi": 49,
          "name": "C#3",
          "ticks": 79200,
          "time": 79.200165,
          "velocity": 0.6299212598425197
        },
        {
          "duration": 0.22700047291665726,
          "durationTicks": 227,
          "midi": 56,
          "name": "G#3",
          "ticks": 79440,
          "time": 79.4401655,
          "velocity": 0.6299212598425197
        },
        {
          "duration": 0.22700047291665726,
          "durationTicks": 227,
          "midi": 61,
          "name": "C#4",
          "ticks": 79440,
          "time": 79.4401655,
          "velocity": 0.6299212598425197
        },
        {
          "duration": 0.22700047291667147,
          "durationTicks": 227,
          "midi": 49,
          "name": "C#3",
          "ticks": 79680,
          "time": 79.680166,
          "velocity": 0.6299212598425197
        },
        {
          "duration": 0.22700047291665726,
          "durationTicks": 227,
          "midi": 56,
          "name": "G#3",
          "ticks": 79920,
          "time": 79.92016650000001,
          "velocity": 0.6299212598425197
        },
        {
          "duration": 0.22700047291665726,
          "durationTicks": 227,
          "midi": 61,
          "name": "C#4",
          "ticks": 79920,
          "time": 79.92016650000001,
          "velocity": 0.6299212598425197
        },
        {
          "duration": 0.22700047291667147,
          "durationTicks": 227,
          "midi": 49,
          "name": "C#3",
          "ticks": 80160,
          "time": 80.160167,
          "velocity": 0.6299212598425197
        },
        {
          "duration": 0.22700047291667147,
          "durationTicks": 227,
          "midi": 56,
          "name": "G#3",
          "ticks": 80400,
          "time": 80.4001675,
          "velocity": 0.6299212598425197
        },
        {
          "duration": 0.22700047291667147,
          "durationTicks": 227,
          "midi": 61,
          "name": "C#4",
          "ticks": 80400,
          "time": 80.4001675,
          "velocity": 0.6299212598425197
        },
        {
          "duration": 0.22700047291665726,
          "durationTicks": 227,
          "midi": 47,
          "name": "B2",
          "ticks": 80640,
          "time": 80.640168,
          "velocity": 0.6299212598425197
        },
        {
          "duration": 0.22700047291667147,
          "durationTicks": 227,
          "midi": 54,
          "name": "F#3",
          "ticks": 80880,
          "time": 80.8801685,
          "velocity": 0.6299212598425197
        },
        {
          "duration": 0.22700047291667147,
          "durationTicks": 227,
          "midi": 59,
          "name": "B3",
          "ticks": 80880,
          "time": 80.8801685,
          "velocity": 0.6299212598425197
        },
        {
          "duration": 0.22700047291665726,
          "durationTicks": 227,
          "midi": 47,
          "name": "B2",
          "ticks": 81120,
          "time": 81.120169,
          "velocity": 0.6299212598425197
        },
        {
          "duration": 0.22700047291667147,
          "durationTicks": 227,
          "midi": 54,
          "name": "F#3",
          "ticks": 81360,
          "time": 81.3601695,
          "velocity": 0.6299212598425197
        },
        {
          "duration": 0.22700047291667147,
          "durationTicks": 227,
          "midi": 59,
          "name": "B3",
          "ticks": 81360,
          "time": 81.3601695,
          "velocity": 0.6299212598425197
        },
        {
          "duration": 0.22700047291665726,
          "durationTicks": 227,
          "midi": 47,
          "name": "B2",
          "ticks": 81600,
          "time": 81.60017,
          "velocity": 0.6299212598425197
        },
        {
          "duration": 0.22700047291667147,
          "durationTicks": 227,
          "midi": 54,
          "name": "F#3",
          "ticks": 81840,
          "time": 81.8401705,
          "velocity": 0.6299212598425197
        },
        {
          "duration": 0.22700047291667147,
          "durationTicks": 227,
          "midi": 59,
          "name": "B3",
          "ticks": 81840,
          "time": 81.8401705,
          "velocity": 0.6299212598425197
        },
        {
          "duration": 0.22700047291665726,
          "durationTicks": 227,
          "midi": 47,
          "name": "B2",
          "ticks": 82080,
          "time": 82.080171,
          "velocity": 0.6299212598425197
        },
        {
          "duration": 0.22700047291667147,
          "durationTicks": 227,
          "midi": 54,
          "name": "F#3",
          "ticks": 82320,
          "time": 82.3201715,
          "velocity": 0.6299212598425197
        },
        {
          "duration": 0.22700047291667147,
          "durationTicks": 227,
          "midi": 59,
          "name": "B3",
          "ticks": 82320,
          "time": 82.3201715,
          "velocity": 0.6299212598425197
        },
        {
          "duration": 0.22700047291665726,
          "durationTicks": 227,
          "midi": 42,
          "name": "F#2",
          "ticks": 82560,
          "time": 82.56017200000001,
          "velocity": 0.6299212598425197
        },
        {
          "duration": 0.22700047291667147,
          "durationTicks": 227,
          "midi": 49,
          "name": "C#3",
          "ticks": 82800,
          "time": 82.8001725,
          "velocity": 0.6299212598425197
        },
        {
          "duration": 0.22700047291667147,
          "durationTicks": 227,
          "midi": 54,
          "name": "F#3",
          "ticks": 82800,
          "time": 82.8001725,
          "velocity": 0.6299212598425197
        },
        {
          "duration": 0.22700047291667147,
          "durationTicks": 227,
          "midi": 42,
          "name": "F#2",
          "ticks": 83040,
          "time": 83.040173,
          "velocity": 0.6299212598425197
        },
        {
          "duration": 0.22700047291665726,
          "durationTicks": 227,
          "midi": 49,
          "name": "C#3",
          "ticks": 83280,
          "time": 83.2801735,
          "velocity": 0.6299212598425197
        },
        {
          "duration": 0.22700047291665726,
          "durationTicks": 227,
          "midi": 54,
          "name": "F#3",
          "ticks": 83280,
          "time": 83.2801735,
          "velocity": 0.6299212598425197
        },
        {
          "duration": 0.22700047291667147,
          "durationTicks": 227,
          "midi": 42,
          "name": "F#2",
          "ticks": 83520,
          "time": 83.520174,
          "velocity": 0.6299212598425197
        },
        {
          "duration": 0.22700047291665726,
          "durationTicks": 227,
          "midi": 49,
          "name": "C#3",
          "ticks": 83760,
          "time": 83.7601745,
          "velocity": 0.6299212598425197
        },
        {
          "duration": 0.22700047291665726,
          "durationTicks": 227,
          "midi": 54,
          "name": "F#3",
          "ticks": 83760,
          "time": 83.7601745,
          "velocity": 0.6299212598425197
        },
        {
          "duration": 0.22700047291667147,
          "durationTicks": 227,
          "midi": 42,
          "name": "F#2",
          "ticks": 84000,
          "time": 84.000175,
          "velocity": 0.6299212598425197
        },
        {
          "duration": 0.22700047291665726,
          "durationTicks": 227,
          "midi": 49,
          "name": "C#3",
          "ticks": 84240,
          "time": 84.2401755,
          "velocity": 0.6299212598425197
        },
        {
          "duration": 0.22700047291665726,
          "durationTicks": 227,
          "midi": 54,
          "name": "F#3",
          "ticks": 84240,
          "time": 84.2401755,
          "velocity": 0.6299212598425197
        },
        {
          "duration": 0.22700047291667147,
          "durationTicks": 227,
          "midi": 42,
          "name": "F#2",
          "ticks": 84480,
          "time": 84.480176,
          "velocity": 0.6299212598425197
        },
        {
          "duration": 0.22700047291665726,
          "durationTicks": 227,
          "midi": 49,
          "name": "C#3",
          "ticks": 84720,
          "time": 84.72017650000001,
          "velocity": 0.6299212598425197
        },
        {
          "duration": 0.22700047291665726,
          "durationTicks": 227,
          "midi": 54,
          "name": "F#3",
          "ticks": 84720,
          "time": 84.72017650000001,
          "velocity": 0.6299212598425197
        },
        {
          "duration": 0.22700047291667147,
          "durationTicks": 227,
          "midi": 42,
          "name": "F#2",
          "ticks": 84960,
          "time": 84.960177,
          "velocity": 0.6299212598425197
        },
        {
          "duration": 0.22700047291667147,
          "durationTicks": 227,
          "midi": 49,
          "name": "C#3",
          "ticks": 85200,
          "time": 85.2001775,
          "velocity": 0.6299212598425197
        },
        {
          "duration": 0.22700047291667147,
          "durationTicks": 227,
          "midi": 54,
          "name": "F#3",
          "ticks": 85200,
          "time": 85.2001775,
          "velocity": 0.6299212598425197
        },
        {
          "duration": 0.22700047291665726,
          "durationTicks": 227,
          "midi": 42,
          "name": "F#2",
          "ticks": 85440,
          "time": 85.440178,
          "velocity": 0.6299212598425197
        },
        {
          "duration": 0.22700047291667147,
          "durationTicks": 227,
          "midi": 49,
          "name": "C#3",
          "ticks": 85680,
          "time": 85.6801785,
          "velocity": 0.6299212598425197
        },
        {
          "duration": 0.22700047291667147,
          "durationTicks": 227,
          "midi": 54,
          "name": "F#3",
          "ticks": 85680,
          "time": 85.6801785,
          "velocity": 0.6299212598425197
        },
        {
          "duration": 0.22700047291665726,
          "durationTicks": 227,
          "midi": 42,
          "name": "F#2",
          "ticks": 85920,
          "time": 85.920179,
          "velocity": 0.6299212598425197
        },
        {
          "duration": 0.22700047291667147,
          "durationTicks": 227,
          "midi": 49,
          "name": "C#3",
          "ticks": 86160,
          "time": 86.1601795,
          "velocity": 0.6299212598425197
        },
        {
          "duration": 0.22700047291667147,
          "durationTicks": 227,
          "midi": 54,
          "name": "F#3",
          "ticks": 86160,
          "time": 86.1601795,
          "velocity": 0.6299212598425197
        },
        {
          "duration": 0.22700047291665726,
          "durationTicks": 227,
          "midi": 49,
          "name": "C#3",
          "ticks": 86400,
          "time": 86.40018,
          "velocity": 0.6299212598425197
        },
        {
          "duration": 0.22700047291667147,
          "durationTicks": 227,
          "midi": 56,
          "name": "G#3",
          "ticks": 86640,
          "time": 86.6401805,
          "velocity": 0.6299212598425197
        },
        {
          "duration": 0.22700047291667147,
          "durationTicks": 227,
          "midi": 61,
          "name": "C#4",
          "ticks": 86640,
          "time": 86.6401805,
          "velocity": 0.6299212598425197
        },
        {
          "duration": 0.22700047291665726,
          "durationTicks": 227,
          "midi": 49,
          "name": "C#3",
          "ticks": 86880,
          "time": 86.88018100000001,
          "velocity": 0.6299212598425197
        },
        {
          "duration": 0.22700047291667147,
          "durationTicks": 227,
          "midi": 56,
          "name": "G#3",
          "ticks": 87120,
          "time": 87.1201815,
          "velocity": 0.6299212598425197
        },
        {
          "duration": 0.22700047291667147,
          "durationTicks": 227,
          "midi": 61,
          "name": "C#4",
          "ticks": 87120,
          "time": 87.1201815,
          "velocity": 0.6299212598425197
        },
        {
          "duration": 0.22700047291665726,
          "durationTicks": 227,
          "midi": 49,
          "name": "C#3",
          "ticks": 87360,
          "time": 87.36018200000001,
          "velocity": 0.6299212598425197
        },
        {
          "duration": 0.22700047291665726,
          "durationTicks": 227,
          "midi": 56,
          "name": "G#3",
          "ticks": 87600,
          "time": 87.6001825,
          "velocity": 0.6299212598425197
        },
        {
          "duration": 0.22700047291665726,
          "durationTicks": 227,
          "midi": 61,
          "name": "C#4",
          "ticks": 87600,
          "time": 87.6001825,
          "velocity": 0.6299212598425197
        },
        {
          "duration": 0.22700047291667147,
          "durationTicks": 227,
          "midi": 49,
          "name": "C#3",
          "ticks": 87840,
          "time": 87.840183,
          "velocity": 0.6299212598425197
        },
        {
          "duration": 0.22700047291665726,
          "durationTicks": 227,
          "midi": 56,
          "name": "G#3",
          "ticks": 88080,
          "time": 88.0801835,
          "velocity": 0.6299212598425197
        },
        {
          "duration": 0.22700047291665726,
          "durationTicks": 227,
          "midi": 61,
          "name": "C#4",
          "ticks": 88080,
          "time": 88.0801835,
          "velocity": 0.6299212598425197
        },
        {
          "duration": 0.22700047291667147,
          "durationTicks": 227,
          "midi": 47,
          "name": "B2",
          "ticks": 88320,
          "time": 88.320184,
          "velocity": 0.6299212598425197
        },
        {
          "duration": 0.22700047291665726,
          "durationTicks": 227,
          "midi": 54,
          "name": "F#3",
          "ticks": 88560,
          "time": 88.5601845,
          "velocity": 0.6299212598425197
        },
        {
          "duration": 0.22700047291665726,
          "durationTicks": 227,
          "midi": 59,
          "name": "B3",
          "ticks": 88560,
          "time": 88.5601845,
          "velocity": 0.6299212598425197
        },
        {
          "duration": 0.22700047291667147,
          "durationTicks": 227,
          "midi": 47,
          "name": "B2",
          "ticks": 88800,
          "time": 88.800185,
          "velocity": 0.6299212598425197
        },
        {
          "duration": 0.22700047291665726,
          "durationTicks": 227,
          "midi": 54,
          "name": "F#3",
          "ticks": 89040,
          "time": 89.0401855,
          "velocity": 0.6299212598425197
        },
        {
          "duration": 0.22700047291665726,
          "durationTicks": 227,
          "midi": 59,
          "name": "B3",
          "ticks": 89040,
          "time": 89.0401855,
          "velocity": 0.6299212598425197
        },
        {
          "duration": 0.22700047291667147,
          "durationTicks": 227,
          "midi": 47,
          "name": "B2",
          "ticks": 89280,
          "time": 89.280186,
          "velocity": 0.6299212598425197
        },
        {
          "duration": 0.22700047291665726,
          "durationTicks": 227,
          "midi": 54,
          "name": "F#3",
          "ticks": 89520,
          "time": 89.52018650000001,
          "velocity": 0.6299212598425197
        },
        {
          "duration": 0.22700047291665726,
          "durationTicks": 227,
          "midi": 59,
          "name": "B3",
          "ticks": 89520,
          "time": 89.52018650000001,
          "velocity": 0.6299212598425197
        },
        {
          "duration": 0.22700047291667147,
          "durationTicks": 227,
          "midi": 47,
          "name": "B2",
          "ticks": 89760,
          "time": 89.760187,
          "velocity": 0.6299212598425197
        },
        {
          "duration": 0.22700047291667147,
          "durationTicks": 227,
          "midi": 54,
          "name": "F#3",
          "ticks": 90000,
          "time": 90.0001875,
          "velocity": 0.6299212598425197
        },
        {
          "duration": 0.22700047291667147,
          "durationTicks": 227,
          "midi": 59,
          "name": "B3",
          "ticks": 90000,
          "time": 90.0001875,
          "velocity": 0.6299212598425197
        },
        {
          "duration": 0.22700047291665726,
          "durationTicks": 227,
          "midi": 42,
          "name": "F#2",
          "ticks": 90240,
          "time": 90.240188,
          "velocity": 0.6299212598425197
        },
        {
          "duration": 0.22700047291667147,
          "durationTicks": 227,
          "midi": 49,
          "name": "C#3",
          "ticks": 90480,
          "time": 90.4801885,
          "velocity": 0.6299212598425197
        },
        {
          "duration": 0.22700047291667147,
          "durationTicks": 227,
          "midi": 54,
          "name": "F#3",
          "ticks": 90480,
          "time": 90.4801885,
          "velocity": 0.6299212598425197
        },
        {
          "duration": 0.22700047291665726,
          "durationTicks": 227,
          "midi": 42,
          "name": "F#2",
          "ticks": 90720,
          "time": 90.720189,
          "velocity": 0.6299212598425197
        },
        {
          "duration": 0.22700047291667147,
          "durationTicks": 227,
          "midi": 49,
          "name": "C#3",
          "ticks": 90960,
          "time": 90.9601895,
          "velocity": 0.6299212598425197
        },
        {
          "duration": 0.22700047291667147,
          "durationTicks": 227,
          "midi": 54,
          "name": "F#3",
          "ticks": 90960,
          "time": 90.9601895,
          "velocity": 0.6299212598425197
        },
        {
          "duration": 0.22700047291665726,
          "durationTicks": 227,
          "midi": 42,
          "name": "F#2",
          "ticks": 91200,
          "time": 91.20019,
          "velocity": 0.6299212598425197
        },
        {
          "duration": 0.22700047291667147,
          "durationTicks": 227,
          "midi": 49,
          "name": "C#3",
          "ticks": 91440,
          "time": 91.4401905,
          "velocity": 0.6299212598425197
        },
        {
          "duration": 0.22700047291667147,
          "durationTicks": 227,
          "midi": 54,
          "name": "F#3",
          "ticks": 91440,
          "time": 91.4401905,
          "velocity": 0.6299212598425197
        },
        {
          "duration": 0.22700047291665726,
          "durationTicks": 227,
          "midi": 42,
          "name": "F#2",
          "ticks": 91680,
          "time": 91.68019100000001,
          "velocity": 0.6299212598425197
        },
        {
          "duration": 0.22700047291667147,
          "durationTicks": 227,
          "midi": 49,
          "name": "C#3",
          "ticks": 91920,
          "time": 91.9201915,
          "velocity": 0.6299212598425197
        },
        {
          "duration": 0.22700047291667147,
          "durationTicks": 227,
          "midi": 54,
          "name": "F#3",
          "ticks": 91920,
          "time": 91.9201915,
          "velocity": 0.6299212598425197
        },
        {
          "duration": 0.22700047291667147,
          "durationTicks": 227,
          "midi": 42,
          "name": "F#2",
          "ticks": 92160,
          "time": 92.160192,
          "velocity": 0.6299212598425197
        },
        {
          "duration": 0.22700047291665726,
          "durationTicks": 227,
          "midi": 49,
          "name": "C#3",
          "ticks": 92400,
          "time": 92.4001925,
          "velocity": 0.6299212598425197
        },
        {
          "duration": 0.22700047291665726,
          "durationTicks": 227,
          "midi": 54,
          "name": "F#3",
          "ticks": 92400,
          "time": 92.4001925,
          "velocity": 0.6299212598425197
        },
        {
          "duration": 0.22700047291667147,
          "durationTicks": 227,
          "midi": 42,
          "name": "F#2",
          "ticks": 92640,
          "time": 92.640193,
          "velocity": 0.6299212598425197
        },
        {
          "duration": 0.22700047291665726,
          "durationTicks": 227,
          "midi": 49,
          "name": "C#3",
          "ticks": 92880,
          "time": 92.8801935,
          "velocity": 0.6299212598425197
        },
        {
          "duration": 0.22700047291665726,
          "durationTicks": 227,
          "midi": 54,
          "name": "F#3",
          "ticks": 92880,
          "time": 92.8801935,
          "velocity": 0.6299212598425197
        },
        {
          "duration": 0.22700047291667147,
          "durationTicks": 227,
          "midi": 42,
          "name": "F#2",
          "ticks": 93120,
          "time": 93.120194,
          "velocity": 0.6299212598425197
        },
        {
          "duration": 0.22700047291665726,
          "durationTicks": 227,
          "midi": 49,
          "name": "C#3",
          "ticks": 93360,
          "time": 93.3601945,
          "velocity": 0.6299212598425197
        },
        {
          "duration": 0.22700047291665726,
          "durationTicks": 227,
          "midi": 54,
          "name": "F#3",
          "ticks": 93360,
          "time": 93.3601945,
          "velocity": 0.6299212598425197
        },
        {
          "duration": 0.22700047291667147,
          "durationTicks": 227,
          "midi": 42,
          "name": "F#2",
          "ticks": 93600,
          "time": 93.600195,
          "velocity": 0.6299212598425197
        },
        {
          "duration": 0.22700047291665726,
          "durationTicks": 227,
          "midi": 49,
          "name": "C#3",
          "ticks": 93840,
          "time": 93.84019550000001,
          "velocity": 0.6299212598425197
        },
        {
          "duration": 0.22700047291665726,
          "durationTicks": 227,
          "midi": 54,
          "name": "F#3",
          "ticks": 93840,
          "time": 93.84019550000001,
          "velocity": 0.6299212598425197
        },
        {
          "duration": 0.22700047291667147,
          "durationTicks": 227,
          "midi": 49,
          "name": "C#3",
          "ticks": 94080,
          "time": 94.080196,
          "velocity": 0.6299212598425197
        },
        {
          "duration": 0.22700047291665726,
          "durationTicks": 227,
          "midi": 56,
          "name": "G#3",
          "ticks": 94320,
          "time": 94.32019650000001,
          "velocity": 0.6299212598425197
        },
        {
          "duration": 0.22700047291665726,
          "durationTicks": 227,
          "midi": 61,
          "name": "C#4",
          "ticks": 94320,
          "time": 94.32019650000001,
          "velocity": 0.6299212598425197
        },
        {
          "duration": 0.22700047291667147,
          "durationTicks": 227,
          "midi": 49,
          "name": "C#3",
          "ticks": 94560,
          "time": 94.560197,
          "velocity": 0.6299212598425197
        },
        {
          "duration": 0.22700047291667147,
          "durationTicks": 227,
          "midi": 56,
          "name": "G#3",
          "ticks": 94800,
          "time": 94.8001975,
          "velocity": 0.6299212598425197
        },
        {
          "duration": 0.22700047291667147,
          "durationTicks": 227,
          "midi": 61,
          "name": "C#4",
          "ticks": 94800,
          "time": 94.8001975,
          "velocity": 0.6299212598425197
        },
        {
          "duration": 0.22700047291665726,
          "durationTicks": 227,
          "midi": 49,
          "name": "C#3",
          "ticks": 95040,
          "time": 95.040198,
          "velocity": 0.6299212598425197
        },
        {
          "duration": 0.22700047291667147,
          "durationTicks": 227,
          "midi": 56,
          "name": "G#3",
          "ticks": 95280,
          "time": 95.2801985,
          "velocity": 0.6299212598425197
        },
        {
          "duration": 0.22700047291667147,
          "durationTicks": 227,
          "midi": 61,
          "name": "C#4",
          "ticks": 95280,
          "time": 95.2801985,
          "velocity": 0.6299212598425197
        },
        {
          "duration": 0.22700047291665726,
          "durationTicks": 227,
          "midi": 49,
          "name": "C#3",
          "ticks": 95520,
          "time": 95.520199,
          "velocity": 0.6299212598425197
        },
        {
          "duration": 0.22700047291667147,
          "durationTicks": 227,
          "midi": 56,
          "name": "G#3",
          "ticks": 95760,
          "time": 95.7601995,
          "velocity": 0.6299212598425197
        },
        {
          "duration": 0.22700047291667147,
          "durationTicks": 227,
          "midi": 61,
          "name": "C#4",
          "ticks": 95760,
          "time": 95.7601995,
          "velocity": 0.6299212598425197
        },
        {
          "duration": 0.22700047291665726,
          "durationTicks": 227,
          "midi": 47,
          "name": "B2",
          "ticks": 96000,
          "time": 96.0002,
          "velocity": 0.6299212598425197
        },
        {
          "duration": 0.22700047291667147,
          "durationTicks": 227,
          "midi": 54,
          "name": "F#3",
          "ticks": 96240,
          "time": 96.2402005,
          "velocity": 0.6299212598425197
        },
        {
          "duration": 0.22700047291667147,
          "durationTicks": 227,
          "midi": 59,
          "name": "B3",
          "ticks": 96240,
          "time": 96.2402005,
          "velocity": 0.6299212598425197
        },
        {
          "duration": 0.22700047291665726,
          "durationTicks": 227,
          "midi": 47,
          "name": "B2",
          "ticks": 96480,
          "time": 96.48020100000001,
          "velocity": 0.6299212598425197
        },
        {
          "duration": 0.22700047291667147,
          "durationTicks": 227,
          "midi": 54,
          "name": "F#3",
          "ticks": 96720,
          "time": 96.7202015,
          "velocity": 0.6299212598425197
        },
        {
          "duration": 0.22700047291667147,
          "durationTicks": 227,
          "midi": 59,
          "name": "B3",
          "ticks": 96720,
          "time": 96.7202015,
          "velocity": 0.6299212598425197
        },
        {
          "duration": 0.22700047291667147,
          "durationTicks": 227,
          "midi": 47,
          "name": "B2",
          "ticks": 96960,
          "time": 96.960202,
          "velocity": 0.6299212598425197
        },
        {
          "duration": 0.22700047291665726,
          "durationTicks": 227,
          "midi": 54,
          "name": "F#3",
          "ticks": 97200,
          "time": 97.2002025,
          "velocity": 0.6299212598425197
        },
        {
          "duration": 0.22700047291665726,
          "durationTicks": 227,
          "midi": 59,
          "name": "B3",
          "ticks": 97200,
          "time": 97.2002025,
          "velocity": 0.6299212598425197
        },
        {
          "duration": 0.22700047291667147,
          "durationTicks": 227,
          "midi": 47,
          "name": "B2",
          "ticks": 97440,
          "time": 97.440203,
          "velocity": 0.6299212598425197
        },
        {
          "duration": 0.22700047291665726,
          "durationTicks": 227,
          "midi": 54,
          "name": "F#3",
          "ticks": 97680,
          "time": 97.6802035,
          "velocity": 0.6299212598425197
        },
        {
          "duration": 0.22700047291665726,
          "durationTicks": 227,
          "midi": 59,
          "name": "B3",
          "ticks": 97680,
          "time": 97.6802035,
          "velocity": 0.6299212598425197
        },
        {
          "duration": 0.22700047291667147,
          "durationTicks": 227,
          "midi": 42,
          "name": "F#2",
          "ticks": 97920,
          "time": 97.920204,
          "velocity": 0.6299212598425197
        },
        {
          "duration": 0.22700047291665726,
          "durationTicks": 227,
          "midi": 49,
          "name": "C#3",
          "ticks": 98160,
          "time": 98.1602045,
          "velocity": 0.6299212598425197
        },
        {
          "duration": 0.22700047291665726,
          "durationTicks": 227,
          "midi": 54,
          "name": "F#3",
          "ticks": 98160,
          "time": 98.1602045,
          "velocity": 0.6299212598425197
        },
        {
          "duration": 0.22700047291667147,
          "durationTicks": 227,
          "midi": 42,
          "name": "F#2",
          "ticks": 98400,
          "time": 98.400205,
          "velocity": 0.6299212598425197
        },
        {
          "duration": 0.22700047291665726,
          "durationTicks": 227,
          "midi": 49,
          "name": "C#3",
          "ticks": 98640,
          "time": 98.64020550000001,
          "velocity": 0.6299212598425197
        },
        {
          "duration": 0.22700047291665726,
          "durationTicks": 227,
          "midi": 54,
          "name": "F#3",
          "ticks": 98640,
          "time": 98.64020550000001,
          "velocity": 0.6299212598425197
        },
        {
          "duration": 0.22700047291667147,
          "durationTicks": 227,
          "midi": 42,
          "name": "F#2",
          "ticks": 98880,
          "time": 98.880206,
          "velocity": 0.6299212598425197
        },
        {
          "duration": 0.22700047291665726,
          "durationTicks": 227,
          "midi": 49,
          "name": "C#3",
          "ticks": 99120,
          "time": 99.12020650000001,
          "velocity": 0.6299212598425197
        },
        {
          "duration": 0.22700047291665726,
          "durationTicks": 227,
          "midi": 54,
          "name": "F#3",
          "ticks": 99120,
          "time": 99.12020650000001,
          "velocity": 0.6299212598425197
        },
        {
          "duration": 0.22700047291667147,
          "durationTicks": 227,
          "midi": 42,
          "name": "F#2",
          "ticks": 99360,
          "time": 99.360207,
          "velocity": 0.6299212598425197
        },
        {
          "duration": 0.22700047291667147,
          "durationTicks": 227,
          "midi": 49,
          "name": "C#3",
          "ticks": 99600,
          "time": 99.6002075,
          "velocity": 0.6299212598425197
        },
        {
          "duration": 0.22700047291667147,
          "durationTicks": 227,
          "midi": 54,
          "name": "F#3",
          "ticks": 99600,
          "time": 99.6002075,
          "velocity": 0.6299212598425197
        },
        {
          "duration": 0.22700047291665726,
          "durationTicks": 227,
          "midi": 42,
          "name": "F#2",
          "ticks": 99840,
          "time": 99.840208,
          "velocity": 0.6299212598425197
        },
        {
          "duration": 0.22700047291667147,
          "durationTicks": 227,
          "midi": 49,
          "name": "C#3",
          "ticks": 100080,
          "time": 100.0802085,
          "velocity": 0.6299212598425197
        },
        {
          "duration": 0.22700047291667147,
          "durationTicks": 227,
          "midi": 54,
          "name": "F#3",
          "ticks": 100080,
          "time": 100.0802085,
          "velocity": 0.6299212598425197
        },
        {
          "duration": 0.22700047291665726,
          "durationTicks": 227,
          "midi": 42,
          "name": "F#2",
          "ticks": 100320,
          "time": 100.320209,
          "velocity": 0.6299212598425197
        },
        {
          "duration": 0.22700047291667147,
          "durationTicks": 227,
          "midi": 49,
          "name": "C#3",
          "ticks": 100560,
          "time": 100.5602095,
          "velocity": 0.6299212598425197
        },
        {
          "duration": 0.22700047291667147,
          "durationTicks": 227,
          "midi": 54,
          "name": "F#3",
          "ticks": 100560,
          "time": 100.5602095,
          "velocity": 0.6299212598425197
        },
        {
          "duration": 0.22700047291665726,
          "durationTicks": 227,
          "midi": 42,
          "name": "F#2",
          "ticks": 100800,
          "time": 100.80021,
          "velocity": 0.6299212598425197
        },
        {
          "duration": 0.22700047291667147,
          "durationTicks": 227,
          "midi": 49,
          "name": "C#3",
          "ticks": 101040,
          "time": 101.0402105,
          "velocity": 0.6299212598425197
        },
        {
          "duration": 0.22700047291667147,
          "durationTicks": 227,
          "midi": 54,
          "name": "F#3",
          "ticks": 101040,
          "time": 101.0402105,
          "velocity": 0.6299212598425197
        },
        {
          "duration": 0.22700047291665726,
          "durationTicks": 227,
          "midi": 42,
          "name": "F#2",
          "ticks": 101280,
          "time": 101.28021100000001,
          "velocity": 0.6299212598425197
        },
        {
          "duration": 0.22700047291667147,
          "durationTicks": 227,
          "midi": 49,
          "name": "C#3",
          "ticks": 101520,
          "time": 101.5202115,
          "velocity": 0.6299212598425197
        },
        {
          "duration": 0.22700047291667147,
          "durationTicks": 227,
          "midi": 54,
          "name": "F#3",
          "ticks": 101520,
          "time": 101.5202115,
          "velocity": 0.6299212598425197
        },
        {
          "duration": 0.22700047291667147,
          "durationTicks": 227,
          "midi": 49,
          "name": "C#3",
          "ticks": 101760,
          "time": 101.760212,
          "velocity": 0.6299212598425197
        },
        {
          "duration": 0.22700047291665726,
          "durationTicks": 227,
          "midi": 56,
          "name": "G#3",
          "ticks": 102000,
          "time": 102.0002125,
          "velocity": 0.6299212598425197
        },
        {
          "duration": 0.22700047291665726,
          "durationTicks": 227,
          "midi": 61,
          "name": "C#4",
          "ticks": 102000,
          "time": 102.0002125,
          "velocity": 0.6299212598425197
        },
        {
          "duration": 0.22700047291667147,
          "durationTicks": 227,
          "midi": 49,
          "name": "C#3",
          "ticks": 102240,
          "time": 102.240213,
          "velocity": 0.6299212598425197
        },
        {
          "duration": 0.22700047291665726,
          "durationTicks": 227,
          "midi": 56,
          "name": "G#3",
          "ticks": 102480,
          "time": 102.4802135,
          "velocity": 0.6299212598425197
        },
        {
          "duration": 0.22700047291665726,
          "durationTicks": 227,
          "midi": 61,
          "name": "C#4",
          "ticks": 102480,
          "time": 102.4802135,
          "velocity": 0.6299212598425197
        },
        {
          "duration": 0.22700047291667147,
          "durationTicks": 227,
          "midi": 49,
          "name": "C#3",
          "ticks": 102720,
          "time": 102.720214,
          "velocity": 0.6299212598425197
        },
        {
          "duration": 0.22700047291665726,
          "durationTicks": 227,
          "midi": 56,
          "name": "G#3",
          "ticks": 102960,
          "time": 102.9602145,
          "velocity": 0.6299212598425197
        },
        {
          "duration": 0.22700047291665726,
          "durationTicks": 227,
          "midi": 61,
          "name": "C#4",
          "ticks": 102960,
          "time": 102.9602145,
          "velocity": 0.6299212598425197
        },
        {
          "duration": 0.22700047291667147,
          "durationTicks": 227,
          "midi": 49,
          "name": "C#3",
          "ticks": 103200,
          "time": 103.200215,
          "velocity": 0.6299212598425197
        },
        {
          "duration": 0.22700047291665726,
          "durationTicks": 227,
          "midi": 56,
          "name": "G#3",
          "ticks": 103440,
          "time": 103.44021550000001,
          "velocity": 0.6299212598425197
        },
        {
          "duration": 0.22700047291665726,
          "durationTicks": 227,
          "midi": 61,
          "name": "C#4",
          "ticks": 103440,
          "time": 103.44021550000001,
          "velocity": 0.6299212598425197
        },
        {
          "duration": 0.22700047291667147,
          "durationTicks": 227,
          "midi": 47,
          "name": "B2",
          "ticks": 103680,
          "time": 103.680216,
          "velocity": 0.6299212598425197
        },
        {
          "duration": 0.22700047291665726,
          "durationTicks": 227,
          "midi": 54,
          "name": "F#3",
          "ticks": 103920,
          "time": 103.92021650000001,
          "velocity": 0.6299212598425197
        },
        {
          "duration": 0.22700047291665726,
          "durationTicks": 227,
          "midi": 59,
          "name": "B3",
          "ticks": 103920,
          "time": 103.92021650000001,
          "velocity": 0.6299212598425197
        },
        {
          "duration": 0.22700047291665726,
          "durationTicks": 227,
          "midi": 47,
          "name": "B2",
          "ticks": 104160,
          "time": 104.160217,
          "velocity": 0.6299212598425197
        },
        {
          "duration": 0.22700047291667147,
          "durationTicks": 227,
          "midi": 54,
          "name": "F#3",
          "ticks": 104400,
          "time": 104.4002175,
          "velocity": 0.6299212598425197
        },
        {
          "duration": 0.22700047291667147,
          "durationTicks": 227,
          "midi": 59,
          "name": "B3",
          "ticks": 104400,
          "time": 104.4002175,
          "velocity": 0.6299212598425197
        },
        {
          "duration": 0.22700047291665726,
          "durationTicks": 227,
          "midi": 47,
          "name": "B2",
          "ticks": 104640,
          "time": 104.640218,
          "velocity": 0.6299212598425197
        },
        {
          "duration": 0.22700047291667147,
          "durationTicks": 227,
          "midi": 54,
          "name": "F#3",
          "ticks": 104880,
          "time": 104.8802185,
          "velocity": 0.6299212598425197
        },
        {
          "duration": 0.22700047291667147,
          "durationTicks": 227,
          "midi": 59,
          "name": "B3",
          "ticks": 104880,
          "time": 104.8802185,
          "velocity": 0.6299212598425197
        },
        {
          "duration": 0.22700047291665726,
          "durationTicks": 227,
          "midi": 47,
          "name": "B2",
          "ticks": 105120,
          "time": 105.120219,
          "velocity": 0.6299212598425197
        },
        {
          "duration": 0.22700047291667147,
          "durationTicks": 227,
          "midi": 54,
          "name": "F#3",
          "ticks": 105360,
          "time": 105.3602195,
          "velocity": 0.6299212598425197
        },
        {
          "duration": 0.22700047291667147,
          "durationTicks": 227,
          "midi": 59,
          "name": "B3",
          "ticks": 105360,
          "time": 105.3602195,
          "velocity": 0.6299212598425197
        },
        {
          "duration": 0.22700047291665726,
          "durationTicks": 227,
          "midi": 42,
          "name": "F#2",
          "ticks": 105600,
          "time": 105.60022000000001,
          "velocity": 0.6299212598425197
        },
        {
          "duration": 0.22700047291667147,
          "durationTicks": 227,
          "midi": 49,
          "name": "C#3",
          "ticks": 105840,
          "time": 105.8402205,
          "velocity": 0.6299212598425197
        },
        {
          "duration": 0.22700047291667147,
          "durationTicks": 227,
          "midi": 54,
          "name": "F#3",
          "ticks": 105840,
          "time": 105.8402205,
          "velocity": 0.6299212598425197
        },
        {
          "duration": 0.22700047291665726,
          "durationTicks": 227,
          "midi": 42,
          "name": "F#2",
          "ticks": 106080,
          "time": 106.08022100000001,
          "velocity": 0.6299212598425197
        },
        {
          "duration": 0.22700047291667147,
          "durationTicks": 227,
          "midi": 49,
          "name": "C#3",
          "ticks": 106320,
          "time": 106.3202215,
          "velocity": 0.6299212598425197
        },
        {
          "duration": 0.22700047291667147,
          "durationTicks": 227,
          "midi": 54,
          "name": "F#3",
          "ticks": 106320,
          "time": 106.3202215,
          "velocity": 0.6299212598425197
        },
        {
          "duration": 0.22700047291667147,
          "durationTicks": 227,
          "midi": 42,
          "name": "F#2",
          "ticks": 106560,
          "time": 106.560222,
          "velocity": 0.6299212598425197
        },
        {
          "duration": 0.22700047291665726,
          "durationTicks": 227,
          "midi": 49,
          "name": "C#3",
          "ticks": 106800,
          "time": 106.8002225,
          "velocity": 0.6299212598425197
        },
        {
          "duration": 0.22700047291665726,
          "durationTicks": 227,
          "midi": 54,
          "name": "F#3",
          "ticks": 106800,
          "time": 106.8002225,
          "velocity": 0.6299212598425197
        },
        {
          "duration": 0.22700047291667147,
          "durationTicks": 227,
          "midi": 42,
          "name": "F#2",
          "ticks": 107040,
          "time": 107.040223,
          "velocity": 0.6299212598425197
        },
        {
          "duration": 0.22700047291665726,
          "durationTicks": 227,
          "midi": 49,
          "name": "C#3",
          "ticks": 107280,
          "time": 107.2802235,
          "velocity": 0.6299212598425197
        },
        {
          "duration": 0.22700047291665726,
          "durationTicks": 227,
          "midi": 54,
          "name": "F#3",
          "ticks": 107280,
          "time": 107.2802235,
          "velocity": 0.6299212598425197
        },
        {
          "duration": 0.22700047291667147,
          "durationTicks": 227,
          "midi": 42,
          "name": "F#2",
          "ticks": 107520,
          "time": 107.520224,
          "velocity": 0.6299212598425197
        },
        {
          "duration": 0.22700047291665726,
          "durationTicks": 227,
          "midi": 49,
          "name": "C#3",
          "ticks": 107760,
          "time": 107.7602245,
          "velocity": 0.6299212598425197
        },
        {
          "duration": 0.22700047291665726,
          "durationTicks": 227,
          "midi": 54,
          "name": "F#3",
          "ticks": 107760,
          "time": 107.7602245,
          "velocity": 0.6299212598425197
        },
        {
          "duration": 0.22700047291667147,
          "durationTicks": 227,
          "midi": 42,
          "name": "F#2",
          "ticks": 108000,
          "time": 108.000225,
          "velocity": 0.6299212598425197
        },
        {
          "duration": 0.22700047291665726,
          "durationTicks": 227,
          "midi": 49,
          "name": "C#3",
          "ticks": 108240,
          "time": 108.24022550000001,
          "velocity": 0.6299212598425197
        },
        {
          "duration": 0.22700047291665726,
          "durationTicks": 227,
          "midi": 54,
          "name": "F#3",
          "ticks": 108240,
          "time": 108.24022550000001,
          "velocity": 0.6299212598425197
        },
        {
          "duration": 0.22700047291667147,
          "durationTicks": 227,
          "midi": 42,
          "name": "F#2",
          "ticks": 108480,
          "time": 108.480226,
          "velocity": 0.6299212598425197
        },
        {
          "duration": 0.22700047291667147,
          "durationTicks": 227,
          "midi": 49,
          "name": "C#3",
          "ticks": 108720,
          "time": 108.7202265,
          "velocity": 0.6299212598425197
        },
        {
          "duration": 0.22700047291667147,
          "durationTicks": 227,
          "midi": 54,
          "name": "F#3",
          "ticks": 108720,
          "time": 108.7202265,
          "velocity": 0.6299212598425197
        },
        {
          "duration": 0.22700047291665726,
          "durationTicks": 227,
          "midi": 42,
          "name": "F#2",
          "ticks": 108960,
          "time": 108.960227,
          "velocity": 0.6299212598425197
        },
        {
          "duration": 0.22700047291667147,
          "durationTicks": 227,
          "midi": 49,
          "name": "C#3",
          "ticks": 109200,
          "time": 109.2002275,
          "velocity": 0.6299212598425197
        },
        {
          "duration": 0.22700047291667147,
          "durationTicks": 227,
          "midi": 54,
          "name": "F#3",
          "ticks": 109200,
          "time": 109.2002275,
          "velocity": 0.6299212598425197
        },
        {
          "duration": 0.22700047291665726,
          "durationTicks": 227,
          "midi": 49,
          "name": "C#3",
          "ticks": 109440,
          "time": 109.440228,
          "velocity": 0.5039370078740157
        },
        {
          "duration": 0.22700047291667147,
          "durationTicks": 227,
          "midi": 61,
          "name": "C#4",
          "ticks": 109680,
          "time": 109.6802285,
          "velocity": 0.5039370078740157
        },
        {
          "duration": 0.22700047291665726,
          "durationTicks": 227,
          "midi": 49,
          "name": "C#3",
          "ticks": 109920,
          "time": 109.920229,
          "velocity": 0.5039370078740157
        },
        {
          "duration": 0.22700047291667147,
          "durationTicks": 227,
          "midi": 61,
          "name": "C#4",
          "ticks": 110160,
          "time": 110.1602295,
          "velocity": 0.5039370078740157
        },
        {
          "duration": 0.22700047291665726,
          "durationTicks": 227,
          "midi": 49,
          "name": "C#3",
          "ticks": 110400,
          "time": 110.40023000000001,
          "velocity": 0.5039370078740157
        },
        {
          "duration": 0.22700047291667147,
          "durationTicks": 227,
          "midi": 61,
          "name": "C#4",
          "ticks": 110640,
          "time": 110.6402305,
          "velocity": 0.5039370078740157
        },
        {
          "duration": 0.22700047291665726,
          "durationTicks": 227,
          "midi": 49,
          "name": "C#3",
          "ticks": 110880,
          "time": 110.88023100000001,
          "velocity": 0.5039370078740157
        },
        {
          "duration": 0.22700047291667147,
          "durationTicks": 227,
          "midi": 61,
          "name": "C#4",
          "ticks": 111120,
          "time": 111.1202315,
          "velocity": 0.5039370078740157
        },
        {
          "duration": 0.22700047291667147,
          "durationTicks": 227,
          "midi": 47,
          "name": "B2",
          "ticks": 111360,
          "time": 111.360232,
          "velocity": 0.5039370078740157
        },
        {
          "duration": 0.22700047291665726,
          "durationTicks": 227,
          "midi": 59,
          "name": "B3",
          "ticks": 111600,
          "time": 111.6002325,
          "velocity": 0.5039370078740157
        },
        {
          "duration": 0.22700047291667147,
          "durationTicks": 227,
          "midi": 47,
          "name": "B2",
          "ticks": 111840,
          "time": 111.840233,
          "velocity": 0.5039370078740157
        },
        {
          "duration": 0.22700047291665726,
          "durationTicks": 227,
          "midi": 59,
          "name": "B3",
          "ticks": 112080,
          "time": 112.0802335,
          "velocity": 0.5039370078740157
        },
        {
          "duration": 0.22700047291667147,
          "durationTicks": 227,
          "midi": 47,
          "name": "B2",
          "ticks": 112320,
          "time": 112.320234,
          "velocity": 0.5039370078740157
        },
        {
          "duration": 0.22700047291665726,
          "durationTicks": 227,
          "midi": 59,
          "name": "B3",
          "ticks": 112560,
          "time": 112.5602345,
          "velocity": 0.5039370078740157
        },
        {
          "duration": 0.22700047291667147,
          "durationTicks": 227,
          "midi": 47,
          "name": "B2",
          "ticks": 112800,
          "time": 112.800235,
          "velocity": 0.5039370078740157
        },
        {
          "duration": 0.22700047291665726,
          "durationTicks": 227,
          "midi": 59,
          "name": "B3",
          "ticks": 113040,
          "time": 113.04023550000001,
          "velocity": 0.5039370078740157
        },
        {
          "duration": 0.22700047291667147,
          "durationTicks": 227,
          "midi": 42,
          "name": "F#2",
          "ticks": 113280,
          "time": 113.280236,
          "velocity": 0.5039370078740157
        },
        {
          "duration": 0.22700047291667147,
          "durationTicks": 227,
          "midi": 54,
          "name": "F#3",
          "ticks": 113520,
          "time": 113.5202365,
          "velocity": 0.5039370078740157
        },
        {
          "duration": 0.22700047291665726,
          "durationTicks": 227,
          "midi": 42,
          "name": "F#2",
          "ticks": 113760,
          "time": 113.760237,
          "velocity": 0.5039370078740157
        },
        {
          "duration": 0.22700047291667147,
          "durationTicks": 227,
          "midi": 54,
          "name": "F#3",
          "ticks": 114000,
          "time": 114.0002375,
          "velocity": 0.5039370078740157
        },
        {
          "duration": 0.22700047291665726,
          "durationTicks": 227,
          "midi": 42,
          "name": "F#2",
          "ticks": 114240,
          "time": 114.240238,
          "velocity": 0.5039370078740157
        },
        {
          "duration": 0.22700047291667147,
          "durationTicks": 227,
          "midi": 54,
          "name": "F#3",
          "ticks": 114480,
          "time": 114.4802385,
          "velocity": 0.5039370078740157
        },
        {
          "duration": 0.22700047291665726,
          "durationTicks": 227,
          "midi": 42,
          "name": "F#2",
          "ticks": 114720,
          "time": 114.720239,
          "velocity": 0.5039370078740157
        },
        {
          "duration": 0.22700047291667147,
          "durationTicks": 227,
          "midi": 54,
          "name": "F#3",
          "ticks": 114960,
          "time": 114.9602395,
          "velocity": 0.5039370078740157
        },
        {
          "duration": 0.22700047291665726,
          "durationTicks": 227,
          "midi": 42,
          "name": "F#2",
          "ticks": 115200,
          "time": 115.20024000000001,
          "velocity": 0.5039370078740157
        },
        {
          "duration": 0.22700047291667147,
          "durationTicks": 227,
          "midi": 54,
          "name": "F#3",
          "ticks": 115440,
          "time": 115.4402405,
          "velocity": 0.5039370078740157
        },
        {
          "duration": 0.22700047291665726,
          "durationTicks": 227,
          "midi": 42,
          "name": "F#2",
          "ticks": 115680,
          "time": 115.68024100000001,
          "velocity": 0.5039370078740157
        },
        {
          "duration": 0.22700047291667147,
          "durationTicks": 227,
          "midi": 54,
          "name": "F#3",
          "ticks": 115920,
          "time": 115.9202415,
          "velocity": 0.5039370078740157
        },
        {
          "duration": 0.22700047291667147,
          "durationTicks": 227,
          "midi": 42,
          "name": "F#2",
          "ticks": 116160,
          "time": 116.160242,
          "velocity": 0.5039370078740157
        },
        {
          "duration": 0.22700047291665726,
          "durationTicks": 227,
          "midi": 54,
          "name": "F#3",
          "ticks": 116400,
          "time": 116.4002425,
          "velocity": 0.5039370078740157
        },
        {
          "duration": 0.22700047291667147,
          "durationTicks": 227,
          "midi": 42,
          "name": "F#2",
          "ticks": 116640,
          "time": 116.640243,
          "velocity": 0.5039370078740157
        },
        {
          "duration": 0.22700047291665726,
          "durationTicks": 227,
          "midi": 54,
          "name": "F#3",
          "ticks": 116880,
          "time": 116.8802435,
          "velocity": 0.5039370078740157
        },
        {
          "duration": 0.22700047291667147,
          "durationTicks": 227,
          "midi": 49,
          "name": "C#3",
          "ticks": 117120,
          "time": 117.120244,
          "velocity": 0.5039370078740157
        },
        {
          "duration": 0.22700047291665726,
          "durationTicks": 227,
          "midi": 61,
          "name": "C#4",
          "ticks": 117360,
          "time": 117.36024450000001,
          "velocity": 0.5039370078740157
        },
        {
          "duration": 0.22700047291667147,
          "durationTicks": 227,
          "midi": 49,
          "name": "C#3",
          "ticks": 117600,
          "time": 117.600245,
          "velocity": 0.5039370078740157
        },
        {
          "duration": 0.22700047291665726,
          "durationTicks": 227,
          "midi": 61,
          "name": "C#4",
          "ticks": 117840,
          "time": 117.84024550000001,
          "velocity": 0.5039370078740157
        },
        {
          "duration": 0.22700047291667147,
          "durationTicks": 227,
          "midi": 49,
          "name": "C#3",
          "ticks": 118080,
          "time": 118.080246,
          "velocity": 0.5039370078740157
        },
        {
          "duration": 0.22700047291667147,
          "durationTicks": 227,
          "midi": 61,
          "name": "C#4",
          "ticks": 118320,
          "time": 118.3202465,
          "velocity": 0.5039370078740157
        },
        {
          "duration": 0.22700047291665726,
          "durationTicks": 227,
          "midi": 49,
          "name": "C#3",
          "ticks": 118560,
          "time": 118.560247,
          "velocity": 0.5039370078740157
        },
        {
          "duration": 0.22700047291667147,
          "durationTicks": 227,
          "midi": 61,
          "name": "C#4",
          "ticks": 118800,
          "time": 118.8002475,
          "velocity": 0.5039370078740157
        },
        {
          "duration": 0.24673859583333524,
          "durationTicks": 227,
          "midi": 47,
          "name": "B2",
          "ticks": 119040,
          "time": 119.040248,
          "velocity": 0.5039370078740157
        },
        {
          "duration": 0.24673859583333524,
          "durationTicks": 227,
          "midi": 59,
          "name": "B3",
          "ticks": 119280,
          "time": 119.301117,
          "velocity": 0.5039370078740157
        },
        {
          "duration": 0.24673859583333524,
          "durationTicks": 227,
          "midi": 47,
          "name": "B2",
          "ticks": 119520,
          "time": 119.561986,
          "velocity": 0.5039370078740157
        },
        {
          "duration": 0.24673859583333524,
          "durationTicks": 227,
          "midi": 59,
          "name": "B3",
          "ticks": 119760,
          "time": 119.822855,
          "velocity": 0.5039370078740157
        },
        {
          "duration": 0.24673859583333524,
          "durationTicks": 227,
          "midi": 47,
          "name": "B2",
          "ticks": 120000,
          "time": 120.083724,
          "velocity": 0.5039370078740157
        },
        {
          "duration": 0.24673859583333524,
          "durationTicks": 227,
          "midi": 59,
          "name": "B3",
          "ticks": 120240,
          "time": 120.344593,
          "velocity": 0.5039370078740157
        },
        {
          "duration": 0.24673859583333524,
          "durationTicks": 227,
          "midi": 47,
          "name": "B2",
          "ticks": 120480,
          "time": 120.605462,
          "velocity": 0.5039370078740157
        },
        {
          "duration": 0.24673859583333524,
          "durationTicks": 227,
          "midi": 59,
          "name": "B3",
          "ticks": 120720,
          "time": 120.866331,
          "velocity": 0.5039370078740157
        },
        {
          "duration": 0.2837495270833301,
          "durationTicks": 227,
          "midi": 42,
          "name": "F#2",
          "ticks": 120960,
          "time": 121.1272,
          "velocity": 0.5039370078740157
        },
        {
          "duration": 0.2837495270833301,
          "durationTicks": 227,
          "midi": 54,
          "name": "F#3",
          "ticks": 121200,
          "time": 121.4271995,
          "velocity": 0.5039370078740157
        },
        {
          "duration": 0.2837495270833301,
          "durationTicks": 227,
          "midi": 42,
          "name": "F#2",
          "ticks": 121440,
          "time": 121.727199,
          "velocity": 0.5039370078740157
        },
        {
          "duration": 0.28374952708334433,
          "durationTicks": 227,
          "midi": 54,
          "name": "F#3",
          "ticks": 121680,
          "time": 122.0271985,
          "velocity": 0.5039370078740157
        },
        {
          "duration": 0.28374952708334433,
          "durationTicks": 227,
          "midi": 42,
          "name": "F#2",
          "ticks": 121920,
          "time": 122.327198,
          "velocity": 0.5039370078740157
        },
        {
          "duration": 0.2837495270833301,
          "durationTicks": 227,
          "midi": 54,
          "name": "F#3",
          "ticks": 122160,
          "time": 122.62719750000001,
          "velocity": 0.5039370078740157
        },
        {
          "duration": 0.2837495270833301,
          "durationTicks": 227,
          "midi": 42,
          "name": "F#2",
          "ticks": 122400,
          "time": 122.927197,
          "velocity": 0.5039370078740157
        },
        {
          "duration": 0.2837495270833301,
          "durationTicks": 227,
          "midi": 54,
          "name": "F#3",
          "ticks": 122640,
          "time": 123.2271965,
          "velocity": 0.5039370078740157
        },
        {
          "duration": 0.2837495270833301,
          "durationTicks": 227,
          "midi": 42,
          "name": "F#2",
          "ticks": 122880,
          "time": 123.527196,
          "velocity": 0.5039370078740157
        },
        {
          "duration": 0.2837495270833301,
          "durationTicks": 227,
          "midi": 54,
          "name": "F#3",
          "ticks": 123120,
          "time": 123.8271955,
          "velocity": 0.5039370078740157
        },
        {
          "duration": 0.2837495270833301,
          "durationTicks": 227,
          "midi": 42,
          "name": "F#2",
          "ticks": 123360,
          "time": 124.127195,
          "velocity": 0.5039370078740157
        },
        {
          "duration": 0.2837495270833301,
          "durationTicks": 227,
          "midi": 54,
          "name": "F#3",
          "ticks": 123600,
          "time": 124.4271945,
          "velocity": 0.5039370078740157
        },
        {
          "duration": 0.28374952708334433,
          "durationTicks": 227,
          "midi": 42,
          "name": "F#2",
          "ticks": 123840,
          "time": 124.727194,
          "velocity": 0.5039370078740157
        },
        {
          "duration": 0.28374952708334433,
          "durationTicks": 227,
          "midi": 54,
          "name": "F#3",
          "ticks": 124080,
          "time": 125.0271935,
          "velocity": 0.5039370078740157
        },
        {
          "duration": 0.28374952708334433,
          "durationTicks": 227,
          "midi": 42,
          "name": "F#2",
          "ticks": 124320,
          "time": 125.327193,
          "velocity": 0.5039370078740157
        },
        {
          "duration": 0.2837495270833301,
          "durationTicks": 227,
          "midi": 54,
          "name": "F#3",
          "ticks": 124560,
          "time": 125.6271925,
          "velocity": 0.5039370078740157
        },
        {
          "duration": 2.278746202083326,
          "durationTicks": 1823,
          "midi": 49,
          "name": "C#3",
          "ticks": 124800,
          "time": 125.927192,
          "velocity": 0.5039370078740157
        },
        {
          "duration": 2.278746202083326,
          "durationTicks": 1823,
          "midi": 52,
          "name": "E3",
          "ticks": 124800,
          "time": 125.927192,
          "velocity": 0.5039370078740157
        },
        {
          "duration": 2.278746202083326,
          "durationTicks": 1823,
          "midi": 56,
          "name": "G#3",
          "ticks": 124800,
          "time": 125.927192,
          "velocity": 0.5039370078740157
        },
        {
          "duration": 2.278746202083326,
          "durationTicks": 1823,
          "midi": 61,
          "name": "C#4",
          "ticks": 124800,
          "time": 125.927192,
          "velocity": 0.5039370078740157
        }
      ]
    }
  ]
}