{
  "header": {
    "keySignatures": [
      {
        "key": "B",
        "scale": "major",
        "ticks": 0
      }
    ],
    "meta": [
      {
        "ticks": 0,
        "type": "portPrefix"
      }
    ],
    "name": "",
    "ppq": 480,
    "tempos": [
      {
        "bpm": 82.00014760026568,
        "ticks": 0
      },
      {
        "bpm": 96,
        "ticks": 15360
      },
      {
        "bpm": 82.00014760026568,
        "ticks": 140160
      }
    ],
    "timeSignatures": [
      {
        "ticks": 0,
        "timeSignature": [
          4,
          4
        ],
        "measures": 0
      }
    ]
  },
  "tracks": [
    {
      "channel": 0,
      "controlChanges": {
        "7": [
          {
            "number": 7,
            "ticks": 0,
            "time": 0,
            "value": 0.7874015748031497
          }
        ],
        "10": [
          {
            "number": 10,
            "ticks": 0,
            "time": 0,
            "value": 0.5039370078740157
          }
        ],
        "91": [
          {
            "number": 91,
            "ticks": 0,
            "time": 0,
            "value": 0
          }
        ],
        "93": [
          {
            "number": 93,
            "ticks": 0,
            "time": 0,
            "value": 0
          }
        ],
        "121": [
          {
            "number": 121,
            "ticks": 0,
            "time": 0,
            "value": 0
          }
        ]
      },
      "instrument": {
        "family": "piano",
        "name": "acoustic grand piano",
        "number": 0
      },
      "name": "",
      "notes": [
        {
          "duration": 0.3460359625,
          "durationTicks": 227,
          "midi": 75,
          "name": "D#5",
          "ticks": 0,
          "time": 0,
          "velocity": 0.6299212598425197
        },
        {
          "duration": 0.34603596250000007,
          "durationTicks": 227,
          "midi": 73,
          "name": "C#5",
          "ticks": 240,
          "time": 0.36585300000000004,
          "velocity": 0.6299212598425197
        },
        {
          "duration": 0.3460359625000001,
          "durationTicks": 227,
          "midi": 80,
          "name": "G#5",
          "ticks": 480,
          "time": 0.7317060000000001,
          "velocity": 0.6299212598425197
        },
        {
          "duration": 0.3460359625,
          "durationTicks": 227,
          "midi": 73,
          "name": "C#5",
          "ticks": 720,
          "time": 1.0975590000000002,
          "velocity": 0.6299212598425197
        },
        {
          "duration": 0.34603596250000024,
          "durationTicks": 227,
          "midi": 75,
          "name": "D#5",
          "ticks": 960,
          "time": 1.4634120000000002,
          "velocity": 0.6299212598425197
        },
        {
          "duration": 0.34603596250000046,
          "durationTicks": 227,
          "midi": 73,
          "name": "C#5",
          "ticks": 1200,
          "time": 1.8292650000000001,
          "velocity": 0.6299212598425197
        },
        {
          "duration": 0.34603596250000024,
          "durationTicks": 227,
          "midi": 68,
          "name": "G#4",
          "ticks": 1440,
          "time": 2.1951180000000003,
          "velocity": 0.6299212598425197
        },
        {
          "duration": 0.34603596250000024,
          "durationTicks": 227,
          "midi": 73,
          "name": "C#5",
          "ticks": 1680,
          "time": 2.5609710000000003,
          "velocity": 0.6299212598425197
        },
        {
          "duration": 0.3460359624999998,
          "durationTicks": 227,
          "midi": 75,
          "name": "D#5",
          "ticks": 1920,
          "time": 2.9268240000000003,
          "velocity": 0.6299212598425197
        },
        {
          "duration": 0.3460359624999998,
          "durationTicks": 227,
          "midi": 73,
          "name": "C#5",
          "ticks": 2160,
          "time": 3.2926770000000003,
          "velocity": 0.6299212598425197
        },
        {
          "duration": 0.3460359624999998,
          "durationTicks": 227,
          "midi": 80,
          "name": "G#5",
          "ticks": 2400,
          "time": 3.6585300000000003,
          "velocity": 0.6299212598425197
        },
        {
          "duration": 0.34603596250000024,
          "durationTicks": 227,
          "midi": 73,
          "name": "C#5",
          "ticks": 2640,
          "time": 4.024383,
          "velocity": 0.6299212598425197
        },
        {
          "duration": 0.34603596249999935,
          "durationTicks": 227,
          "midi": 75,
          "name": "D#5",
          "ticks": 2880,
          "time": 4.390236000000001,
          "velocity": 0.6299212598425197
        },
        {
          "duration": 0.34603596250000024,
          "durationTicks": 227,
          "midi": 73,
          "name": "C#5",
          "ticks": 3120,
          "time": 4.756089,
          "velocity": 0.6299212598425197
        },
        {
          "duration": 0.34603596249999935,
          "durationTicks": 227,
          "midi": 68,
          "name": "G#4",
          "ticks": 3360,
          "time": 5.121942000000001,
          "velocity": 0.6299212598425197
        },
        {
          "duration": 0.34603596250000024,
          "durationTicks": 227,
          "midi": 73,
          "name": "C#5",
          "ticks": 3600,
          "time": 5.487795,
          "velocity": 0.6299212598425197
        },
        {
          "duration": 0.34603596250000024,
          "durationTicks": 227,
          "midi": 75,
          "name": "D#5",
          "ticks": 3840,
          "time": 5.853648000000001,
          "velocity": 0.6299212598425197
        },
        {
          "duration": 0.34603596249999935,
          "durationTicks": 227,
          "midi": 73,
          "name": "C#5",
          "ticks": 4080,
          "time": 6.219501000000001,
          "velocity": 0.6299212598425197
        },
        {
          "duration": 0.34603596250000024,
          "durationTicks": 227,
          "midi": 80,
          "name": "G#5",
          "ticks": 4320,
          "time": 6.585354000000001,
          "velocity": 0.6299212598425197
        },
        {
          "duration": 0.34603596249999935,
          "durationTicks": 227,
          "midi": 73,
          "name": "C#5",
          "ticks": 4560,
          "time": 6.951207000000001,
          "velocity": 0.6299212598425197
        },
        {
          "duration": 0.34603596250000024,
          "durationTicks": 227,
          "midi": 75,
          "name": "D#5",
          "ticks": 4800,
          "time": 7.317060000000001,
          "velocity": 0.6299212598425197
        },
        {
          "duration": 0.34603596250000024,
          "durationTicks": 227,
          "midi": 73,
          "name": "C#5",
          "ticks": 5040,
          "time": 7.682913000000001,
          "velocity": 0.6299212598425197
        },
        {
          "duration": 0.34603596250000024,
          "durationTicks": 227,
          "midi": 68,
          "name": "G#4",
          "ticks": 5280,
          "time": 8.048766,
          "velocity": 0.6299212598425197
        },
        {
          "duration": 0.34603596250000024,
          "durationTicks": 227,
          "midi": 73,
          "name": "C#5",
          "ticks": 5520,
          "time": 8.414619,
          "velocity": 0.6299212598425197
        },
        {
          "duration": 0.34603596250000024,
          "durationTicks": 227,
          "midi": 75,
          "name": "D#5",
          "ticks": 5760,
          "time": 8.780472000000001,
          "velocity": 0.6299212598425197
        },
        {
          "duration": 0.34603596250000024,
          "durationTicks": 227,
          "midi": 73,
          "name": "C#5",
          "ticks": 6000,
          "time": 9.146325000000001,
          "velocity": 0.6299212598425197
        },
        {
          "duration": 0.34603596250000024,
          "durationTicks": 227,
          "midi": 80,
          "name": "G#5",
          "ticks": 6240,
          "time": 9.512178,
          "velocity": 0.6299212598425197
        },
        {
          "duration": 0.34603596249999846,
          "durationTicks": 227,
          "midi": 73,
          "name": "C#5",
          "ticks": 6480,
          "time": 9.878031000000002,
          "velocity": 0.6299212598425197
        },
        {
          "duration": 0.34603596250000024,
          "durationTicks": 227,
          "midi": 75,
          "name": "D#5",
          "ticks": 6720,
          "time": 10.243884000000001,
          "velocity": 0.6299212598425197
        },
        {
          "duration": 0.34603596250000024,
          "durationTicks": 227,
          "midi": 73,
          "name": "C#5",
          "ticks": 6960,
          "time": 10.609737,
          "velocity": 0.6299212598425197
        },
        {
          "duration": 0.34603596250000024,
          "durationTicks": 227,
          "midi": 68,
          "name": "G#4",
          "ticks": 7200,
          "time": 10.97559,
          "velocity": 0.6299212598425197
        },
        {
          "duration": 0.34603596250000024,
          "durationTicks": 227,
          "midi": 73,
          "name": "C#5",
          "ticks": 7440,
          "time": 11.341443000000002,
          "velocity": 0.6299212598425197
        },
        {
          "duration": 0.34603596250000024,
          "durationTicks": 227,
          "midi": 75,
          "name": "D#5",
          "ticks": 7680,
          "time": 11.707296000000001,
          "velocity": 0.6299212598425197
        },
        {
          "duration": 0.34603596250000024,
          "durationTicks": 227,
          "midi": 73,
          "name": "C#5",
          "ticks": 7920,
          "time": 12.073149,
          "velocity": 0.6299212598425197
        },
        {
          "duration": 0.34603596249999846,
          "durationTicks": 227,
          "midi": 80,
          "name": "G#5",
          "ticks": 8160,
          "time": 12.439002000000002,
          "velocity": 0.6299212598425197
        },
        {
          "duration": 0.34603596250000024,
          "durationTicks": 227,
          "midi": 73,
          "name": "C#5",
          "ticks": 8400,
          "time": 12.804855000000002,
          "velocity": 0.6299212598425197
        },
        {
          "duration": 0.34603596250000024,
          "durationTicks": 227,
          "midi": 75,
          "name": "D#5",
          "ticks": 8640,
          "time": 13.170708000000001,
          "velocity": 0.6299212598425197
        },
        {
          "duration": 0.34603596250000024,
          "durationTicks": 227,
          "midi": 73,
          "name": "C#5",
          "ticks": 8880,
          "time": 13.536561,
          "velocity": 0.6299212598425197
        },
        {
          "duration": 0.34603596249999846,
          "durationTicks": 227,
          "midi": 68,
          "name": "G#4",
          "ticks": 9120,
          "time": 13.902414000000002,
          "velocity": 0.6299212598425197
        },
        {
          "duration": 0.34603596250000024,
          "durationTicks": 227,
          "midi": 73,
          "name": "C#5",
          "ticks": 9360,
          "time": 14.268267000000002,
          "velocity": 0.6299212598425197
        },
        {
          "duration": 0.34603596250000024,
          "durationTicks": 227,
          "midi": 75,
          "name": "D#5",
          "ticks": 9600,
          "time": 14.634120000000001,
          "velocity": 0.6299212598425197
        },
        {
          "duration": 0.34603596249999846,
          "durationTicks": 227,
          "midi": 73,
          "name": "C#5",
          "ticks": 9840,
          "time": 14.999973000000002,
          "velocity": 0.6299212598425197
        },
        {
          "duration": 0.34603596250000024,
          "durationTicks": 227,
          "midi": 80,
          "name": "G#5",
          "ticks": 10080,
          "time": 15.365826000000002,
          "velocity": 0.6299212598425197
        },
        {
          "duration": 0.34603596249999846,
          "durationTicks": 227,
          "midi": 73,
          "name": "C#5",
          "ticks": 10320,
          "time": 15.731679000000002,
          "velocity": 0.6299212598425197
        },
        {
          "duration": 0.34603596250000024,
          "durationTicks": 227,
          "midi": 75,
          "name": "D#5",
          "ticks": 10560,
          "time": 16.097532,
          "velocity": 0.6299212598425197
        },
        {
          "duration": 0.34603596250000024,
          "durationTicks": 227,
          "midi": 73,
          "name": "C#5",
          "ticks": 10800,
          "time": 16.463385000000002,
          "velocity": 0.6299212598425197
        },
        {
          "duration": 0.34603596250000024,
          "durationTicks": 227,
          "midi": 68,
          "name": "G#4",
          "ticks": 11040,
          "time": 16.829238,
          "velocity": 0.6299212598425197
        },
        {
          "duration": 0.34603596250000024,
          "durationTicks": 227,
          "midi": 73,
          "name": "C#5",
          "ticks": 11280,
          "time": 17.195091,
          "velocity": 0.6299212598425197
        },
        {
          "duration": 0.34603596250000024,
          "durationTicks": 227,
          "midi": 75,
          "name": "D#5",
          "ticks": 11520,
          "time": 17.560944000000003,
          "velocity": 0.6299212598425197
        },
        {
          "duration": 0.34603596250000024,
          "durationTicks": 227,
          "midi": 73,
          "name": "C#5",
          "ticks": 11760,
          "time": 17.926797,
          "velocity": 0.6299212598425197
        },
        {
          "duration": 0.34603596250000024,
          "durationTicks": 227,
          "midi": 80,
          "name": "G#5",
          "ticks": 12000,
          "time": 18.292650000000002,
          "velocity": 0.6299212598425197
        },
        {
          "duration": 0.34603596250000024,
          "durationTicks": 227,
          "midi": 73,
          "name": "C#5",
          "ticks": 12240,
          "time": 18.658503000000003,
          "velocity": 0.6299212598425197
        },
        {
          "duration": 0.34603596250000024,
          "durationTicks": 227,
          "midi": 75,
          "name": "D#5",
          "ticks": 12480,
          "time": 19.024356,
          "velocity": 0.6299212598425197
        },
        {
          "duration": 0.34603596250000024,
          "durationTicks": 227,
          "midi": 73,
          "name": "C#5",
          "ticks": 12720,
          "time": 19.390209000000002,
          "velocity": 0.6299212598425197
        },
        {
          "duration": 0.3460359624999967,
          "durationTicks": 227,
          "midi": 68,
          "name": "G#4",
          "ticks": 12960,
          "time": 19.756062000000004,
          "velocity": 0.6299212598425197
        },
        {
          "duration": 0.34603596250000024,
          "durationTicks": 227,
          "midi": 73,
          "name": "C#5",
          "ticks": 13200,
          "time": 20.121915,
          "velocity": 0.6299212598425197
        },
        {
          "duration": 2.925299612499998,
          "durationTicks": 1919,
          "midi": 75,
          "name": "D#5",
          "ticks": 13440,
          "time": 20.487768000000003,
          "velocity": 0.6299212598425197
        },
        {
          "duration": 2.827738812499998,
          "durationTicks": 1855,
          "midi": 80,
          "name": "G#5",
          "ticks": 13503,
          "time": 20.583804412500005,
          "velocity": 0.6299212598425197
        },
        {
          "duration": 2.7317023999999996,
          "durationTicks": 1792,
          "midi": 84,
          "name": "C6",
          "ticks": 13566,
          "time": 20.679840825000003,
          "velocity": 0.6299212598425197
        },
        {
          "duration": 2.6326172125000014,
          "durationTicks": 1727,
          "midi": 87,
          "name": "D#6",
          "ticks": 13632,
          "time": 20.7804504,
          "velocity": 0.6299212598425197
        },
        {
          "duration": 0.7408854166666679,
          "durationTicks": 569,
          "midi": 75,
          "name": "D#5",
          "ticks": 15360,
          "time": 23.414592000000003,
          "velocity": 0.6299212598425197
        },
        {
          "duration": 0.14713541666666785,
          "durationTicks": 113,
          "midi": 68,
          "name": "G#4",
          "ticks": 15960,
          "time": 24.195842000000003,
          "velocity": 0.6299212598425197
        },
        {
          "duration": 0.14713541666666785,
          "durationTicks": 113,
          "midi": 71,
          "name": "B4",
          "ticks": 16080,
          "time": 24.352092000000003,
          "velocity": 0.6299212598425197
        },
        {
          "duration": 0.14713541666666785,
          "durationTicks": 113,
          "midi": 75,
          "name": "D#5",
          "ticks": 16200,
          "time": 24.508342000000003,
          "velocity": 0.6299212598425197
        },
        {
          "duration": 0.5924479166666679,
          "durationTicks": 455,
          "midi": 66,
          "name": "F#4",
          "ticks": 16320,
          "time": 24.664592000000003,
          "velocity": 0.6299212598425197
        },
        {
          "duration": 0.5924479166666679,
          "durationTicks": 455,
          "midi": 70,
          "name": "A#4",
          "ticks": 16320,
          "time": 24.664592000000003,
          "velocity": 0.6299212598425197
        },
        {
          "duration": 0.5924479166666679,
          "durationTicks": 455,
          "midi": 73,
          "name": "C#5",
          "ticks": 16320,
          "time": 24.664592000000003,
          "velocity": 0.6299212598425197
        },
        {
          "duration": 0.6236979166666679,
          "durationTicks": 479,
          "midi": 70,
          "name": "A#4",
          "ticks": 16800,
          "time": 25.289592000000003,
          "velocity": 0.6299212598425197
        },
        {
          "duration": 0.5403645833333321,
          "durationTicks": 415,
          "midi": 73,
          "name": "C#5",
          "ticks": 16863,
          "time": 25.371623250000003,
          "velocity": 0.6299212598425197
        },
        {
          "duration": 0.45703125,
          "durationTicks": 351,
          "midi": 78,
          "name": "F#5",
          "ticks": 16927,
          "time": 25.454956583333335,
          "velocity": 0.6299212598425197
        },
        {
          "duration": 0.44401041666666785,
          "durationTicks": 341,
          "midi": 70,
          "name": "A#4",
          "ticks": 17280,
          "time": 25.914592000000003,
          "velocity": 0.6299212598425197
        },
        {
          "duration": 0.44401041666666785,
          "durationTicks": 341,
          "midi": 73,
          "name": "C#5",
          "ticks": 17280,
          "time": 25.914592000000003,
          "velocity": 0.6299212598425197
        },
        {
          "duration": 0.14713541666666785,
          "durationTicks": 113,
          "midi": 82,
          "name": "A#5",
          "ticks": 17640,
          "time": 26.383342000000003,
          "velocity": 0.6299212598425197
        },
        {
          "duration": 0.44401041666666785,
          "durationTicks": 341,
          "midi": 80,
          "name": "G#5",
          "ticks": 17760,
          "time": 26.539592000000003,
          "velocity": 0.6299212598425197
        },
        {
          "duration": 0.14713541666666785,
          "durationTicks": 113,
          "midi": 79,
          "name": "G5",
          "ticks": 18120,
          "time": 27.008342000000003,
          "velocity": 0.6299212598425197
        },
        {
          "duration": 0.5924479166666679,
          "durationTicks": 455,
          "midi": 75,
          "name": "D#5",
          "ticks": 18240,
          "time": 27.164592000000003,
          "velocity": 0.6299212598425197
        },
        {
          "duration": 0.5924479166666679,
          "durationTicks": 455,
          "midi": 80,
          "name": "G#5",
          "ticks": 18240,
          "time": 27.164592000000003,
          "velocity": 0.6299212598425197
        },
        {
          "duration": 0.5924479166666679,
          "durationTicks": 455,
          "midi": 87,
          "name": "D#6",
          "ticks": 18720,
          "time": 27.789592000000003,
          "velocity": 0.6299212598425197
        },
        {
          "duration": 0.5924479166666679,
          "durationTicks": 455,
          "midi": 76,
          "name": "E5",
          "ticks": 19200,
          "time": 28.414592000000003,
          "velocity": 0.6299212598425197
        },
        {
          "duration": 0.5924479166666679,
          "durationTicks": 455,
          "midi": 80,
          "name": "G#5",
          "ticks": 19200,
          "time": 28.414592000000003,
          "velocity": 0.6299212598425197
        },
        {
          "duration": 0.5924479166666679,
          "durationTicks": 455,
          "midi": 80,
          "name": "G#5",
          "ticks": 19680,
          "time": 29.039592000000003,
          "velocity": 0.6299212598425197
        },
        {
          "duration": 0.5924479166666679,
          "durationTicks": 455,
          "midi": 87,
          "name": "D#6",
          "ticks": 19680,
          "time": 29.039592000000003,
          "velocity": 0.6299212598425197
        },
        {
          "duration": 0.29557291666666785,
          "durationTicks": 227,
          "midi": 85,
          "name": "C#6",
          "ticks": 20160,
          "time": 29.664592000000003,
          "velocity": 0.6299212598425197
        },
        {
          "duration": 0.09765625,
          "durationTicks": 75,
          "midi": 85,
          "name": "C#6",
          "ticks": 20400,
          "time": 29.977092000000003,
          "velocity": 0.6299212598425197
        },
        {
          "duration": 0.09765625,
          "durationTicks": 75,
          "midi": 87,
          "name": "D#6",
          "ticks": 20480,
          "time": 30.08125866666667,
          "velocity": 0.6299212598425197
        },
        {
          "duration": 0.09765625,
          "durationTicks": 75,
          "midi": 85,
          "name": "C#6",
          "ticks": 20560,
          "time": 30.185425333333335,
          "velocity": 0.6299212598425197
        },
        {
          "duration": 0.29557291666666785,
          "durationTicks": 227,
          "midi": 82,
          "name": "A#5",
          "ticks": 20640,
          "time": 30.289592000000003,
          "velocity": 0.6299212598425197
        },
        {
          "duration": 0.29557291666666785,
          "durationTicks": 227,
          "midi": 78,
          "name": "F#5",
          "ticks": 20880,
          "time": 30.602092000000003,
          "velocity": 0.6299212598425197
        },
        {
          "duration": 1.7799479166666679,
          "durationTicks": 1367,
          "midi": 80,
          "name": "G#5",
          "ticks": 21120,
          "time": 30.914592000000003,
          "velocity": 0.6299212598425197
        },
        {
          "duration": 0.29557291666666785,
          "durationTicks": 227,
          "midi": 56,
          "name": "G#3",
          "ticks": 21120,
          "time": 30.914592000000003,
          "velocity": 0.6299212598425197
        },
        {
          "duration": 0.29557291666666785,
          "durationTicks": 227,
          "midi": 63,
          "name": "D#4",
          "ticks": 21360,
          "time": 31.227092000000003,
          "velocity": 0.6299212598425197
        },
        {
          "duration": 0.29557291666666785,
          "durationTicks": 227,
          "midi": 68,
          "name": "G#4",
          "ticks": 21600,
          "time": 31.539592000000003,
          "velocity": 0.6299212598425197
        },
        {
          "duration": 0.29557291666666785,
          "durationTicks": 227,
          "midi": 70,
          "name": "A#4",
          "ticks": 21840,
          "time": 31.852092000000003,
          "velocity": 0.6299212598425197
        },
        {
          "duration": 0.2955729166666714,
          "durationTicks": 227,
          "midi": 71,
          "name": "B4",
          "ticks": 22080,
          "time": 32.164592,
          "velocity": 0.6299212598425197
        },
        {
          "duration": 0.2955729166666714,
          "durationTicks": 227,
          "midi": 63,
          "name": "D#4",
          "ticks": 22320,
          "time": 32.477092,
          "velocity": 0.6299212598425197
        },
        {
          "duration": 0.2955729166666714,
          "durationTicks": 227,
          "midi": 68,
          "name": "G#4",
          "ticks": 22560,
          "time": 32.789592,
          "velocity": 0.6299212598425197
        },
        {
          "duration": 0.2955729166666714,
          "durationTicks": 227,
          "midi": 75,
          "name": "D#5",
          "ticks": 22800,
          "time": 33.102092,
          "velocity": 0.6299212598425197
        },
        {
          "duration": 0.7721354166666714,
          "durationTicks": 593,
          "midi": 68,
          "name": "G#4",
          "ticks": 23040,
          "time": 33.414592,
          "velocity": 0.6299212598425197
        },
        {
          "duration": 0.7057291666666643,
          "durationTicks": 542,
          "midi": 71,
          "name": "B4",
          "ticks": 23090,
          "time": 33.47969616666667,
          "velocity": 0.6299212598425197
        },
        {
          "duration": 0.6380208333333357,
          "durationTicks": 490,
          "midi": 75,
          "name": "D#5",
          "ticks": 23142,
          "time": 33.5474045,
          "velocity": 0.6299212598425197
        },
        {
          "duration": 0.1471354166666714,
          "durationTicks": 113,
          "midi": 68,
          "name": "G#4",
          "ticks": 23640,
          "time": 34.195842,
          "velocity": 0.6299212598425197
        },
        {
          "duration": 0.1471354166666714,
          "durationTicks": 113,
          "midi": 71,
          "name": "B4",
          "ticks": 23760,
          "time": 34.352092,
          "velocity": 0.6299212598425197
        },
        {
          "duration": 0.1471354166666714,
          "durationTicks": 113,
          "midi": 75,
          "name": "D#5",
          "ticks": 23880,
          "time": 34.508342,
          "velocity": 0.6299212598425197
        },
        {
          "duration": 0.5924479166666714,
          "durationTicks": 455,
          "midi": 66,
          "name": "F#4",
          "ticks": 24000,
          "time": 34.664592,
          "velocity": 0.6299212598425197
        },
        {
          "duration": 0.5924479166666714,
          "durationTicks": 455,
          "midi": 70,
          "name": "A#4",
          "ticks": 24000,
          "time": 34.664592,
          "velocity": 0.6299212598425197
        },
        {
          "duration": 0.5924479166666714,
          "durationTicks": 455,
          "midi": 73,
          "name": "C#5",
          "ticks": 24000,
          "time": 34.664592,
          "velocity": 0.6299212598425197
        },
        {
          "duration": 0.5924479166666714,
          "durationTicks": 455,
          "midi": 70,
          "name": "A#4",
          "ticks": 24480,
          "time": 35.289592,
          "velocity": 0.6299212598425197
        },
        {
          "duration": 0.5924479166666714,
          "durationTicks": 455,
          "midi": 73,
          "name": "C#5",
          "ticks": 24480,
          "time": 35.289592,
          "velocity": 0.6299212598425197
        },
        {
          "duration": 0.5924479166666714,
          "durationTicks": 455,
          "midi": 78,
          "name": "F#5",
          "ticks": 24480,
          "time": 35.289592,
          "velocity": 0.6299212598425197
        },
        {
          "duration": 0.2955729166666714,
          "durationTicks": 227,
          "midi": 70,
          "name": "A#4",
          "ticks": 24960,
          "time": 35.914592,
          "velocity": 0.6299212598425197
        },
        {
          "duration": 0.2955729166666714,
          "durationTicks": 227,
          "midi": 73,
          "name": "C#5",
          "ticks": 24960,
          "time": 35.914592,
          "velocity": 0.6299212598425197
        },
        {
          "duration": 0.2955729166666714,
          "durationTicks": 227,
          "midi": 70,
          "name": "A#4",
          "ticks": 25200,
          "time": 36.227092,
          "velocity": 0.6299212598425197
        },
        {
          "duration": 0.2955729166666714,
          "durationTicks": 227,
          "midi": 79,
          "name": "G5",
          "ticks": 25200,
          "time": 36.227092,
          "velocity": 0.6299212598425197
        },
        {
          "duration": 0.2955729166666714,
          "durationTicks": 227,
          "midi": 80,
          "name": "G#5",
          "ticks": 25440,
          "time": 36.539592,
          "velocity": 0.6299212598425197
        },
        {
          "duration": 0.2955729166666714,
          "durationTicks": 227,
          "midi": 82,
          "name": "A#5",
          "ticks": 25680,
          "time": 36.852092,
          "velocity": 0.6299212598425197
        },
        {
          "duration": 0.1471354166666714,
          "durationTicks": 113,
          "midi": 75,
          "name": "D#5",
          "ticks": 25920,
          "time": 37.164592,
          "velocity": 0.6299212598425197
        },
        {
          "duration": 0.1471354166666714,
          "durationTicks": 113,
          "midi": 83,
          "name": "B5",
          "ticks": 26040,
          "time": 37.320842,
          "velocity": 0.6299212598425197
        },
        {
          "duration": 0.1471354166666714,
          "durationTicks": 113,
          "midi": 73,
          "name": "C#5",
          "ticks": 26160,
          "time": 37.477092,
          "velocity": 0.6299212598425197
        },
        {
          "duration": 0.1471354166666714,
          "durationTicks": 113,
          "midi": 82,
          "name": "A#5",
          "ticks": 26280,
          "time": 37.633342,
          "velocity": 0.6299212598425197
        },
        {
          "duration": 0.1471354166666714,
          "durationTicks": 113,
          "midi": 71,
          "name": "B4",
          "ticks": 26400,
          "time": 37.789592,
          "velocity": 0.6299212598425197
        },
        {
          "duration": 0.1471354166666714,
          "durationTicks": 113,
          "midi": 80,
          "name": "G#5",
          "ticks": 26520,
          "time": 37.945842,
          "velocity": 0.6299212598425197
        },
        {
          "duration": 0.1471354166666714,
          "durationTicks": 113,
          "midi": 70,
          "name": "A#4",
          "ticks": 26640,
          "time": 38.102092,
          "velocity": 0.6299212598425197
        },
        {
          "duration": 0.1471354166666714,
          "durationTicks": 113,
          "midi": 78,
          "name": "F#5",
          "ticks": 26760,
          "time": 38.258342,
          "velocity": 0.6299212598425197
        },
        {
          "duration": 0.1471354166666714,
          "durationTicks": 113,
          "midi": 80,
          "name": "G#5",
          "ticks": 26880,
          "time": 38.414592,
          "velocity": 0.6299212598425197
        },
        {
          "duration": 0.1471354166666714,
          "durationTicks": 113,
          "midi": 87,
          "name": "D#6",
          "ticks": 27000,
          "time": 38.570842,
          "velocity": 0.6299212598425197
        },
        {
          "duration": 0.1471354166666714,
          "durationTicks": 113,
          "midi": 85,
          "name": "C#6",
          "ticks": 27120,
          "time": 38.727092,
          "velocity": 0.6299212598425197
        },
        {
          "duration": 0.1471354166666714,
          "durationTicks": 113,
          "midi": 87,
          "name": "D#6",
          "ticks": 27240,
          "time": 38.883342,
          "velocity": 0.6299212598425197
        },
        {
          "duration": 0.1471354166666714,
          "durationTicks": 113,
          "midi": 80,
          "name": "G#5",
          "ticks": 27360,
          "time": 39.039592,
          "velocity": 0.6299212598425197
        },
        {
          "duration": 0.1471354166666714,
          "durationTicks": 113,
          "midi": 87,
          "name": "D#6",
          "ticks": 27480,
          "time": 39.195842,
          "velocity": 0.6299212598425197
        },
        {
          "duration": 0.1471354166666714,
          "durationTicks": 113,
          "midi": 85,
          "name": "C#6",
          "ticks": 27600,
          "time": 39.352092,
          "velocity": 0.6299212598425197
        },
        {
          "duration": 0.1471354166666714,
          "durationTicks": 113,
          "midi": 87,
          "name": "D#6",
          "ticks": 27720,
          "time": 39.508342,
          "velocity": 0.6299212598425197
        },
        {
          "duration": 0.1471354166666714,
          "durationTicks": 113,
          "midi": 80,
          "name": "G#5",
          "ticks": 27840,
          "time": 39.664592,
          "velocity": 0.6299212598425197
        },
        {
          "duration": 0.1471354166666714,
          "durationTicks": 113,
          "midi": 87,
          "name": "D#6",
          "ticks": 27960,
          "time": 39.820842,
          "velocity": 0.6299212598425197
        },
        {
          "duration": 0.1471354166666714,
          "durationTicks": 113,
          "midi": 85,
          "name": "C#6",
          "ticks": 28080,
          "time": 39.977092,
          "velocity": 0.6299212598425197
        },
        {
          "duration": 0.1471354166666714,
          "durationTicks": 113,
          "midi": 87,
          "name": "D#6",
          "ticks": 28200,
          "time": 40.133342,
          "velocity": 0.6299212598425197
        },
        {
          "duration": 0.1471354166666714,
          "durationTicks": 113,
          "midi": 80,
          "name": "G#5",
          "ticks": 28320,
          "time": 40.289592,
          "velocity": 0.6299212598425197
        },
        {
          "duration": 0.1471354166666714,
          "durationTicks": 113,
          "midi": 87,
          "name": "D#6",
          "ticks": 28440,
          "time": 40.445842,
          "velocity": 0.6299212598425197
        },
        {
          "duration": 0.1471354166666714,
          "durationTicks": 113,
          "midi": 85,
          "name": "C#6",
          "ticks": 28560,
          "time": 40.602092,
          "velocity": 0.6299212598425197
        },
        {
          "duration": 0.1471354166666714,
          "durationTicks": 113,
          "midi": 87,
          "name": "D#6",
          "ticks": 28680,
          "time": 40.758342,
          "velocity": 0.6299212598425197
        },
        {
          "duration": 0.1471354166666714,
          "durationTicks": 113,
          "midi": 80,
          "name": "G#5",
          "ticks": 28800,
          "time": 40.914592,
          "velocity": 0.6299212598425197
        },
        {
          "duration": 0.1471354166666714,
          "durationTicks": 113,
          "midi": 87,
          "name": "D#6",
          "ticks": 28920,
          "time": 41.070842,
          "velocity": 0.6299212598425197
        },
        {
          "duration": 0.1471354166666714,
          "durationTicks": 113,
          "midi": 84,
          "name": "C6",
          "ticks": 29040,
          "time": 41.227092,
          "velocity": 0.6299212598425197
        },
        {
          "duration": 0.1471354166666714,
          "durationTicks": 113,
          "midi": 87,
          "name": "D#6",
          "ticks": 29160,
          "time": 41.383342,
          "velocity": 0.6299212598425197
        },
        {
          "duration": 0.1471354166666714,
          "durationTicks": 113,
          "midi": 80,
          "name": "G#5",
          "ticks": 29280,
          "time": 41.539592,
          "velocity": 0.6299212598425197
        },
        {
          "duration": 0.1471354166666714,
          "durationTicks": 113,
          "midi": 87,
          "name": "D#6",
          "ticks": 29400,
          "time": 41.695842,
          "velocity": 0.6299212598425197
        },
        {
          "duration": 0.1471354166666714,
          "durationTicks": 113,
          "midi": 84,
          "name": "C6",
          "ticks": 29520,
          "time": 41.852092,
          "velocity": 0.6299212598425197
        },
        {
          "duration": 0.1471354166666714,
          "durationTicks": 113,
          "midi": 87,
          "name": "D#6",
          "ticks": 29640,
          "time": 42.008342,
          "velocity": 0.6299212598425197
        },
        {
          "duration": 0.1471354166666714,
          "durationTicks": 113,
          "midi": 80,
          "name": "G#5",
          "ticks": 29760,
          "time": 42.164592,
          "velocity": 0.6299212598425197
        },
        {
          "duration": 0.1471354166666714,
          "durationTicks": 113,
          "midi": 87,
          "name": "D#6",
          "ticks": 29880,
          "time": 42.320842,
          "velocity": 0.6299212598425197
        },
        {
          "duration": 0.1471354166666714,
          "durationTicks": 113,
          "midi": 84,
          "name": "C6",
          "ticks": 30000,
          "time": 42.477092,
          "velocity": 0.6299212598425197
        },
        {
          "duration": 0.1471354166666714,
          "durationTicks": 113,
          "midi": 87,
          "name": "D#6",
          "ticks": 30120,
          "time": 42.633342,
          "velocity": 0.6299212598425197
        },
        {
          "duration": 0.2955729166666714,
          "durationTicks": 227,
          "midi": 80,
          "name": "G#5",
          "ticks": 30240,
          "time": 42.789592,
          "velocity": 0.6299212598425197
        },
        {
          "duration": 0.2955729166666714,
          "durationTicks": 227,
          "midi": 75,
          "name": "D#5",
          "ticks": 30480,
          "time": 43.102092,
          "velocity": 0.6299212598425197
        },
        {
          "duration": 0.1471354166666714,
          "durationTicks": 113,
          "midi": 83,
          "name": "B5",
          "ticks": 30720,
          "time": 43.414592,
          "velocity": 0.6299212598425197
        },
        {
          "duration": 0.1471354166666714,
          "durationTicks": 113,
          "midi": 75,
          "name": "D#5",
          "ticks": 30840,
          "time": 43.570842,
          "velocity": 0.6299212598425197
        },
        {
          "duration": 0.1471354166666714,
          "durationTicks": 113,
          "midi": 82,
          "name": "A#5",
          "ticks": 30960,
          "time": 43.727092,
          "velocity": 0.6299212598425197
        },
        {
          "duration": 0.1471354166666714,
          "durationTicks": 113,
          "midi": 75,
          "name": "D#5",
          "ticks": 31080,
          "time": 43.883342,
          "velocity": 0.6299212598425197
        },
        {
          "duration": 0.1471354166666714,
          "durationTicks": 113,
          "midi": 83,
          "name": "B5",
          "ticks": 31200,
          "time": 44.039592,
          "velocity": 0.6299212598425197
        },
        {
          "duration": 0.1471354166666714,
          "durationTicks": 113,
          "midi": 75,
          "name": "D#5",
          "ticks": 31320,
          "time": 44.195842,
          "velocity": 0.6299212598425197
        },
        {
          "duration": 0.1471354166666714,
          "durationTicks": 113,
          "midi": 85,
          "name": "C#6",
          "ticks": 31440,
          "time": 44.352092,
          "velocity": 0.6299212598425197
        },
        {
          "duration": 0.1471354166666714,
          "durationTicks": 113,
          "midi": 75,
          "name": "D#5",
          "ticks": 31560,
          "time": 44.508342,
          "velocity": 0.6299212598425197
        },
        {
          "duration": 0.1471354166666714,
          "durationTicks": 113,
          "midi": 82,
          "name": "A#5",
          "ticks": 31680,
          "time": 44.664592,
          "velocity": 0.6299212598425197
        },
        {
          "duration": 0.1471354166666714,
          "durationTicks": 113,
          "midi": 70,
          "name": "A#4",
          "ticks": 31800,
          "time": 44.820842,
          "velocity": 0.6299212598425197
        },
        {
          "duration": 0.1471354166666714,
          "durationTicks": 113,
          "midi": 80,
          "name": "G#5",
          "ticks": 31920,
          "time": 44.977092,
          "velocity": 0.6299212598425197
        },
        {
          "duration": 0.1471354166666714,
          "durationTicks": 113,
          "midi": 70,
          "name": "A#4",
          "ticks": 32040,
          "time": 45.133342,
          "velocity": 0.6299212598425197
        },
        {
          "duration": 0.2955729166666714,
          "durationTicks": 227,
          "midi": 78,
          "name": "F#5",
          "ticks": 32160,
          "time": 45.289592,
          "velocity": 0.6299212598425197
        },
        {
          "duration": 0.1471354166666714,
          "durationTicks": 113,
          "midi": 75,
          "name": "D#5",
          "ticks": 32400,
          "time": 45.602092,
          "velocity": 0.6299212598425197
        },
        {
          "duration": 0.1471354166666714,
          "durationTicks": 113,
          "midi": 78,
          "name": "F#5",
          "ticks": 32520,
          "time": 45.758342,
          "velocity": 0.6299212598425197
        },
        {
          "duration": 0.1471354166666714,
          "durationTicks": 113,
          "midi": 80,
          "name": "G#5",
          "ticks": 32640,
          "time": 45.914592,
          "velocity": 0.6299212598425197
        },
        {
          "duration": 0.1471354166666714,
          "durationTicks": 113,
          "midi": 71,
          "name": "B4",
          "ticks": 32760,
          "time": 46.070842,
          "velocity": 0.6299212598425197
        },
        {
          "duration": 0.1471354166666714,
          "durationTicks": 113,
          "midi": 78,
          "name": "F#5",
          "ticks": 32880,
          "time": 46.227092,
          "velocity": 0.6299212598425197
        },
        {
          "duration": 0.1471354166666714,
          "durationTicks": 113,
          "midi": 71,
          "name": "B4",
          "ticks": 33000,
          "time": 46.383342,
          "velocity": 0.6299212598425197
        },
        {
          "duration": 0.1471354166666714,
          "durationTicks": 113,
          "midi": 80,
          "name": "G#5",
          "ticks": 33120,
          "time": 46.539592,
          "velocity": 0.6299212598425197
        },
        {
          "duration": 0.1471354166666714,
          "durationTicks": 113,
          "midi": 71,
          "name": "B4",
          "ticks": 33240,
          "time": 46.695842,
          "velocity": 0.6299212598425197
        },
        {
          "duration": 0.1471354166666714,
          "durationTicks": 113,
          "midi": 83,
          "name": "B5",
          "ticks": 33360,
          "time": 46.852092,
          "velocity": 0.6299212598425197
        },
        {
          "duration": 0.1471354166666714,
          "durationTicks": 113,
          "midi": 71,
          "name": "B4",
          "ticks": 33480,
          "time": 47.008342,
          "velocity": 0.6299212598425197
        },
        {
          "duration": 0.1471354166666714,
          "durationTicks": 113,
          "midi": 78,
          "name": "F#5",
          "ticks": 33600,
          "time": 47.164592,
          "velocity": 0.6299212598425197
        },
        {
          "duration": 0.1471354166666714,
          "durationTicks": 113,
          "midi": 71,
          "name": "B4",
          "ticks": 33720,
          "time": 47.320842,
          "velocity": 0.6299212598425197
        },
        {
          "duration": 0.1471354166666714,
          "durationTicks": 113,
          "midi": 76,
          "name": "E5",
          "ticks": 33840,
          "time": 47.477092,
          "velocity": 0.6299212598425197
        },
        {
          "duration": 0.1471354166666714,
          "durationTicks": 113,
          "midi": 71,
          "name": "B4",
          "ticks": 33960,
          "time": 47.633342,
          "velocity": 0.6299212598425197
        },
        {
          "duration": 0.2955729166666714,
          "durationTicks": 227,
          "midi": 75,
          "name": "D#5",
          "ticks": 34080,
          "time": 47.789592,
          "velocity": 0.6299212598425197
        },
        {
          "duration": 0.1471354166666714,
          "durationTicks": 113,
          "midi": 75,
          "name": "D#5",
          "ticks": 34320,
          "time": 48.102092,
          "velocity": 0.6299212598425197
        },
        {
          "duration": 0.1471354166666714,
          "durationTicks": 113,
          "midi": 78,
          "name": "F#5",
          "ticks": 34440,
          "time": 48.258342,
          "velocity": 0.6299212598425197
        },
        {
          "duration": 0.1471354166666714,
          "durationTicks": 113,
          "midi": 76,
          "name": "E5",
          "ticks": 34560,
          "time": 48.414592,
          "velocity": 0.6299212598425197
        },
        {
          "duration": 0.1471354166666714,
          "durationTicks": 113,
          "midi": 68,
          "name": "G#4",
          "ticks": 34680,
          "time": 48.570842,
          "velocity": 0.6299212598425197
        },
        {
          "duration": 0.1471354166666714,
          "durationTicks": 113,
          "midi": 75,
          "name": "D#5",
          "ticks": 34800,
          "time": 48.727092,
          "velocity": 0.6299212598425197
        },
        {
          "duration": 0.1471354166666714,
          "durationTicks": 113,
          "midi": 68,
          "name": "G#4",
          "ticks": 34920,
          "time": 48.883342,
          "velocity": 0.6299212598425197
        },
        {
          "duration": 0.1471354166666714,
          "durationTicks": 113,
          "midi": 73,
          "name": "C#5",
          "ticks": 35040,
          "time": 49.039592,
          "velocity": 0.6299212598425197
        },
        {
          "duration": 0.1471354166666714,
          "durationTicks": 113,
          "midi": 68,
          "name": "G#4",
          "ticks": 35160,
          "time": 49.195842,
          "velocity": 0.6299212598425197
        },
        {
          "duration": 0.1471354166666714,
          "durationTicks": 113,
          "midi": 76,
          "name": "E5",
          "ticks": 35280,
          "time": 49.352092,
          "velocity": 0.6299212598425197
        },
        {
          "duration": 0.1471354166666714,
          "durationTicks": 113,
          "midi": 68,
          "name": "G#4",
          "ticks": 35400,
          "time": 49.508342,
          "velocity": 0.6299212598425197
        },
        {
          "duration": 0.1471354166666714,
          "durationTicks": 113,
          "midi": 75,
          "name": "D#5",
          "ticks": 35520,
          "time": 49.664592,
          "velocity": 0.6299212598425197
        },
        {
          "duration": 0.1471354166666714,
          "durationTicks": 113,
          "midi": 63,
          "name": "D#4",
          "ticks": 35640,
          "time": 49.820842,
          "velocity": 0.6299212598425197
        },
        {
          "duration": 0.1471354166666714,
          "durationTicks": 113,
          "midi": 73,
          "name": "C#5",
          "ticks": 35760,
          "time": 49.977092,
          "velocity": 0.6299212598425197
        },
        {
          "duration": 0.1471354166666714,
          "durationTicks": 113,
          "midi": 63,
          "name": "D#4",
          "ticks": 35880,
          "time": 50.133342,
          "velocity": 0.6299212598425197
        },
        {
          "duration": 0.1471354166666714,
          "durationTicks": 113,
          "midi": 71,
          "name": "B4",
          "ticks": 36000,
          "time": 50.289592,
          "velocity": 0.6299212598425197
        },
        {
          "duration": 0.1471354166666714,
          "durationTicks": 113,
          "midi": 63,
          "name": "D#4",
          "ticks": 36120,
          "time": 50.445842,
          "velocity": 0.6299212598425197
        },
        {
          "duration": 0.1471354166666714,
          "durationTicks": 113,
          "midi": 75,
          "name": "D#5",
          "ticks": 36240,
          "time": 50.602092,
          "velocity": 0.6299212598425197
        },
        {
          "duration": 0.1471354166666714,
          "durationTicks": 113,
          "midi": 63,
          "name": "D#4",
          "ticks": 36360,
          "time": 50.758342,
          "velocity": 0.6299212598425197
        },
        {
          "duration": 0.1471354166666714,
          "durationTicks": 113,
          "midi": 73,
          "name": "C#5",
          "ticks": 36480,
          "time": 50.914592,
          "velocity": 0.6299212598425197
        },
        {
          "duration": 0.1471354166666714,
          "durationTicks": 113,
          "midi": 64,
          "name": "E4",
          "ticks": 36600,
          "time": 51.070842,
          "velocity": 0.6299212598425197
        },
        {
          "duration": 0.1471354166666714,
          "durationTicks": 113,
          "midi": 71,
          "name": "B4",
          "ticks": 36720,
          "time": 51.227092,
          "velocity": 0.6299212598425197
        },
        {
          "duration": 0.1471354166666714,
          "durationTicks": 113,
          "midi": 64,
          "name": "E4",
          "ticks": 36840,
          "time": 51.383342,
          "velocity": 0.6299212598425197
        },
        {
          "duration": 0.1471354166666714,
          "durationTicks": 113,
          "midi": 70,
          "name": "A#4",
          "ticks": 36960,
          "time": 51.539592,
          "velocity": 0.6299212598425197
        },
        {
          "duration": 0.1471354166666714,
          "durationTicks": 113,
          "midi": 64,
          "name": "E4",
          "ticks": 37080,
          "time": 51.695842,
          "velocity": 0.6299212598425197
        },
        {
          "duration": 0.1471354166666714,
          "durationTicks": 113,
          "midi": 68,
          "name": "G#4",
          "ticks": 37200,
          "time": 51.852092,
          "velocity": 0.6299212598425197
        },
        {
          "duration": 0.1471354166666714,
          "durationTicks": 113,
          "midi": 64,
          "name": "E4",
          "ticks": 37320,
          "time": 52.008342,
          "velocity": 0.6299212598425197
        },
        {
          "duration": 0.2955729166666714,
          "durationTicks": 227,
          "midi": 64,
          "name": "E4",
          "ticks": 37440,
          "time": 52.164592,
          "velocity": 0.6299212598425197
        },
        {
          "duration": 0.2955729166666714,
          "durationTicks": 227,
          "midi": 67,
          "name": "G4",
          "ticks": 37440,
          "time": 52.164592,
          "velocity": 0.6299212598425197
        },
        {
          "duration": 0.2955729166666714,
          "durationTicks": 227,
          "midi": 64,
          "name": "E4",
          "ticks": 37680,
          "time": 52.477092,
          "velocity": 0.6299212598425197
        },
        {
          "duration": 0.2955729166666714,
          "durationTicks": 227,
          "midi": 68,
          "name": "G#4",
          "ticks": 37680,
          "time": 52.477092,
          "velocity": 0.6299212598425197
        },
        {
          "duration": 0.5924479166666714,
          "durationTicks": 455,
          "midi": 63,
          "name": "D#4",
          "ticks": 37920,
          "time": 52.789592,
          "velocity": 0.6299212598425197
        },
        {
          "duration": 0.5924479166666714,
          "durationTicks": 455,
          "midi": 70,
          "name": "A#4",
          "ticks": 37920,
          "time": 52.789592,
          "velocity": 0.6299212598425197
        },
        {
          "duration": 0.1471354166666714,
          "durationTicks": 113,
          "midi": 71,
          "name": "B4",
          "ticks": 38400,
          "time": 53.414592,
          "velocity": 0.6299212598425197
        },
        {
          "duration": 0.1471354166666714,
          "durationTicks": 113,
          "midi": 63,
          "name": "D#4",
          "ticks": 38520,
          "time": 53.570842,
          "velocity": 0.6299212598425197
        },
        {
          "duration": 0.1471354166666714,
          "durationTicks": 113,
          "midi": 70,
          "name": "A#4",
          "ticks": 38640,
          "time": 53.727092,
          "velocity": 0.6299212598425197
        },
        {
          "duration": 0.1471354166666714,
          "durationTicks": 113,
          "midi": 63,
          "name": "D#4",
          "ticks": 38760,
          "time": 53.883342,
          "velocity": 0.6299212598425197
        },
        {
          "duration": 0.1471354166666714,
          "durationTicks": 113,
          "midi": 71,
          "name": "B4",
          "ticks": 38880,
          "time": 54.039592,
          "velocity": 0.6299212598425197
        },
        {
          "duration": 0.1471354166666714,
          "durationTicks": 113,
          "midi": 63,
          "name": "D#4",
          "ticks": 39000,
          "time": 54.195842,
          "velocity": 0.6299212598425197
        },
        {
          "duration": 0.1471354166666714,
          "durationTicks": 113,
          "midi": 73,
          "name": "C#5",
          "ticks": 39120,
          "time": 54.352092,
          "velocity": 0.6299212598425197
        },
        {
          "duration": 0.1471354166666714,
          "durationTicks": 113,
          "midi": 63,
          "name": "D#4",
          "ticks": 39240,
          "time": 54.508342,
          "velocity": 0.6299212598425197
        },
        {
          "duration": 0.1471354166666714,
          "durationTicks": 113,
          "midi": 70,
          "name": "A#4",
          "ticks": 39360,
          "time": 54.664592,
          "velocity": 0.6299212598425197
        },
        {
          "duration": 0.1471354166666714,
          "durationTicks": 113,
          "midi": 63,
          "name": "D#4",
          "ticks": 39480,
          "time": 54.820842,
          "velocity": 0.6299212598425197
        },
        {
          "duration": 0.1471354166666714,
          "durationTicks": 113,
          "midi": 68,
          "name": "G#4",
          "ticks": 39600,
          "time": 54.977092,
          "velocity": 0.6299212598425197
        },
        {
          "duration": 0.1471354166666714,
          "durationTicks": 113,
          "midi": 63,
          "name": "D#4",
          "ticks": 39720,
          "time": 55.133342,
          "velocity": 0.6299212598425197
        },
        {
          "duration": 0.2955729166666714,
          "durationTicks": 227,
          "midi": 66,
          "name": "F#4",
          "ticks": 39840,
          "time": 55.289592,
          "velocity": 0.6299212598425197
        },
        {
          "duration": 0.1471354166666714,
          "durationTicks": 113,
          "midi": 63,
          "name": "D#4",
          "ticks": 40080,
          "time": 55.602092,
          "velocity": 0.6299212598425197
        },
        {
          "duration": 0.1471354166666714,
          "durationTicks": 113,
          "midi": 66,
          "name": "F#4",
          "ticks": 40200,
          "time": 55.758342,
          "velocity": 0.6299212598425197
        },
        {
          "duration": 0.1471354166666714,
          "durationTicks": 113,
          "midi": 68,
          "name": "G#4",
          "ticks": 40320,
          "time": 55.914592,
          "velocity": 0.6299212598425197
        },
        {
          "duration": 0.1471354166666714,
          "durationTicks": 113,
          "midi": 59,
          "name": "B3",
          "ticks": 40440,
          "time": 56.070842,
          "velocity": 0.6299212598425197
        },
        {
          "duration": 0.1471354166666714,
          "durationTicks": 113,
          "midi": 66,
          "name": "F#4",
          "ticks": 40560,
          "time": 56.227092,
          "velocity": 0.6299212598425197
        },
        {
          "duration": 0.1471354166666714,
          "durationTicks": 113,
          "midi": 59,
          "name": "B3",
          "ticks": 40680,
          "time": 56.383342,
          "velocity": 0.6299212598425197
        },
        {
          "duration": 0.1471354166666714,
          "durationTicks": 113,
          "midi": 68,
          "name": "G#4",
          "ticks": 40800,
          "time": 56.539592,
          "velocity": 0.6299212598425197
        },
        {
          "duration": 0.1471354166666714,
          "durationTicks": 113,
          "midi": 70,
          "name": "A#4",
          "ticks": 40920,
          "time": 56.695842,
          "velocity": 0.6299212598425197
        },
        {
          "duration": 0.1471354166666714,
          "durationTicks": 113,
          "midi": 71,
          "name": "B4",
          "ticks": 41040,
          "time": 56.852092,
          "velocity": 0.6299212598425197
        },
        {
          "duration": 0.1471354166666714,
          "durationTicks": 113,
          "midi": 68,
          "name": "G#4",
          "ticks": 41160,
          "time": 57.008342,
          "velocity": 0.6299212598425197
        },
        {
          "duration": 0.1471354166666714,
          "durationTicks": 113,
          "midi": 66,
          "name": "F#4",
          "ticks": 41280,
          "time": 57.164592,
          "velocity": 0.6299212598425197
        },
        {
          "duration": 0.1471354166666714,
          "durationTicks": 113,
          "midi": 59,
          "name": "B3",
          "ticks": 41400,
          "time": 57.320842,
          "velocity": 0.6299212598425197
        },
        {
          "duration": 0.1471354166666714,
          "durationTicks": 113,
          "midi": 64,
          "name": "E4",
          "ticks": 41520,
          "time": 57.477092,
          "velocity": 0.6299212598425197
        },
        {
          "duration": 0.1471354166666714,
          "durationTicks": 113,
          "midi": 59,
          "name": "B3",
          "ticks": 41640,
          "time": 57.633342,
          "velocity": 0.6299212598425197
        },
        {
          "duration": 0.2955729166666714,
          "durationTicks": 227,
          "midi": 63,
          "name": "D#4",
          "ticks": 41760,
          "time": 57.789592,
          "velocity": 0.6299212598425197
        },
        {
          "duration": 0.1471354166666714,
          "durationTicks": 113,
          "midi": 63,
          "name": "D#4",
          "ticks": 42000,
          "time": 58.102092,
          "velocity": 0.6299212598425197
        },
        {
          "duration": 0.1471354166666714,
          "durationTicks": 113,
          "midi": 66,
          "name": "F#4",
          "ticks": 42120,
          "time": 58.258342,
          "velocity": 0.6299212598425197
        },
        {
          "duration": 0.2955729166666714,
          "durationTicks": 227,
          "midi": 64,
          "name": "E4",
          "ticks": 42240,
          "time": 58.414592,
          "velocity": 0.6299212598425197
        },
        {
          "duration": 0.1471354166666714,
          "durationTicks": 113,
          "midi": 76,
          "name": "E5",
          "ticks": 42480,
          "time": 58.727092,
          "velocity": 0.6299212598425197
        },
        {
          "duration": 0.1471354166666714,
          "durationTicks": 113,
          "midi": 75,
          "name": "D#5",
          "ticks": 42600,
          "time": 58.883342,
          "velocity": 0.6299212598425197
        },
        {
          "duration": 0.1471354166666714,
          "durationTicks": 113,
          "midi": 73,
          "name": "C#5",
          "ticks": 42720,
          "time": 59.039592,
          "velocity": 0.6299212598425197
        },
        {
          "duration": 0.1471354166666714,
          "durationTicks": 113,
          "midi": 71,
          "name": "B4",
          "ticks": 42840,
          "time": 59.195842,
          "velocity": 0.6299212598425197
        },
        {
          "duration": 0.2955729166666714,
          "durationTicks": 227,
          "midi": 70,
          "name": "A#4",
          "ticks": 42960,
          "time": 59.352092,
          "velocity": 0.6299212598425197
        },
        {
          "duration": 0.1471354166666714,
          "durationTicks": 113,
          "midi": 75,
          "name": "D#5",
          "ticks": 43200,
          "time": 59.664592,
          "velocity": 0.6299212598425197
        },
        {
          "duration": 0.1471354166666714,
          "durationTicks": 113,
          "midi": 73,
          "name": "C#5",
          "ticks": 43320,
          "time": 59.820842,
          "velocity": 0.6299212598425197
        },
        {
          "duration": 0.1471354166666714,
          "durationTicks": 113,
          "midi": 75,
          "name": "D#5",
          "ticks": 43440,
          "time": 59.977092,
          "velocity": 0.6299212598425197
        },
        {
          "duration": 0.1471354166666714,
          "durationTicks": 113,
          "midi": 76,
          "name": "E5",
          "ticks": 43560,
          "time": 60.133342,
          "velocity": 0.6299212598425197
        },
        {
          "duration": 0.1471354166666714,
          "durationTicks": 113,
          "midi": 75,
          "name": "D#5",
          "ticks": 43680,
          "time": 60.289592,
          "velocity": 0.6299212598425197
        },
        {
          "duration": 0.1471354166666714,
          "durationTicks": 113,
          "midi": 73,
          "name": "C#5",
          "ticks": 43800,
          "time": 60.445842,
          "velocity": 0.6299212598425197
        },
        {
          "duration": 0.1471354166666714,
          "durationTicks": 113,
          "midi": 71,
          "name": "B4",
          "ticks": 43920,
          "time": 60.602092,
          "velocity": 0.6299212598425197
        },
        {
          "duration": 0.1471354166666714,
          "durationTicks": 113,
          "midi": 70,
          "name": "A#4",
          "ticks": 44040,
          "time": 60.758342,
          "velocity": 0.6299212598425197
        },
        {
          "duration": 0.2955729166666714,
          "durationTicks": 227,
          "midi": 68,
          "name": "G#4",
          "ticks": 44160,
          "time": 60.914592,
          "velocity": 0.6299212598425197
        },
        {
          "duration": 0.2955729166666714,
          "durationTicks": 227,
          "midi": 75,
          "name": "D#5",
          "ticks": 44400,
          "time": 61.227092,
          "velocity": 0.6299212598425197
        },
        {
          "duration": 0.2955729166666714,
          "durationTicks": 227,
          "midi": 67,
          "name": "G4",
          "ticks": 44640,
          "time": 61.539592,
          "velocity": 0.6299212598425197
        },
        {
          "duration": 0.2955729166666714,
          "durationTicks": 227,
          "midi": 75,
          "name": "D#5",
          "ticks": 44880,
          "time": 61.852092,
          "velocity": 0.6299212598425197
        },
        {
          "duration": 1.1861979166666714,
          "durationTicks": 911,
          "midi": 68,
          "name": "G#4",
          "ticks": 45120,
          "time": 62.164592,
          "velocity": 0.6299212598425197
        },
        {
          "duration": 0.7721354166666714,
          "durationTicks": 593,
          "midi": 68,
          "name": "G#4",
          "ticks": 46080,
          "time": 63.414592,
          "velocity": 0.6299212598425197
        },
        {
          "duration": 0.7057291666666714,
          "durationTicks": 542,
          "midi": 71,
          "name": "B4",
          "ticks": 46130,
          "time": 63.47969616666667,
          "velocity": 0.6299212598425197
        },
        {
          "duration": 0.6380208333333428,
          "durationTicks": 490,
          "midi": 75,
          "name": "D#5",
          "ticks": 46182,
          "time": 63.5474045,
          "velocity": 0.6299212598425197
        },
        {
          "duration": 0.1471354166666714,
          "durationTicks": 113,
          "midi": 68,
          "name": "G#4",
          "ticks": 46680,
          "time": 64.195842,
          "velocity": 0.6299212598425197
        },
        {
          "duration": 0.1471354166666714,
          "durationTicks": 113,
          "midi": 71,
          "name": "B4",
          "ticks": 46800,
          "time": 64.352092,
          "velocity": 0.6299212598425197
        },
        {
          "duration": 0.1471354166666714,
          "durationTicks": 113,
          "midi": 75,
          "name": "D#5",
          "ticks": 46920,
          "time": 64.508342,
          "velocity": 0.6299212598425197
        },
        {
          "duration": 0.5924479166666714,
          "durationTicks": 455,
          "midi": 66,
          "name": "F#4",
          "ticks": 47040,
          "time": 64.664592,
          "velocity": 0.6299212598425197
        },
        {
          "duration": 0.5924479166666714,
          "durationTicks": 455,
          "midi": 70,
          "name": "A#4",
          "ticks": 47040,
          "time": 64.664592,
          "velocity": 0.6299212598425197
        },
        {
          "duration": 0.5924479166666714,
          "durationTicks": 455,
          "midi": 73,
          "name": "C#5",
          "ticks": 47040,
          "time": 64.664592,
          "velocity": 0.6299212598425197
        },
        {
          "duration": 0.5924479166666714,
          "durationTicks": 455,
          "midi": 70,
          "name": "A#4",
          "ticks": 47520,
          "time": 65.289592,
          "velocity": 0.6299212598425197
        },
        {
          "duration": 0.5924479166666714,
          "durationTicks": 455,
          "midi": 73,
          "name": "C#5",
          "ticks": 47520,
          "time": 65.289592,
          "velocity": 0.6299212598425197
        },
        {
          "duration": 0.5924479166666714,
          "durationTicks": 455,
          "midi": 78,
          "name": "F#5",
          "ticks": 47520,
          "time": 65.289592,
          "velocity": 0.6299212598425197
        },
        {
          "duration": 0.4440104166666714,
          "durationTicks": 341,
          "midi": 70,
          "name": "A#4",
          "ticks": 48000,
          "time": 65.914592,
          "velocity": 0.6299212598425197
        },
        {
          "duration": 0.4440104166666714,
          "durationTicks": 341,
          "midi": 73,
          "name": "C#5",
          "ticks": 48000,
          "time": 65.914592,
          "velocity": 0.6299212598425197
        },
        {
          "duration": 0.1471354166666714,
          "durationTicks": 113,
          "midi": 82,
          "name": "A#5",
          "ticks": 48360,
          "time": 66.383342,
          "velocity": 0.6299212598425197
        },
        {
          "duration": 0.4440104166666714,
          "durationTicks": 341,
          "midi": 80,
          "name": "G#5",
          "ticks": 48480,
          "time": 66.539592,
          "velocity": 0.6299212598425197
        },
        {
          "duration": 0.1471354166666714,
          "durationTicks": 113,
          "midi": 79,
          "name": "G5",
          "ticks": 48840,
          "time": 67.008342,
          "velocity": 0.6299212598425197
        },
        {
          "duration": 0.5924479166666714,
          "durationTicks": 455,
          "midi": 75,
          "name": "D#5",
          "ticks": 48960,
          "time": 67.164592,
          "velocity": 0.6299212598425197
        },
        {
          "duration": 0.5924479166666714,
          "durationTicks": 455,
          "midi": 80,
          "name": "G#5",
          "ticks": 48960,
          "time": 67.164592,
          "velocity": 0.6299212598425197
        },
        {
          "duration": 0.5924479166666714,
          "durationTicks": 455,
          "midi": 87,
          "name": "D#6",
          "ticks": 49440,
          "time": 67.789592,
          "velocity": 0.6299212598425197
        },
        {
          "duration": 0.5924479166666714,
          "durationTicks": 455,
          "midi": 76,
          "name": "E5",
          "ticks": 49920,
          "time": 68.414592,
          "velocity": 0.6299212598425197
        },
        {
          "duration": 0.5924479166666714,
          "durationTicks": 455,
          "midi": 80,
          "name": "G#5",
          "ticks": 49920,
          "time": 68.414592,
          "velocity": 0.6299212598425197
        },
        {
          "duration": 0.5924479166666714,
          "durationTicks": 455,
          "midi": 80,
          "name": "G#5",
          "ticks": 50400,
          "time": 69.039592,
          "velocity": 0.6299212598425197
        },
        {
          "duration": 0.5924479166666714,
          "durationTicks": 455,
          "midi": 87,
          "name": "D#6",
          "ticks": 50400,
          "time": 69.039592,
          "velocity": 0.6299212598425197
        },
        {
          "duration": 0.2955729166666714,
          "durationTicks": 227,
          "midi": 85,
          "name": "C#6",
          "ticks": 50880,
          "time": 69.664592,
          "velocity": 0.6299212598425197
        },
        {
          "duration": 0.09765625,
          "durationTicks": 75,
          "midi": 85,
          "name": "C#6",
          "ticks": 51120,
          "time": 69.977092,
          "velocity": 0.6299212598425197
        },
        {
          "duration": 0.09765625,
          "durationTicks": 75,
          "midi": 87,
          "name": "D#6",
          "ticks": 51200,
          "time": 70.08125866666667,
          "velocity": 0.6299212598425197
        },
        {
          "duration": 0.09765625,
          "durationTicks": 75,
          "midi": 85,
          "name": "C#6",
          "ticks": 51280,
          "time": 70.18542533333333,
          "velocity": 0.6299212598425197
        },
        {
          "duration": 0.2955729166666714,
          "durationTicks": 227,
          "midi": 82,
          "name": "A#5",
          "ticks": 51360,
          "time": 70.289592,
          "velocity": 0.6299212598425197
        },
        {
          "duration": 0.2955729166666714,
          "durationTicks": 227,
          "midi": 78,
          "name": "F#5",
          "ticks": 51600,
          "time": 70.602092,
          "velocity": 0.6299212598425197
        },
        {
          "duration": 1.7799479166666714,
          "durationTicks": 1367,
          "midi": 80,
          "name": "G#5",
          "ticks": 51840,
          "time": 70.914592,
          "velocity": 0.6299212598425197
        },
        {
          "duration": 0.2955729166666714,
          "durationTicks": 227,
          "midi": 56,
          "name": "G#3",
          "ticks": 51840,
          "time": 70.914592,
          "velocity": 0.6299212598425197
        },
        {
          "duration": 0.2955729166666714,
          "durationTicks": 227,
          "midi": 63,
          "name": "D#4",
          "ticks": 52080,
          "time": 71.227092,
          "velocity": 0.6299212598425197
        },
        {
          "duration": 0.2955729166666714,
          "durationTicks": 227,
          "midi": 68,
          "name": "G#4",
          "ticks": 52320,
          "time": 71.539592,
          "velocity": 0.6299212598425197
        },
        {
          "duration": 0.2955729166666714,
          "durationTicks": 227,
          "midi": 70,
          "name": "A#4",
          "ticks": 52560,
          "time": 71.852092,
          "velocity": 0.6299212598425197
        },
        {
          "duration": 0.2955729166666714,
          "durationTicks": 227,
          "midi": 71,
          "name": "B4",
          "ticks": 52800,
          "time": 72.164592,
          "velocity": 0.6299212598425197
        },
        {
          "duration": 0.2955729166666714,
          "durationTicks": 227,
          "midi": 63,
          "name": "D#4",
          "ticks": 53040,
          "time": 72.477092,
          "velocity": 0.6299212598425197
        },
        {
          "duration": 0.2955729166666714,
          "durationTicks": 227,
          "midi": 68,
          "name": "G#4",
          "ticks": 53280,
          "time": 72.789592,
          "velocity": 0.6299212598425197
        },
        {
          "duration": 0.1471354166666714,
          "durationTicks": 113,
          "midi": 75,
          "name": "D#5",
          "ticks": 53520,
          "time": 73.102092,
          "velocity": 0.6299212598425197
        },
        {
          "duration": 0.1471354166666714,
          "durationTicks": 113,
          "midi": 68,
          "name": "G#4",
          "ticks": 53640,
          "time": 73.258342,
          "velocity": 0.6299212598425197
        },
        {
          "duration": 0.7721354166666714,
          "durationTicks": 593,
          "midi": 68,
          "name": "G#4",
          "ticks": 53760,
          "time": 73.414592,
          "velocity": 0.6299212598425197
        },
        {
          "duration": 0.7057291666666714,
          "durationTicks": 542,
          "midi": 71,
          "name": "B4",
          "ticks": 53810,
          "time": 73.47969616666667,
          "velocity": 0.6299212598425197
        },
        {
          "duration": 0.6380208333333428,
          "durationTicks": 490,
          "midi": 75,
          "name": "D#5",
          "ticks": 53862,
          "time": 73.5474045,
          "velocity": 0.6299212598425197
        },
        {
          "duration": 0.1471354166666714,
          "durationTicks": 113,
          "midi": 68,
          "name": "G#4",
          "ticks": 54360,
          "time": 74.195842,
          "velocity": 0.6299212598425197
        },
        {
          "duration": 0.1471354166666714,
          "durationTicks": 113,
          "midi": 71,
          "name": "B4",
          "ticks": 54480,
          "time": 74.352092,
          "velocity": 0.6299212598425197
        },
        {
          "duration": 0.1471354166666714,
          "durationTicks": 113,
          "midi": 75,
          "name": "D#5",
          "ticks": 54600,
          "time": 74.508342,
          "velocity": 0.6299212598425197
        },
        {
          "duration": 0.5924479166666714,
          "durationTicks": 455,
          "midi": 66,
          "name": "F#4",
          "ticks": 54720,
          "time": 74.664592,
          "velocity": 0.6299212598425197
        },
        {
          "duration": 0.5924479166666714,
          "durationTicks": 455,
          "midi": 70,
          "name": "A#4",
          "ticks": 54720,
          "time": 74.664592,
          "velocity": 0.6299212598425197
        },
        {
          "duration": 0.5924479166666714,
          "durationTicks": 455,
          "midi": 73,
          "name": "C#5",
          "ticks": 54720,
          "time": 74.664592,
          "velocity": 0.6299212598425197
        },
        {
          "duration": 0.5924479166666714,
          "durationTicks": 455,
          "midi": 70,
          "name": "A#4",
          "ticks": 55200,
          "time": 75.289592,
          "velocity": 0.6299212598425197
        },
        {
          "duration": 0.5924479166666714,
          "durationTicks": 455,
          "midi": 73,
          "name": "C#5",
          "ticks": 55200,
          "time": 75.289592,
          "velocity": 0.6299212598425197
        },
        {
          "duration": 0.5924479166666714,
          "durationTicks": 455,
          "midi": 78,
          "name": "F#5",
          "ticks": 55200,
          "time": 75.289592,
          "velocity": 0.6299212598425197
        },
        {
          "duration": 0.2955729166666714,
          "durationTicks": 227,
          "midi": 70,
          "name": "A#4",
          "ticks": 55680,
          "time": 75.914592,
          "velocity": 0.6299212598425197
        },
        {
          "duration": 0.2955729166666714,
          "durationTicks": 227,
          "midi": 73,
          "name": "C#5",
          "ticks": 55680,
          "time": 75.914592,
          "velocity": 0.6299212598425197
        },
        {
          "duration": 0.2955729166666714,
          "durationTicks": 227,
          "midi": 70,
          "name": "A#4",
          "ticks": 55920,
          "time": 76.227092,
          "velocity": 0.6299212598425197
        },
        {
          "duration": 0.2955729166666714,
          "durationTicks": 227,
          "midi": 79,
          "name": "G5",
          "ticks": 55920,
          "time": 76.227092,
          "velocity": 0.6299212598425197
        },
        {
          "duration": 0.2955729166666714,
          "durationTicks": 227,
          "midi": 80,
          "name": "G#5",
          "ticks": 56160,
          "time": 76.539592,
          "velocity": 0.6299212598425197
        },
        {
          "duration": 0.2955729166666714,
          "durationTicks": 227,
          "midi": 82,
          "name": "A#5",
          "ticks": 56400,
          "time": 76.852092,
          "velocity": 0.6299212598425197
        },
        {
          "duration": 0.1471354166666714,
          "durationTicks": 113,
          "midi": 75,
          "name": "D#5",
          "ticks": 56640,
          "time": 77.164592,
          "velocity": 0.6299212598425197
        },
        {
          "duration": 0.1471354166666714,
          "durationTicks": 113,
          "midi": 83,
          "name": "B5",
          "ticks": 56760,
          "time": 77.320842,
          "velocity": 0.6299212598425197
        },
        {
          "duration": 0.1471354166666714,
          "durationTicks": 113,
          "midi": 73,
          "name": "C#5",
          "ticks": 56880,
          "time": 77.477092,
          "velocity": 0.6299212598425197
        },
        {
          "duration": 0.1471354166666714,
          "durationTicks": 113,
          "midi": 82,
          "name": "A#5",
          "ticks": 57000,
          "time": 77.633342,
          "velocity": 0.6299212598425197
        },
        {
          "duration": 0.1471354166666714,
          "durationTicks": 113,
          "midi": 71,
          "name": "B4",
          "ticks": 57120,
          "time": 77.789592,
          "velocity": 0.6299212598425197
        },
        {
          "duration": 0.1471354166666714,
          "durationTicks": 113,
          "midi": 80,
          "name": "G#5",
          "ticks": 57240,
          "time": 77.945842,
          "velocity": 0.6299212598425197
        },
        {
          "duration": 0.1471354166666714,
          "durationTicks": 113,
          "midi": 70,
          "name": "A#4",
          "ticks": 57360,
          "time": 78.102092,
          "velocity": 0.6299212598425197
        },
        {
          "duration": 0.1471354166666714,
          "durationTicks": 113,
          "midi": 78,
          "name": "F#5",
          "ticks": 57480,
          "time": 78.258342,
          "velocity": 0.6299212598425197
        },
        {
          "duration": 0.1471354166666714,
          "durationTicks": 113,
          "midi": 80,
          "name": "G#5",
          "ticks": 57600,
          "time": 78.414592,
          "velocity": 0.6299212598425197
        },
        {
          "duration": 0.1471354166666714,
          "durationTicks": 113,
          "midi": 87,
          "name": "D#6",
          "ticks": 57720,
          "time": 78.570842,
          "velocity": 0.6299212598425197
        },
        {
          "duration": 0.1471354166666714,
          "durationTicks": 113,
          "midi": 85,
          "name": "C#6",
          "ticks": 57840,
          "time": 78.727092,
          "velocity": 0.6299212598425197
        },
        {
          "duration": 0.1471354166666714,
          "durationTicks": 113,
          "midi": 87,
          "name": "D#6",
          "ticks": 57960,
          "time": 78.883342,
          "velocity": 0.6299212598425197
        },
        {
          "duration": 0.1471354166666714,
          "durationTicks": 113,
          "midi": 80,
          "name": "G#5",
          "ticks": 58080,
          "time": 79.039592,
          "velocity": 0.6299212598425197
        },
        {
          "duration": 0.1471354166666714,
          "durationTicks": 113,
          "midi": 87,
          "name": "D#6",
          "ticks": 58200,
          "time": 79.195842,
          "velocity": 0.6299212598425197
        },
        {
          "duration": 0.1471354166666714,
          "durationTicks": 113,
          "midi": 85,
          "name": "C#6",
          "ticks": 58320,
          "time": 79.352092,
          "velocity": 0.6299212598425197
        },
        {
          "duration": 0.1471354166666714,
          "durationTicks": 113,
          "midi": 87,
          "name": "D#6",
          "ticks": 58440,
          "time": 79.508342,
          "velocity": 0.6299212598425197
        },
        {
          "duration": 0.1471354166666714,
          "durationTicks": 113,
          "midi": 80,
          "name": "G#5",
          "ticks": 58560,
          "time": 79.664592,
          "velocity": 0.6299212598425197
        },
        {
          "duration": 0.1471354166666714,
          "durationTicks": 113,
          "midi": 87,
          "name": "D#6",
          "ticks": 58680,
          "time": 79.820842,
          "velocity": 0.6299212598425197
        },
        {
          "duration": 0.1471354166666714,
          "durationTicks": 113,
          "midi": 85,
          "name": "C#6",
          "ticks": 58800,
          "time": 79.977092,
          "velocity": 0.6299212598425197
        },
        {
          "duration": 0.1471354166666714,
          "durationTicks": 113,
          "midi": 87,
          "name": "D#6",
          "ticks": 58920,
          "time": 80.133342,
          "velocity": 0.6299212598425197
        },
        {
          "duration": 0.1471354166666714,
          "durationTicks": 113,
          "midi": 80,
          "name": "G#5",
          "ticks": 59040,
          "time": 80.289592,
          "velocity": 0.6299212598425197
        },
        {
          "duration": 0.1471354166666714,
          "durationTicks": 113,
          "midi": 87,
          "name": "D#6",
          "ticks": 59160,
          "time": 80.445842,
          "velocity": 0.6299212598425197
        },
        {
          "duration": 0.1471354166666714,
          "durationTicks": 113,
          "midi": 85,
          "name": "C#6",
          "ticks": 59280,
          "time": 80.602092,
          "velocity": 0.6299212598425197
        },
        {
          "duration": 0.1471354166666714,
          "durationTicks": 113,
          "midi": 87,
          "name": "D#6",
          "ticks": 59400,
          "time": 80.758342,
          "velocity": 0.6299212598425197
        },
        {
          "duration": 0.1471354166666714,
          "durationTicks": 113,
          "midi": 80,
          "name": "G#5",
          "ticks": 59520,
          "time": 80.914592,
          "velocity": 0.6299212598425197
        },
        {
          "duration": 0.1471354166666714,
          "durationTicks": 113,
          "midi": 87,
          "name": "D#6",
          "ticks": 59640,
          "time": 81.070842,
          "velocity": 0.6299212598425197
        },
        {
          "duration": 0.1471354166666714,
          "durationTicks": 113,
          "midi": 84,
          "name": "C6",
          "ticks": 59760,
          "time": 81.227092,
          "velocity": 0.6299212598425197
        },
        {
          "duration": 0.1471354166666714,
          "durationTicks": 113,
          "midi": 87,
          "name": "D#6",
          "ticks": 59880,
          "time": 81.383342,
          "velocity": 0.6299212598425197
        },
        {
          "duration": 0.1471354166666714,
          "durationTicks": 113,
          "midi": 80,
          "name": "G#5",
          "ticks": 60000,
          "time": 81.539592,
          "velocity": 0.6299212598425197
        },
        {
          "duration": 0.1471354166666714,
          "durationTicks": 113,
          "midi": 87,
          "name": "D#6",
          "ticks": 60120,
          "time": 81.695842,
          "velocity": 0.6299212598425197
        },
        {
          "duration": 0.1471354166666714,
          "durationTicks": 113,
          "midi": 84,
          "name": "C6",
          "ticks": 60240,
          "time": 81.852092,
          "velocity": 0.6299212598425197
        },
        {
          "duration": 0.1471354166666714,
          "durationTicks": 113,
          "midi": 87,
          "name": "D#6",
          "ticks": 60360,
          "time": 82.008342,
          "velocity": 0.6299212598425197
        },
        {
          "duration": 0.1471354166666714,
          "durationTicks": 113,
          "midi": 80,
          "name": "G#5",
          "ticks": 60480,
          "time": 82.164592,
          "velocity": 0.6299212598425197
        },
        {
          "duration": 0.1471354166666714,
          "durationTicks": 113,
          "midi": 87,
          "name": "D#6",
          "ticks": 60600,
          "time": 82.320842,
          "velocity": 0.6299212598425197
        },
        {
          "duration": 0.1471354166666714,
          "durationTicks": 113,
          "midi": 84,
          "name": "C6",
          "ticks": 60720,
          "time": 82.477092,
          "velocity": 0.6299212598425197
        },
        {
          "duration": 0.1471354166666714,
          "durationTicks": 113,
          "midi": 87,
          "name": "D#6",
          "ticks": 60840,
          "time": 82.633342,
          "velocity": 0.6299212598425197
        },
        {
          "duration": 0.2955729166666714,
          "durationTicks": 227,
          "midi": 80,
          "name": "G#5",
          "ticks": 60960,
          "time": 82.789592,
          "velocity": 0.6299212598425197
        },
        {
          "duration": 0.7721354166666714,
          "durationTicks": 593,
          "midi": 68,
          "name": "G#4",
          "ticks": 61440,
          "time": 83.414592,
          "velocity": 0.6299212598425197
        },
        {
          "duration": 0.7057291666666714,
          "durationTicks": 542,
          "midi": 71,
          "name": "B4",
          "ticks": 61490,
          "time": 83.47969616666667,
          "velocity": 0.6299212598425197
        },
        {
          "duration": 0.6380208333333428,
          "durationTicks": 490,
          "midi": 75,
          "name": "D#5",
          "ticks": 61542,
          "time": 83.5474045,
          "velocity": 0.6299212598425197
        },
        {
          "duration": 0.1471354166666714,
          "durationTicks": 113,
          "midi": 68,
          "name": "G#4",
          "ticks": 62040,
          "time": 84.195842,
          "velocity": 0.6299212598425197
        },
        {
          "duration": 0.1471354166666714,
          "durationTicks": 113,
          "midi": 71,
          "name": "B4",
          "ticks": 62160,
          "time": 84.352092,
          "velocity": 0.6299212598425197
        },
        {
          "duration": 0.1471354166666714,
          "durationTicks": 113,
          "midi": 75,
          "name": "D#5",
          "ticks": 62280,
          "time": 84.508342,
          "velocity": 0.6299212598425197
        },
        {
          "duration": 0.5924479166666714,
          "durationTicks": 455,
          "midi": 66,
          "name": "F#4",
          "ticks": 62400,
          "time": 84.664592,
          "velocity": 0.6299212598425197
        },
        {
          "duration": 0.5924479166666714,
          "durationTicks": 455,
          "midi": 70,
          "name": "A#4",
          "ticks": 62400,
          "time": 84.664592,
          "velocity": 0.6299212598425197
        },
        {
          "duration": 0.5924479166666714,
          "durationTicks": 455,
          "midi": 73,
          "name": "C#5",
          "ticks": 62400,
          "time": 84.664592,
          "velocity": 0.6299212598425197
        },
        {
          "duration": 0.5924479166666714,
          "durationTicks": 455,
          "midi": 70,
          "name": "A#4",
          "ticks": 62880,
          "time": 85.289592,
          "velocity": 0.6299212598425197
        },
        {
          "duration": 0.5924479166666714,
          "durationTicks": 455,
          "midi": 73,
          "name": "C#5",
          "ticks": 62880,
          "time": 85.289592,
          "velocity": 0.6299212598425197
        },
        {
          "duration": 0.5924479166666714,
          "durationTicks": 455,
          "midi": 78,
          "name": "F#5",
          "ticks": 62880,
          "time": 85.289592,
          "velocity": 0.6299212598425197
        },
        {
          "duration": 0.4440104166666714,
          "durationTicks": 341,
          "midi": 70,
          "name": "A#4",
          "ticks": 63360,
          "time": 85.914592,
          "velocity": 0.6299212598425197
        },
        {
          "duration": 0.4440104166666714,
          "durationTicks": 341,
          "midi": 73,
          "name": "C#5",
          "ticks": 63360,
          "time": 85.914592,
          "velocity": 0.6299212598425197
        },
        {
          "duration": 0.1471354166666714,
          "durationTicks": 113,
          "midi": 82,
          "name": "A#5",
          "ticks": 63720,
          "time": 86.383342,
          "velocity": 0.6299212598425197
        },
        {
          "duration": 0.4440104166666714,
          "durationTicks": 341,
          "midi": 80,
          "name": "G#5",
          "ticks": 63840,
          "time": 86.539592,
          "velocity": 0.6299212598425197
        },
        {
          "duration": 0.1471354166666714,
          "durationTicks": 113,
          "midi": 79,
          "name": "G5",
          "ticks": 64200,
          "time": 87.008342,
          "velocity": 0.6299212598425197
        },
        {
          "duration": 0.5924479166666714,
          "durationTicks": 455,
          "midi": 75,
          "name": "D#5",
          "ticks": 64320,
          "time": 87.164592,
          "velocity": 0.6299212598425197
        },
        {
          "duration": 0.5924479166666714,
          "durationTicks": 455,
          "midi": 80,
          "name": "G#5",
          "ticks": 64320,
          "time": 87.164592,
          "velocity": 0.6299212598425197
        },
        {
          "duration": 0.5924479166666714,
          "durationTicks": 455,
          "midi": 87,
          "name": "D#6",
          "ticks": 64800,
          "time": 87.789592,
          "velocity": 0.6299212598425197
        },
        {
          "duration": 0.5924479166666714,
          "durationTicks": 455,
          "midi": 76,
          "name": "E5",
          "ticks": 65280,
          "time": 88.414592,
          "velocity": 0.6299212598425197
        },
        {
          "duration": 0.5924479166666714,
          "durationTicks": 455,
          "midi": 80,
          "name": "G#5",
          "ticks": 65280,
          "time": 88.414592,
          "velocity": 0.6299212598425197
        },
        {
          "duration": 0.5924479166666714,
          "durationTicks": 455,
          "midi": 80,
          "name": "G#5",
          "ticks": 65760,
          "time": 89.039592,
          "velocity": 0.6299212598425197
        },
        {
          "duration": 0.5924479166666714,
          "durationTicks": 455,
          "midi": 87,
          "name": "D#6",
          "ticks": 65760,
          "time": 89.039592,
          "velocity": 0.6299212598425197
        },
        {
          "duration": 0.2955729166666572,
          "durationTicks": 227,
          "midi": 85,
          "name": "C#6",
          "ticks": 66240,
          "time": 89.664592,
          "velocity": 0.6299212598425197
        },
        {
          "duration": 0.09765625,
          "durationTicks": 75,
          "midi": 85,
          "name": "C#6",
          "ticks": 66480,
          "time": 89.977092,
          "velocity": 0.6299212598425197
        },
        {
          "duration": 0.09765625,
          "durationTicks": 75,
          "midi": 87,
          "name": "D#6",
          "ticks": 66560,
          "time": 90.08125866666667,
          "velocity": 0.6299212598425197
        },
        {
          "duration": 0.09765625,
          "durationTicks": 75,
          "midi": 85,
          "name": "C#6",
          "ticks": 66640,
          "time": 90.18542533333333,
          "velocity": 0.6299212598425197
        },
        {
          "duration": 0.2955729166666572,
          "durationTicks": 227,
          "midi": 82,
          "name": "A#5",
          "ticks": 66720,
          "time": 90.289592,
          "velocity": 0.6299212598425197
        },
        {
          "duration": 0.2955729166666572,
          "durationTicks": 227,
          "midi": 78,
          "name": "F#5",
          "ticks": 66960,
          "time": 90.602092,
          "velocity": 0.6299212598425197
        },
        {
          "duration": 1.7799479166666572,
          "durationTicks": 1367,
          "midi": 80,
          "name": "G#5",
          "ticks": 67200,
          "time": 90.914592,
          "velocity": 0.6299212598425197
        },
        {
          "duration": 0.2955729166666572,
          "durationTicks": 227,
          "midi": 56,
          "name": "G#3",
          "ticks": 67200,
          "time": 90.914592,
          "velocity": 0.6299212598425197
        },
        {
          "duration": 0.2955729166666572,
          "durationTicks": 227,
          "midi": 63,
          "name": "D#4",
          "ticks": 67440,
          "time": 91.227092,
          "velocity": 0.6299212598425197
        },
        {
          "duration": 0.2955729166666572,
          "durationTicks": 227,
          "midi": 68,
          "name": "G#4",
          "ticks": 67680,
          "time": 91.539592,
          "velocity": 0.6299212598425197
        },
        {
          "duration": 0.2955729166666572,
          "durationTicks": 227,
          "midi": 70,
          "name": "A#4",
          "ticks": 67920,
          "time": 91.852092,
          "velocity": 0.6299212598425197
        },
        {
          "duration": 0.2955729166666572,
          "durationTicks": 227,
          "midi": 71,
          "name": "B4",
          "ticks": 68160,
          "time": 92.164592,
          "velocity": 0.6299212598425197
        },
        {
          "duration": 0.2955729166666572,
          "durationTicks": 227,
          "midi": 63,
          "name": "D#4",
          "ticks": 68400,
          "time": 92.477092,
          "velocity": 0.6299212598425197
        },
        {
          "duration": 0.2955729166666572,
          "durationTicks": 227,
          "midi": 68,
          "name": "G#4",
          "ticks": 68640,
          "time": 92.789592,
          "velocity": 0.6299212598425197
        },
        {
          "duration": 0.1471354166666714,
          "durationTicks": 113,
          "midi": 75,
          "name": "D#5",
          "ticks": 68880,
          "time": 93.102092,
          "velocity": 0.6299212598425197
        },
        {
          "duration": 0.1471354166666714,
          "durationTicks": 113,
          "midi": 68,
          "name": "G#4",
          "ticks": 69000,
          "time": 93.258342,
          "velocity": 0.6299212598425197
        },
        {
          "duration": 0.7721354166666714,
          "durationTicks": 593,
          "midi": 68,
          "name": "G#4",
          "ticks": 69120,
          "time": 93.414592,
          "velocity": 0.6299212598425197
        },
        {
          "duration": 0.7057291666666572,
          "durationTicks": 542,
          "midi": 71,
          "name": "B4",
          "ticks": 69170,
          "time": 93.47969616666667,
          "velocity": 0.6299212598425197
        },
        {
          "duration": 0.6380208333333286,
          "durationTicks": 490,
          "midi": 75,
          "name": "D#5",
          "ticks": 69222,
          "time": 93.5474045,
          "velocity": 0.6299212598425197
        },
        {
          "duration": 0.1471354166666714,
          "durationTicks": 113,
          "midi": 68,
          "name": "G#4",
          "ticks": 69720,
          "time": 94.195842,
          "velocity": 0.6299212598425197
        },
        {
          "duration": 0.1471354166666714,
          "durationTicks": 113,
          "midi": 71,
          "name": "B4",
          "ticks": 69840,
          "time": 94.352092,
          "velocity": 0.6299212598425197
        },
        {
          "duration": 0.1471354166666714,
          "durationTicks": 113,
          "midi": 75,
          "name": "D#5",
          "ticks": 69960,
          "time": 94.508342,
          "velocity": 0.6299212598425197
        },
        {
          "duration": 0.5924479166666714,
          "durationTicks": 455,
          "midi": 66,
          "name": "F#4",
          "ticks": 70080,
          "time": 94.664592,
          "velocity": 0.6299212598425197
        },
        {
          "duration": 0.5924479166666714,
          "durationTicks": 455,
          "midi": 70,
          "name": "A#4",
          "ticks": 70080,
          "time": 94.664592,
          "velocity": 0.6299212598425197
        },
        {
          "duration": 0.5924479166666714,
          "durationTicks": 455,
          "midi": 73,
          "name": "C#5",
          "ticks": 70080,
          "time": 94.664592,
          "velocity": 0.6299212598425197
        },
        {
          "duration": 0.5924479166666714,
          "durationTicks": 455,
          "midi": 70,
          "name": "A#4",
          "ticks": 70560,
          "time": 95.289592,
          "velocity": 0.6299212598425197
        },
        {
          "duration": 0.5924479166666714,
          "durationTicks": 455,
          "midi": 73,
          "name": "C#5",
          "ticks": 70560,
          "time": 95.289592,
          "velocity": 0.6299212598425197
        },
        {
          "duration": 0.5924479166666714,
          "durationTicks": 455,
          "midi": 78,
          "name": "F#5",
          "ticks": 70560,
          "time": 95.289592,
          "velocity": 0.6299212598425197
        },
        {
          "duration": 0.2955729166666572,
          "durationTicks": 227,
          "midi": 70,
          "name": "A#4",
          "ticks": 71040,
          "time": 95.914592,
          "velocity": 0.6299212598425197
        },
        {
          "duration": 0.2955729166666572,
          "durationTicks": 227,
          "midi": 73,
          "name": "C#5",
          "ticks": 71040,
          "time": 95.914592,
          "velocity": 0.6299212598425197
        },
        {
          "duration": 0.2955729166666572,
          "durationTicks": 227,
          "midi": 70,
          "name": "A#4",
          "ticks": 71280,
          "time": 96.227092,
          "velocity": 0.6299212598425197
        },
        {
          "duration": 0.2955729166666572,
          "durationTicks": 227,
          "midi": 79,
          "name": "G5",
          "ticks": 71280,
          "time": 96.227092,
          "velocity": 0.6299212598425197
        },
        {
          "duration": 0.2955729166666572,
          "durationTicks": 227,
          "midi": 80,
          "name": "G#5",
          "ticks": 71520,
          "time": 96.539592,
          "velocity": 0.6299212598425197
        },
        {
          "duration": 0.2955729166666572,
          "durationTicks": 227,
          "midi": 82,
          "name": "A#5",
          "ticks": 71760,
          "time": 96.852092,
          "velocity": 0.6299212598425197
        },
        {
          "duration": 0.1471354166666714,
          "durationTicks": 113,
          "midi": 75,
          "name": "D#5",
          "ticks": 72000,
          "time": 97.164592,
          "velocity": 0.6299212598425197
        },
        {
          "duration": 0.1471354166666714,
          "durationTicks": 113,
          "midi": 83,
          "name": "B5",
          "ticks": 72120,
          "time": 97.320842,
          "velocity": 0.6299212598425197
        },
        {
          "duration": 0.1471354166666714,
          "durationTicks": 113,
          "midi": 73,
          "name": "C#5",
          "ticks": 72240,
          "time": 97.477092,
          "velocity": 0.6299212598425197
        },
        {
          "duration": 0.1471354166666714,
          "durationTicks": 113,
          "midi": 82,
          "name": "A#5",
          "ticks": 72360,
          "time": 97.633342,
          "velocity": 0.6299212598425197
        },
        {
          "duration": 0.1471354166666714,
          "durationTicks": 113,
          "midi": 71,
          "name": "B4",
          "ticks": 72480,
          "time": 97.789592,
          "velocity": 0.6299212598425197
        },
        {
          "duration": 0.1471354166666714,
          "durationTicks": 113,
          "midi": 80,
          "name": "G#5",
          "ticks": 72600,
          "time": 97.945842,
          "velocity": 0.6299212598425197
        },
        {
          "duration": 0.1471354166666714,
          "durationTicks": 113,
          "midi": 70,
          "name": "A#4",
          "ticks": 72720,
          "time": 98.102092,
          "velocity": 0.6299212598425197
        },
        {
          "duration": 0.1471354166666714,
          "durationTicks": 113,
          "midi": 78,
          "name": "F#5",
          "ticks": 72840,
          "time": 98.258342,
          "velocity": 0.6299212598425197
        },
        {
          "duration": 0.1471354166666714,
          "durationTicks": 113,
          "midi": 80,
          "name": "G#5",
          "ticks": 72960,
          "time": 98.414592,
          "velocity": 0.6299212598425197
        },
        {
          "duration": 0.1471354166666714,
          "durationTicks": 113,
          "midi": 87,
          "name": "D#6",
          "ticks": 73080,
          "time": 98.570842,
          "velocity": 0.6299212598425197
        },
        {
          "duration": 0.1471354166666714,
          "durationTicks": 113,
          "midi": 85,
          "name": "C#6",
          "ticks": 73200,
          "time": 98.727092,
          "velocity": 0.6299212598425197
        },
        {
          "duration": 0.1471354166666714,
          "durationTicks": 113,
          "midi": 87,
          "name": "D#6",
          "ticks": 73320,
          "time": 98.883342,
          "velocity": 0.6299212598425197
        },
        {
          "duration": 0.1471354166666714,
          "durationTicks": 113,
          "midi": 80,
          "name": "G#5",
          "ticks": 73440,
          "time": 99.039592,
          "velocity": 0.6299212598425197
        },
        {
          "duration": 0.1471354166666714,
          "durationTicks": 113,
          "midi": 87,
          "name": "D#6",
          "ticks": 73560,
          "time": 99.195842,
          "velocity": 0.6299212598425197
        },
        {
          "duration": 0.1471354166666714,
          "durationTicks": 113,
          "midi": 85,
          "name": "C#6",
          "ticks": 73680,
          "time": 99.352092,
          "velocity": 0.6299212598425197
        },
        {
          "duration": 0.1471354166666714,
          "durationTicks": 113,
          "midi": 87,
          "name": "D#6",
          "ticks": 73800,
          "time": 99.508342,
          "velocity": 0.6299212598425197
        },
        {
          "duration": 0.1471354166666714,
          "durationTicks": 113,
          "midi": 80,
          "name": "G#5",
          "ticks": 73920,
          "time": 99.664592,
          "velocity": 0.6299212598425197
        },
        {
          "duration": 0.1471354166666714,
          "durationTicks": 113,
          "midi": 87,
          "name": "D#6",
          "ticks": 74040,
          "time": 99.820842,
          "velocity": 0.6299212598425197
        },
        {
          "duration": 0.1471354166666714,
          "durationTicks": 113,
          "midi": 85,
          "name": "C#6",
          "ticks": 74160,
          "time": 99.977092,
          "velocity": 0.6299212598425197
        },
        {
          "duration": 0.1471354166666714,
          "durationTicks": 113,
          "midi": 87,
          "name": "D#6",
          "ticks": 74280,
          "time": 100.133342,
          "velocity": 0.6299212598425197
        },
        {
          "duration": 0.1471354166666714,
          "durationTicks": 113,
          "midi": 80,
          "name": "G#5",
          "ticks": 74400,
          "time": 100.289592,
          "velocity": 0.6299212598425197
        },
        {
          "duration": 0.1471354166666714,
          "durationTicks": 113,
          "midi": 87,
          "name": "D#6",
          "ticks": 74520,
          "time": 100.445842,
          "velocity": 0.6299212598425197
        },
        {
          "duration": 0.1471354166666714,
          "durationTicks": 113,
          "midi": 85,
          "name": "C#6",
          "ticks": 74640,
          "time": 100.602092,
          "velocity": 0.6299212598425197
        },
        {
          "duration": 0.1471354166666714,
          "durationTicks": 113,
          "midi": 87,
          "name": "D#6",
          "ticks": 74760,
          "time": 100.758342,
          "velocity": 0.6299212598425197
        },
        {
          "duration": 0.1471354166666714,
          "durationTicks": 113,
          "midi": 80,
          "name": "G#5",
          "ticks": 74880,
          "time": 100.914592,
          "velocity": 0.6299212598425197
        },
        {
          "duration": 0.1471354166666714,
          "durationTicks": 113,
          "midi": 87,
          "name": "D#6",
          "ticks": 75000,
          "time": 101.070842,
          "velocity": 0.6299212598425197
        },
        {
          "duration": 0.1471354166666714,
          "durationTicks": 113,
          "midi": 84,
          "name": "C6",
          "ticks": 75120,
          "time": 101.227092,
          "velocity": 0.6299212598425197
        },
        {
          "duration": 0.1471354166666714,
          "durationTicks": 113,
          "midi": 87,
          "name": "D#6",
          "ticks": 75240,
          "time": 101.383342,
          "velocity": 0.6299212598425197
        },
        {
          "duration": 0.1471354166666714,
          "durationTicks": 113,
          "midi": 80,
          "name": "G#5",
          "ticks": 75360,
          "time": 101.539592,
          "velocity": 0.6299212598425197
        },
        {
          "duration": 0.1471354166666714,
          "durationTicks": 113,
          "midi": 87,
          "name": "D#6",
          "ticks": 75480,
          "time": 101.695842,
          "velocity": 0.6299212598425197
        },
        {
          "duration": 0.1471354166666714,
          "durationTicks": 113,
          "midi": 84,
          "name": "C6",
          "ticks": 75600,
          "time": 101.852092,
          "velocity": 0.6299212598425197
        },
        {
          "duration": 0.1471354166666714,
          "durationTicks": 113,
          "midi": 87,
          "name": "D#6",
          "ticks": 75720,
          "time": 102.008342,
          "velocity": 0.6299212598425197
        },
        {
          "duration": 0.1471354166666714,
          "durationTicks": 113,
          "midi": 80,
          "name": "G#5",
          "ticks": 75840,
          "time": 102.164592,
          "velocity": 0.6299212598425197
        },
        {
          "duration": 0.1471354166666714,
          "durationTicks": 113,
          "midi": 87,
          "name": "D#6",
          "ticks": 75960,
          "time": 102.320842,
          "velocity": 0.6299212598425197
        },
        {
          "duration": 0.1471354166666714,
          "durationTicks": 113,
          "midi": 84,
          "name": "C6",
          "ticks": 76080,
          "time": 102.477092,
          "velocity": 0.6299212598425197
        },
        {
          "duration": 0.1471354166666714,
          "durationTicks": 113,
          "midi": 87,
          "name": "D#6",
          "ticks": 76200,
          "time": 102.633342,
          "velocity": 0.6299212598425197
        },
        {
          "duration": 0.2955729166666572,
          "durationTicks": 227,
          "midi": 80,
          "name": "G#5",
          "ticks": 76320,
          "time": 102.789592,
          "velocity": 0.6299212598425197
        },
        {
          "duration": 0.2955729166666572,
          "durationTicks": 227,
          "midi": 75,
          "name": "D#5",
          "ticks": 76560,
          "time": 103.102092,
          "velocity": 0.6299212598425197
        },
        {
          "duration": 0.1471354166666714,
          "durationTicks": 113,
          "midi": 83,
          "name": "B5",
          "ticks": 76800,
          "time": 103.414592,
          "velocity": 0.6299212598425197
        },
        {
          "duration": 0.1471354166666714,
          "durationTicks": 113,
          "midi": 75,
          "name": "D#5",
          "ticks": 76920,
          "time": 103.570842,
          "velocity": 0.6299212598425197
        },
        {
          "duration": 0.1471354166666714,
          "durationTicks": 113,
          "midi": 82,
          "name": "A#5",
          "ticks": 77040,
          "time": 103.727092,
          "velocity": 0.6299212598425197
        },
        {
          "duration": 0.1471354166666714,
          "durationTicks": 113,
          "midi": 75,
          "name": "D#5",
          "ticks": 77160,
          "time": 103.883342,
          "velocity": 0.6299212598425197
        },
        {
          "duration": 0.1471354166666714,
          "durationTicks": 113,
          "midi": 83,
          "name": "B5",
          "ticks": 77280,
          "time": 104.039592,
          "velocity": 0.6299212598425197
        },
        {
          "duration": 0.1471354166666714,
          "durationTicks": 113,
          "midi": 75,
          "name": "D#5",
          "ticks": 77400,
          "time": 104.195842,
          "velocity": 0.6299212598425197
        },
        {
          "duration": 0.1471354166666714,
          "durationTicks": 113,
          "midi": 85,
          "name": "C#6",
          "ticks": 77520,
          "time": 104.352092,
          "velocity": 0.6299212598425197
        },
        {
          "duration": 0.1471354166666714,
          "durationTicks": 113,
          "midi": 75,
          "name": "D#5",
          "ticks": 77640,
          "time": 104.508342,
          "velocity": 0.6299212598425197
        },
        {
          "duration": 0.1471354166666714,
          "durationTicks": 113,
          "midi": 82,
          "name": "A#5",
          "ticks": 77760,
          "time": 104.664592,
          "velocity": 0.6299212598425197
        },
        {
          "duration": 0.1471354166666714,
          "durationTicks": 113,
          "midi": 70,
          "name": "A#4",
          "ticks": 77880,
          "time": 104.820842,
          "velocity": 0.6299212598425197
        },
        {
          "duration": 0.1471354166666714,
          "durationTicks": 113,
          "midi": 80,
          "name": "G#5",
          "ticks": 78000,
          "time": 104.977092,
          "velocity": 0.6299212598425197
        },
        {
          "duration": 0.1471354166666714,
          "durationTicks": 113,
          "midi": 70,
          "name": "A#4",
          "ticks": 78120,
          "time": 105.133342,
          "velocity": 0.6299212598425197
        },
        {
          "duration": 0.2955729166666572,
          "durationTicks": 227,
          "midi": 78,
          "name": "F#5",
          "ticks": 78240,
          "time": 105.289592,
          "velocity": 0.6299212598425197
        },
        {
          "duration": 0.1471354166666714,
          "durationTicks": 113,
          "midi": 75,
          "name": "D#5",
          "ticks": 78480,
          "time": 105.602092,
          "velocity": 0.6299212598425197
        },
        {
          "duration": 0.1471354166666714,
          "durationTicks": 113,
          "midi": 78,
          "name": "F#5",
          "ticks": 78600,
          "time": 105.758342,
          "velocity": 0.6299212598425197
        },
        {
          "duration": 0.1471354166666714,
          "durationTicks": 113,
          "midi": 80,
          "name": "G#5",
          "ticks": 78720,
          "time": 105.914592,
          "velocity": 0.6299212598425197
        },
        {
          "duration": 0.1471354166666714,
          "durationTicks": 113,
          "midi": 71,
          "name": "B4",
          "ticks": 78840,
          "time": 106.070842,
          "velocity": 0.6299212598425197
        },
        {
          "duration": 0.1471354166666714,
          "durationTicks": 113,
          "midi": 78,
          "name": "F#5",
          "ticks": 78960,
          "time": 106.227092,
          "velocity": 0.6299212598425197
        },
        {
          "duration": 0.1471354166666714,
          "durationTicks": 113,
          "midi": 71,
          "name": "B4",
          "ticks": 79080,
          "time": 106.383342,
          "velocity": 0.6299212598425197
        },
        {
          "duration": 0.1471354166666714,
          "durationTicks": 113,
          "midi": 80,
          "name": "G#5",
          "ticks": 79200,
          "time": 106.539592,
          "velocity": 0.6299212598425197
        },
        {
          "duration": 0.1471354166666714,
          "durationTicks": 113,
          "midi": 71,
          "name": "B4",
          "ticks": 79320,
          "time": 106.695842,
          "velocity": 0.6299212598425197
        },
        {
          "duration": 0.1471354166666714,
          "durationTicks": 113,
          "midi": 83,
          "name": "B5",
          "ticks": 79440,
          "time": 106.852092,
          "velocity": 0.6299212598425197
        },
        {
          "duration": 0.1471354166666714,
          "durationTicks": 113,
          "midi": 71,
          "name": "B4",
          "ticks": 79560,
          "time": 107.008342,
          "velocity": 0.6299212598425197
        },
        {
          "duration": 0.1471354166666714,
          "durationTicks": 113,
          "midi": 78,
          "name": "F#5",
          "ticks": 79680,
          "time": 107.164592,
          "velocity": 0.6299212598425197
        },
        {
          "duration": 0.1471354166666714,
          "durationTicks": 113,
          "midi": 71,
          "name": "B4",
          "ticks": 79800,
          "time": 107.320842,
          "velocity": 0.6299212598425197
        },
        {
          "duration": 0.1471354166666714,
          "durationTicks": 113,
          "midi": 76,
          "name": "E5",
          "ticks": 79920,
          "time": 107.477092,
          "velocity": 0.6299212598425197
        },
        {
          "duration": 0.1471354166666714,
          "durationTicks": 113,
          "midi": 71,
          "name": "B4",
          "ticks": 80040,
          "time": 107.633342,
          "velocity": 0.6299212598425197
        },
        {
          "duration": 0.2955729166666572,
          "durationTicks": 227,
          "midi": 75,
          "name": "D#5",
          "ticks": 80160,
          "time": 107.789592,
          "velocity": 0.6299212598425197
        },
        {
          "duration": 0.1471354166666714,
          "durationTicks": 113,
          "midi": 75,
          "name": "D#5",
          "ticks": 80400,
          "time": 108.102092,
          "velocity": 0.6299212598425197
        },
        {
          "duration": 0.1471354166666714,
          "durationTicks": 113,
          "midi": 78,
          "name": "F#5",
          "ticks": 80520,
          "time": 108.258342,
          "velocity": 0.6299212598425197
        },
        {
          "duration": 0.1471354166666714,
          "durationTicks": 113,
          "midi": 76,
          "name": "E5",
          "ticks": 80640,
          "time": 108.414592,
          "velocity": 0.6299212598425197
        },
        {
          "duration": 0.1471354166666714,
          "durationTicks": 113,
          "midi": 68,
          "name": "G#4",
          "ticks": 80760,
          "time": 108.570842,
          "velocity": 0.6299212598425197
        },
        {
          "duration": 0.1471354166666714,
          "durationTicks": 113,
          "midi": 75,
          "name": "D#5",
          "ticks": 80880,
          "time": 108.727092,
          "velocity": 0.6299212598425197
        },
        {
          "duration": 0.1471354166666714,
          "durationTicks": 113,
          "midi": 68,
          "name": "G#4",
          "ticks": 81000,
          "time": 108.883342,
          "velocity": 0.6299212598425197
        },
        {
          "duration": 0.1471354166666714,
          "durationTicks": 113,
          "midi": 73,
          "name": "C#5",
          "ticks": 81120,
          "time": 109.039592,
          "velocity": 0.6299212598425197
        },
        {
          "duration": 0.1471354166666714,
          "durationTicks": 113,
          "midi": 68,
          "name": "G#4",
          "ticks": 81240,
          "time": 109.195842,
          "velocity": 0.6299212598425197
        },
        {
          "duration": 0.1471354166666714,
          "durationTicks": 113,
          "midi": 76,
          "name": "E5",
          "ticks": 81360,
          "time": 109.352092,
          "velocity": 0.6299212598425197
        },
        {
          "duration": 0.1471354166666714,
          "durationTicks": 113,
          "midi": 68,
          "name": "G#4",
          "ticks": 81480,
          "time": 109.508342,
          "velocity": 0.6299212598425197
        },
        {
          "duration": 0.1471354166666714,
          "durationTicks": 113,
          "midi": 75,
          "name": "D#5",
          "ticks": 81600,
          "time": 109.664592,
          "velocity": 0.6299212598425197
        },
        {
          "duration": 0.1471354166666714,
          "durationTicks": 113,
          "midi": 63,
          "name": "D#4",
          "ticks": 81720,
          "time": 109.820842,
          "velocity": 0.6299212598425197
        },
        {
          "duration": 0.1471354166666714,
          "durationTicks": 113,
          "midi": 73,
          "name": "C#5",
          "ticks": 81840,
          "time": 109.977092,
          "velocity": 0.6299212598425197
        },
        {
          "duration": 0.1471354166666714,
          "durationTicks": 113,
          "midi": 63,
          "name": "D#4",
          "ticks": 81960,
          "time": 110.133342,
          "velocity": 0.6299212598425197
        },
        {
          "duration": 0.1471354166666714,
          "durationTicks": 113,
          "midi": 71,
          "name": "B4",
          "ticks": 82080,
          "time": 110.289592,
          "velocity": 0.6299212598425197
        },
        {
          "duration": 0.1471354166666714,
          "durationTicks": 113,
          "midi": 63,
          "name": "D#4",
          "ticks": 82200,
          "time": 110.445842,
          "velocity": 0.6299212598425197
        },
        {
          "duration": 0.1471354166666714,
          "durationTicks": 113,
          "midi": 75,
          "name": "D#5",
          "ticks": 82320,
          "time": 110.602092,
          "velocity": 0.6299212598425197
        },
        {
          "duration": 0.1471354166666714,
          "durationTicks": 113,
          "midi": 63,
          "name": "D#4",
          "ticks": 82440,
          "time": 110.758342,
          "velocity": 0.6299212598425197
        },
        {
          "duration": 0.1471354166666714,
          "durationTicks": 113,
          "midi": 73,
          "name": "C#5",
          "ticks": 82560,
          "time": 110.914592,
          "velocity": 0.6299212598425197
        },
        {
          "duration": 0.1471354166666714,
          "durationTicks": 113,
          "midi": 64,
          "name": "E4",
          "ticks": 82680,
          "time": 111.070842,
          "velocity": 0.6299212598425197
        },
        {
          "duration": 0.1471354166666714,
          "durationTicks": 113,
          "midi": 71,
          "name": "B4",
          "ticks": 82800,
          "time": 111.227092,
          "velocity": 0.6299212598425197
        },
        {
          "duration": 0.1471354166666714,
          "durationTicks": 113,
          "midi": 64,
          "name": "E4",
          "ticks": 82920,
          "time": 111.383342,
          "velocity": 0.6299212598425197
        },
        {
          "duration": 0.1471354166666714,
          "durationTicks": 113,
          "midi": 70,
          "name": "A#4",
          "ticks": 83040,
          "time": 111.539592,
          "velocity": 0.6299212598425197
        },
        {
          "duration": 0.1471354166666714,
          "durationTicks": 113,
          "midi": 64,
          "name": "E4",
          "ticks": 83160,
          "time": 111.695842,
          "velocity": 0.6299212598425197
        },
        {
          "duration": 0.1471354166666714,
          "durationTicks": 113,
          "midi": 68,
          "name": "G#4",
          "ticks": 83280,
          "time": 111.852092,
          "velocity": 0.6299212598425197
        },
        {
          "duration": 0.1471354166666714,
          "durationTicks": 113,
          "midi": 64,
          "name": "E4",
          "ticks": 83400,
          "time": 112.008342,
          "velocity": 0.6299212598425197
        },
        {
          "duration": 0.2955729166666572,
          "durationTicks": 227,
          "midi": 64,
          "name": "E4",
          "ticks": 83520,
          "time": 112.164592,
          "velocity": 0.6299212598425197
        },
        {
          "duration": 0.2955729166666572,
          "durationTicks": 227,
          "midi": 67,
          "name": "G4",
          "ticks": 83520,
          "time": 112.164592,
          "velocity": 0.6299212598425197
        },
        {
          "duration": 0.2955729166666572,
          "durationTicks": 227,
          "midi": 64,
          "name": "E4",
          "ticks": 83760,
          "time": 112.477092,
          "velocity": 0.6299212598425197
        },
        {
          "duration": 0.2955729166666572,
          "durationTicks": 227,
          "midi": 68,
          "name": "G#4",
          "ticks": 83760,
          "time": 112.477092,
          "velocity": 0.6299212598425197
        },
        {
          "duration": 0.5924479166666572,
          "durationTicks": 455,
          "midi": 63,
          "name": "D#4",
          "ticks": 84000,
          "time": 112.789592,
          "velocity": 0.6299212598425197
        },
        {
          "duration": 0.5924479166666572,
          "durationTicks": 455,
          "midi": 70,
          "name": "A#4",
          "ticks": 84000,
          "time": 112.789592,
          "velocity": 0.6299212598425197
        },
        {
          "duration": 0.1471354166666714,
          "durationTicks": 113,
          "midi": 71,
          "name": "B4",
          "ticks": 84480,
          "time": 113.414592,
          "velocity": 0.6299212598425197
        },
        {
          "duration": 0.1471354166666714,
          "durationTicks": 113,
          "midi": 63,
          "name": "D#4",
          "ticks": 84600,
          "time": 113.570842,
          "velocity": 0.6299212598425197
        },
        {
          "duration": 0.1471354166666714,
          "durationTicks": 113,
          "midi": 70,
          "name": "A#4",
          "ticks": 84720,
          "time": 113.727092,
          "velocity": 0.6299212598425197
        },
        {
          "duration": 0.1471354166666714,
          "durationTicks": 113,
          "midi": 63,
          "name": "D#4",
          "ticks": 84840,
          "time": 113.883342,
          "velocity": 0.6299212598425197
        },
        {
          "duration": 0.1471354166666714,
          "durationTicks": 113,
          "midi": 71,
          "name": "B4",
          "ticks": 84960,
          "time": 114.039592,
          "velocity": 0.6299212598425197
        },
        {
          "duration": 0.1471354166666714,
          "durationTicks": 113,
          "midi": 63,
          "name": "D#4",
          "ticks": 85080,
          "time": 114.195842,
          "velocity": 0.6299212598425197
        },
        {
          "duration": 0.1471354166666714,
          "durationTicks": 113,
          "midi": 73,
          "name": "C#5",
          "ticks": 85200,
          "time": 114.352092,
          "velocity": 0.6299212598425197
        },
        {
          "duration": 0.1471354166666714,
          "durationTicks": 113,
          "midi": 63,
          "name": "D#4",
          "ticks": 85320,
          "time": 114.508342,
          "velocity": 0.6299212598425197
        },
        {
          "duration": 0.1471354166666714,
          "durationTicks": 113,
          "midi": 70,
          "name": "A#4",
          "ticks": 85440,
          "time": 114.664592,
          "velocity": 0.6299212598425197
        },
        {
          "duration": 0.1471354166666714,
          "durationTicks": 113,
          "midi": 63,
          "name": "D#4",
          "ticks": 85560,
          "time": 114.820842,
          "velocity": 0.6299212598425197
        },
        {
          "duration": 0.1471354166666714,
          "durationTicks": 113,
          "midi": 68,
          "name": "G#4",
          "ticks": 85680,
          "time": 114.977092,
          "velocity": 0.6299212598425197
        },
        {
          "duration": 0.1471354166666714,
          "durationTicks": 113,
          "midi": 63,
          "name": "D#4",
          "ticks": 85800,
          "time": 115.133342,
          "velocity": 0.6299212598425197
        },
        {
          "duration": 0.2955729166666572,
          "durationTicks": 227,
          "midi": 66,
          "name": "F#4",
          "ticks": 85920,
          "time": 115.289592,
          "velocity": 0.6299212598425197
        },
        {
          "duration": 0.1471354166666714,
          "durationTicks": 113,
          "midi": 63,
          "name": "D#4",
          "ticks": 86160,
          "time": 115.602092,
          "velocity": 0.6299212598425197
        },
        {
          "duration": 0.1471354166666714,
          "durationTicks": 113,
          "midi": 66,
          "name": "F#4",
          "ticks": 86280,
          "time": 115.758342,
          "velocity": 0.6299212598425197
        },
        {
          "duration": 0.1471354166666714,
          "durationTicks": 113,
          "midi": 68,
          "name": "G#4",
          "ticks": 86400,
          "time": 115.914592,
          "velocity": 0.6299212598425197
        },
        {
          "duration": 0.1471354166666714,
          "durationTicks": 113,
          "midi": 59,
          "name": "B3",
          "ticks": 86520,
          "time": 116.070842,
          "velocity": 0.6299212598425197
        },
        {
          "duration": 0.1471354166666714,
          "durationTicks": 113,
          "midi": 66,
          "name": "F#4",
          "ticks": 86640,
          "time": 116.227092,
          "velocity": 0.6299212598425197
        },
        {
          "duration": 0.1471354166666714,
          "durationTicks": 113,
          "midi": 59,
          "name": "B3",
          "ticks": 86760,
          "time": 116.383342,
          "velocity": 0.6299212598425197
        },
        {
          "duration": 0.1471354166666714,
          "durationTicks": 113,
          "midi": 68,
          "name": "G#4",
          "ticks": 86880,
          "time": 116.539592,
          "velocity": 0.6299212598425197
        },
        {
          "duration": 0.1471354166666714,
          "durationTicks": 113,
          "midi": 70,
          "name": "A#4",
          "ticks": 87000,
          "time": 116.695842,
          "velocity": 0.6299212598425197
        },
        {
          "duration": 0.1471354166666714,
          "durationTicks": 113,
          "midi": 71,
          "name": "B4",
          "ticks": 87120,
          "time": 116.852092,
          "velocity": 0.6299212598425197
        },
        {
          "duration": 0.1471354166666714,
          "durationTicks": 113,
          "midi": 68,
          "name": "G#4",
          "ticks": 87240,
          "time": 117.008342,
          "velocity": 0.6299212598425197
        },
        {
          "duration": 0.1471354166666714,
          "durationTicks": 113,
          "midi": 66,
          "name": "F#4",
          "ticks": 87360,
          "time": 117.164592,
          "velocity": 0.6299212598425197
        },
        {
          "duration": 0.1471354166666714,
          "durationTicks": 113,
          "midi": 59,
          "name": "B3",
          "ticks": 87480,
          "time": 117.320842,
          "velocity": 0.6299212598425197
        },
        {
          "duration": 0.1471354166666714,
          "durationTicks": 113,
          "midi": 64,
          "name": "E4",
          "ticks": 87600,
          "time": 117.477092,
          "velocity": 0.6299212598425197
        },
        {
          "duration": 0.1471354166666714,
          "durationTicks": 113,
          "midi": 59,
          "name": "B3",
          "ticks": 87720,
          "time": 117.633342,
          "velocity": 0.6299212598425197
        },
        {
          "duration": 0.2955729166666572,
          "durationTicks": 227,
          "midi": 63,
          "name": "D#4",
          "ticks": 87840,
          "time": 117.789592,
          "velocity": 0.6299212598425197
        },
        {
          "duration": 0.1471354166666714,
          "durationTicks": 113,
          "midi": 63,
          "name": "D#4",
          "ticks": 88080,
          "time": 118.102092,
          "velocity": 0.6299212598425197
        },
        {
          "duration": 0.1471354166666714,
          "durationTicks": 113,
          "midi": 66,
          "name": "F#4",
          "ticks": 88200,
          "time": 118.258342,
          "velocity": 0.6299212598425197
        },
        {
          "duration": 0.2955729166666572,
          "durationTicks": 227,
          "midi": 64,
          "name": "E4",
          "ticks": 88320,
          "time": 118.414592,
          "velocity": 0.6299212598425197
        },
        {
          "duration": 0.1471354166666714,
          "durationTicks": 113,
          "midi": 76,
          "name": "E5",
          "ticks": 88560,
          "time": 118.727092,
          "velocity": 0.6299212598425197
        },
        {
          "duration": 0.1471354166666714,
          "durationTicks": 113,
          "midi": 75,
          "name": "D#5",
          "ticks": 88680,
          "time": 118.883342,
          "velocity": 0.6299212598425197
        },
        {
          "duration": 0.1471354166666714,
          "durationTicks": 113,
          "midi": 73,
          "name": "C#5",
          "ticks": 88800,
          "time": 119.039592,
          "velocity": 0.6299212598425197
        },
        {
          "duration": 0.1471354166666714,
          "durationTicks": 113,
          "midi": 71,
          "name": "B4",
          "ticks": 88920,
          "time": 119.195842,
          "velocity": 0.6299212598425197
        },
        {
          "duration": 0.2955729166666572,
          "durationTicks": 227,
          "midi": 70,
          "name": "A#4",
          "ticks": 89040,
          "time": 119.352092,
          "velocity": 0.6299212598425197
        },
        {
          "duration": 0.1471354166666714,
          "durationTicks": 113,
          "midi": 75,
          "name": "D#5",
          "ticks": 89280,
          "time": 119.664592,
          "velocity": 0.6299212598425197
        },
        {
          "duration": 0.1471354166666714,
          "durationTicks": 113,
          "midi": 73,
          "name": "C#5",
          "ticks": 89400,
          "time": 119.820842,
          "velocity": 0.6299212598425197
        },
        {
          "duration": 0.1471354166666714,
          "durationTicks": 113,
          "midi": 75,
          "name": "D#5",
          "ticks": 89520,
          "time": 119.977092,
          "velocity": 0.6299212598425197
        },
        {
          "duration": 0.1471354166666714,
          "durationTicks": 113,
          "midi": 76,
          "name": "E5",
          "ticks": 89640,
          "time": 120.133342,
          "velocity": 0.6299212598425197
        },
        {
          "duration": 0.1471354166666714,
          "durationTicks": 113,
          "midi": 75,
          "name": "D#5",
          "ticks": 89760,
          "time": 120.289592,
          "velocity": 0.6299212598425197
        },
        {
          "duration": 0.1471354166666714,
          "durationTicks": 113,
          "midi": 73,
          "name": "C#5",
          "ticks": 89880,
          "time": 120.445842,
          "velocity": 0.6299212598425197
        },
        {
          "duration": 0.1471354166666714,
          "durationTicks": 113,
          "midi": 71,
          "name": "B4",
          "ticks": 90000,
          "time": 120.602092,
          "velocity": 0.6299212598425197
        },
        {
          "duration": 0.1471354166666714,
          "durationTicks": 113,
          "midi": 70,
          "name": "A#4",
          "ticks": 90120,
          "time": 120.758342,
          "velocity": 0.6299212598425197
        },
        {
          "duration": 0.2955729166666572,
          "durationTicks": 227,
          "midi": 68,
          "name": "G#4",
          "ticks": 90240,
          "time": 120.914592,
          "velocity": 0.6299212598425197
        },
        {
          "duration": 0.2955729166666572,
          "durationTicks": 227,
          "midi": 75,
          "name": "D#5",
          "ticks": 90480,
          "time": 121.227092,
          "velocity": 0.6299212598425197
        },
        {
          "duration": 0.2955729166666572,
          "durationTicks": 227,
          "midi": 67,
          "name": "G4",
          "ticks": 90720,
          "time": 121.539592,
          "velocity": 0.6299212598425197
        },
        {
          "duration": 0.2955729166666572,
          "durationTicks": 227,
          "midi": 75,
          "name": "D#5",
          "ticks": 90960,
          "time": 121.852092,
          "velocity": 0.6299212598425197
        },
        {
          "duration": 1.1861979166666714,
          "durationTicks": 911,
          "midi": 68,
          "name": "G#4",
          "ticks": 91200,
          "time": 122.164592,
          "velocity": 0.6299212598425197
        },
        {
          "duration": 0.1471354166666714,
          "durationTicks": 113,
          "midi": 80,
          "name": "G#5",
          "ticks": 92160,
          "time": 123.414592,
          "velocity": 0.6299212598425197
        },
        {
          "duration": 0.1471354166666714,
          "durationTicks": 113,
          "midi": 68,
          "name": "G#4",
          "ticks": 92280,
          "time": 123.570842,
          "velocity": 0.6299212598425197
        },
        {
          "duration": 0.1471354166666714,
          "durationTicks": 113,
          "midi": 71,
          "name": "B4",
          "ticks": 92400,
          "time": 123.727092,
          "velocity": 0.6299212598425197
        },
        {
          "duration": 0.1471354166666714,
          "durationTicks": 113,
          "midi": 75,
          "name": "D#5",
          "ticks": 92520,
          "time": 123.883342,
          "velocity": 0.6299212598425197
        },
        {
          "duration": 0.1471354166666714,
          "durationTicks": 113,
          "midi": 80,
          "name": "G#5",
          "ticks": 92640,
          "time": 124.039592,
          "velocity": 0.6299212598425197
        },
        {
          "duration": 0.1471354166666714,
          "durationTicks": 113,
          "midi": 71,
          "name": "B4",
          "ticks": 92760,
          "time": 124.195842,
          "velocity": 0.6299212598425197
        },
        {
          "duration": 0.1471354166666714,
          "durationTicks": 113,
          "midi": 75,
          "name": "D#5",
          "ticks": 92880,
          "time": 124.352092,
          "velocity": 0.6299212598425197
        },
        {
          "duration": 0.1471354166666714,
          "durationTicks": 113,
          "midi": 80,
          "name": "G#5",
          "ticks": 93000,
          "time": 124.508342,
          "velocity": 0.6299212598425197
        },
        {
          "duration": 0.1471354166666714,
          "durationTicks": 113,
          "midi": 82,
          "name": "A#5",
          "ticks": 93120,
          "time": 124.664592,
          "velocity": 0.6299212598425197
        },
        {
          "duration": 0.1471354166666714,
          "durationTicks": 113,
          "midi": 73,
          "name": "C#5",
          "ticks": 93240,
          "time": 124.820842,
          "velocity": 0.6299212598425197
        },
        {
          "duration": 0.1471354166666714,
          "durationTicks": 113,
          "midi": 75,
          "name": "D#5",
          "ticks": 93360,
          "time": 124.977092,
          "velocity": 0.6299212598425197
        },
        {
          "duration": 0.1471354166666714,
          "durationTicks": 113,
          "midi": 80,
          "name": "G#5",
          "ticks": 93480,
          "time": 125.133342,
          "velocity": 0.6299212598425197
        },
        {
          "duration": 0.1471354166666714,
          "durationTicks": 113,
          "midi": 82,
          "name": "A#5",
          "ticks": 93600,
          "time": 125.289592,
          "velocity": 0.6299212598425197
        },
        {
          "duration": 0.1471354166666714,
          "durationTicks": 113,
          "midi": 73,
          "name": "C#5",
          "ticks": 93720,
          "time": 125.445842,
          "velocity": 0.6299212598425197
        },
        {
          "duration": 0.1471354166666714,
          "durationTicks": 113,
          "midi": 83,
          "name": "B5",
          "ticks": 93840,
          "time": 125.602092,
          "velocity": 0.6299212598425197
        },
        {
          "duration": 0.1471354166666714,
          "durationTicks": 113,
          "midi": 82,
          "name": "A#5",
          "ticks": 93960,
          "time": 125.758342,
          "velocity": 0.6299212598425197
        },
        {
          "duration": 0.1471354166666714,
          "durationTicks": 113,
          "midi": 80,
          "name": "G#5",
          "ticks": 94080,
          "time": 125.914592,
          "velocity": 0.6299212598425197
        },
        {
          "duration": 0.1471354166666714,
          "durationTicks": 113,
          "midi": 71,
          "name": "B4",
          "ticks": 94200,
          "time": 126.070842,
          "velocity": 0.6299212598425197
        },
        {
          "duration": 0.1471354166666714,
          "durationTicks": 113,
          "midi": 83,
          "name": "B5",
          "ticks": 94320,
          "time": 126.227092,
          "velocity": 0.6299212598425197
        },
        {
          "duration": 0.1471354166666714,
          "durationTicks": 113,
          "midi": 71,
          "name": "B4",
          "ticks": 94440,
          "time": 126.383342,
          "velocity": 0.6299212598425197
        },
        {
          "duration": 0.1471354166666714,
          "durationTicks": 113,
          "midi": 82,
          "name": "A#5",
          "ticks": 94560,
          "time": 126.539592,
          "velocity": 0.6299212598425197
        },
        {
          "duration": 0.1471354166666714,
          "durationTicks": 113,
          "midi": 71,
          "name": "B4",
          "ticks": 94680,
          "time": 126.695842,
          "velocity": 0.6299212598425197
        },
        {
          "duration": 0.1471354166666714,
          "durationTicks": 113,
          "midi": 78,
          "name": "F#5",
          "ticks": 94800,
          "time": 126.852092,
          "velocity": 0.6299212598425197
        },
        {
          "duration": 0.1471354166666714,
          "durationTicks": 113,
          "midi": 71,
          "name": "B4",
          "ticks": 94920,
          "time": 127.008342,
          "velocity": 0.6299212598425197
        },
        {
          "duration": 0.1471354166666714,
          "durationTicks": 113,
          "midi": 80,
          "name": "G#5",
          "ticks": 95040,
          "time": 127.164592,
          "velocity": 0.6299212598425197
        },
        {
          "duration": 0.1471354166666714,
          "durationTicks": 113,
          "midi": 71,
          "name": "B4",
          "ticks": 95160,
          "time": 127.320842,
          "velocity": 0.6299212598425197
        },
        {
          "duration": 0.1471354166666714,
          "durationTicks": 113,
          "midi": 78,
          "name": "F#5",
          "ticks": 95280,
          "time": 127.477092,
          "velocity": 0.6299212598425197
        },
        {
          "duration": 0.1471354166666714,
          "durationTicks": 113,
          "midi": 71,
          "name": "B4",
          "ticks": 95400,
          "time": 127.633342,
          "velocity": 0.6299212598425197
        },
        {
          "duration": 0.1471354166666714,
          "durationTicks": 113,
          "midi": 75,
          "name": "D#5",
          "ticks": 95520,
          "time": 127.789592,
          "velocity": 0.6299212598425197
        },
        {
          "duration": 0.14713541666668561,
          "durationTicks": 113,
          "midi": 71,
          "name": "B4",
          "ticks": 95640,
          "time": 127.945842,
          "velocity": 0.6299212598425197
        },
        {
          "duration": 0.14713541666668561,
          "durationTicks": 113,
          "midi": 78,
          "name": "F#5",
          "ticks": 95760,
          "time": 128.102092,
          "velocity": 0.6299212598425197
        },
        {
          "duration": 0.14713541666668561,
          "durationTicks": 113,
          "midi": 71,
          "name": "B4",
          "ticks": 95880,
          "time": 128.258342,
          "velocity": 0.6299212598425197
        },
        {
          "duration": 0.14713541666668561,
          "durationTicks": 113,
          "midi": 80,
          "name": "G#5",
          "ticks": 96000,
          "time": 128.414592,
          "velocity": 0.6299212598425197
        },
        {
          "duration": 0.14713541666668561,
          "durationTicks": 113,
          "midi": 68,
          "name": "G#4",
          "ticks": 96120,
          "time": 128.570842,
          "velocity": 0.6299212598425197
        },
        {
          "duration": 0.14713541666668561,
          "durationTicks": 113,
          "midi": 71,
          "name": "B4",
          "ticks": 96240,
          "time": 128.727092,
          "velocity": 0.6299212598425197
        },
        {
          "duration": 0.14713541666668561,
          "durationTicks": 113,
          "midi": 75,
          "name": "D#5",
          "ticks": 96360,
          "time": 128.883342,
          "velocity": 0.6299212598425197
        },
        {
          "duration": 0.14713541666668561,
          "durationTicks": 113,
          "midi": 80,
          "name": "G#5",
          "ticks": 96480,
          "time": 129.039592,
          "velocity": 0.6299212598425197
        },
        {
          "duration": 0.14713541666668561,
          "durationTicks": 113,
          "midi": 71,
          "name": "B4",
          "ticks": 96600,
          "time": 129.195842,
          "velocity": 0.6299212598425197
        },
        {
          "duration": 0.14713541666668561,
          "durationTicks": 113,
          "midi": 75,
          "name": "D#5",
          "ticks": 96720,
          "time": 129.352092,
          "velocity": 0.6299212598425197
        },
        {
          "duration": 0.14713541666668561,
          "durationTicks": 113,
          "midi": 80,
          "name": "G#5",
          "ticks": 96840,
          "time": 129.508342,
          "velocity": 0.6299212598425197
        },
        {
          "duration": 0.14713541666668561,
          "durationTicks": 113,
          "midi": 82,
          "name": "A#5",
          "ticks": 96960,
          "time": 129.664592,
          "velocity": 0.6299212598425197
        },
        {
          "duration": 0.14713541666668561,
          "durationTicks": 113,
          "midi": 73,
          "name": "C#5",
          "ticks": 97080,
          "time": 129.820842,
          "velocity": 0.6299212598425197
        },
        {
          "duration": 0.14713541666668561,
          "durationTicks": 113,
          "midi": 75,
          "name": "D#5",
          "ticks": 97200,
          "time": 129.977092,
          "velocity": 0.6299212598425197
        },
        {
          "duration": 0.14713541666668561,
          "durationTicks": 113,
          "midi": 80,
          "name": "G#5",
          "ticks": 97320,
          "time": 130.133342,
          "velocity": 0.6299212598425197
        },
        {
          "duration": 0.14713541666668561,
          "durationTicks": 113,
          "midi": 82,
          "name": "A#5",
          "ticks": 97440,
          "time": 130.289592,
          "velocity": 0.6299212598425197
        },
        {
          "duration": 0.14713541666668561,
          "durationTicks": 113,
          "midi": 73,
          "name": "C#5",
          "ticks": 97560,
          "time": 130.445842,
          "velocity": 0.6299212598425197
        },
        {
          "duration": 0.14713541666668561,
          "durationTicks": 113,
          "midi": 83,
          "name": "B5",
          "ticks": 97680,
          "time": 130.602092,
          "velocity": 0.6299212598425197
        },
        {
          "duration": 0.14713541666668561,
          "durationTicks": 113,
          "midi": 82,
          "name": "A#5",
          "ticks": 97800,
          "time": 130.758342,
          "velocity": 0.6299212598425197
        },
        {
          "duration": 0.14713541666668561,
          "durationTicks": 113,
          "midi": 80,
          "name": "G#5",
          "ticks": 97920,
          "time": 130.914592,
          "velocity": 0.6299212598425197
        },
        {
          "duration": 0.14713541666668561,
          "durationTicks": 113,
          "midi": 71,
          "name": "B4",
          "ticks": 98040,
          "time": 131.070842,
          "velocity": 0.6299212598425197
        },
        {
          "duration": 0.14713541666668561,
          "durationTicks": 113,
          "midi": 83,
          "name": "B5",
          "ticks": 98160,
          "time": 131.227092,
          "velocity": 0.6299212598425197
        },
        {
          "duration": 0.14713541666668561,
          "durationTicks": 113,
          "midi": 71,
          "name": "B4",
          "ticks": 98280,
          "time": 131.383342,
          "velocity": 0.6299212598425197
        },
        {
          "duration": 0.14713541666668561,
          "durationTicks": 113,
          "midi": 85,
          "name": "C#6",
          "ticks": 98400,
          "time": 131.539592,
          "velocity": 0.6299212598425197
        },
        {
          "duration": 0.14713541666668561,
          "durationTicks": 113,
          "midi": 73,
          "name": "C#5",
          "ticks": 98520,
          "time": 131.695842,
          "velocity": 0.6299212598425197
        },
        {
          "duration": 0.14713541666668561,
          "durationTicks": 113,
          "midi": 87,
          "name": "D#6",
          "ticks": 98640,
          "time": 131.852092,
          "velocity": 0.6299212598425197
        },
        {
          "duration": 0.14713541666668561,
          "durationTicks": 113,
          "midi": 75,
          "name": "D#5",
          "ticks": 98760,
          "time": 132.008342,
          "velocity": 0.6299212598425197
        },
        {
          "duration": 0.14713541666668561,
          "durationTicks": 113,
          "midi": 85,
          "name": "C#6",
          "ticks": 98880,
          "time": 132.164592,
          "velocity": 0.6299212598425197
        },
        {
          "duration": 0.14713541666668561,
          "durationTicks": 113,
          "midi": 73,
          "name": "C#5",
          "ticks": 99000,
          "time": 132.320842,
          "velocity": 0.6299212598425197
        },
        {
          "duration": 0.5924479166666572,
          "durationTicks": 455,
          "midi": 83,
          "name": "B5",
          "ticks": 99120,
          "time": 132.477092,
          "velocity": 0.6299212598425197
        },
        {
          "duration": 0.2955729166666572,
          "durationTicks": 227,
          "midi": 80,
          "name": "G#5",
          "ticks": 99600,
          "time": 133.102092,
          "velocity": 0.6299212598425197
        },
        {
          "duration": 0.14713541666668561,
          "durationTicks": 113,
          "midi": 80,
          "name": "G#5",
          "ticks": 99840,
          "time": 133.414592,
          "velocity": 0.6299212598425197
        },
        {
          "duration": 0.14713541666668561,
          "durationTicks": 113,
          "midi": 68,
          "name": "G#4",
          "ticks": 99960,
          "time": 133.570842,
          "velocity": 0.6299212598425197
        },
        {
          "duration": 0.14713541666668561,
          "durationTicks": 113,
          "midi": 71,
          "name": "B4",
          "ticks": 100080,
          "time": 133.727092,
          "velocity": 0.6299212598425197
        },
        {
          "duration": 0.14713541666668561,
          "durationTicks": 113,
          "midi": 75,
          "name": "D#5",
          "ticks": 100200,
          "time": 133.883342,
          "velocity": 0.6299212598425197
        },
        {
          "duration": 0.14713541666668561,
          "durationTicks": 113,
          "midi": 80,
          "name": "G#5",
          "ticks": 100320,
          "time": 134.039592,
          "velocity": 0.6299212598425197
        },
        {
          "duration": 0.14713541666668561,
          "durationTicks": 113,
          "midi": 71,
          "name": "B4",
          "ticks": 100440,
          "time": 134.195842,
          "velocity": 0.6299212598425197
        },
        {
          "duration": 0.14713541666668561,
          "durationTicks": 113,
          "midi": 75,
          "name": "D#5",
          "ticks": 100560,
          "time": 134.352092,
          "velocity": 0.6299212598425197
        },
        {
          "duration": 0.14713541666668561,
          "durationTicks": 113,
          "midi": 80,
          "name": "G#5",
          "ticks": 100680,
          "time": 134.508342,
          "velocity": 0.6299212598425197
        },
        {
          "duration": 0.14713541666668561,
          "durationTicks": 113,
          "midi": 82,
          "name": "A#5",
          "ticks": 100800,
          "time": 134.664592,
          "velocity": 0.6299212598425197
        },
        {
          "duration": 0.14713541666668561,
          "durationTicks": 113,
          "midi": 73,
          "name": "C#5",
          "ticks": 100920,
          "time": 134.820842,
          "velocity": 0.6299212598425197
        },
        {
          "duration": 0.14713541666668561,
          "durationTicks": 113,
          "midi": 75,
          "name": "D#5",
          "ticks": 101040,
          "time": 134.977092,
          "velocity": 0.6299212598425197
        },
        {
          "duration": 0.14713541666668561,
          "durationTicks": 113,
          "midi": 80,
          "name": "G#5",
          "ticks": 101160,
          "time": 135.133342,
          "velocity": 0.6299212598425197
        },
        {
          "duration": 0.14713541666668561,
          "durationTicks": 113,
          "midi": 82,
          "name": "A#5",
          "ticks": 101280,
          "time": 135.289592,
          "velocity": 0.6299212598425197
        },
        {
          "duration": 0.14713541666668561,
          "durationTicks": 113,
          "midi": 73,
          "name": "C#5",
          "ticks": 101400,
          "time": 135.445842,
          "velocity": 0.6299212598425197
        },
        {
          "duration": 0.14713541666668561,
          "durationTicks": 113,
          "midi": 83,
          "name": "B5",
          "ticks": 101520,
          "time": 135.602092,
          "velocity": 0.6299212598425197
        },
        {
          "duration": 0.14713541666668561,
          "durationTicks": 113,
          "midi": 82,
          "name": "A#5",
          "ticks": 101640,
          "time": 135.758342,
          "velocity": 0.6299212598425197
        },
        {
          "duration": 0.14713541666668561,
          "durationTicks": 113,
          "midi": 80,
          "name": "G#5",
          "ticks": 101760,
          "time": 135.914592,
          "velocity": 0.6299212598425197
        },
        {
          "duration": 0.14713541666668561,
          "durationTicks": 113,
          "midi": 71,
          "name": "B4",
          "ticks": 101880,
          "time": 136.070842,
          "velocity": 0.6299212598425197
        },
        {
          "duration": 0.14713541666668561,
          "durationTicks": 113,
          "midi": 83,
          "name": "B5",
          "ticks": 102000,
          "time": 136.227092,
          "velocity": 0.6299212598425197
        },
        {
          "duration": 0.14713541666668561,
          "durationTicks": 113,
          "midi": 71,
          "name": "B4",
          "ticks": 102120,
          "time": 136.383342,
          "velocity": 0.6299212598425197
        },
        {
          "duration": 0.14713541666668561,
          "durationTicks": 113,
          "midi": 82,
          "name": "A#5",
          "ticks": 102240,
          "time": 136.539592,
          "velocity": 0.6299212598425197
        },
        {
          "duration": 0.14713541666668561,
          "durationTicks": 113,
          "midi": 71,
          "name": "B4",
          "ticks": 102360,
          "time": 136.695842,
          "velocity": 0.6299212598425197
        },
        {
          "duration": 0.14713541666668561,
          "durationTicks": 113,
          "midi": 78,
          "name": "F#5",
          "ticks": 102480,
          "time": 136.852092,
          "velocity": 0.6299212598425197
        },
        {
          "duration": 0.14713541666668561,
          "durationTicks": 113,
          "midi": 71,
          "name": "B4",
          "ticks": 102600,
          "time": 137.008342,
          "velocity": 0.6299212598425197
        },
        {
          "duration": 0.14713541666668561,
          "durationTicks": 113,
          "midi": 80,
          "name": "G#5",
          "ticks": 102720,
          "time": 137.164592,
          "velocity": 0.6299212598425197
        },
        {
          "duration": 0.14713541666668561,
          "durationTicks": 113,
          "midi": 71,
          "name": "B4",
          "ticks": 102840,
          "time": 137.320842,
          "velocity": 0.6299212598425197
        },
        {
          "duration": 0.14713541666668561,
          "durationTicks": 113,
          "midi": 78,
          "name": "F#5",
          "ticks": 102960,
          "time": 137.477092,
          "velocity": 0.6299212598425197
        },
        {
          "duration": 0.14713541666668561,
          "durationTicks": 113,
          "midi": 71,
          "name": "B4",
          "ticks": 103080,
          "time": 137.633342,
          "velocity": 0.6299212598425197
        },
        {
          "duration": 0.14713541666668561,
          "durationTicks": 113,
          "midi": 75,
          "name": "D#5",
          "ticks": 103200,
          "time": 137.789592,
          "velocity": 0.6299212598425197
        },
        {
          "duration": 0.14713541666668561,
          "durationTicks": 113,
          "midi": 71,
          "name": "B4",
          "ticks": 103320,
          "time": 137.945842,
          "velocity": 0.6299212598425197
        },
        {
          "duration": 0.14713541666668561,
          "durationTicks": 113,
          "midi": 78,
          "name": "F#5",
          "ticks": 103440,
          "time": 138.102092,
          "velocity": 0.6299212598425197
        },
        {
          "duration": 0.14713541666668561,
          "durationTicks": 113,
          "midi": 71,
          "name": "B4",
          "ticks": 103560,
          "time": 138.258342,
          "velocity": 0.6299212598425197
        },
        {
          "duration": 0.14713541666668561,
          "durationTicks": 113,
          "midi": 80,
          "name": "G#5",
          "ticks": 103680,
          "time": 138.414592,
          "velocity": 0.6299212598425197
        },
        {
          "duration": 0.14713541666668561,
          "durationTicks": 113,
          "midi": 68,
          "name": "G#4",
          "ticks": 103800,
          "time": 138.570842,
          "velocity": 0.6299212598425197
        },
        {
          "duration": 0.14713541666668561,
          "durationTicks": 113,
          "midi": 71,
          "name": "B4",
          "ticks": 103920,
          "time": 138.727092,
          "velocity": 0.6299212598425197
        },
        {
          "duration": 0.14713541666668561,
          "durationTicks": 113,
          "midi": 75,
          "name": "D#5",
          "ticks": 104040,
          "time": 138.883342,
          "velocity": 0.6299212598425197
        },
        {
          "duration": 0.14713541666668561,
          "durationTicks": 113,
          "midi": 80,
          "name": "G#5",
          "ticks": 104160,
          "time": 139.039592,
          "velocity": 0.6299212598425197
        },
        {
          "duration": 0.14713541666668561,
          "durationTicks": 113,
          "midi": 71,
          "name": "B4",
          "ticks": 104280,
          "time": 139.195842,
          "velocity": 0.6299212598425197
        },
        {
          "duration": 0.14713541666668561,
          "durationTicks": 113,
          "midi": 75,
          "name": "D#5",
          "ticks": 104400,
          "time": 139.352092,
          "velocity": 0.6299212598425197
        },
        {
          "duration": 0.14713541666668561,
          "durationTicks": 113,
          "midi": 80,
          "name": "G#5",
          "ticks": 104520,
          "time": 139.508342,
          "velocity": 0.6299212598425197
        },
        {
          "duration": 0.14713541666668561,
          "durationTicks": 113,
          "midi": 82,
          "name": "A#5",
          "ticks": 104640,
          "time": 139.664592,
          "velocity": 0.6299212598425197
        },
        {
          "duration": 0.14713541666668561,
          "durationTicks": 113,
          "midi": 73,
          "name": "C#5",
          "ticks": 104760,
          "time": 139.820842,
          "velocity": 0.6299212598425197
        },
        {
          "duration": 0.14713541666668561,
          "durationTicks": 113,
          "midi": 75,
          "name": "D#5",
          "ticks": 104880,
          "time": 139.977092,
          "velocity": 0.6299212598425197
        },
        {
          "duration": 0.14713541666668561,
          "durationTicks": 113,
          "midi": 80,
          "name": "G#5",
          "ticks": 105000,
          "time": 140.133342,
          "velocity": 0.6299212598425197
        },
        {
          "duration": 0.14713541666668561,
          "durationTicks": 113,
          "midi": 82,
          "name": "A#5",
          "ticks": 105120,
          "time": 140.289592,
          "velocity": 0.6299212598425197
        },
        {
          "duration": 0.14713541666668561,
          "durationTicks": 113,
          "midi": 73,
          "name": "C#5",
          "ticks": 105240,
          "time": 140.445842,
          "velocity": 0.6299212598425197
        },
        {
          "duration": 0.14713541666668561,
          "durationTicks": 113,
          "midi": 83,
          "name": "B5",
          "ticks": 105360,
          "time": 140.602092,
          "velocity": 0.6299212598425197
        },
        {
          "duration": 0.14713541666668561,
          "durationTicks": 113,
          "midi": 82,
          "name": "A#5",
          "ticks": 105480,
          "time": 140.758342,
          "velocity": 0.6299212598425197
        },
        {
          "duration": 1.7799479166666572,
          "durationTicks": 1367,
          "midi": 80,
          "name": "G#5",
          "ticks": 105600,
          "time": 140.914592,
          "velocity": 0.6299212598425197
        },
        {
          "duration": 0.2955729166666572,
          "durationTicks": 227,
          "midi": 80,
          "name": "G#5",
          "ticks": 107280,
          "time": 143.102092,
          "velocity": 0.6299212598425197
        },
        {
          "duration": 0.14713541666668561,
          "durationTicks": 113,
          "midi": 80,
          "name": "G#5",
          "ticks": 107520,
          "time": 143.414592,
          "velocity": 0.6299212598425197
        },
        {
          "duration": 0.14713541666668561,
          "durationTicks": 113,
          "midi": 68,
          "name": "G#4",
          "ticks": 107640,
          "time": 143.570842,
          "velocity": 0.6299212598425197
        },
        {
          "duration": 0.14713541666668561,
          "durationTicks": 113,
          "midi": 71,
          "name": "B4",
          "ticks": 107760,
          "time": 143.727092,
          "velocity": 0.6299212598425197
        },
        {
          "duration": 0.14713541666668561,
          "durationTicks": 113,
          "midi": 75,
          "name": "D#5",
          "ticks": 107880,
          "time": 143.883342,
          "velocity": 0.6299212598425197
        },
        {
          "duration": 0.14713541666668561,
          "durationTicks": 113,
          "midi": 80,
          "name": "G#5",
          "ticks": 108000,
          "time": 144.039592,
          "velocity": 0.6299212598425197
        },
        {
          "duration": 0.14713541666668561,
          "durationTicks": 113,
          "midi": 71,
          "name": "B4",
          "ticks": 108120,
          "time": 144.195842,
          "velocity": 0.6299212598425197
        },
        {
          "duration": 0.14713541666668561,
          "durationTicks": 113,
          "midi": 75,
          "name": "D#5",
          "ticks": 108240,
          "time": 144.352092,
          "velocity": 0.6299212598425197
        },
        {
          "duration": 0.14713541666668561,
          "durationTicks": 113,
          "midi": 80,
          "name": "G#5",
          "ticks": 108360,
          "time": 144.508342,
          "velocity": 0.6299212598425197
        },
        {
          "duration": 0.14713541666668561,
          "durationTicks": 113,
          "midi": 82,
          "name": "A#5",
          "ticks": 108480,
          "time": 144.664592,
          "velocity": 0.6299212598425197
        },
        {
          "duration": 0.14713541666668561,
          "durationTicks": 113,
          "midi": 73,
          "name": "C#5",
          "ticks": 108600,
          "time": 144.820842,
          "velocity": 0.6299212598425197
        },
        {
          "duration": 0.14713541666668561,
          "durationTicks": 113,
          "midi": 75,
          "name": "D#5",
          "ticks": 108720,
          "time": 144.977092,
          "velocity": 0.6299212598425197
        },
        {
          "duration": 0.14713541666668561,
          "durationTicks": 113,
          "midi": 80,
          "name": "G#5",
          "ticks": 108840,
          "time": 145.133342,
          "velocity": 0.6299212598425197
        },
        {
          "duration": 0.14713541666668561,
          "durationTicks": 113,
          "midi": 82,
          "name": "A#5",
          "ticks": 108960,
          "time": 145.289592,
          "velocity": 0.6299212598425197
        },
        {
          "duration": 0.14713541666668561,
          "durationTicks": 113,
          "midi": 73,
          "name": "C#5",
          "ticks": 109080,
          "time": 145.445842,
          "velocity": 0.6299212598425197
        },
        {
          "duration": 0.14713541666668561,
          "durationTicks": 113,
          "midi": 83,
          "name": "B5",
          "ticks": 109200,
          "time": 145.602092,
          "velocity": 0.6299212598425197
        },
        {
          "duration": 0.14713541666668561,
          "durationTicks": 113,
          "midi": 82,
          "name": "A#5",
          "ticks": 109320,
          "time": 145.758342,
          "velocity": 0.6299212598425197
        },
        {
          "duration": 0.14713541666668561,
          "durationTicks": 113,
          "midi": 80,
          "name": "G#5",
          "ticks": 109440,
          "time": 145.914592,
          "velocity": 0.6299212598425197
        },
        {
          "duration": 0.14713541666668561,
          "durationTicks": 113,
          "midi": 71,
          "name": "B4",
          "ticks": 109560,
          "time": 146.070842,
          "velocity": 0.6299212598425197
        },
        {
          "duration": 0.14713541666668561,
          "durationTicks": 113,
          "midi": 83,
          "name": "B5",
          "ticks": 109680,
          "time": 146.227092,
          "velocity": 0.6299212598425197
        },
        {
          "duration": 0.14713541666668561,
          "durationTicks": 113,
          "midi": 71,
          "name": "B4",
          "ticks": 109800,
          "time": 146.383342,
          "velocity": 0.6299212598425197
        },
        {
          "duration": 0.14713541666668561,
          "durationTicks": 113,
          "midi": 82,
          "name": "A#5",
          "ticks": 109920,
          "time": 146.539592,
          "velocity": 0.6299212598425197
        },
        {
          "duration": 0.14713541666668561,
          "durationTicks": 113,
          "midi": 71,
          "name": "B4",
          "ticks": 110040,
          "time": 146.695842,
          "velocity": 0.6299212598425197
        },
        {
          "duration": 0.14713541666668561,
          "durationTicks": 113,
          "midi": 78,
          "name": "F#5",
          "ticks": 110160,
          "time": 146.852092,
          "velocity": 0.6299212598425197
        },
        {
          "duration": 0.14713541666668561,
          "durationTicks": 113,
          "midi": 71,
          "name": "B4",
          "ticks": 110280,
          "time": 147.008342,
          "velocity": 0.6299212598425197
        },
        {
          "duration": 0.14713541666668561,
          "durationTicks": 113,
          "midi": 80,
          "name": "G#5",
          "ticks": 110400,
          "time": 147.164592,
          "velocity": 0.6299212598425197
        },
        {
          "duration": 0.14713541666668561,
          "durationTicks": 113,
          "midi": 71,
          "name": "B4",
          "ticks": 110520,
          "time": 147.320842,
          "velocity": 0.6299212598425197
        },
        {
          "duration": 0.14713541666668561,
          "durationTicks": 113,
          "midi": 78,
          "name": "F#5",
          "ticks": 110640,
          "time": 147.477092,
          "velocity": 0.6299212598425197
        },
        {
          "duration": 0.14713541666668561,
          "durationTicks": 113,
          "midi": 71,
          "name": "B4",
          "ticks": 110760,
          "time": 147.633342,
          "velocity": 0.6299212598425197
        },
        {
          "duration": 0.14713541666668561,
          "durationTicks": 113,
          "midi": 75,
          "name": "D#5",
          "ticks": 110880,
          "time": 147.789592,
          "velocity": 0.6299212598425197
        },
        {
          "duration": 0.14713541666668561,
          "durationTicks": 113,
          "midi": 71,
          "name": "B4",
          "ticks": 111000,
          "time": 147.945842,
          "velocity": 0.6299212598425197
        },
        {
          "duration": 0.14713541666668561,
          "durationTicks": 113,
          "midi": 78,
          "name": "F#5",
          "ticks": 111120,
          "time": 148.102092,
          "velocity": 0.6299212598425197
        },
        {
          "duration": 0.14713541666668561,
          "durationTicks": 113,
          "midi": 71,
          "name": "B4",
          "ticks": 111240,
          "time": 148.258342,
          "velocity": 0.6299212598425197
        },
        {
          "duration": 0.14713541666668561,
          "durationTicks": 113,
          "midi": 80,
          "name": "G#5",
          "ticks": 111360,
          "time": 148.414592,
          "velocity": 0.6299212598425197
        },
        {
          "duration": 0.14713541666668561,
          "durationTicks": 113,
          "midi": 68,
          "name": "G#4",
          "ticks": 111480,
          "time": 148.570842,
          "velocity": 0.6299212598425197
        },
        {
          "duration": 0.14713541666668561,
          "durationTicks": 113,
          "midi": 71,
          "name": "B4",
          "ticks": 111600,
          "time": 148.727092,
          "velocity": 0.6299212598425197
        },
        {
          "duration": 0.14713541666668561,
          "durationTicks": 113,
          "midi": 75,
          "name": "D#5",
          "ticks": 111720,
          "time": 148.883342,
          "velocity": 0.6299212598425197
        },
        {
          "duration": 0.14713541666668561,
          "durationTicks": 113,
          "midi": 80,
          "name": "G#5",
          "ticks": 111840,
          "time": 149.039592,
          "velocity": 0.6299212598425197
        },
        {
          "duration": 0.14713541666668561,
          "durationTicks": 113,
          "midi": 71,
          "name": "B4",
          "ticks": 111960,
          "time": 149.195842,
          "velocity": 0.6299212598425197
        },
        {
          "duration": 0.14713541666668561,
          "durationTicks": 113,
          "midi": 75,
          "name": "D#5",
          "ticks": 112080,
          "time": 149.352092,
          "velocity": 0.6299212598425197
        },
        {
          "duration": 0.14713541666668561,
          "durationTicks": 113,
          "midi": 80,
          "name": "G#5",
          "ticks": 112200,
          "time": 149.508342,
          "velocity": 0.6299212598425197
        },
        {
          "duration": 0.14713541666668561,
          "durationTicks": 113,
          "midi": 82,
          "name": "A#5",
          "ticks": 112320,
          "time": 149.664592,
          "velocity": 0.6299212598425197
        },
        {
          "duration": 0.14713541666668561,
          "durationTicks": 113,
          "midi": 73,
          "name": "C#5",
          "ticks": 112440,
          "time": 149.820842,
          "velocity": 0.6299212598425197
        },
        {
          "duration": 0.14713541666668561,
          "durationTicks": 113,
          "midi": 75,
          "name": "D#5",
          "ticks": 112560,
          "time": 149.977092,
          "velocity": 0.6299212598425197
        },
        {
          "duration": 0.14713541666668561,
          "durationTicks": 113,
          "midi": 80,
          "name": "G#5",
          "ticks": 112680,
          "time": 150.133342,
          "velocity": 0.6299212598425197
        },
        {
          "duration": 0.14713541666668561,
          "durationTicks": 113,
          "midi": 82,
          "name": "A#5",
          "ticks": 112800,
          "time": 150.289592,
          "velocity": 0.6299212598425197
        },
        {
          "duration": 0.14713541666668561,
          "durationTicks": 113,
          "midi": 73,
          "name": "C#5",
          "ticks": 112920,
          "time": 150.445842,
          "velocity": 0.6299212598425197
        },
        {
          "duration": 0.14713541666668561,
          "durationTicks": 113,
          "midi": 83,
          "name": "B5",
          "ticks": 113040,
          "time": 150.602092,
          "velocity": 0.6299212598425197
        },
        {
          "duration": 0.14713541666668561,
          "durationTicks": 113,
          "midi": 82,
          "name": "A#5",
          "ticks": 113160,
          "time": 150.758342,
          "velocity": 0.6299212598425197
        },
        {
          "duration": 0.14713541666668561,
          "durationTicks": 113,
          "midi": 80,
          "name": "G#5",
          "ticks": 113280,
          "time": 150.914592,
          "velocity": 0.6299212598425197
        },
        {
          "duration": 0.14713541666668561,
          "durationTicks": 113,
          "midi": 71,
          "name": "B4",
          "ticks": 113400,
          "time": 151.070842,
          "velocity": 0.6299212598425197
        },
        {
          "duration": 0.14713541666668561,
          "durationTicks": 113,
          "midi": 83,
          "name": "B5",
          "ticks": 113520,
          "time": 151.227092,
          "velocity": 0.6299212598425197
        },
        {
          "duration": 0.14713541666668561,
          "durationTicks": 113,
          "midi": 71,
          "name": "B4",
          "ticks": 113640,
          "time": 151.383342,
          "velocity": 0.6299212598425197
        },
        {
          "duration": 0.14713541666668561,
          "durationTicks": 113,
          "midi": 85,
          "name": "C#6",
          "ticks": 113760,
          "time": 151.539592,
          "velocity": 0.6299212598425197
        },
        {
          "duration": 0.14713541666668561,
          "durationTicks": 113,
          "midi": 73,
          "name": "C#5",
          "ticks": 113880,
          "time": 151.695842,
          "velocity": 0.6299212598425197
        },
        {
          "duration": 0.14713541666668561,
          "durationTicks": 113,
          "midi": 87,
          "name": "D#6",
          "ticks": 114000,
          "time": 151.852092,
          "velocity": 0.6299212598425197
        },
        {
          "duration": 0.14713541666668561,
          "durationTicks": 113,
          "midi": 75,
          "name": "D#5",
          "ticks": 114120,
          "time": 152.008342,
          "velocity": 0.6299212598425197
        },
        {
          "duration": 0.14713541666668561,
          "durationTicks": 113,
          "midi": 85,
          "name": "C#6",
          "ticks": 114240,
          "time": 152.164592,
          "velocity": 0.6299212598425197
        },
        {
          "duration": 0.14713541666668561,
          "durationTicks": 113,
          "midi": 73,
          "name": "C#5",
          "ticks": 114360,
          "time": 152.320842,
          "velocity": 0.6299212598425197
        },
        {
          "duration": 0.5924479166666572,
          "durationTicks": 455,
          "midi": 83,
          "name": "B5",
          "ticks": 114480,
          "time": 152.477092,
          "velocity": 0.6299212598425197
        },
        {
          "duration": 0.2955729166666572,
          "durationTicks": 227,
          "midi": 80,
          "name": "G#5",
          "ticks": 114960,
          "time": 153.102092,
          "velocity": 0.6299212598425197
        },
        {
          "duration": 0.14713541666668561,
          "durationTicks": 113,
          "midi": 80,
          "name": "G#5",
          "ticks": 115200,
          "time": 153.414592,
          "velocity": 0.6299212598425197
        },
        {
          "duration": 0.14713541666668561,
          "durationTicks": 113,
          "midi": 68,
          "name": "G#4",
          "ticks": 115320,
          "time": 153.570842,
          "velocity": 0.6299212598425197
        },
        {
          "duration": 0.14713541666668561,
          "durationTicks": 113,
          "midi": 71,
          "name": "B4",
          "ticks": 115440,
          "time": 153.727092,
          "velocity": 0.6299212598425197
        },
        {
          "duration": 0.14713541666668561,
          "durationTicks": 113,
          "midi": 75,
          "name": "D#5",
          "ticks": 115560,
          "time": 153.883342,
          "velocity": 0.6299212598425197
        },
        {
          "duration": 0.14713541666668561,
          "durationTicks": 113,
          "midi": 80,
          "name": "G#5",
          "ticks": 115680,
          "time": 154.039592,
          "velocity": 0.6299212598425197
        },
        {
          "duration": 0.14713541666668561,
          "durationTicks": 113,
          "midi": 71,
          "name": "B4",
          "ticks": 115800,
          "time": 154.195842,
          "velocity": 0.6299212598425197
        },
        {
          "duration": 0.14713541666668561,
          "durationTicks": 113,
          "midi": 75,
          "name": "D#5",
          "ticks": 115920,
          "time": 154.352092,
          "velocity": 0.6299212598425197
        },
        {
          "duration": 0.14713541666668561,
          "durationTicks": 113,
          "midi": 80,
          "name": "G#5",
          "ticks": 116040,
          "time": 154.508342,
          "velocity": 0.6299212598425197
        },
        {
          "duration": 0.14713541666668561,
          "durationTicks": 113,
          "midi": 82,
          "name": "A#5",
          "ticks": 116160,
          "time": 154.664592,
          "velocity": 0.6299212598425197
        },
        {
          "duration": 0.14713541666668561,
          "durationTicks": 113,
          "midi": 73,
          "name": "C#5",
          "ticks": 116280,
          "time": 154.820842,
          "velocity": 0.6299212598425197
        },
        {
          "duration": 0.14713541666668561,
          "durationTicks": 113,
          "midi": 75,
          "name": "D#5",
          "ticks": 116400,
          "time": 154.977092,
          "velocity": 0.6299212598425197
        },
        {
          "duration": 0.14713541666668561,
          "durationTicks": 113,
          "midi": 80,
          "name": "G#5",
          "ticks": 116520,
          "time": 155.133342,
          "velocity": 0.6299212598425197
        },
        {
          "duration": 0.14713541666668561,
          "durationTicks": 113,
          "midi": 82,
          "name": "A#5",
          "ticks": 116640,
          "time": 155.289592,
          "velocity": 0.6299212598425197
        },
        {
          "duration": 0.14713541666668561,
          "durationTicks": 113,
          "midi": 73,
          "name": "C#5",
          "ticks": 116760,
          "time": 155.445842,
          "velocity": 0.6299212598425197
        },
        {
          "duration": 0.14713541666668561,
          "durationTicks": 113,
          "midi": 83,
          "name": "B5",
          "ticks": 116880,
          "time": 155.602092,
          "velocity": 0.6299212598425197
        },
        {
          "duration": 0.14713541666668561,
          "durationTicks": 113,
          "midi": 82,
          "name": "A#5",
          "ticks": 117000,
          "time": 155.758342,
          "velocity": 0.6299212598425197
        },
        {
          "duration": 0.14713541666668561,
          "durationTicks": 113,
          "midi": 80,
          "name": "G#5",
          "ticks": 117120,
          "time": 155.914592,
          "velocity": 0.6299212598425197
        },
        {
          "duration": 0.14713541666668561,
          "durationTicks": 113,
          "midi": 71,
          "name": "B4",
          "ticks": 117240,
          "time": 156.070842,
          "velocity": 0.6299212598425197
        },
        {
          "duration": 0.14713541666668561,
          "durationTicks": 113,
          "midi": 83,
          "name": "B5",
          "ticks": 117360,
          "time": 156.227092,
          "velocity": 0.6299212598425197
        },
        {
          "duration": 0.14713541666668561,
          "durationTicks": 113,
          "midi": 71,
          "name": "B4",
          "ticks": 117480,
          "time": 156.383342,
          "velocity": 0.6299212598425197
        },
        {
          "duration": 0.14713541666668561,
          "durationTicks": 113,
          "midi": 82,
          "name": "A#5",
          "ticks": 117600,
          "time": 156.539592,
          "velocity": 0.6299212598425197
        },
        {
          "duration": 0.14713541666668561,
          "durationTicks": 113,
          "midi": 71,
          "name": "B4",
          "ticks": 117720,
          "time": 156.695842,
          "velocity": 0.6299212598425197
        },
        {
          "duration": 0.14713541666668561,
          "durationTicks": 113,
          "midi": 78,
          "name": "F#5",
          "ticks": 117840,
          "time": 156.852092,
          "velocity": 0.6299212598425197
        },
        {
          "duration": 0.14713541666668561,
          "durationTicks": 113,
          "midi": 71,
          "name": "B4",
          "ticks": 117960,
          "time": 157.008342,
          "velocity": 0.6299212598425197
        },
        {
          "duration": 0.14713541666668561,
          "durationTicks": 113,
          "midi": 80,
          "name": "G#5",
          "ticks": 118080,
          "time": 157.164592,
          "velocity": 0.6299212598425197
        },
        {
          "duration": 0.14713541666668561,
          "durationTicks": 113,
          "midi": 71,
          "name": "B4",
          "ticks": 118200,
          "time": 157.320842,
          "velocity": 0.6299212598425197
        },
        {
          "duration": 0.14713541666668561,
          "durationTicks": 113,
          "midi": 78,
          "name": "F#5",
          "ticks": 118320,
          "time": 157.477092,
          "velocity": 0.6299212598425197
        },
        {
          "duration": 0.14713541666668561,
          "durationTicks": 113,
          "midi": 71,
          "name": "B4",
          "ticks": 118440,
          "time": 157.633342,
          "velocity": 0.6299212598425197
        },
        {
          "duration": 0.14713541666668561,
          "durationTicks": 113,
          "midi": 75,
          "name": "D#5",
          "ticks": 118560,
          "time": 157.789592,
          "velocity": 0.6299212598425197
        },
        {
          "duration": 0.14713541666668561,
          "durationTicks": 113,
          "midi": 71,
          "name": "B4",
          "ticks": 118680,
          "time": 157.945842,
          "velocity": 0.6299212598425197
        },
        {
          "duration": 0.14713541666668561,
          "durationTicks": 113,
          "midi": 78,
          "name": "F#5",
          "ticks": 118800,
          "time": 158.102092,
          "velocity": 0.6299212598425197
        },
        {
          "duration": 0.14713541666668561,
          "durationTicks": 113,
          "midi": 71,
          "name": "B4",
          "ticks": 118920,
          "time": 158.258342,
          "velocity": 0.6299212598425197
        },
        {
          "duration": 0.14713541666668561,
          "durationTicks": 113,
          "midi": 80,
          "name": "G#5",
          "ticks": 119040,
          "time": 158.414592,
          "velocity": 0.6299212598425197
        },
        {
          "duration": 0.14713541666668561,
          "durationTicks": 113,
          "midi": 68,
          "name": "G#4",
          "ticks": 119160,
          "time": 158.570842,
          "velocity": 0.6299212598425197
        },
        {
          "duration": 0.14713541666668561,
          "durationTicks": 113,
          "midi": 71,
          "name": "B4",
          "ticks": 119280,
          "time": 158.727092,
          "velocity": 0.6299212598425197
        },
        {
          "duration": 0.14713541666668561,
          "durationTicks": 113,
          "midi": 75,
          "name": "D#5",
          "ticks": 119400,
          "time": 158.883342,
          "velocity": 0.6299212598425197
        },
        {
          "duration": 0.14713541666668561,
          "durationTicks": 113,
          "midi": 80,
          "name": "G#5",
          "ticks": 119520,
          "time": 159.039592,
          "velocity": 0.6299212598425197
        },
        {
          "duration": 0.14713541666668561,
          "durationTicks": 113,
          "midi": 71,
          "name": "B4",
          "ticks": 119640,
          "time": 159.195842,
          "velocity": 0.6299212598425197
        },
        {
          "duration": 0.14713541666668561,
          "durationTicks": 113,
          "midi": 75,
          "name": "D#5",
          "ticks": 119760,
          "time": 159.352092,
          "velocity": 0.6299212598425197
        },
        {
          "duration": 0.14713541666668561,
          "durationTicks": 113,
          "midi": 80,
          "name": "G#5",
          "ticks": 119880,
          "time": 159.508342,
          "velocity": 0.6299212598425197
        },
        {
          "duration": 0.14713541666668561,
          "durationTicks": 113,
          "midi": 82,
          "name": "A#5",
          "ticks": 120000,
          "time": 159.664592,
          "velocity": 0.6299212598425197
        },
        {
          "duration": 0.14713541666668561,
          "durationTicks": 113,
          "midi": 73,
          "name": "C#5",
          "ticks": 120120,
          "time": 159.820842,
          "velocity": 0.6299212598425197
        },
        {
          "duration": 0.14713541666668561,
          "durationTicks": 113,
          "midi": 75,
          "name": "D#5",
          "ticks": 120240,
          "time": 159.977092,
          "velocity": 0.6299212598425197
        },
        {
          "duration": 0.14713541666668561,
          "durationTicks": 113,
          "midi": 80,
          "name": "G#5",
          "ticks": 120360,
          "time": 160.133342,
          "velocity": 0.6299212598425197
        },
        {
          "duration": 0.14713541666668561,
          "durationTicks": 113,
          "midi": 82,
          "name": "A#5",
          "ticks": 120480,
          "time": 160.289592,
          "velocity": 0.6299212598425197
        },
        {
          "duration": 0.14713541666668561,
          "durationTicks": 113,
          "midi": 73,
          "name": "C#5",
          "ticks": 120600,
          "time": 160.445842,
          "velocity": 0.6299212598425197
        },
        {
          "duration": 0.14713541666668561,
          "durationTicks": 113,
          "midi": 83,
          "name": "B5",
          "ticks": 120720,
          "time": 160.602092,
          "velocity": 0.6299212598425197
        },
        {
          "duration": 0.14713541666668561,
          "durationTicks": 113,
          "midi": 82,
          "name": "A#5",
          "ticks": 120840,
          "time": 160.758342,
          "velocity": 0.6299212598425197
        },
        {
          "duration": 1.7799479166666572,
          "durationTicks": 1367,
          "midi": 80,
          "name": "G#5",
          "ticks": 120960,
          "time": 160.914592,
          "velocity": 0.6299212598425197
        },
        {
          "duration": 0.2955729166666572,
          "durationTicks": 227,
          "midi": 80,
          "name": "G#5",
          "ticks": 122640,
          "time": 163.102092,
          "velocity": 0.6299212598425197
        },
        {
          "duration": 1.1861979166666856,
          "durationTicks": 911,
          "midi": 56,
          "name": "G#3",
          "ticks": 122880,
          "time": 163.414592,
          "velocity": 0.6299212598425197
        },
        {
          "duration": 0.14713541666668561,
          "durationTicks": 113,
          "midi": 73,
          "name": "C#5",
          "ticks": 123960,
          "time": 164.820842,
          "velocity": 0.6299212598425197
        },
        {
          "duration": 0.14713541666668561,
          "durationTicks": 113,
          "midi": 75,
          "name": "D#5",
          "ticks": 124080,
          "time": 164.977092,
          "velocity": 0.6299212598425197
        },
        {
          "duration": 0.14713541666668561,
          "durationTicks": 113,
          "midi": 83,
          "name": "B5",
          "ticks": 124200,
          "time": 165.133342,
          "velocity": 0.6299212598425197
        },
        {
          "duration": 0.14713541666668561,
          "durationTicks": 113,
          "midi": 82,
          "name": "A#5",
          "ticks": 124320,
          "time": 165.289592,
          "velocity": 0.6299212598425197
        },
        {
          "duration": 0.14713541666668561,
          "durationTicks": 113,
          "midi": 80,
          "name": "G#5",
          "ticks": 124440,
          "time": 165.445842,
          "velocity": 0.6299212598425197
        },
        {
          "duration": 0.14713541666668561,
          "durationTicks": 113,
          "midi": 82,
          "name": "A#5",
          "ticks": 124560,
          "time": 165.602092,
          "velocity": 0.6299212598425197
        },
        {
          "duration": 0.14713541666668561,
          "durationTicks": 113,
          "midi": 79,
          "name": "G5",
          "ticks": 124680,
          "time": 165.758342,
          "velocity": 0.6299212598425197
        },
        {
          "duration": 0.14713541666668561,
          "durationTicks": 113,
          "midi": 83,
          "name": "B5",
          "ticks": 124800,
          "time": 165.914592,
          "velocity": 0.6299212598425197
        },
        {
          "duration": 0.14713541666668561,
          "durationTicks": 113,
          "midi": 75,
          "name": "D#5",
          "ticks": 124920,
          "time": 166.070842,
          "velocity": 0.6299212598425197
        },
        {
          "duration": 0.14713541666668561,
          "durationTicks": 113,
          "midi": 82,
          "name": "A#5",
          "ticks": 125040,
          "time": 166.227092,
          "velocity": 0.6299212598425197
        },
        {
          "duration": 0.14713541666668561,
          "durationTicks": 113,
          "midi": 75,
          "name": "D#5",
          "ticks": 125160,
          "time": 166.383342,
          "velocity": 0.6299212598425197
        },
        {
          "duration": 0.14713541666668561,
          "durationTicks": 113,
          "midi": 83,
          "name": "B5",
          "ticks": 125280,
          "time": 166.539592,
          "velocity": 0.6299212598425197
        },
        {
          "duration": 0.14713541666668561,
          "durationTicks": 113,
          "midi": 75,
          "name": "D#5",
          "ticks": 125400,
          "time": 166.695842,
          "velocity": 0.6299212598425197
        },
        {
          "duration": 0.14713541666668561,
          "durationTicks": 113,
          "midi": 85,
          "name": "C#6",
          "ticks": 125520,
          "time": 166.852092,
          "velocity": 0.6299212598425197
        },
        {
          "duration": 0.14713541666668561,
          "durationTicks": 113,
          "midi": 75,
          "name": "D#5",
          "ticks": 125640,
          "time": 167.008342,
          "velocity": 0.6299212598425197
        },
        {
          "duration": 0.14713541666668561,
          "durationTicks": 113,
          "midi": 82,
          "name": "A#5",
          "ticks": 125760,
          "time": 167.164592,
          "velocity": 0.6299212598425197
        },
        {
          "duration": 0.14713541666668561,
          "durationTicks": 113,
          "midi": 70,
          "name": "A#4",
          "ticks": 125880,
          "time": 167.320842,
          "velocity": 0.6299212598425197
        },
        {
          "duration": 0.14713541666668561,
          "durationTicks": 113,
          "midi": 80,
          "name": "G#5",
          "ticks": 126000,
          "time": 167.477092,
          "velocity": 0.6299212598425197
        },
        {
          "duration": 0.14713541666668561,
          "durationTicks": 113,
          "midi": 70,
          "name": "A#4",
          "ticks": 126120,
          "time": 167.633342,
          "velocity": 0.6299212598425197
        },
        {
          "duration": 0.2955729166666572,
          "durationTicks": 227,
          "midi": 78,
          "name": "F#5",
          "ticks": 126240,
          "time": 167.789592,
          "velocity": 0.6299212598425197
        },
        {
          "duration": 0.14713541666668561,
          "durationTicks": 113,
          "midi": 75,
          "name": "D#5",
          "ticks": 126480,
          "time": 168.102092,
          "velocity": 0.6299212598425197
        },
        {
          "duration": 0.14713541666668561,
          "durationTicks": 113,
          "midi": 78,
          "name": "F#5",
          "ticks": 126600,
          "time": 168.258342,
          "velocity": 0.6299212598425197
        },
        {
          "duration": 0.14713541666668561,
          "durationTicks": 113,
          "midi": 80,
          "name": "G#5",
          "ticks": 126720,
          "time": 168.414592,
          "velocity": 0.6299212598425197
        },
        {
          "duration": 0.14713541666668561,
          "durationTicks": 113,
          "midi": 71,
          "name": "B4",
          "ticks": 126840,
          "time": 168.570842,
          "velocity": 0.6299212598425197
        },
        {
          "duration": 0.14713541666668561,
          "durationTicks": 113,
          "midi": 78,
          "name": "F#5",
          "ticks": 126960,
          "time": 168.727092,
          "velocity": 0.6299212598425197
        },
        {
          "duration": 0.14713541666668561,
          "durationTicks": 113,
          "midi": 71,
          "name": "B4",
          "ticks": 127080,
          "time": 168.883342,
          "velocity": 0.6299212598425197
        },
        {
          "duration": 0.14713541666668561,
          "durationTicks": 113,
          "midi": 80,
          "name": "G#5",
          "ticks": 127200,
          "time": 169.039592,
          "velocity": 0.6299212598425197
        },
        {
          "duration": 0.14713541666668561,
          "durationTicks": 113,
          "midi": 71,
          "name": "B4",
          "ticks": 127320,
          "time": 169.195842,
          "velocity": 0.6299212598425197
        },
        {
          "duration": 0.14713541666668561,
          "durationTicks": 113,
          "midi": 83,
          "name": "B5",
          "ticks": 127440,
          "time": 169.352092,
          "velocity": 0.6299212598425197
        },
        {
          "duration": 0.14713541666668561,
          "durationTicks": 113,
          "midi": 71,
          "name": "B4",
          "ticks": 127560,
          "time": 169.508342,
          "velocity": 0.6299212598425197
        },
        {
          "duration": 0.14713541666668561,
          "durationTicks": 113,
          "midi": 78,
          "name": "F#5",
          "ticks": 127680,
          "time": 169.664592,
          "velocity": 0.6299212598425197
        },
        {
          "duration": 0.14713541666668561,
          "durationTicks": 113,
          "midi": 71,
          "name": "B4",
          "ticks": 127800,
          "time": 169.820842,
          "velocity": 0.6299212598425197
        },
        {
          "duration": 0.14713541666668561,
          "durationTicks": 113,
          "midi": 76,
          "name": "E5",
          "ticks": 127920,
          "time": 169.977092,
          "velocity": 0.6299212598425197
        },
        {
          "duration": 0.14713541666668561,
          "durationTicks": 113,
          "midi": 71,
          "name": "B4",
          "ticks": 128040,
          "time": 170.133342,
          "velocity": 0.6299212598425197
        },
        {
          "duration": 0.2955729166666572,
          "durationTicks": 227,
          "midi": 75,
          "name": "D#5",
          "ticks": 128160,
          "time": 170.289592,
          "velocity": 0.6299212598425197
        },
        {
          "duration": 0.14713541666668561,
          "durationTicks": 113,
          "midi": 75,
          "name": "D#5",
          "ticks": 128400,
          "time": 170.602092,
          "velocity": 0.6299212598425197
        },
        {
          "duration": 0.14713541666668561,
          "durationTicks": 113,
          "midi": 78,
          "name": "F#5",
          "ticks": 128520,
          "time": 170.758342,
          "velocity": 0.6299212598425197
        },
        {
          "duration": 0.14713541666668561,
          "durationTicks": 113,
          "midi": 76,
          "name": "E5",
          "ticks": 128640,
          "time": 170.914592,
          "velocity": 0.6299212598425197
        },
        {
          "duration": 0.14713541666668561,
          "durationTicks": 113,
          "midi": 68,
          "name": "G#4",
          "ticks": 128760,
          "time": 171.070842,
          "velocity": 0.6299212598425197
        },
        {
          "duration": 0.14713541666668561,
          "durationTicks": 113,
          "midi": 75,
          "name": "D#5",
          "ticks": 128880,
          "time": 171.227092,
          "velocity": 0.6299212598425197
        },
        {
          "duration": 0.14713541666668561,
          "durationTicks": 113,
          "midi": 68,
          "name": "G#4",
          "ticks": 129000,
          "time": 171.383342,
          "velocity": 0.6299212598425197
        },
        {
          "duration": 0.14713541666668561,
          "durationTicks": 113,
          "midi": 73,
          "name": "C#5",
          "ticks": 129120,
          "time": 171.539592,
          "velocity": 0.6299212598425197
        },
        {
          "duration": 0.14713541666668561,
          "durationTicks": 113,
          "midi": 68,
          "name": "G#4",
          "ticks": 129240,
          "time": 171.695842,
          "velocity": 0.6299212598425197
        },
        {
          "duration": 0.14713541666668561,
          "durationTicks": 113,
          "midi": 76,
          "name": "E5",
          "ticks": 129360,
          "time": 171.852092,
          "velocity": 0.6299212598425197
        },
        {
          "duration": 0.14713541666668561,
          "durationTicks": 113,
          "midi": 68,
          "name": "G#4",
          "ticks": 129480,
          "time": 172.008342,
          "velocity": 0.6299212598425197
        },
        {
          "duration": 0.14713541666668561,
          "durationTicks": 113,
          "midi": 75,
          "name": "D#5",
          "ticks": 129600,
          "time": 172.164592,
          "velocity": 0.6299212598425197
        },
        {
          "duration": 0.14713541666668561,
          "durationTicks": 113,
          "midi": 63,
          "name": "D#4",
          "ticks": 129720,
          "time": 172.320842,
          "velocity": 0.6299212598425197
        },
        {
          "duration": 0.14713541666668561,
          "durationTicks": 113,
          "midi": 73,
          "name": "C#5",
          "ticks": 129840,
          "time": 172.477092,
          "velocity": 0.6299212598425197
        },
        {
          "duration": 0.14713541666668561,
          "durationTicks": 113,
          "midi": 63,
          "name": "D#4",
          "ticks": 129960,
          "time": 172.633342,
          "velocity": 0.6299212598425197
        },
        {
          "duration": 0.14713541666668561,
          "durationTicks": 113,
          "midi": 71,
          "name": "B4",
          "ticks": 130080,
          "time": 172.789592,
          "velocity": 0.6299212598425197
        },
        {
          "duration": 0.14713541666668561,
          "durationTicks": 113,
          "midi": 63,
          "name": "D#4",
          "ticks": 130200,
          "time": 172.945842,
          "velocity": 0.6299212598425197
        },
        {
          "duration": 0.14713541666668561,
          "durationTicks": 113,
          "midi": 75,
          "name": "D#5",
          "ticks": 130320,
          "time": 173.102092,
          "velocity": 0.6299212598425197
        },
        {
          "duration": 0.14713541666668561,
          "durationTicks": 113,
          "midi": 63,
          "name": "D#4",
          "ticks": 130440,
          "time": 173.258342,
          "velocity": 0.6299212598425197
        },
        {
          "duration": 0.14713541666668561,
          "durationTicks": 113,
          "midi": 73,
          "name": "C#5",
          "ticks": 130560,
          "time": 173.414592,
          "velocity": 0.6299212598425197
        },
        {
          "duration": 0.14713541666668561,
          "durationTicks": 113,
          "midi": 64,
          "name": "E4",
          "ticks": 130680,
          "time": 173.570842,
          "velocity": 0.6299212598425197
        },
        {
          "duration": 0.14713541666668561,
          "durationTicks": 113,
          "midi": 71,
          "name": "B4",
          "ticks": 130800,
          "time": 173.727092,
          "velocity": 0.6299212598425197
        },
        {
          "duration": 0.14713541666668561,
          "durationTicks": 113,
          "midi": 64,
          "name": "E4",
          "ticks": 130920,
          "time": 173.883342,
          "velocity": 0.6299212598425197
        },
        {
          "duration": 0.14713541666668561,
          "durationTicks": 113,
          "midi": 70,
          "name": "A#4",
          "ticks": 131040,
          "time": 174.039592,
          "velocity": 0.6299212598425197
        },
        {
          "duration": 0.14713541666668561,
          "durationTicks": 113,
          "midi": 64,
          "name": "E4",
          "ticks": 131160,
          "time": 174.195842,
          "velocity": 0.6299212598425197
        },
        {
          "duration": 0.14713541666668561,
          "durationTicks": 113,
          "midi": 68,
          "name": "G#4",
          "ticks": 131280,
          "time": 174.352092,
          "velocity": 0.6299212598425197
        },
        {
          "duration": 0.14713541666668561,
          "durationTicks": 113,
          "midi": 64,
          "name": "E4",
          "ticks": 131400,
          "time": 174.508342,
          "velocity": 0.6299212598425197
        },
        {
          "duration": 0.2955729166666572,
          "durationTicks": 227,
          "midi": 64,
          "name": "E4",
          "ticks": 131520,
          "time": 174.664592,
          "velocity": 0.6299212598425197
        },
        {
          "duration": 0.2955729166666572,
          "durationTicks": 227,
          "midi": 67,
          "name": "G4",
          "ticks": 131520,
          "time": 174.664592,
          "velocity": 0.6299212598425197
        },
        {
          "duration": 0.2955729166666572,
          "durationTicks": 227,
          "midi": 64,
          "name": "E4",
          "ticks": 131760,
          "time": 174.977092,
          "velocity": 0.6299212598425197
        },
        {
          "duration": 0.2955729166666572,
          "durationTicks": 227,
          "midi": 68,
          "name": "G#4",
          "ticks": 131760,
          "time": 174.977092,
          "velocity": 0.6299212598425197
        },
        {
          "duration": 0.5924479166666572,
          "durationTicks": 455,
          "midi": 63,
          "name": "D#4",
          "ticks": 132000,
          "time": 175.289592,
          "velocity": 0.6299212598425197
        },
        {
          "duration": 0.5924479166666572,
          "durationTicks": 455,
          "midi": 70,
          "name": "A#4",
          "ticks": 132000,
          "time": 175.289592,
          "velocity": 0.6299212598425197
        },
        {
          "duration": 0.14713541666668561,
          "durationTicks": 113,
          "midi": 71,
          "name": "B4",
          "ticks": 132480,
          "time": 175.914592,
          "velocity": 0.6299212598425197
        },
        {
          "duration": 0.14713541666668561,
          "durationTicks": 113,
          "midi": 63,
          "name": "D#4",
          "ticks": 132600,
          "time": 176.070842,
          "velocity": 0.6299212598425197
        },
        {
          "duration": 0.14713541666668561,
          "durationTicks": 113,
          "midi": 70,
          "name": "A#4",
          "ticks": 132720,
          "time": 176.227092,
          "velocity": 0.6299212598425197
        },
        {
          "duration": 0.14713541666668561,
          "durationTicks": 113,
          "midi": 63,
          "name": "D#4",
          "ticks": 132840,
          "time": 176.383342,
          "velocity": 0.6299212598425197
        },
        {
          "duration": 0.14713541666668561,
          "durationTicks": 113,
          "midi": 71,
          "name": "B4",
          "ticks": 132960,
          "time": 176.539592,
          "velocity": 0.6299212598425197
        },
        {
          "duration": 0.14713541666668561,
          "durationTicks": 113,
          "midi": 63,
          "name": "D#4",
          "ticks": 133080,
          "time": 176.695842,
          "velocity": 0.6299212598425197
        },
        {
          "duration": 0.14713541666668561,
          "durationTicks": 113,
          "midi": 73,
          "name": "C#5",
          "ticks": 133200,
          "time": 176.852092,
          "velocity": 0.6299212598425197
        },
        {
          "duration": 0.14713541666668561,
          "durationTicks": 113,
          "midi": 63,
          "name": "D#4",
          "ticks": 133320,
          "time": 177.008342,
          "velocity": 0.6299212598425197
        },
        {
          "duration": 0.14713541666668561,
          "durationTicks": 113,
          "midi": 70,
          "name": "A#4",
          "ticks": 133440,
          "time": 177.164592,
          "velocity": 0.6299212598425197
        },
        {
          "duration": 0.14713541666668561,
          "durationTicks": 113,
          "midi": 63,
          "name": "D#4",
          "ticks": 133560,
          "time": 177.320842,
          "velocity": 0.6299212598425197
        },
        {
          "duration": 0.14713541666668561,
          "durationTicks": 113,
          "midi": 68,
          "name": "G#4",
          "ticks": 133680,
          "time": 177.477092,
          "velocity": 0.6299212598425197
        },
        {
          "duration": 0.14713541666668561,
          "durationTicks": 113,
          "midi": 63,
          "name": "D#4",
          "ticks": 133800,
          "time": 177.633342,
          "velocity": 0.6299212598425197
        },
        {
          "duration": 0.2955729166666572,
          "durationTicks": 227,
          "midi": 66,
          "name": "F#4",
          "ticks": 133920,
          "time": 177.789592,
          "velocity": 0.6299212598425197
        },
        {
          "duration": 0.14713541666668561,
          "durationTicks": 113,
          "midi": 63,
          "name": "D#4",
          "ticks": 134160,
          "time": 178.102092,
          "velocity": 0.6299212598425197
        },
        {
          "duration": 0.14713541666668561,
          "durationTicks": 113,
          "midi": 66,
          "name": "F#4",
          "ticks": 134280,
          "time": 178.258342,
          "velocity": 0.6299212598425197
        },
        {
          "duration": 0.14713541666668561,
          "durationTicks": 113,
          "midi": 68,
          "name": "G#4",
          "ticks": 134400,
          "time": 178.414592,
          "velocity": 0.6299212598425197
        },
        {
          "duration": 0.14713541666668561,
          "durationTicks": 113,
          "midi": 59,
          "name": "B3",
          "ticks": 134520,
          "time": 178.570842,
          "velocity": 0.6299212598425197
        },
        {
          "duration": 0.14713541666668561,
          "durationTicks": 113,
          "midi": 66,
          "name": "F#4",
          "ticks": 134640,
          "time": 178.727092,
          "velocity": 0.6299212598425197
        },
        {
          "duration": 0.14713541666668561,
          "durationTicks": 113,
          "midi": 59,
          "name": "B3",
          "ticks": 134760,
          "time": 178.883342,
          "velocity": 0.6299212598425197
        },
        {
          "duration": 0.14713541666668561,
          "durationTicks": 113,
          "midi": 68,
          "name": "G#4",
          "ticks": 134880,
          "time": 179.039592,
          "velocity": 0.6299212598425197
        },
        {
          "duration": 0.14713541666668561,
          "durationTicks": 113,
          "midi": 70,
          "name": "A#4",
          "ticks": 135000,
          "time": 179.195842,
          "velocity": 0.6299212598425197
        },
        {
          "duration": 0.14713541666668561,
          "durationTicks": 113,
          "midi": 71,
          "name": "B4",
          "ticks": 135120,
          "time": 179.352092,
          "velocity": 0.6299212598425197
        },
        {
          "duration": 0.14713541666668561,
          "durationTicks": 113,
          "midi": 68,
          "name": "G#4",
          "ticks": 135240,
          "time": 179.508342,
          "velocity": 0.6299212598425197
        },
        {
          "duration": 0.14713541666668561,
          "durationTicks": 113,
          "midi": 66,
          "name": "F#4",
          "ticks": 135360,
          "time": 179.664592,
          "velocity": 0.6299212598425197
        },
        {
          "duration": 0.14713541666668561,
          "durationTicks": 113,
          "midi": 59,
          "name": "B3",
          "ticks": 135480,
          "time": 179.820842,
          "velocity": 0.6299212598425197
        },
        {
          "duration": 0.14713541666668561,
          "durationTicks": 113,
          "midi": 64,
          "name": "E4",
          "ticks": 135600,
          "time": 179.977092,
          "velocity": 0.6299212598425197
        },
        {
          "duration": 0.14713541666668561,
          "durationTicks": 113,
          "midi": 59,
          "name": "B3",
          "ticks": 135720,
          "time": 180.133342,
          "velocity": 0.6299212598425197
        },
        {
          "duration": 0.2955729166666572,
          "durationTicks": 227,
          "midi": 63,
          "name": "D#4",
          "ticks": 135840,
          "time": 180.289592,
          "velocity": 0.6299212598425197
        },
        {
          "duration": 0.14713541666668561,
          "durationTicks": 113,
          "midi": 63,
          "name": "D#4",
          "ticks": 136080,
          "time": 180.602092,
          "velocity": 0.6299212598425197
        },
        {
          "duration": 0.14713541666668561,
          "durationTicks": 113,
          "midi": 66,
          "name": "F#4",
          "ticks": 136200,
          "time": 180.758342,
          "velocity": 0.6299212598425197
        },
        {
          "duration": 0.2955729166666572,
          "durationTicks": 227,
          "midi": 64,
          "name": "E4",
          "ticks": 136320,
          "time": 180.914592,
          "velocity": 0.6299212598425197
        },
        {
          "duration": 0.14713541666668561,
          "durationTicks": 113,
          "midi": 76,
          "name": "E5",
          "ticks": 136560,
          "time": 181.227092,
          "velocity": 0.6299212598425197
        },
        {
          "duration": 0.14713541666668561,
          "durationTicks": 113,
          "midi": 75,
          "name": "D#5",
          "ticks": 136680,
          "time": 181.383342,
          "velocity": 0.6299212598425197
        },
        {
          "duration": 0.14713541666668561,
          "durationTicks": 113,
          "midi": 73,
          "name": "C#5",
          "ticks": 136800,
          "time": 181.539592,
          "velocity": 0.6299212598425197
        },
        {
          "duration": 0.14713541666668561,
          "durationTicks": 113,
          "midi": 71,
          "name": "B4",
          "ticks": 136920,
          "time": 181.695842,
          "velocity": 0.6299212598425197
        },
        {
          "duration": 0.2955729166666572,
          "durationTicks": 227,
          "midi": 70,
          "name": "A#4",
          "ticks": 137040,
          "time": 181.852092,
          "velocity": 0.6299212598425197
        },
        {
          "duration": 0.14713541666668561,
          "durationTicks": 113,
          "midi": 75,
          "name": "D#5",
          "ticks": 137280,
          "time": 182.164592,
          "velocity": 0.6299212598425197
        },
        {
          "duration": 0.14713541666668561,
          "durationTicks": 113,
          "midi": 73,
          "name": "C#5",
          "ticks": 137400,
          "time": 182.320842,
          "velocity": 0.6299212598425197
        },
        {
          "duration": 0.14713541666668561,
          "durationTicks": 113,
          "midi": 75,
          "name": "D#5",
          "ticks": 137520,
          "time": 182.477092,
          "velocity": 0.6299212598425197
        },
        {
          "duration": 0.14713541666668561,
          "durationTicks": 113,
          "midi": 76,
          "name": "E5",
          "ticks": 137640,
          "time": 182.633342,
          "velocity": 0.6299212598425197
        },
        {
          "duration": 0.14713541666668561,
          "durationTicks": 113,
          "midi": 75,
          "name": "D#5",
          "ticks": 137760,
          "time": 182.789592,
          "velocity": 0.6299212598425197
        },
        {
          "duration": 0.14713541666668561,
          "durationTicks": 113,
          "midi": 73,
          "name": "C#5",
          "ticks": 137880,
          "time": 182.945842,
          "velocity": 0.6299212598425197
        },
        {
          "duration": 0.14713541666668561,
          "durationTicks": 113,
          "midi": 71,
          "name": "B4",
          "ticks": 138000,
          "time": 183.102092,
          "velocity": 0.6299212598425197
        },
        {
          "duration": 0.14713541666668561,
          "durationTicks": 113,
          "midi": 70,
          "name": "A#4",
          "ticks": 138120,
          "time": 183.258342,
          "velocity": 0.6299212598425197
        },
        {
          "duration": 0.2955729166666572,
          "durationTicks": 227,
          "midi": 68,
          "name": "G#4",
          "ticks": 138240,
          "time": 183.414592,
          "velocity": 0.6299212598425197
        },
        {
          "duration": 0.2955729166666572,
          "durationTicks": 227,
          "midi": 75,
          "name": "D#5",
          "ticks": 138480,
          "time": 183.727092,
          "velocity": 0.6299212598425197
        },
        {
          "duration": 0.2955729166666572,
          "durationTicks": 227,
          "midi": 67,
          "name": "G4",
          "ticks": 138720,
          "time": 184.039592,
          "velocity": 0.6299212598425197
        },
        {
          "duration": 0.2955729166666572,
          "durationTicks": 227,
          "midi": 75,
          "name": "D#5",
          "ticks": 138960,
          "time": 184.352092,
          "velocity": 0.6299212598425197
        },
        {
          "duration": 1.1861979166666856,
          "durationTicks": 911,
          "midi": 68,
          "name": "G#4",
          "ticks": 139200,
          "time": 184.664592,
          "velocity": 0.6299212598425197
        },
        {
          "duration": 0.3460359624999967,
          "durationTicks": 227,
          "midi": 75,
          "name": "D#5",
          "ticks": 140160,
          "time": 185.914592,
          "velocity": 0.6299212598425197
        },
        {
          "duration": 0.3460359625000251,
          "durationTicks": 227,
          "midi": 73,
          "name": "C#5",
          "ticks": 140400,
          "time": 186.280445,
          "velocity": 0.6299212598425197
        },
        {
          "duration": 0.3460359624999967,
          "durationTicks": 227,
          "midi": 80,
          "name": "G#5",
          "ticks": 140640,
          "time": 186.646298,
          "velocity": 0.6299212598425197
        },
        {
          "duration": 0.3460359624999967,
          "durationTicks": 227,
          "midi": 73,
          "name": "C#5",
          "ticks": 140880,
          "time": 187.012151,
          "velocity": 0.6299212598425197
        },
        {
          "duration": 0.3460359624999967,
          "durationTicks": 227,
          "midi": 75,
          "name": "D#5",
          "ticks": 141120,
          "time": 187.378004,
          "velocity": 0.6299212598425197
        },
        {
          "duration": 0.3460359624999967,
          "durationTicks": 227,
          "midi": 73,
          "name": "C#5",
          "ticks": 141360,
          "time": 187.743857,
          "velocity": 0.6299212598425197
        },
        {
          "duration": 0.3460359624999967,
          "durationTicks": 227,
          "midi": 68,
          "name": "G#4",
          "ticks": 141600,
          "time": 188.10971,
          "velocity": 0.6299212598425197
        },
        {
          "duration": 0.3460359624999967,
          "durationTicks": 227,
          "midi": 73,
          "name": "C#5",
          "ticks": 141840,
          "time": 188.475563,
          "velocity": 0.6299212598425197
        },
        {
          "duration": 0.3460359624999967,
          "durationTicks": 227,
          "midi": 75,
          "name": "D#5",
          "ticks": 142080,
          "time": 188.841416,
          "velocity": 0.6299212598425197
        },
        {
          "duration": 0.3460359624999967,
          "durationTicks": 227,
          "midi": 73,
          "name": "C#5",
          "ticks": 142320,
          "time": 189.207269,
          "velocity": 0.6299212598425197
        },
        {
          "duration": 0.3460359624999967,
          "durationTicks": 227,
          "midi": 80,
          "name": "G#5",
          "ticks": 142560,
          "time": 189.573122,
          "velocity": 0.6299212598425197
        },
        {
          "duration": 0.3460359624999967,
          "durationTicks": 227,
          "midi": 73,
          "name": "C#5",
          "ticks": 142800,
          "time": 189.938975,
          "velocity": 0.6299212598425197
        },
        {
          "duration": 0.3460359625000251,
          "durationTicks": 227,
          "midi": 75,
          "name": "D#5",
          "ticks": 143040,
          "time": 190.304828,
          "velocity": 0.6299212598425197
        },
        {
          "duration": 0.3460359624999967,
          "durationTicks": 227,
          "midi": 73,
          "name": "C#5",
          "ticks": 143280,
          "time": 190.670681,
          "velocity": 0.6299212598425197
        },
        {
          "duration": 0.3460359624999967,
          "durationTicks": 227,
          "midi": 68,
          "name": "G#4",
          "ticks": 143520,
          "time": 191.036534,
          "velocity": 0.6299212598425197
        },
        {
          "duration": 0.3460359624999967,
          "durationTicks": 227,
          "midi": 73,
          "name": "C#5",
          "ticks": 143760,
          "time": 191.402387,
          "velocity": 0.6299212598425197
        },
        {
          "duration": 0.3460359624999967,
          "durationTicks": 227,
          "midi": 75,
          "name": "D#5",
          "ticks": 144000,
          "time": 191.76824,
          "velocity": 0.6299212598425197
        },
        {
          "duration": 0.17225578750000636,
          "durationTicks": 113,
          "midi": 80,
          "name": "G#5",
          "ticks": 144000,
          "time": 191.76824,
          "velocity": 0.6299212598425197
        },
        {
          "duration": 0.17225578750000636,
          "durationTicks": 113,
          "midi": 82,
          "name": "A#5",
          "ticks": 144120,
          "time": 191.9511665,
          "velocity": 0.6299212598425197
        },
        {
          "duration": 0.17225578750000636,
          "durationTicks": 113,
          "midi": 85,
          "name": "C#6",
          "ticks": 144120,
          "time": 191.9511665,
          "velocity": 0.6299212598425197
        },
        {
          "duration": 0.3460359624999967,
          "durationTicks": 227,
          "midi": 73,
          "name": "C#5",
          "ticks": 144240,
          "time": 192.134093,
          "velocity": 0.6299212598425197
        },
        {
          "duration": 0.17225578750000636,
          "durationTicks": 113,
          "midi": 83,
          "name": "B5",
          "ticks": 144240,
          "time": 192.134093,
          "velocity": 0.6299212598425197
        },
        {
          "duration": 0.17225578750000636,
          "durationTicks": 113,
          "midi": 87,
          "name": "D#6",
          "ticks": 144240,
          "time": 192.134093,
          "velocity": 0.6299212598425197
        },
        {
          "duration": 0.3460359624999967,
          "durationTicks": 227,
          "midi": 80,
          "name": "G#5",
          "ticks": 144480,
          "time": 192.499946,
          "velocity": 0.6299212598425197
        },
        {
          "duration": 0.3460359624999967,
          "durationTicks": 227,
          "midi": 73,
          "name": "C#5",
          "ticks": 144720,
          "time": 192.865799,
          "velocity": 0.6299212598425197
        },
        {
          "duration": 0.3460359624999967,
          "durationTicks": 227,
          "midi": 75,
          "name": "D#5",
          "ticks": 144960,
          "time": 193.231652,
          "velocity": 0.6299212598425197
        },
        {
          "duration": 0.3460359624999967,
          "durationTicks": 227,
          "midi": 73,
          "name": "C#5",
          "ticks": 145200,
          "time": 193.597505,
          "velocity": 0.6299212598425197
        },
        {
          "duration": 0.3460359624999967,
          "durationTicks": 227,
          "midi": 68,
          "name": "G#4",
          "ticks": 145440,
          "time": 193.963358,
          "velocity": 0.6299212598425197
        },
        {
          "duration": 0.3460359625000251,
          "durationTicks": 227,
          "midi": 73,
          "name": "C#5",
          "ticks": 145680,
          "time": 194.329211,
          "velocity": 0.6299212598425197
        },
        {
          "duration": 0.3460359624999967,
          "durationTicks": 227,
          "midi": 75,
          "name": "D#5",
          "ticks": 145920,
          "time": 194.695064,
          "velocity": 0.6299212598425197
        },
        {
          "duration": 0.3460359624999967,
          "durationTicks": 227,
          "midi": 73,
          "name": "C#5",
          "ticks": 146160,
          "time": 195.060917,
          "velocity": 0.6299212598425197
        },
        {
          "duration": 0.3460359624999967,
          "durationTicks": 227,
          "midi": 80,
          "name": "G#5",
          "ticks": 146400,
          "time": 195.42677,
          "velocity": 0.6299212598425197
        },
        {
          "duration": 0.3460359624999967,
          "durationTicks": 227,
          "midi": 73,
          "name": "C#5",
          "ticks": 146640,
          "time": 195.792623,
          "velocity": 0.6299212598425197
        },
        {
          "duration": 0.3460359624999967,
          "durationTicks": 227,
          "midi": 75,
          "name": "D#5",
          "ticks": 146880,
          "time": 196.158476,
          "velocity": 0.6299212598425197
        },
        {
          "duration": 0.3460359624999967,
          "durationTicks": 227,
          "midi": 73,
          "name": "C#5",
          "ticks": 147120,
          "time": 196.524329,
          "velocity": 0.6299212598425197
        },
        {
          "duration": 0.3460359624999967,
          "durationTicks": 227,
          "midi": 68,
          "name": "G#4",
          "ticks": 147360,
          "time": 196.890182,
          "velocity": 0.6299212598425197
        },
        {
          "duration": 0.3460359624999967,
          "durationTicks": 227,
          "midi": 73,
          "name": "C#5",
          "ticks": 147600,
          "time": 197.256035,
          "velocity": 0.6299212598425197
        },
        {
          "duration": 0.3460359624999967,
          "durationTicks": 227,
          "midi": 75,
          "name": "D#5",
          "ticks": 147840,
          "time": 197.621888,
          "velocity": 0.6299212598425197
        },
        {
          "duration": 0.3460359624999967,
          "durationTicks": 227,
          "midi": 73,
          "name": "C#5",
          "ticks": 148080,
          "time": 197.987741,
          "velocity": 0.6299212598425197
        },
        {
          "duration": 0.3460359625000251,
          "durationTicks": 227,
          "midi": 80,
          "name": "G#5",
          "ticks": 148320,
          "time": 198.353594,
          "velocity": 0.6299212598425197
        },
        {
          "duration": 0.3460359624999967,
          "durationTicks": 227,
          "midi": 73,
          "name": "C#5",
          "ticks": 148560,
          "time": 198.719447,
          "velocity": 0.6299212598425197
        },
        {
          "duration": 0.3460359624999967,
          "durationTicks": 227,
          "midi": 75,
          "name": "D#5",
          "ticks": 148800,
          "time": 199.0853,
          "velocity": 0.6299212598425197
        },
        {
          "duration": 0.3460359624999967,
          "durationTicks": 227,
          "midi": 73,
          "name": "C#5",
          "ticks": 149040,
          "time": 199.451153,
          "velocity": 0.6299212598425197
        },
        {
          "duration": 0.3460359624999967,
          "durationTicks": 227,
          "midi": 68,
          "name": "G#4",
          "ticks": 149280,
          "time": 199.817006,
          "velocity": 0.6299212598425197
        },
        {
          "duration": 0.3460359624999967,
          "durationTicks": 227,
          "midi": 73,
          "name": "C#5",
          "ticks": 149520,
          "time": 200.182859,
          "velocity": 0.6299212598425197
        },
        {
          "duration": 0.3460359624999967,
          "durationTicks": 227,
          "midi": 75,
          "name": "D#5",
          "ticks": 149760,
          "time": 200.548712,
          "velocity": 0.6299212598425197
        },
        {
          "duration": 0.3460359624999967,
          "durationTicks": 227,
          "midi": 73,
          "name": "C#5",
          "ticks": 150000,
          "time": 200.914565,
          "velocity": 0.6299212598425197
        },
        {
          "duration": 0.3460359624999967,
          "durationTicks": 227,
          "midi": 80,
          "name": "G#5",
          "ticks": 150240,
          "time": 201.280418,
          "velocity": 0.6299212598425197
        },
        {
          "duration": 0.3460359624999967,
          "durationTicks": 227,
          "midi": 73,
          "name": "C#5",
          "ticks": 150480,
          "time": 201.646271,
          "velocity": 0.6299212598425197
        },
        {
          "duration": 0.3460359624999967,
          "durationTicks": 227,
          "midi": 75,
          "name": "D#5",
          "ticks": 150720,
          "time": 202.012124,
          "velocity": 0.6299212598425197
        },
        {
          "duration": 0.3460359625000251,
          "durationTicks": 227,
          "midi": 73,
          "name": "C#5",
          "ticks": 150960,
          "time": 202.377977,
          "velocity": 0.6299212598425197
        },
        {
          "duration": 0.3460359624999967,
          "durationTicks": 227,
          "midi": 68,
          "name": "G#4",
          "ticks": 151200,
          "time": 202.74383,
          "velocity": 0.6299212598425197
        },
        {
          "duration": 0.3460359624999967,
          "durationTicks": 227,
          "midi": 73,
          "name": "C#5",
          "ticks": 151440,
          "time": 203.109683,
          "velocity": 0.6299212598425197
        },
        {
          "duration": 0.3460359624999967,
          "durationTicks": 227,
          "midi": 75,
          "name": "D#5",
          "ticks": 151680,
          "time": 203.475536,
          "velocity": 0.6299212598425197
        },
        {
          "duration": 0.17225578750000636,
          "durationTicks": 113,
          "midi": 80,
          "name": "G#5",
          "ticks": 151680,
          "time": 203.475536,
          "velocity": 0.6299212598425197
        },
        {
          "duration": 0.17225578749997794,
          "durationTicks": 113,
          "midi": 82,
          "name": "A#5",
          "ticks": 151800,
          "time": 203.6584625,
          "velocity": 0.6299212598425197
        },
        {
          "duration": 0.17225578749997794,
          "durationTicks": 113,
          "midi": 85,
          "name": "C#6",
          "ticks": 151800,
          "time": 203.6584625,
          "velocity": 0.6299212598425197
        },
        {
          "duration": 0.3460359624999967,
          "durationTicks": 227,
          "midi": 73,
          "name": "C#5",
          "ticks": 151920,
          "time": 203.841389,
          "velocity": 0.6299212598425197
        },
        {
          "duration": 0.17225578750000636,
          "durationTicks": 113,
          "midi": 83,
          "name": "B5",
          "ticks": 151920,
          "time": 203.841389,
          "velocity": 0.6299212598425197
        },
        {
          "duration": 0.17225578750000636,
          "durationTicks": 113,
          "midi": 87,
          "name": "D#6",
          "ticks": 151920,
          "time": 203.841389,
          "velocity": 0.6299212598425197
        },
        {
          "duration": 0.3460359624999967,
          "durationTicks": 227,
          "midi": 80,
          "name": "G#5",
          "ticks": 152160,
          "time": 204.207242,
          "velocity": 0.6299212598425197
        },
        {
          "duration": 0.3460359624999967,
          "durationTicks": 227,
          "midi": 73,
          "name": "C#5",
          "ticks": 152400,
          "time": 204.573095,
          "velocity": 0.6299212598425197
        },
        {
          "duration": 0.3460359624999967,
          "durationTicks": 227,
          "midi": 75,
          "name": "D#5",
          "ticks": 152640,
          "time": 204.938948,
          "velocity": 0.6299212598425197
        },
        {
          "duration": 0.3460359624999967,
          "durationTicks": 227,
          "midi": 73,
          "name": "C#5",
          "ticks": 152880,
          "time": 205.304801,
          "velocity": 0.6299212598425197
        },
        {
          "duration": 0.3460359624999967,
          "durationTicks": 227,
          "midi": 68,
          "name": "G#4",
          "ticks": 153120,
          "time": 205.670654,
          "velocity": 0.6299212598425197
        },
        {
          "duration": 0.3460359624999967,
          "durationTicks": 227,
          "midi": 73,
          "name": "C#5",
          "ticks": 153360,
          "time": 206.036507,
          "velocity": 0.6299212598425197
        },
        {
          "duration": 0.3460359625000251,
          "durationTicks": 227,
          "midi": 75,
          "name": "D#5",
          "ticks": 153600,
          "time": 206.40236,
          "velocity": 0.6299212598425197
        },
        {
          "duration": 0.17225578750000636,
          "durationTicks": 113,
          "midi": 80,
          "name": "G#5",
          "ticks": 153600,
          "time": 206.40236,
          "velocity": 0.6299212598425197
        },
        {
          "duration": 0.17225578750000636,
          "durationTicks": 113,
          "midi": 82,
          "name": "A#5",
          "ticks": 153720,
          "time": 206.5852865,
          "velocity": 0.6299212598425197
        },
        {
          "duration": 0.17225578750000636,
          "durationTicks": 113,
          "midi": 85,
          "name": "C#6",
          "ticks": 153720,
          "time": 206.5852865,
          "velocity": 0.6299212598425197
        },
        {
          "duration": 0.3460359624999967,
          "durationTicks": 227,
          "midi": 73,
          "name": "C#5",
          "ticks": 153840,
          "time": 206.768213,
          "velocity": 0.6299212598425197
        },
        {
          "duration": 0.17225578750000636,
          "durationTicks": 113,
          "midi": 83,
          "name": "B5",
          "ticks": 153840,
          "time": 206.768213,
          "velocity": 0.6299212598425197
        },
        {
          "duration": 0.17225578750000636,
          "durationTicks": 113,
          "midi": 87,
          "name": "D#6",
          "ticks": 153840,
          "time": 206.768213,
          "velocity": 0.6299212598425197
        },
        {
          "duration": 0.3460359624999967,
          "durationTicks": 227,
          "midi": 80,
          "name": "G#5",
          "ticks": 154080,
          "time": 207.134066,
          "velocity": 0.6299212598425197
        },
        {
          "duration": 0.3460359624999967,
          "durationTicks": 227,
          "midi": 73,
          "name": "C#5",
          "ticks": 154320,
          "time": 207.499919,
          "velocity": 0.6299212598425197
        },
        {
          "duration": 0.3460359624999967,
          "durationTicks": 227,
          "midi": 75,
          "name": "D#5",
          "ticks": 154560,
          "time": 207.865772,
          "velocity": 0.6299212598425197
        },
        {
          "duration": 0.3460359624999967,
          "durationTicks": 227,
          "midi": 73,
          "name": "C#5",
          "ticks": 154800,
          "time": 208.231625,
          "velocity": 0.6299212598425197
        },
        {
          "duration": 0.3460359624999967,
          "durationTicks": 227,
          "midi": 68,
          "name": "G#4",
          "ticks": 155040,
          "time": 208.597478,
          "velocity": 0.6299212598425197
        },
        {
          "duration": 0.3460359624999967,
          "durationTicks": 227,
          "midi": 73,
          "name": "C#5",
          "ticks": 155280,
          "time": 208.963331,
          "velocity": 0.6299212598425197
        },
        {
          "duration": 0.3460359624999967,
          "durationTicks": 227,
          "midi": 75,
          "name": "D#5",
          "ticks": 155520,
          "time": 209.329184,
          "velocity": 0.6299212598425197
        },
        {
          "duration": 0.17225578750000636,
          "durationTicks": 113,
          "midi": 80,
          "name": "G#5",
          "ticks": 155520,
          "time": 209.329184,
          "velocity": 0.6299212598425197
        },
        {
          "duration": 0.17225578750000636,
          "durationTicks": 113,
          "midi": 82,
          "name": "A#5",
          "ticks": 155640,
          "time": 209.5121105,
          "velocity": 0.6141732283464567
        },
        {
          "duration": 0.17225578750000636,
          "durationTicks": 113,
          "midi": 85,
          "name": "C#6",
          "ticks": 155640,
          "time": 209.5121105,
          "velocity": 0.6141732283464567
        },
        {
          "duration": 0.3460359624999967,
          "durationTicks": 227,
          "midi": 73,
          "name": "C#5",
          "ticks": 155760,
          "time": 209.695037,
          "velocity": 0.5905511811023622
        },
        {
          "duration": 0.17225578749997794,
          "durationTicks": 113,
          "midi": 83,
          "name": "B5",
          "ticks": 155760,
          "time": 209.695037,
          "velocity": 0.5905511811023622
        },
        {
          "duration": 0.17225578749997794,
          "durationTicks": 113,
          "midi": 87,
          "name": "D#6",
          "ticks": 155760,
          "time": 209.695037,
          "velocity": 0.5905511811023622
        },
        {
          "duration": 0.3460359624999967,
          "durationTicks": 227,
          "midi": 80,
          "name": "G#5",
          "ticks": 156000,
          "time": 210.06089,
          "velocity": 0.5511811023622047
        },
        {
          "duration": 0.3460359625000251,
          "durationTicks": 227,
          "midi": 73,
          "name": "C#5",
          "ticks": 156240,
          "time": 210.426743,
          "velocity": 0.5039370078740157
        },
        {
          "duration": 0.3460359624999967,
          "durationTicks": 227,
          "midi": 75,
          "name": "D#5",
          "ticks": 156480,
          "time": 210.792596,
          "velocity": 0.4645669291338583
        },
        {
          "duration": 0.3460359625000251,
          "durationTicks": 227,
          "midi": 73,
          "name": "C#5",
          "ticks": 156720,
          "time": 211.158449,
          "velocity": 0.4251968503937008
        },
        {
          "duration": 0.3460359624999967,
          "durationTicks": 227,
          "midi": 68,
          "name": "G#4",
          "ticks": 156960,
          "time": 211.524302,
          "velocity": 0.3779527559055118
        },
        {
          "duration": 0.3460359625000251,
          "durationTicks": 227,
          "midi": 73,
          "name": "C#5",
          "ticks": 157200,
          "time": 211.890155,
          "velocity": 0.33858267716535434
        },
        {
          "duration": 0.3460359624999967,
          "durationTicks": 227,
          "midi": 75,
          "name": "D#5",
          "ticks": 157440,
          "time": 212.256008,
          "velocity": 0.2992125984251969
        },
        {
          "duration": 0.17225578749997794,
          "durationTicks": 113,
          "midi": 80,
          "name": "G#5",
          "ticks": 157440,
          "time": 212.256008,
          "velocity": 0.2992125984251969
        },
        {
          "duration": 0.17225578749997794,
          "durationTicks": 113,
          "midi": 82,
          "name": "A#5",
          "ticks": 157560,
          "time": 212.43893450000002,
          "velocity": 0.2755905511811024
        },
        {
          "duration": 0.17225578749997794,
          "durationTicks": 113,
          "midi": 85,
          "name": "C#6",
          "ticks": 157560,
          "time": 212.43893450000002,
          "velocity": 0.2755905511811024
        },
        {
          "duration": 0.3460359624999967,
          "durationTicks": 227,
          "midi": 73,
          "name": "C#5",
          "ticks": 157680,
          "time": 212.621861,
          "velocity": 0.25196850393700787
        },
        {
          "duration": 0.17225578750000636,
          "durationTicks": 113,
          "midi": 83,
          "name": "B5",
          "ticks": 157680,
          "time": 212.621861,
          "velocity": 0.25196850393700787
        },
        {
          "duration": 0.17225578750000636,
          "durationTicks": 113,
          "midi": 87,
          "name": "D#6",
          "ticks": 157680,
          "time": 212.621861,
          "velocity": 0.25196850393700787
        },
        {
          "duration": 0.3460359624999967,
          "durationTicks": 227,
          "midi": 80,
          "name": "G#5",
          "ticks": 157920,
          "time": 212.987714,
          "velocity": 0.2125984251968504
        },
        {
          "duration": 0.3460359624999967,
          "durationTicks": 227,
          "midi": 73,
          "name": "C#5",
          "ticks": 158160,
          "time": 213.353567,
          "velocity": 0.1732283464566929
        },
        {
          "duration": 0.3460359624999967,
          "durationTicks": 227,
          "midi": 75,
          "name": "D#5",
          "ticks": 158400,
          "time": 213.71942,
          "velocity": 0.12598425196850394
        },
        {
          "duration": 0.3460359624999967,
          "durationTicks": 227,
          "midi": 73,
          "name": "C#5",
          "ticks": 158640,
          "time": 214.085273,
          "velocity": 0.12598425196850394
        },
        {
          "duration": 0.3460359625000251,
          "durationTicks": 227,
          "midi": 68,
          "name": "G#4",
          "ticks": 158880,
          "time": 214.451126,
          "velocity": 0.12598425196850394
        },
        {
          "duration": 3.126518762499984,
          "durationTicks": 2051,
          "midi": 73,
          "name": "C#5",
          "ticks": 159120,
          "time": 214.816979,
          "velocity": 0.12598425196850394
        }
      ]
    },
    {
      "channel": 0,
      "controlChanges": {
        "64": [
          {
            "number": 64,
            "ticks": 2,
            "time": 0.003048775,
            "value": 1
          },
          {
            "number": 64,
            "ticks": 1921,
            "time": 2.9283483875000003,
            "value": 0
          },
          {
            "number": 64,
            "ticks": 1922,
            "time": 2.929872775,
            "value": 1
          },
          {
            "number": 64,
            "ticks": 3841,
            "time": 5.855172387500001,
            "value": 0
          },
          {
            "number": 64,
            "ticks": 3842,
            "time": 5.8566967750000005,
            "value": 1
          },
          {
            "number": 64,
            "ticks": 7681,
            "time": 11.708820387500003,
            "value": 0
          },
          {
            "number": 64,
            "ticks": 7682,
            "time": 11.710344775000001,
            "value": 1
          },
          {
            "number": 64,
            "ticks": 9601,
            "time": 14.635644387500003,
            "value": 0
          },
          {
            "number": 64,
            "ticks": 9602,
            "time": 14.637168775000001,
            "value": 1
          },
          {
            "number": 64,
            "ticks": 11521,
            "time": 17.562468387500004,
            "value": 0
          },
          {
            "number": 64,
            "ticks": 11522,
            "time": 17.563992775000003,
            "value": 1
          },
          {
            "number": 64,
            "ticks": 13441,
            "time": 20.489292387500004,
            "value": 0
          },
          {
            "number": 64,
            "ticks": 30722,
            "time": 43.41719616666667,
            "value": 1
          },
          {
            "number": 64,
            "ticks": 31681,
            "time": 44.665894083333335,
            "value": 0
          },
          {
            "number": 64,
            "ticks": 31682,
            "time": 44.66719616666667,
            "value": 1
          },
          {
            "number": 64,
            "ticks": 32641,
            "time": 45.915894083333335,
            "value": 0
          },
          {
            "number": 64,
            "ticks": 32642,
            "time": 45.91719616666667,
            "value": 1
          },
          {
            "number": 64,
            "ticks": 33601,
            "time": 47.165894083333335,
            "value": 0
          },
          {
            "number": 64,
            "ticks": 33602,
            "time": 47.16719616666667,
            "value": 1
          },
          {
            "number": 64,
            "ticks": 34561,
            "time": 48.415894083333335,
            "value": 0
          },
          {
            "number": 64,
            "ticks": 34562,
            "time": 48.41719616666667,
            "value": 1
          },
          {
            "number": 64,
            "ticks": 35521,
            "time": 49.665894083333335,
            "value": 0
          },
          {
            "number": 64,
            "ticks": 35522,
            "time": 49.66719616666667,
            "value": 1
          },
          {
            "number": 64,
            "ticks": 36481,
            "time": 50.915894083333335,
            "value": 0
          },
          {
            "number": 64,
            "ticks": 36482,
            "time": 50.91719616666667,
            "value": 1
          },
          {
            "number": 64,
            "ticks": 37441,
            "time": 52.165894083333335,
            "value": 0
          },
          {
            "number": 64,
            "ticks": 37442,
            "time": 52.16719616666667,
            "value": 1
          },
          {
            "number": 64,
            "ticks": 37681,
            "time": 52.478394083333335,
            "value": 0
          },
          {
            "number": 64,
            "ticks": 37682,
            "time": 52.47969616666667,
            "value": 1
          },
          {
            "number": 64,
            "ticks": 37921,
            "time": 52.790894083333335,
            "value": 0
          },
          {
            "number": 64,
            "ticks": 37922,
            "time": 52.79219616666667,
            "value": 1
          },
          {
            "number": 64,
            "ticks": 38161,
            "time": 53.103394083333335,
            "value": 0
          },
          {
            "number": 64,
            "ticks": 38162,
            "time": 53.10469616666667,
            "value": 1
          },
          {
            "number": 64,
            "ticks": 38401,
            "time": 53.415894083333335,
            "value": 0
          },
          {
            "number": 64,
            "ticks": 38402,
            "time": 53.41719616666667,
            "value": 1
          },
          {
            "number": 64,
            "ticks": 39361,
            "time": 54.665894083333335,
            "value": 0
          },
          {
            "number": 64,
            "ticks": 39362,
            "time": 54.66719616666667,
            "value": 1
          },
          {
            "number": 64,
            "ticks": 40321,
            "time": 55.91589408333333,
            "value": 0
          },
          {
            "number": 64,
            "ticks": 40322,
            "time": 55.91719616666667,
            "value": 1
          },
          {
            "number": 64,
            "ticks": 41281,
            "time": 57.16589408333333,
            "value": 0
          },
          {
            "number": 64,
            "ticks": 41282,
            "time": 57.16719616666667,
            "value": 1
          },
          {
            "number": 64,
            "ticks": 42241,
            "time": 58.41589408333333,
            "value": 0
          },
          {
            "number": 64,
            "ticks": 42242,
            "time": 58.41719616666667,
            "value": 1
          },
          {
            "number": 64,
            "ticks": 43201,
            "time": 59.66589408333333,
            "value": 0
          },
          {
            "number": 64,
            "ticks": 43202,
            "time": 59.66719616666667,
            "value": 1
          },
          {
            "number": 64,
            "ticks": 44161,
            "time": 60.91589408333333,
            "value": 0
          },
          {
            "number": 64,
            "ticks": 44162,
            "time": 60.91719616666667,
            "value": 1
          },
          {
            "number": 64,
            "ticks": 44641,
            "time": 61.54089408333333,
            "value": 0
          },
          {
            "number": 64,
            "ticks": 44642,
            "time": 61.54219616666667,
            "value": 1
          },
          {
            "number": 64,
            "ticks": 45121,
            "time": 62.16589408333333,
            "value": 0
          },
          {
            "number": 64,
            "ticks": 45122,
            "time": 62.16719616666667,
            "value": 1
          },
          {
            "number": 64,
            "ticks": 46081,
            "time": 63.41589408333333,
            "value": 0
          },
          {
            "number": 64,
            "ticks": 61441,
            "time": 83.41589408333333,
            "value": 0
          },
          {
            "number": 64,
            "ticks": 76802,
            "time": 103.41719616666666,
            "value": 1
          },
          {
            "number": 64,
            "ticks": 77761,
            "time": 104.66589408333333,
            "value": 0
          },
          {
            "number": 64,
            "ticks": 77762,
            "time": 104.66719616666666,
            "value": 1
          },
          {
            "number": 64,
            "ticks": 78721,
            "time": 105.91589408333333,
            "value": 0
          },
          {
            "number": 64,
            "ticks": 78722,
            "time": 105.91719616666666,
            "value": 1
          },
          {
            "number": 64,
            "ticks": 79681,
            "time": 107.16589408333333,
            "value": 0
          },
          {
            "number": 64,
            "ticks": 79682,
            "time": 107.16719616666666,
            "value": 1
          },
          {
            "number": 64,
            "ticks": 80641,
            "time": 108.41589408333333,
            "value": 0
          },
          {
            "number": 64,
            "ticks": 80642,
            "time": 108.41719616666666,
            "value": 1
          },
          {
            "number": 64,
            "ticks": 81601,
            "time": 109.66589408333333,
            "value": 0
          },
          {
            "number": 64,
            "ticks": 81602,
            "time": 109.66719616666666,
            "value": 1
          },
          {
            "number": 64,
            "ticks": 82561,
            "time": 110.91589408333333,
            "value": 0
          },
          {
            "number": 64,
            "ticks": 82562,
            "time": 110.91719616666666,
            "value": 1
          },
          {
            "number": 64,
            "ticks": 83521,
            "time": 112.16589408333333,
            "value": 0
          },
          {
            "number": 64,
            "ticks": 83522,
            "time": 112.16719616666666,
            "value": 1
          },
          {
            "number": 64,
            "ticks": 83761,
            "time": 112.47839408333333,
            "value": 0
          },
          {
            "number": 64,
            "ticks": 83762,
            "time": 112.47969616666666,
            "value": 1
          },
          {
            "number": 64,
            "ticks": 84001,
            "time": 112.79089408333333,
            "value": 0
          },
          {
            "number": 64,
            "ticks": 84002,
            "time": 112.79219616666666,
            "value": 1
          },
          {
            "number": 64,
            "ticks": 84241,
            "time": 113.10339408333333,
            "value": 0
          },
          {
            "number": 64,
            "ticks": 84242,
            "time": 113.10469616666666,
            "value": 1
          },
          {
            "number": 64,
            "ticks": 84481,
            "time": 113.41589408333333,
            "value": 0
          },
          {
            "number": 64,
            "ticks": 84482,
            "time": 113.41719616666666,
            "value": 1
          },
          {
            "number": 64,
            "ticks": 85441,
            "time": 114.66589408333333,
            "value": 0
          },
          {
            "number": 64,
            "ticks": 85442,
            "time": 114.66719616666666,
            "value": 1
          },
          {
            "number": 64,
            "ticks": 86401,
            "time": 115.91589408333333,
            "value": 0
          },
          {
            "number": 64,
            "ticks": 86402,
            "time": 115.91719616666666,
            "value": 1
          },
          {
            "number": 64,
            "ticks": 87361,
            "time": 117.16589408333333,
            "value": 0
          },
          {
            "number": 64,
            "ticks": 87362,
            "time": 117.16719616666666,
            "value": 1
          },
          {
            "number": 64,
            "ticks": 88321,
            "time": 118.41589408333333,
            "value": 0
          },
          {
            "number": 64,
            "ticks": 88322,
            "time": 118.41719616666666,
            "value": 1
          },
          {
            "number": 64,
            "ticks": 89281,
            "time": 119.66589408333333,
            "value": 0
          },
          {
            "number": 64,
            "ticks": 89282,
            "time": 119.66719616666666,
            "value": 1
          },
          {
            "number": 64,
            "ticks": 90241,
            "time": 120.91589408333333,
            "value": 0
          },
          {
            "number": 64,
            "ticks": 90242,
            "time": 120.91719616666666,
            "value": 1
          },
          {
            "number": 64,
            "ticks": 90721,
            "time": 121.54089408333333,
            "value": 0
          },
          {
            "number": 64,
            "ticks": 90722,
            "time": 121.54219616666666,
            "value": 1
          },
          {
            "number": 64,
            "ticks": 91201,
            "time": 122.16589408333333,
            "value": 0
          },
          {
            "number": 64,
            "ticks": 91202,
            "time": 122.16719616666666,
            "value": 1
          },
          {
            "number": 64,
            "ticks": 92161,
            "time": 123.41589408333333,
            "value": 0
          },
          {
            "number": 64,
            "ticks": 124802,
            "time": 165.91719616666666,
            "value": 1
          },
          {
            "number": 64,
            "ticks": 125761,
            "time": 167.16589408333334,
            "value": 0
          },
          {
            "number": 64,
            "ticks": 125762,
            "time": 167.16719616666666,
            "value": 1
          },
          {
            "number": 64,
            "ticks": 126721,
            "time": 168.41589408333334,
            "value": 0
          },
          {
            "number": 64,
            "ticks": 126722,
            "time": 168.41719616666666,
            "value": 1
          },
          {
            "number": 64,
            "ticks": 127681,
            "time": 169.66589408333334,
            "value": 0
          },
          {
            "number": 64,
            "ticks": 127682,
            "time": 169.66719616666666,
            "value": 1
          },
          {
            "number": 64,
            "ticks": 128641,
            "time": 170.91589408333334,
            "value": 0
          },
          {
            "number": 64,
            "ticks": 128642,
            "time": 170.91719616666666,
            "value": 1
          },
          {
            "number": 64,
            "ticks": 129601,
            "time": 172.16589408333334,
            "value": 0
          },
          {
            "number": 64,
            "ticks": 129602,
            "time": 172.16719616666666,
            "value": 1
          },
          {
            "number": 64,
            "ticks": 130561,
            "time": 173.41589408333334,
            "value": 0
          },
          {
            "number": 64,
            "ticks": 130562,
            "time": 173.41719616666666,
            "value": 1
          },
          {
            "number": 64,
            "ticks": 131521,
            "time": 174.66589408333334,
            "value": 0
          },
          {
            "number": 64,
            "ticks": 131522,
            "time": 174.66719616666666,
            "value": 1
          },
          {
            "number": 64,
            "ticks": 131761,
            "time": 174.97839408333334,
            "value": 0
          },
          {
            "number": 64,
            "ticks": 131762,
            "time": 174.97969616666666,
            "value": 1
          },
          {
            "number": 64,
            "ticks": 132001,
            "time": 175.29089408333334,
            "value": 0
          },
          {
            "number": 64,
            "ticks": 132002,
            "time": 175.29219616666666,
            "value": 1
          },
          {
            "number": 64,
            "ticks": 132241,
            "time": 175.60339408333334,
            "value": 0
          },
          {
            "number": 64,
            "ticks": 132242,
            "time": 175.60469616666666,
            "value": 1
          },
          {
            "number": 64,
            "ticks": 132481,
            "time": 175.91589408333334,
            "value": 0
          },
          {
            "number": 64,
            "ticks": 132482,
            "time": 175.91719616666666,
            "value": 1
          },
          {
            "number": 64,
            "ticks": 133441,
            "time": 177.16589408333334,
            "value": 0
          },
          {
            "number": 64,
            "ticks": 133442,
            "time": 177.16719616666666,
            "value": 1
          },
          {
            "number": 64,
            "ticks": 134401,
            "time": 178.41589408333334,
            "value": 0
          },
          {
            "number": 64,
            "ticks": 134402,
            "time": 178.41719616666666,
            "value": 1
          },
          {
            "number": 64,
            "ticks": 135361,
            "time": 179.66589408333334,
            "value": 0
          },
          {
            "number": 64,
            "ticks": 135362,
            "time": 179.66719616666666,
            "value": 1
          },
          {
            "number": 64,
            "ticks": 136321,
            "time": 180.91589408333334,
            "value": 0
          },
          {
            "number": 64,
            "ticks": 136322,
            "time": 180.91719616666666,
            "value": 1
          },
          {
            "number": 64,
            "ticks": 137281,
            "time": 182.16589408333334,
            "value": 0
          },
          {
            "number": 64,
            "ticks": 137282,
            "time": 182.16719616666666,
            "value": 1
          },
          {
            "number": 64,
            "ticks": 138241,
            "time": 183.41589408333334,
            "value": 0
          },
          {
            "number": 64,
            "ticks": 138242,
            "time": 183.41719616666666,
            "value": 1
          },
          {
            "number": 64,
            "ticks": 138721,
            "time": 184.04089408333334,
            "value": 0
          },
          {
            "number": 64,
            "ticks": 138722,
            "time": 184.04219616666666,
            "value": 1
          },
          {
            "number": 64,
            "ticks": 139201,
            "time": 184.66589408333334,
            "value": 0
          },
          {
            "number": 64,
            "ticks": 139202,
            "time": 184.66719616666666,
            "value": 1
          },
          {
            "number": 64,
            "ticks": 140161,
            "time": 185.9161163875,
            "value": 0
          },
          {
            "number": 64,
            "ticks": 140162,
            "time": 185.917640775,
            "value": 1
          },
          {
            "number": 64,
            "ticks": 142081,
            "time": 188.8429403875,
            "value": 0
          },
          {
            "number": 64,
            "ticks": 142082,
            "time": 188.844464775,
            "value": 1
          },
          {
            "number": 64,
            "ticks": 144001,
            "time": 191.7697643875,
            "value": 0
          },
          {
            "number": 64,
            "ticks": 144002,
            "time": 191.771288775,
            "value": 1
          },
          {
            "number": 64,
            "ticks": 147841,
            "time": 197.6234123875,
            "value": 0
          },
          {
            "number": 64,
            "ticks": 147842,
            "time": 197.624936775,
            "value": 1
          },
          {
            "number": 64,
            "ticks": 149761,
            "time": 200.5502363875,
            "value": 0
          },
          {
            "number": 64,
            "ticks": 149762,
            "time": 200.551760775,
            "value": 1
          },
          {
            "number": 64,
            "ticks": 151681,
            "time": 203.4770603875,
            "value": 0
          },
          {
            "number": 64,
            "ticks": 151682,
            "time": 203.478584775,
            "value": 1
          },
          {
            "number": 64,
            "ticks": 153601,
            "time": 206.4038843875,
            "value": 0
          }
        ]
      },
      "instrument": {
        "family": "piano",
        "name": "acoustic grand piano",
        "number": 0
      },
      "name": "",
      "notes": [
        {
          "duration": 0.3460359625,
          "durationTicks": 227,
          "midi": 52,
          "name": "E3",
          "ticks": 0,
          "time": 0,
          "velocity": 0.6299212598425197
        },
        {
          "duration": 0.34603596250000007,
          "durationTicks": 227,
          "midi": 59,
          "name": "B3",
          "ticks": 240,
          "time": 0.36585300000000004,
          "velocity": 0.6299212598425197
        },
        {
          "duration": 0.3460359625000001,
          "durationTicks": 227,
          "midi": 64,
          "name": "E4",
          "ticks": 480,
          "time": 0.7317060000000001,
          "velocity": 0.6299212598425197
        },
        {
          "duration": 0.3460359625,
          "durationTicks": 227,
          "midi": 66,
          "name": "F#4",
          "ticks": 720,
          "time": 1.0975590000000002,
          "velocity": 0.6299212598425197
        },
        {
          "duration": 1.3887170125000001,
          "durationTicks": 911,
          "midi": 68,
          "name": "G#4",
          "ticks": 960,
          "time": 1.4634120000000002,
          "velocity": 0.6299212598425197
        },
        {
          "duration": 0.3460359624999998,
          "durationTicks": 227,
          "midi": 54,
          "name": "F#3",
          "ticks": 1920,
          "time": 2.9268240000000003,
          "velocity": 0.6299212598425197
        },
        {
          "duration": 0.3460359624999998,
          "durationTicks": 227,
          "midi": 61,
          "name": "C#4",
          "ticks": 2160,
          "time": 3.2926770000000003,
          "velocity": 0.6299212598425197
        },
        {
          "duration": 0.3460359624999998,
          "durationTicks": 227,
          "midi": 66,
          "name": "F#4",
          "ticks": 2400,
          "time": 3.6585300000000003,
          "velocity": 0.6299212598425197
        },
        {
          "duration": 0.34603596250000024,
          "durationTicks": 227,
          "midi": 68,
          "name": "G#4",
          "ticks": 2640,
          "time": 4.024383,
          "velocity": 0.6299212598425197
        },
        {
          "duration": 1.3887170125,
          "durationTicks": 911,
          "midi": 70,
          "name": "A#4",
          "ticks": 2880,
          "time": 4.390236000000001,
          "velocity": 0.6299212598425197
        },
        {
          "duration": 0.34603596250000024,
          "durationTicks": 227,
          "midi": 56,
          "name": "G#3",
          "ticks": 3840,
          "time": 5.853648000000001,
          "velocity": 0.6299212598425197
        },
        {
          "duration": 0.34603596249999935,
          "durationTicks": 227,
          "midi": 63,
          "name": "D#4",
          "ticks": 4080,
          "time": 6.219501000000001,
          "velocity": 0.6299212598425197
        },
        {
          "duration": 0.34603596250000024,
          "durationTicks": 227,
          "midi": 68,
          "name": "G#4",
          "ticks": 4320,
          "time": 6.585354000000001,
          "velocity": 0.6299212598425197
        },
        {
          "duration": 0.34603596249999935,
          "durationTicks": 227,
          "midi": 70,
          "name": "A#4",
          "ticks": 4560,
          "time": 6.951207000000001,
          "velocity": 0.6299212598425197
        },
        {
          "duration": 1.3887170125,
          "durationTicks": 911,
          "midi": 71,
          "name": "B4",
          "ticks": 4800,
          "time": 7.317060000000001,
          "velocity": 0.6299212598425197
        },
        {
          "duration": 0.34603596250000024,
          "durationTicks": 227,
          "midi": 52,
          "name": "E3",
          "ticks": 7680,
          "time": 11.707296000000001,
          "velocity": 0.6299212598425197
        },
        {
          "duration": 0.34603596250000024,
          "durationTicks": 227,
          "midi": 59,
          "name": "B3",
          "ticks": 7920,
          "time": 12.073149,
          "velocity": 0.6299212598425197
        },
        {
          "duration": 0.34603596249999846,
          "durationTicks": 227,
          "midi": 64,
          "name": "E4",
          "ticks": 8160,
          "time": 12.439002000000002,
          "velocity": 0.6299212598425197
        },
        {
          "duration": 0.34603596250000024,
          "durationTicks": 227,
          "midi": 66,
          "name": "F#4",
          "ticks": 8400,
          "time": 12.804855000000002,
          "velocity": 0.6299212598425197
        },
        {
          "duration": 1.3887170125000008,
          "durationTicks": 911,
          "midi": 68,
          "name": "G#4",
          "ticks": 8640,
          "time": 13.170708000000001,
          "velocity": 0.6299212598425197
        },
        {
          "duration": 0.34603596250000024,
          "durationTicks": 227,
          "midi": 54,
          "name": "F#3",
          "ticks": 9600,
          "time": 14.634120000000001,
          "velocity": 0.6299212598425197
        },
        {
          "duration": 0.34603596249999846,
          "durationTicks": 227,
          "midi": 61,
          "name": "C#4",
          "ticks": 9840,
          "time": 14.999973000000002,
          "velocity": 0.6299212598425197
        },
        {
          "duration": 0.34603596250000024,
          "durationTicks": 227,
          "midi": 66,
          "name": "F#4",
          "ticks": 10080,
          "time": 15.365826000000002,
          "velocity": 0.6299212598425197
        },
        {
          "duration": 0.34603596249999846,
          "durationTicks": 227,
          "midi": 68,
          "name": "G#4",
          "ticks": 10320,
          "time": 15.731679000000002,
          "velocity": 0.6299212598425197
        },
        {
          "duration": 1.3887170125000026,
          "durationTicks": 911,
          "midi": 70,
          "name": "A#4",
          "ticks": 10560,
          "time": 16.097532,
          "velocity": 0.6299212598425197
        },
        {
          "duration": 0.34603596250000024,
          "durationTicks": 227,
          "midi": 56,
          "name": "G#3",
          "ticks": 11520,
          "time": 17.560944000000003,
          "velocity": 0.6299212598425197
        },
        {
          "duration": 0.34603596250000024,
          "durationTicks": 227,
          "midi": 63,
          "name": "D#4",
          "ticks": 11760,
          "time": 17.926797,
          "velocity": 0.6299212598425197
        },
        {
          "duration": 0.34603596250000024,
          "durationTicks": 227,
          "midi": 68,
          "name": "G#4",
          "ticks": 12000,
          "time": 18.292650000000002,
          "velocity": 0.6299212598425197
        },
        {
          "duration": 0.34603596250000024,
          "durationTicks": 227,
          "midi": 70,
          "name": "A#4",
          "ticks": 12240,
          "time": 18.658503000000003,
          "velocity": 0.6299212598425197
        },
        {
          "duration": 1.3887170125000026,
          "durationTicks": 911,
          "midi": 71,
          "name": "B4",
          "ticks": 12480,
          "time": 19.024356,
          "velocity": 0.6299212598425197
        },
        {
          "duration": 2.925299612499998,
          "durationTicks": 1919,
          "midi": 56,
          "name": "G#3",
          "ticks": 13440,
          "time": 20.487768000000003,
          "velocity": 0.6299212598425197
        },
        {
          "duration": 2.827738812499998,
          "durationTicks": 1855,
          "midi": 63,
          "name": "D#4",
          "ticks": 13503,
          "time": 20.583804412500005,
          "velocity": 0.6299212598425197
        },
        {
          "duration": 2.7317023999999996,
          "durationTicks": 1792,
          "midi": 68,
          "name": "G#4",
          "ticks": 13566,
          "time": 20.679840825000003,
          "velocity": 0.6299212598425197
        },
        {
          "duration": 0.5924479166666679,
          "durationTicks": 455,
          "midi": 59,
          "name": "B3",
          "ticks": 15600,
          "time": 23.727092000000003,
          "velocity": 0.6299212598425197
        },
        {
          "duration": 0.29557291666666785,
          "durationTicks": 227,
          "midi": 54,
          "name": "F#3",
          "ticks": 16320,
          "time": 24.664592000000003,
          "velocity": 0.6299212598425197
        },
        {
          "duration": 0.29557291666666785,
          "durationTicks": 227,
          "midi": 61,
          "name": "C#4",
          "ticks": 16560,
          "time": 24.977092000000003,
          "velocity": 0.6299212598425197
        },
        {
          "duration": 0.5924479166666679,
          "durationTicks": 455,
          "midi": 66,
          "name": "F#4",
          "ticks": 16800,
          "time": 25.289592000000003,
          "velocity": 0.6299212598425197
        },
        {
          "duration": 0.29557291666666785,
          "durationTicks": 227,
          "midi": 51,
          "name": "D#3",
          "ticks": 17280,
          "time": 25.914592000000003,
          "velocity": 0.6299212598425197
        },
        {
          "duration": 0.29557291666666785,
          "durationTicks": 227,
          "midi": 58,
          "name": "A#3",
          "ticks": 17520,
          "time": 26.227092000000003,
          "velocity": 0.6299212598425197
        },
        {
          "duration": 0.29557291666666785,
          "durationTicks": 227,
          "midi": 63,
          "name": "D#4",
          "ticks": 17760,
          "time": 26.539592000000003,
          "velocity": 0.6299212598425197
        },
        {
          "duration": 0.29557291666666785,
          "durationTicks": 227,
          "midi": 66,
          "name": "F#4",
          "ticks": 18000,
          "time": 26.852092000000003,
          "velocity": 0.6299212598425197
        },
        {
          "duration": 0.29557291666666785,
          "durationTicks": 227,
          "midi": 56,
          "name": "G#3",
          "ticks": 18240,
          "time": 27.164592000000003,
          "velocity": 0.6299212598425197
        },
        {
          "duration": 0.29557291666666785,
          "durationTicks": 227,
          "midi": 63,
          "name": "D#4",
          "ticks": 18480,
          "time": 27.477092000000003,
          "velocity": 0.6299212598425197
        },
        {
          "duration": 0.29557291666666785,
          "durationTicks": 227,
          "midi": 68,
          "name": "G#4",
          "ticks": 18720,
          "time": 27.789592000000003,
          "velocity": 0.6299212598425197
        },
        {
          "duration": 0.29557291666666785,
          "durationTicks": 227,
          "midi": 63,
          "name": "D#4",
          "ticks": 18960,
          "time": 28.102092000000003,
          "velocity": 0.6299212598425197
        },
        {
          "duration": 0.29557291666666785,
          "durationTicks": 227,
          "midi": 52,
          "name": "E3",
          "ticks": 19200,
          "time": 28.414592000000003,
          "velocity": 0.6299212598425197
        },
        {
          "duration": 0.29557291666666785,
          "durationTicks": 227,
          "midi": 59,
          "name": "B3",
          "ticks": 19440,
          "time": 28.727092000000003,
          "velocity": 0.6299212598425197
        },
        {
          "duration": 0.29557291666666785,
          "durationTicks": 227,
          "midi": 64,
          "name": "E4",
          "ticks": 19680,
          "time": 29.039592000000003,
          "velocity": 0.6299212598425197
        },
        {
          "duration": 0.29557291666666785,
          "durationTicks": 227,
          "midi": 59,
          "name": "B3",
          "ticks": 19920,
          "time": 29.352092000000003,
          "velocity": 0.6299212598425197
        },
        {
          "duration": 0.29557291666666785,
          "durationTicks": 227,
          "midi": 54,
          "name": "F#3",
          "ticks": 20160,
          "time": 29.664592000000003,
          "velocity": 0.6299212598425197
        },
        {
          "duration": 0.29557291666666785,
          "durationTicks": 227,
          "midi": 61,
          "name": "C#4",
          "ticks": 20400,
          "time": 29.977092000000003,
          "velocity": 0.6299212598425197
        },
        {
          "duration": 0.29557291666666785,
          "durationTicks": 227,
          "midi": 66,
          "name": "F#4",
          "ticks": 20640,
          "time": 30.289592000000003,
          "velocity": 0.6299212598425197
        },
        {
          "duration": 0.29557291666666785,
          "durationTicks": 227,
          "midi": 61,
          "name": "C#4",
          "ticks": 20880,
          "time": 30.602092000000003,
          "velocity": 0.6299212598425197
        },
        {
          "duration": 0.2955729166666714,
          "durationTicks": 227,
          "midi": 52,
          "name": "E3",
          "ticks": 23040,
          "time": 33.414592,
          "velocity": 0.6299212598425197
        },
        {
          "duration": 0.5924479166666714,
          "durationTicks": 455,
          "midi": 59,
          "name": "B3",
          "ticks": 23280,
          "time": 33.727092,
          "velocity": 0.6299212598425197
        },
        {
          "duration": 0.2955729166666714,
          "durationTicks": 227,
          "midi": 54,
          "name": "F#3",
          "ticks": 24000,
          "time": 34.664592,
          "velocity": 0.6299212598425197
        },
        {
          "duration": 0.2955729166666714,
          "durationTicks": 227,
          "midi": 61,
          "name": "C#4",
          "ticks": 24240,
          "time": 34.977092,
          "velocity": 0.6299212598425197
        },
        {
          "duration": 0.5924479166666714,
          "durationTicks": 455,
          "midi": 66,
          "name": "F#4",
          "ticks": 24480,
          "time": 35.289592,
          "velocity": 0.6299212598425197
        },
        {
          "duration": 0.2955729166666714,
          "durationTicks": 227,
          "midi": 51,
          "name": "D#3",
          "ticks": 24960,
          "time": 35.914592,
          "velocity": 0.6299212598425197
        },
        {
          "duration": 0.2955729166666714,
          "durationTicks": 227,
          "midi": 58,
          "name": "A#3",
          "ticks": 25200,
          "time": 36.227092,
          "velocity": 0.6299212598425197
        },
        {
          "duration": 0.5924479166666714,
          "durationTicks": 455,
          "midi": 63,
          "name": "D#4",
          "ticks": 25440,
          "time": 36.539592,
          "velocity": 0.6299212598425197
        },
        {
          "duration": 0.2955729166666714,
          "durationTicks": 227,
          "midi": 56,
          "name": "G#3",
          "ticks": 25920,
          "time": 37.164592,
          "velocity": 0.6299212598425197
        },
        {
          "duration": 0.2955729166666714,
          "durationTicks": 227,
          "midi": 63,
          "name": "D#4",
          "ticks": 26160,
          "time": 37.477092,
          "velocity": 0.6299212598425197
        },
        {
          "duration": 0.5924479166666714,
          "durationTicks": 455,
          "midi": 68,
          "name": "G#4",
          "ticks": 26400,
          "time": 37.789592,
          "velocity": 0.6299212598425197
        },
        {
          "duration": 0.2955729166666714,
          "durationTicks": 227,
          "midi": 52,
          "name": "E3",
          "ticks": 26880,
          "time": 38.414592,
          "velocity": 0.6299212598425197
        },
        {
          "duration": 0.2955729166666714,
          "durationTicks": 227,
          "midi": 59,
          "name": "B3",
          "ticks": 27120,
          "time": 38.727092,
          "velocity": 0.6299212598425197
        },
        {
          "duration": 0.5924479166666714,
          "durationTicks": 455,
          "midi": 64,
          "name": "E4",
          "ticks": 27360,
          "time": 39.039592,
          "velocity": 0.6299212598425197
        },
        {
          "duration": 0.2955729166666714,
          "durationTicks": 227,
          "midi": 54,
          "name": "F#3",
          "ticks": 27840,
          "time": 39.664592,
          "velocity": 0.6299212598425197
        },
        {
          "duration": 0.2955729166666714,
          "durationTicks": 227,
          "midi": 61,
          "name": "C#4",
          "ticks": 28080,
          "time": 39.977092,
          "velocity": 0.6299212598425197
        },
        {
          "duration": 0.5924479166666714,
          "durationTicks": 455,
          "midi": 66,
          "name": "F#4",
          "ticks": 28320,
          "time": 40.289592,
          "velocity": 0.6299212598425197
        },
        {
          "duration": 0.2955729166666714,
          "durationTicks": 227,
          "midi": 56,
          "name": "G#3",
          "ticks": 28800,
          "time": 40.914592,
          "velocity": 0.6299212598425197
        },
        {
          "duration": 0.2955729166666714,
          "durationTicks": 227,
          "midi": 63,
          "name": "D#4",
          "ticks": 29040,
          "time": 41.227092,
          "velocity": 0.6299212598425197
        },
        {
          "duration": 0.2955729166666714,
          "durationTicks": 227,
          "midi": 68,
          "name": "G#4",
          "ticks": 29280,
          "time": 41.539592,
          "velocity": 0.6299212598425197
        },
        {
          "duration": 0.2955729166666714,
          "durationTicks": 227,
          "midi": 70,
          "name": "A#4",
          "ticks": 29520,
          "time": 41.852092,
          "velocity": 0.6299212598425197
        },
        {
          "duration": 0.5924479166666714,
          "durationTicks": 455,
          "midi": 72,
          "name": "C5",
          "ticks": 29760,
          "time": 42.164592,
          "velocity": 0.6299212598425197
        },
        {
          "duration": 0.1471354166666714,
          "durationTicks": 113,
          "midi": 44,
          "name": "G#2",
          "ticks": 30720,
          "time": 43.414592,
          "velocity": 0.6299212598425197
        },
        {
          "duration": 0.1471354166666714,
          "durationTicks": 113,
          "midi": 51,
          "name": "D#3",
          "ticks": 30840,
          "time": 43.570842,
          "velocity": 0.6299212598425197
        },
        {
          "duration": 0.1471354166666714,
          "durationTicks": 113,
          "midi": 56,
          "name": "G#3",
          "ticks": 30960,
          "time": 43.727092,
          "velocity": 0.6299212598425197
        },
        {
          "duration": 0.1471354166666714,
          "durationTicks": 113,
          "midi": 58,
          "name": "A#3",
          "ticks": 31080,
          "time": 43.883342,
          "velocity": 0.6299212598425197
        },
        {
          "duration": 0.2955729166666714,
          "durationTicks": 227,
          "midi": 59,
          "name": "B3",
          "ticks": 31200,
          "time": 44.039592,
          "velocity": 0.6299212598425197
        },
        {
          "duration": 0.2955729166666714,
          "durationTicks": 227,
          "midi": 63,
          "name": "D#4",
          "ticks": 31440,
          "time": 44.352092,
          "velocity": 0.6299212598425197
        },
        {
          "duration": 0.2955729166666714,
          "durationTicks": 227,
          "midi": 51,
          "name": "D#3",
          "ticks": 31680,
          "time": 44.664592,
          "velocity": 0.6299212598425197
        },
        {
          "duration": 0.2955729166666714,
          "durationTicks": 227,
          "midi": 58,
          "name": "A#3",
          "ticks": 31920,
          "time": 44.977092,
          "velocity": 0.6299212598425197
        },
        {
          "duration": 0.5924479166666714,
          "durationTicks": 455,
          "midi": 63,
          "name": "D#4",
          "ticks": 32160,
          "time": 45.289592,
          "velocity": 0.6299212598425197
        },
        {
          "duration": 0.5924479166666714,
          "durationTicks": 455,
          "midi": 66,
          "name": "F#4",
          "ticks": 32160,
          "time": 45.289592,
          "velocity": 0.6299212598425197
        },
        {
          "duration": 0.1471354166666714,
          "durationTicks": 113,
          "midi": 40,
          "name": "E2",
          "ticks": 32640,
          "time": 45.914592,
          "velocity": 0.6299212598425197
        },
        {
          "duration": 0.1471354166666714,
          "durationTicks": 113,
          "midi": 47,
          "name": "B2",
          "ticks": 32760,
          "time": 46.070842,
          "velocity": 0.6299212598425197
        },
        {
          "duration": 0.1471354166666714,
          "durationTicks": 113,
          "midi": 52,
          "name": "E3",
          "ticks": 32880,
          "time": 46.227092,
          "velocity": 0.6299212598425197
        },
        {
          "duration": 0.1471354166666714,
          "durationTicks": 113,
          "midi": 54,
          "name": "F#3",
          "ticks": 33000,
          "time": 46.383342,
          "velocity": 0.6299212598425197
        },
        {
          "duration": 0.2955729166666714,
          "durationTicks": 227,
          "midi": 56,
          "name": "G#3",
          "ticks": 33120,
          "time": 46.539592,
          "velocity": 0.6299212598425197
        },
        {
          "duration": 0.2955729166666714,
          "durationTicks": 227,
          "midi": 59,
          "name": "B3",
          "ticks": 33360,
          "time": 46.852092,
          "velocity": 0.6299212598425197
        },
        {
          "duration": 0.2955729166666714,
          "durationTicks": 227,
          "midi": 47,
          "name": "B2",
          "ticks": 33600,
          "time": 47.164592,
          "velocity": 0.6299212598425197
        },
        {
          "duration": 0.2955729166666714,
          "durationTicks": 227,
          "midi": 54,
          "name": "F#3",
          "ticks": 33840,
          "time": 47.477092,
          "velocity": 0.6299212598425197
        },
        {
          "duration": 0.5924479166666714,
          "durationTicks": 455,
          "midi": 59,
          "name": "B3",
          "ticks": 34080,
          "time": 47.789592,
          "velocity": 0.6299212598425197
        },
        {
          "duration": 0.5924479166666714,
          "durationTicks": 455,
          "midi": 63,
          "name": "D#4",
          "ticks": 34080,
          "time": 47.789592,
          "velocity": 0.6299212598425197
        },
        {
          "duration": 0.2955729166666714,
          "durationTicks": 227,
          "midi": 37,
          "name": "C#2",
          "ticks": 34560,
          "time": 48.414592,
          "velocity": 0.6299212598425197
        },
        {
          "duration": 0.2955729166666714,
          "durationTicks": 227,
          "midi": 49,
          "name": "C#3",
          "ticks": 34560,
          "time": 48.414592,
          "velocity": 0.6299212598425197
        },
        {
          "duration": 0.2955729166666714,
          "durationTicks": 227,
          "midi": 56,
          "name": "G#3",
          "ticks": 34800,
          "time": 48.727092,
          "velocity": 0.6299212598425197
        },
        {
          "duration": 0.1471354166666714,
          "durationTicks": 113,
          "midi": 64,
          "name": "E4",
          "ticks": 35040,
          "time": 49.039592,
          "velocity": 0.6299212598425197
        },
        {
          "duration": 0.1471354166666714,
          "durationTicks": 113,
          "midi": 63,
          "name": "D#4",
          "ticks": 35160,
          "time": 49.195842,
          "velocity": 0.6299212598425197
        },
        {
          "duration": 0.1471354166666714,
          "durationTicks": 113,
          "midi": 61,
          "name": "C#4",
          "ticks": 35280,
          "time": 49.352092,
          "velocity": 0.6299212598425197
        },
        {
          "duration": 0.1471354166666714,
          "durationTicks": 113,
          "midi": 59,
          "name": "B3",
          "ticks": 35400,
          "time": 49.508342,
          "velocity": 0.6299212598425197
        },
        {
          "duration": 0.2955729166666714,
          "durationTicks": 227,
          "midi": 32,
          "name": "G#1",
          "ticks": 35520,
          "time": 49.664592,
          "velocity": 0.6299212598425197
        },
        {
          "duration": 0.2955729166666714,
          "durationTicks": 227,
          "midi": 44,
          "name": "G#2",
          "ticks": 35520,
          "time": 49.664592,
          "velocity": 0.6299212598425197
        },
        {
          "duration": 0.2955729166666714,
          "durationTicks": 227,
          "midi": 39,
          "name": "D#2",
          "ticks": 35760,
          "time": 49.977092,
          "velocity": 0.6299212598425197
        },
        {
          "duration": 0.1471354166666714,
          "durationTicks": 113,
          "midi": 51,
          "name": "D#3",
          "ticks": 36000,
          "time": 50.289592,
          "velocity": 0.6299212598425197
        },
        {
          "duration": 0.1471354166666714,
          "durationTicks": 113,
          "midi": 49,
          "name": "C#3",
          "ticks": 36120,
          "time": 50.445842,
          "velocity": 0.6299212598425197
        },
        {
          "duration": 0.1471354166666714,
          "durationTicks": 113,
          "midi": 47,
          "name": "B2",
          "ticks": 36240,
          "time": 50.602092,
          "velocity": 0.6299212598425197
        },
        {
          "duration": 0.1471354166666714,
          "durationTicks": 113,
          "midi": 46,
          "name": "A#2",
          "ticks": 36360,
          "time": 50.758342,
          "velocity": 0.6299212598425197
        },
        {
          "duration": 0.2955729166666714,
          "durationTicks": 227,
          "midi": 34,
          "name": "A#1",
          "ticks": 36480,
          "time": 50.914592,
          "velocity": 0.6299212598425197
        },
        {
          "duration": 0.2955729166666714,
          "durationTicks": 227,
          "midi": 46,
          "name": "A#2",
          "ticks": 36480,
          "time": 50.914592,
          "velocity": 0.6299212598425197
        },
        {
          "duration": 0.2955729166666714,
          "durationTicks": 227,
          "midi": 52,
          "name": "E3",
          "ticks": 36720,
          "time": 51.227092,
          "velocity": 0.6299212598425197
        },
        {
          "duration": 0.2955729166666714,
          "durationTicks": 227,
          "midi": 58,
          "name": "A#3",
          "ticks": 36960,
          "time": 51.539592,
          "velocity": 0.6299212598425197
        },
        {
          "duration": 0.2955729166666714,
          "durationTicks": 227,
          "midi": 61,
          "name": "C#4",
          "ticks": 36960,
          "time": 51.539592,
          "velocity": 0.6299212598425197
        },
        {
          "duration": 0.2955729166666714,
          "durationTicks": 227,
          "midi": 52,
          "name": "E3",
          "ticks": 37200,
          "time": 51.852092,
          "velocity": 0.6299212598425197
        },
        {
          "duration": 0.2955729166666714,
          "durationTicks": 227,
          "midi": 49,
          "name": "C#3",
          "ticks": 37440,
          "time": 52.164592,
          "velocity": 0.6299212598425197
        },
        {
          "duration": 0.2955729166666714,
          "durationTicks": 227,
          "midi": 61,
          "name": "C#4",
          "ticks": 37440,
          "time": 52.164592,
          "velocity": 0.6299212598425197
        },
        {
          "duration": 0.2955729166666714,
          "durationTicks": 227,
          "midi": 47,
          "name": "B2",
          "ticks": 37680,
          "time": 52.477092,
          "velocity": 0.6299212598425197
        },
        {
          "duration": 0.2955729166666714,
          "durationTicks": 227,
          "midi": 59,
          "name": "B3",
          "ticks": 37680,
          "time": 52.477092,
          "velocity": 0.6299212598425197
        },
        {
          "duration": 0.2955729166666714,
          "durationTicks": 227,
          "midi": 46,
          "name": "A#2",
          "ticks": 37920,
          "time": 52.789592,
          "velocity": 0.6299212598425197
        },
        {
          "duration": 0.2955729166666714,
          "durationTicks": 227,
          "midi": 58,
          "name": "A#3",
          "ticks": 37920,
          "time": 52.789592,
          "velocity": 0.6299212598425197
        },
        {
          "duration": 0.2955729166666714,
          "durationTicks": 227,
          "midi": 39,
          "name": "D#2",
          "ticks": 38160,
          "time": 53.102092,
          "velocity": 0.6299212598425197
        },
        {
          "duration": 0.2955729166666714,
          "durationTicks": 227,
          "midi": 51,
          "name": "D#3",
          "ticks": 38160,
          "time": 53.102092,
          "velocity": 0.6299212598425197
        },
        {
          "duration": 0.1471354166666714,
          "durationTicks": 113,
          "midi": 44,
          "name": "G#2",
          "ticks": 38400,
          "time": 53.414592,
          "velocity": 0.6299212598425197
        },
        {
          "duration": 0.1471354166666714,
          "durationTicks": 113,
          "midi": 51,
          "name": "D#3",
          "ticks": 38520,
          "time": 53.570842,
          "velocity": 0.6299212598425197
        },
        {
          "duration": 0.1471354166666714,
          "durationTicks": 113,
          "midi": 56,
          "name": "G#3",
          "ticks": 38640,
          "time": 53.727092,
          "velocity": 0.6299212598425197
        },
        {
          "duration": 0.1471354166666714,
          "durationTicks": 113,
          "midi": 58,
          "name": "A#3",
          "ticks": 38760,
          "time": 53.883342,
          "velocity": 0.6299212598425197
        },
        {
          "duration": 0.1471354166666714,
          "durationTicks": 113,
          "midi": 59,
          "name": "B3",
          "ticks": 38880,
          "time": 54.039592,
          "velocity": 0.6299212598425197
        },
        {
          "duration": 0.1471354166666714,
          "durationTicks": 113,
          "midi": 58,
          "name": "A#3",
          "ticks": 39000,
          "time": 54.195842,
          "velocity": 0.6299212598425197
        },
        {
          "duration": 0.1471354166666714,
          "durationTicks": 113,
          "midi": 56,
          "name": "G#3",
          "ticks": 39120,
          "time": 54.352092,
          "velocity": 0.6299212598425197
        },
        {
          "duration": 0.1471354166666714,
          "durationTicks": 113,
          "midi": 51,
          "name": "D#3",
          "ticks": 39240,
          "time": 54.508342,
          "velocity": 0.6299212598425197
        },
        {
          "duration": 0.2955729166666714,
          "durationTicks": 227,
          "midi": 39,
          "name": "D#2",
          "ticks": 39360,
          "time": 54.664592,
          "velocity": 0.6299212598425197
        },
        {
          "duration": 0.2955729166666714,
          "durationTicks": 227,
          "midi": 46,
          "name": "A#2",
          "ticks": 39600,
          "time": 54.977092,
          "velocity": 0.6299212598425197
        },
        {
          "duration": 0.2955729166666714,
          "durationTicks": 227,
          "midi": 51,
          "name": "D#3",
          "ticks": 39840,
          "time": 55.289592,
          "velocity": 0.6299212598425197
        },
        {
          "duration": 0.2955729166666714,
          "durationTicks": 227,
          "midi": 46,
          "name": "A#2",
          "ticks": 40080,
          "time": 55.602092,
          "velocity": 0.6299212598425197
        },
        {
          "duration": 0.1471354166666714,
          "durationTicks": 113,
          "midi": 40,
          "name": "E2",
          "ticks": 40320,
          "time": 55.914592,
          "velocity": 0.6299212598425197
        },
        {
          "duration": 0.1471354166666714,
          "durationTicks": 113,
          "midi": 47,
          "name": "B2",
          "ticks": 40440,
          "time": 56.070842,
          "velocity": 0.6299212598425197
        },
        {
          "duration": 0.1471354166666714,
          "durationTicks": 113,
          "midi": 52,
          "name": "E3",
          "ticks": 40560,
          "time": 56.227092,
          "velocity": 0.6299212598425197
        },
        {
          "duration": 0.1471354166666714,
          "durationTicks": 113,
          "midi": 54,
          "name": "F#3",
          "ticks": 40680,
          "time": 56.383342,
          "velocity": 0.6299212598425197
        },
        {
          "duration": 0.1471354166666714,
          "durationTicks": 113,
          "midi": 56,
          "name": "G#3",
          "ticks": 40800,
          "time": 56.539592,
          "velocity": 0.6299212598425197
        },
        {
          "duration": 0.1471354166666714,
          "durationTicks": 113,
          "midi": 54,
          "name": "F#3",
          "ticks": 40920,
          "time": 56.695842,
          "velocity": 0.6299212598425197
        },
        {
          "duration": 0.1471354166666714,
          "durationTicks": 113,
          "midi": 52,
          "name": "E3",
          "ticks": 41040,
          "time": 56.852092,
          "velocity": 0.6299212598425197
        },
        {
          "duration": 0.1471354166666714,
          "durationTicks": 113,
          "midi": 47,
          "name": "B2",
          "ticks": 41160,
          "time": 57.008342,
          "velocity": 0.6299212598425197
        },
        {
          "duration": 0.2955729166666714,
          "durationTicks": 227,
          "midi": 35,
          "name": "B1",
          "ticks": 41280,
          "time": 57.164592,
          "velocity": 0.6299212598425197
        },
        {
          "duration": 0.2955729166666714,
          "durationTicks": 227,
          "midi": 42,
          "name": "F#2",
          "ticks": 41520,
          "time": 57.477092,
          "velocity": 0.6299212598425197
        },
        {
          "duration": 0.2955729166666714,
          "durationTicks": 227,
          "midi": 47,
          "name": "B2",
          "ticks": 41760,
          "time": 57.789592,
          "velocity": 0.6299212598425197
        },
        {
          "duration": 0.2955729166666714,
          "durationTicks": 227,
          "midi": 42,
          "name": "F#2",
          "ticks": 42000,
          "time": 58.102092,
          "velocity": 0.6299212598425197
        },
        {
          "duration": 0.1471354166666714,
          "durationTicks": 113,
          "midi": 37,
          "name": "C#2",
          "ticks": 42240,
          "time": 58.414592,
          "velocity": 0.6299212598425197
        },
        {
          "duration": 0.1471354166666714,
          "durationTicks": 113,
          "midi": 44,
          "name": "G#2",
          "ticks": 42360,
          "time": 58.570842,
          "velocity": 0.6299212598425197
        },
        {
          "duration": 0.1471354166666714,
          "durationTicks": 113,
          "midi": 49,
          "name": "C#3",
          "ticks": 42480,
          "time": 58.727092,
          "velocity": 0.6299212598425197
        },
        {
          "duration": 0.1471354166666714,
          "durationTicks": 113,
          "midi": 51,
          "name": "D#3",
          "ticks": 42600,
          "time": 58.883342,
          "velocity": 0.6299212598425197
        },
        {
          "duration": 0.1471354166666714,
          "durationTicks": 113,
          "midi": 52,
          "name": "E3",
          "ticks": 42720,
          "time": 59.039592,
          "velocity": 0.6299212598425197
        },
        {
          "duration": 0.1471354166666714,
          "durationTicks": 113,
          "midi": 51,
          "name": "D#3",
          "ticks": 42840,
          "time": 59.195842,
          "velocity": 0.6299212598425197
        },
        {
          "duration": 0.1471354166666714,
          "durationTicks": 113,
          "midi": 49,
          "name": "C#3",
          "ticks": 42960,
          "time": 59.352092,
          "velocity": 0.6299212598425197
        },
        {
          "duration": 0.1471354166666714,
          "durationTicks": 113,
          "midi": 44,
          "name": "G#2",
          "ticks": 43080,
          "time": 59.508342,
          "velocity": 0.6299212598425197
        },
        {
          "duration": 0.1471354166666714,
          "durationTicks": 113,
          "midi": 32,
          "name": "G#1",
          "ticks": 43200,
          "time": 59.664592,
          "velocity": 0.6299212598425197
        },
        {
          "duration": 0.1471354166666714,
          "durationTicks": 113,
          "midi": 39,
          "name": "D#2",
          "ticks": 43320,
          "time": 59.820842,
          "velocity": 0.6299212598425197
        },
        {
          "duration": 0.1471354166666714,
          "durationTicks": 113,
          "midi": 44,
          "name": "G#2",
          "ticks": 43440,
          "time": 59.977092,
          "velocity": 0.6299212598425197
        },
        {
          "duration": 0.1471354166666714,
          "durationTicks": 113,
          "midi": 46,
          "name": "A#2",
          "ticks": 43560,
          "time": 60.133342,
          "velocity": 0.6299212598425197
        },
        {
          "duration": 0.1471354166666714,
          "durationTicks": 113,
          "midi": 47,
          "name": "B2",
          "ticks": 43680,
          "time": 60.289592,
          "velocity": 0.6299212598425197
        },
        {
          "duration": 0.1471354166666714,
          "durationTicks": 113,
          "midi": 49,
          "name": "C#3",
          "ticks": 43800,
          "time": 60.445842,
          "velocity": 0.6299212598425197
        },
        {
          "duration": 0.2955729166666714,
          "durationTicks": 227,
          "midi": 51,
          "name": "D#3",
          "ticks": 43920,
          "time": 60.602092,
          "velocity": 0.6299212598425197
        },
        {
          "duration": 0.5924479166666714,
          "durationTicks": 455,
          "midi": 37,
          "name": "C#2",
          "ticks": 44160,
          "time": 60.914592,
          "velocity": 0.6299212598425197
        },
        {
          "duration": 0.5924479166666714,
          "durationTicks": 455,
          "midi": 49,
          "name": "C#3",
          "ticks": 44160,
          "time": 60.914592,
          "velocity": 0.6299212598425197
        },
        {
          "duration": 0.4440104166666714,
          "durationTicks": 341,
          "midi": 34,
          "name": "A#1",
          "ticks": 44640,
          "time": 61.539592,
          "velocity": 0.6299212598425197
        },
        {
          "duration": 0.4440104166666714,
          "durationTicks": 341,
          "midi": 46,
          "name": "A#2",
          "ticks": 44640,
          "time": 61.539592,
          "velocity": 0.6299212598425197
        },
        {
          "duration": 0.1471354166666714,
          "durationTicks": 113,
          "midi": 32,
          "name": "G#1",
          "ticks": 45000,
          "time": 62.008342,
          "velocity": 0.6299212598425197
        },
        {
          "duration": 0.1471354166666714,
          "durationTicks": 113,
          "midi": 44,
          "name": "G#2",
          "ticks": 45000,
          "time": 62.008342,
          "velocity": 0.6299212598425197
        },
        {
          "duration": 0.2955729166666714,
          "durationTicks": 227,
          "midi": 32,
          "name": "G#1",
          "ticks": 45120,
          "time": 62.164592,
          "velocity": 0.6299212598425197
        },
        {
          "duration": 0.2955729166666714,
          "durationTicks": 227,
          "midi": 44,
          "name": "G#2",
          "ticks": 45120,
          "time": 62.164592,
          "velocity": 0.6299212598425197
        },
        {
          "duration": 0.2955729166666714,
          "durationTicks": 227,
          "midi": 51,
          "name": "D#3",
          "ticks": 45360,
          "time": 62.477092,
          "velocity": 0.6299212598425197
        },
        {
          "duration": 0.5924479166666714,
          "durationTicks": 455,
          "midi": 56,
          "name": "G#3",
          "ticks": 45600,
          "time": 62.789592,
          "velocity": 0.6299212598425197
        },
        {
          "duration": 0.2955729166666714,
          "durationTicks": 227,
          "midi": 52,
          "name": "E3",
          "ticks": 46080,
          "time": 63.414592,
          "velocity": 0.6299212598425197
        },
        {
          "duration": 0.5924479166666714,
          "durationTicks": 455,
          "midi": 59,
          "name": "B3",
          "ticks": 46320,
          "time": 63.727092,
          "velocity": 0.6299212598425197
        },
        {
          "duration": 0.2955729166666714,
          "durationTicks": 227,
          "midi": 54,
          "name": "F#3",
          "ticks": 47040,
          "time": 64.664592,
          "velocity": 0.6299212598425197
        },
        {
          "duration": 0.2955729166666714,
          "durationTicks": 227,
          "midi": 61,
          "name": "C#4",
          "ticks": 47280,
          "time": 64.977092,
          "velocity": 0.6299212598425197
        },
        {
          "duration": 0.5924479166666714,
          "durationTicks": 455,
          "midi": 66,
          "name": "F#4",
          "ticks": 47520,
          "time": 65.289592,
          "velocity": 0.6299212598425197
        },
        {
          "duration": 0.2955729166666714,
          "durationTicks": 227,
          "midi": 51,
          "name": "D#3",
          "ticks": 48000,
          "time": 65.914592,
          "velocity": 0.6299212598425197
        },
        {
          "duration": 0.2955729166666714,
          "durationTicks": 227,
          "midi": 58,
          "name": "A#3",
          "ticks": 48240,
          "time": 66.227092,
          "velocity": 0.6299212598425197
        },
        {
          "duration": 0.2955729166666714,
          "durationTicks": 227,
          "midi": 63,
          "name": "D#4",
          "ticks": 48480,
          "time": 66.539592,
          "velocity": 0.6299212598425197
        },
        {
          "duration": 0.2955729166666714,
          "durationTicks": 227,
          "midi": 58,
          "name": "A#3",
          "ticks": 48720,
          "time": 66.852092,
          "velocity": 0.6299212598425197
        },
        {
          "duration": 0.2955729166666714,
          "durationTicks": 227,
          "midi": 56,
          "name": "G#3",
          "ticks": 48960,
          "time": 67.164592,
          "velocity": 0.6299212598425197
        },
        {
          "duration": 0.2955729166666714,
          "durationTicks": 227,
          "midi": 63,
          "name": "D#4",
          "ticks": 49200,
          "time": 67.477092,
          "velocity": 0.6299212598425197
        },
        {
          "duration": 0.2955729166666714,
          "durationTicks": 227,
          "midi": 68,
          "name": "G#4",
          "ticks": 49440,
          "time": 67.789592,
          "velocity": 0.6299212598425197
        },
        {
          "duration": 0.2955729166666714,
          "durationTicks": 227,
          "midi": 63,
          "name": "D#4",
          "ticks": 49680,
          "time": 68.102092,
          "velocity": 0.6299212598425197
        },
        {
          "duration": 0.2955729166666714,
          "durationTicks": 227,
          "midi": 52,
          "name": "E3",
          "ticks": 49920,
          "time": 68.414592,
          "velocity": 0.6299212598425197
        },
        {
          "duration": 0.2955729166666714,
          "durationTicks": 227,
          "midi": 59,
          "name": "B3",
          "ticks": 50160,
          "time": 68.727092,
          "velocity": 0.6299212598425197
        },
        {
          "duration": 0.2955729166666714,
          "durationTicks": 227,
          "midi": 64,
          "name": "E4",
          "ticks": 50400,
          "time": 69.039592,
          "velocity": 0.6299212598425197
        },
        {
          "duration": 0.2955729166666714,
          "durationTicks": 227,
          "midi": 59,
          "name": "B3",
          "ticks": 50640,
          "time": 69.352092,
          "velocity": 0.6299212598425197
        },
        {
          "duration": 0.2955729166666714,
          "durationTicks": 227,
          "midi": 54,
          "name": "F#3",
          "ticks": 50880,
          "time": 69.664592,
          "velocity": 0.6299212598425197
        },
        {
          "duration": 0.2955729166666714,
          "durationTicks": 227,
          "midi": 61,
          "name": "C#4",
          "ticks": 51120,
          "time": 69.977092,
          "velocity": 0.6299212598425197
        },
        {
          "duration": 0.2955729166666714,
          "durationTicks": 227,
          "midi": 66,
          "name": "F#4",
          "ticks": 51360,
          "time": 70.289592,
          "velocity": 0.6299212598425197
        },
        {
          "duration": 0.2955729166666714,
          "durationTicks": 227,
          "midi": 61,
          "name": "C#4",
          "ticks": 51600,
          "time": 70.602092,
          "velocity": 0.6299212598425197
        },
        {
          "duration": 0.2955729166666714,
          "durationTicks": 227,
          "midi": 52,
          "name": "E3",
          "ticks": 53760,
          "time": 73.414592,
          "velocity": 0.6299212598425197
        },
        {
          "duration": 0.5924479166666714,
          "durationTicks": 455,
          "midi": 59,
          "name": "B3",
          "ticks": 54000,
          "time": 73.727092,
          "velocity": 0.6299212598425197
        },
        {
          "duration": 0.2955729166666714,
          "durationTicks": 227,
          "midi": 54,
          "name": "F#3",
          "ticks": 54720,
          "time": 74.664592,
          "velocity": 0.6299212598425197
        },
        {
          "duration": 0.2955729166666714,
          "durationTicks": 227,
          "midi": 61,
          "name": "C#4",
          "ticks": 54960,
          "time": 74.977092,
          "velocity": 0.6299212598425197
        },
        {
          "duration": 0.5924479166666714,
          "durationTicks": 455,
          "midi": 66,
          "name": "F#4",
          "ticks": 55200,
          "time": 75.289592,
          "velocity": 0.6299212598425197
        },
        {
          "duration": 0.2955729166666714,
          "durationTicks": 227,
          "midi": 51,
          "name": "D#3",
          "ticks": 55680,
          "time": 75.914592,
          "velocity": 0.6299212598425197
        },
        {
          "duration": 0.2955729166666714,
          "durationTicks": 227,
          "midi": 58,
          "name": "A#3",
          "ticks": 55920,
          "time": 76.227092,
          "velocity": 0.6299212598425197
        },
        {
          "duration": 0.5924479166666714,
          "durationTicks": 455,
          "midi": 63,
          "name": "D#4",
          "ticks": 56160,
          "time": 76.539592,
          "velocity": 0.6299212598425197
        },
        {
          "duration": 0.2955729166666714,
          "durationTicks": 227,
          "midi": 56,
          "name": "G#3",
          "ticks": 56640,
          "time": 77.164592,
          "velocity": 0.6299212598425197
        },
        {
          "duration": 0.2955729166666714,
          "durationTicks": 227,
          "midi": 63,
          "name": "D#4",
          "ticks": 56880,
          "time": 77.477092,
          "velocity": 0.6299212598425197
        },
        {
          "duration": 0.5924479166666714,
          "durationTicks": 455,
          "midi": 68,
          "name": "G#4",
          "ticks": 57120,
          "time": 77.789592,
          "velocity": 0.6299212598425197
        },
        {
          "duration": 0.2955729166666714,
          "durationTicks": 227,
          "midi": 52,
          "name": "E3",
          "ticks": 57600,
          "time": 78.414592,
          "velocity": 0.6299212598425197
        },
        {
          "duration": 0.2955729166666714,
          "durationTicks": 227,
          "midi": 59,
          "name": "B3",
          "ticks": 57840,
          "time": 78.727092,
          "velocity": 0.6299212598425197
        },
        {
          "duration": 0.5924479166666714,
          "durationTicks": 455,
          "midi": 64,
          "name": "E4",
          "ticks": 58080,
          "time": 79.039592,
          "velocity": 0.6299212598425197
        },
        {
          "duration": 0.2955729166666714,
          "durationTicks": 227,
          "midi": 54,
          "name": "F#3",
          "ticks": 58560,
          "time": 79.664592,
          "velocity": 0.6299212598425197
        },
        {
          "duration": 0.2955729166666714,
          "durationTicks": 227,
          "midi": 61,
          "name": "C#4",
          "ticks": 58800,
          "time": 79.977092,
          "velocity": 0.6299212598425197
        },
        {
          "duration": 0.5924479166666714,
          "durationTicks": 455,
          "midi": 66,
          "name": "F#4",
          "ticks": 59040,
          "time": 80.289592,
          "velocity": 0.6299212598425197
        },
        {
          "duration": 0.2955729166666714,
          "durationTicks": 227,
          "midi": 56,
          "name": "G#3",
          "ticks": 59520,
          "time": 80.914592,
          "velocity": 0.6299212598425197
        },
        {
          "duration": 0.2955729166666714,
          "durationTicks": 227,
          "midi": 63,
          "name": "D#4",
          "ticks": 59760,
          "time": 81.227092,
          "velocity": 0.6299212598425197
        },
        {
          "duration": 0.2955729166666714,
          "durationTicks": 227,
          "midi": 68,
          "name": "G#4",
          "ticks": 60000,
          "time": 81.539592,
          "velocity": 0.6299212598425197
        },
        {
          "duration": 0.2955729166666714,
          "durationTicks": 227,
          "midi": 70,
          "name": "A#4",
          "ticks": 60240,
          "time": 81.852092,
          "velocity": 0.6299212598425197
        },
        {
          "duration": 0.5924479166666714,
          "durationTicks": 455,
          "midi": 72,
          "name": "C5",
          "ticks": 60480,
          "time": 82.164592,
          "velocity": 0.6299212598425197
        },
        {
          "duration": 0.2955729166666714,
          "durationTicks": 227,
          "midi": 52,
          "name": "E3",
          "ticks": 61440,
          "time": 83.414592,
          "velocity": 0.6299212598425197
        },
        {
          "duration": 0.5924479166666714,
          "durationTicks": 455,
          "midi": 59,
          "name": "B3",
          "ticks": 61680,
          "time": 83.727092,
          "velocity": 0.6299212598425197
        },
        {
          "duration": 0.2955729166666714,
          "durationTicks": 227,
          "midi": 54,
          "name": "F#3",
          "ticks": 62400,
          "time": 84.664592,
          "velocity": 0.6299212598425197
        },
        {
          "duration": 0.2955729166666714,
          "durationTicks": 227,
          "midi": 61,
          "name": "C#4",
          "ticks": 62640,
          "time": 84.977092,
          "velocity": 0.6299212598425197
        },
        {
          "duration": 0.5924479166666714,
          "durationTicks": 455,
          "midi": 66,
          "name": "F#4",
          "ticks": 62880,
          "time": 85.289592,
          "velocity": 0.6299212598425197
        },
        {
          "duration": 0.2955729166666714,
          "durationTicks": 227,
          "midi": 51,
          "name": "D#3",
          "ticks": 63360,
          "time": 85.914592,
          "velocity": 0.6299212598425197
        },
        {
          "duration": 0.2955729166666714,
          "durationTicks": 227,
          "midi": 58,
          "name": "A#3",
          "ticks": 63600,
          "time": 86.227092,
          "velocity": 0.6299212598425197
        },
        {
          "duration": 0.2955729166666714,
          "durationTicks": 227,
          "midi": 63,
          "name": "D#4",
          "ticks": 63840,
          "time": 86.539592,
          "velocity": 0.6299212598425197
        },
        {
          "duration": 0.2955729166666714,
          "durationTicks": 227,
          "midi": 58,
          "name": "A#3",
          "ticks": 64080,
          "time": 86.852092,
          "velocity": 0.6299212598425197
        },
        {
          "duration": 0.2955729166666572,
          "durationTicks": 227,
          "midi": 56,
          "name": "G#3",
          "ticks": 64320,
          "time": 87.164592,
          "velocity": 0.6299212598425197
        },
        {
          "duration": 0.2955729166666572,
          "durationTicks": 227,
          "midi": 63,
          "name": "D#4",
          "ticks": 64560,
          "time": 87.477092,
          "velocity": 0.6299212598425197
        },
        {
          "duration": 0.2955729166666572,
          "durationTicks": 227,
          "midi": 68,
          "name": "G#4",
          "ticks": 64800,
          "time": 87.789592,
          "velocity": 0.6299212598425197
        },
        {
          "duration": 0.2955729166666572,
          "durationTicks": 227,
          "midi": 63,
          "name": "D#4",
          "ticks": 65040,
          "time": 88.102092,
          "velocity": 0.6299212598425197
        },
        {
          "duration": 0.2955729166666572,
          "durationTicks": 227,
          "midi": 52,
          "name": "E3",
          "ticks": 65280,
          "time": 88.414592,
          "velocity": 0.6299212598425197
        },
        {
          "duration": 0.2955729166666572,
          "durationTicks": 227,
          "midi": 59,
          "name": "B3",
          "ticks": 65520,
          "time": 88.727092,
          "velocity": 0.6299212598425197
        },
        {
          "duration": 0.2955729166666572,
          "durationTicks": 227,
          "midi": 64,
          "name": "E4",
          "ticks": 65760,
          "time": 89.039592,
          "velocity": 0.6299212598425197
        },
        {
          "duration": 0.2955729166666572,
          "durationTicks": 227,
          "midi": 59,
          "name": "B3",
          "ticks": 66000,
          "time": 89.352092,
          "velocity": 0.6299212598425197
        },
        {
          "duration": 0.2955729166666572,
          "durationTicks": 227,
          "midi": 54,
          "name": "F#3",
          "ticks": 66240,
          "time": 89.664592,
          "velocity": 0.6299212598425197
        },
        {
          "duration": 0.2955729166666572,
          "durationTicks": 227,
          "midi": 61,
          "name": "C#4",
          "ticks": 66480,
          "time": 89.977092,
          "velocity": 0.6299212598425197
        },
        {
          "duration": 0.2955729166666572,
          "durationTicks": 227,
          "midi": 66,
          "name": "F#4",
          "ticks": 66720,
          "time": 90.289592,
          "velocity": 0.6299212598425197
        },
        {
          "duration": 0.2955729166666572,
          "durationTicks": 227,
          "midi": 61,
          "name": "C#4",
          "ticks": 66960,
          "time": 90.602092,
          "velocity": 0.6299212598425197
        },
        {
          "duration": 0.2955729166666572,
          "durationTicks": 227,
          "midi": 52,
          "name": "E3",
          "ticks": 69120,
          "time": 93.414592,
          "velocity": 0.6299212598425197
        },
        {
          "duration": 0.5924479166666714,
          "durationTicks": 455,
          "midi": 59,
          "name": "B3",
          "ticks": 69360,
          "time": 93.727092,
          "velocity": 0.6299212598425197
        },
        {
          "duration": 0.2955729166666572,
          "durationTicks": 227,
          "midi": 54,
          "name": "F#3",
          "ticks": 70080,
          "time": 94.664592,
          "velocity": 0.6299212598425197
        },
        {
          "duration": 0.2955729166666572,
          "durationTicks": 227,
          "midi": 61,
          "name": "C#4",
          "ticks": 70320,
          "time": 94.977092,
          "velocity": 0.6299212598425197
        },
        {
          "duration": 0.5924479166666714,
          "durationTicks": 455,
          "midi": 66,
          "name": "F#4",
          "ticks": 70560,
          "time": 95.289592,
          "velocity": 0.6299212598425197
        },
        {
          "duration": 0.2955729166666572,
          "durationTicks": 227,
          "midi": 51,
          "name": "D#3",
          "ticks": 71040,
          "time": 95.914592,
          "velocity": 0.6299212598425197
        },
        {
          "duration": 0.2955729166666572,
          "durationTicks": 227,
          "midi": 58,
          "name": "A#3",
          "ticks": 71280,
          "time": 96.227092,
          "velocity": 0.6299212598425197
        },
        {
          "duration": 0.5924479166666714,
          "durationTicks": 455,
          "midi": 63,
          "name": "D#4",
          "ticks": 71520,
          "time": 96.539592,
          "velocity": 0.6299212598425197
        },
        {
          "duration": 0.2955729166666572,
          "durationTicks": 227,
          "midi": 56,
          "name": "G#3",
          "ticks": 72000,
          "time": 97.164592,
          "velocity": 0.6299212598425197
        },
        {
          "duration": 0.2955729166666572,
          "durationTicks": 227,
          "midi": 63,
          "name": "D#4",
          "ticks": 72240,
          "time": 97.477092,
          "velocity": 0.6299212598425197
        },
        {
          "duration": 0.5924479166666714,
          "durationTicks": 455,
          "midi": 68,
          "name": "G#4",
          "ticks": 72480,
          "time": 97.789592,
          "velocity": 0.6299212598425197
        },
        {
          "duration": 0.2955729166666572,
          "durationTicks": 227,
          "midi": 52,
          "name": "E3",
          "ticks": 72960,
          "time": 98.414592,
          "velocity": 0.6299212598425197
        },
        {
          "duration": 0.2955729166666572,
          "durationTicks": 227,
          "midi": 59,
          "name": "B3",
          "ticks": 73200,
          "time": 98.727092,
          "velocity": 0.6299212598425197
        },
        {
          "duration": 0.5924479166666714,
          "durationTicks": 455,
          "midi": 64,
          "name": "E4",
          "ticks": 73440,
          "time": 99.039592,
          "velocity": 0.6299212598425197
        },
        {
          "duration": 0.2955729166666572,
          "durationTicks": 227,
          "midi": 54,
          "name": "F#3",
          "ticks": 73920,
          "time": 99.664592,
          "velocity": 0.6299212598425197
        },
        {
          "duration": 0.2955729166666572,
          "durationTicks": 227,
          "midi": 61,
          "name": "C#4",
          "ticks": 74160,
          "time": 99.977092,
          "velocity": 0.6299212598425197
        },
        {
          "duration": 0.5924479166666714,
          "durationTicks": 455,
          "midi": 66,
          "name": "F#4",
          "ticks": 74400,
          "time": 100.289592,
          "velocity": 0.6299212598425197
        },
        {
          "duration": 0.2955729166666572,
          "durationTicks": 227,
          "midi": 56,
          "name": "G#3",
          "ticks": 74880,
          "time": 100.914592,
          "velocity": 0.6299212598425197
        },
        {
          "duration": 0.2955729166666572,
          "durationTicks": 227,
          "midi": 63,
          "name": "D#4",
          "ticks": 75120,
          "time": 101.227092,
          "velocity": 0.6299212598425197
        },
        {
          "duration": 0.2955729166666572,
          "durationTicks": 227,
          "midi": 68,
          "name": "G#4",
          "ticks": 75360,
          "time": 101.539592,
          "velocity": 0.6299212598425197
        },
        {
          "duration": 0.2955729166666572,
          "durationTicks": 227,
          "midi": 70,
          "name": "A#4",
          "ticks": 75600,
          "time": 101.852092,
          "velocity": 0.6299212598425197
        },
        {
          "duration": 0.5924479166666714,
          "durationTicks": 455,
          "midi": 72,
          "name": "C5",
          "ticks": 75840,
          "time": 102.164592,
          "velocity": 0.6299212598425197
        },
        {
          "duration": 0.1471354166666714,
          "durationTicks": 113,
          "midi": 44,
          "name": "G#2",
          "ticks": 76800,
          "time": 103.414592,
          "velocity": 0.6299212598425197
        },
        {
          "duration": 0.1471354166666714,
          "durationTicks": 113,
          "midi": 51,
          "name": "D#3",
          "ticks": 76920,
          "time": 103.570842,
          "velocity": 0.6299212598425197
        },
        {
          "duration": 0.1471354166666714,
          "durationTicks": 113,
          "midi": 56,
          "name": "G#3",
          "ticks": 77040,
          "time": 103.727092,
          "velocity": 0.6299212598425197
        },
        {
          "duration": 0.1471354166666714,
          "durationTicks": 113,
          "midi": 58,
          "name": "A#3",
          "ticks": 77160,
          "time": 103.883342,
          "velocity": 0.6299212598425197
        },
        {
          "duration": 0.2955729166666572,
          "durationTicks": 227,
          "midi": 59,
          "name": "B3",
          "ticks": 77280,
          "time": 104.039592,
          "velocity": 0.6299212598425197
        },
        {
          "duration": 0.2955729166666572,
          "durationTicks": 227,
          "midi": 63,
          "name": "D#4",
          "ticks": 77520,
          "time": 104.352092,
          "velocity": 0.6299212598425197
        },
        {
          "duration": 0.2955729166666572,
          "durationTicks": 227,
          "midi": 51,
          "name": "D#3",
          "ticks": 77760,
          "time": 104.664592,
          "velocity": 0.6299212598425197
        },
        {
          "duration": 0.2955729166666572,
          "durationTicks": 227,
          "midi": 58,
          "name": "A#3",
          "ticks": 78000,
          "time": 104.977092,
          "velocity": 0.6299212598425197
        },
        {
          "duration": 0.5924479166666572,
          "durationTicks": 455,
          "midi": 63,
          "name": "D#4",
          "ticks": 78240,
          "time": 105.289592,
          "velocity": 0.6299212598425197
        },
        {
          "duration": 0.5924479166666572,
          "durationTicks": 455,
          "midi": 66,
          "name": "F#4",
          "ticks": 78240,
          "time": 105.289592,
          "velocity": 0.6299212598425197
        },
        {
          "duration": 0.1471354166666714,
          "durationTicks": 113,
          "midi": 40,
          "name": "E2",
          "ticks": 78720,
          "time": 105.914592,
          "velocity": 0.6299212598425197
        },
        {
          "duration": 0.1471354166666714,
          "durationTicks": 113,
          "midi": 47,
          "name": "B2",
          "ticks": 78840,
          "time": 106.070842,
          "velocity": 0.6299212598425197
        },
        {
          "duration": 0.1471354166666714,
          "durationTicks": 113,
          "midi": 52,
          "name": "E3",
          "ticks": 78960,
          "time": 106.227092,
          "velocity": 0.6299212598425197
        },
        {
          "duration": 0.1471354166666714,
          "durationTicks": 113,
          "midi": 54,
          "name": "F#3",
          "ticks": 79080,
          "time": 106.383342,
          "velocity": 0.6299212598425197
        },
        {
          "duration": 0.2955729166666572,
          "durationTicks": 227,
          "midi": 56,
          "name": "G#3",
          "ticks": 79200,
          "time": 106.539592,
          "velocity": 0.6299212598425197
        },
        {
          "duration": 0.2955729166666572,
          "durationTicks": 227,
          "midi": 59,
          "name": "B3",
          "ticks": 79440,
          "time": 106.852092,
          "velocity": 0.6299212598425197
        },
        {
          "duration": 0.2955729166666572,
          "durationTicks": 227,
          "midi": 47,
          "name": "B2",
          "ticks": 79680,
          "time": 107.164592,
          "velocity": 0.6299212598425197
        },
        {
          "duration": 0.2955729166666572,
          "durationTicks": 227,
          "midi": 54,
          "name": "F#3",
          "ticks": 79920,
          "time": 107.477092,
          "velocity": 0.6299212598425197
        },
        {
          "duration": 0.5924479166666572,
          "durationTicks": 455,
          "midi": 59,
          "name": "B3",
          "ticks": 80160,
          "time": 107.789592,
          "velocity": 0.6299212598425197
        },
        {
          "duration": 0.5924479166666572,
          "durationTicks": 455,
          "midi": 63,
          "name": "D#4",
          "ticks": 80160,
          "time": 107.789592,
          "velocity": 0.6299212598425197
        },
        {
          "duration": 0.2955729166666572,
          "durationTicks": 227,
          "midi": 37,
          "name": "C#2",
          "ticks": 80640,
          "time": 108.414592,
          "velocity": 0.6299212598425197
        },
        {
          "duration": 0.2955729166666572,
          "durationTicks": 227,
          "midi": 49,
          "name": "C#3",
          "ticks": 80640,
          "time": 108.414592,
          "velocity": 0.6299212598425197
        },
        {
          "duration": 0.2955729166666572,
          "durationTicks": 227,
          "midi": 56,
          "name": "G#3",
          "ticks": 80880,
          "time": 108.727092,
          "velocity": 0.6299212598425197
        },
        {
          "duration": 0.1471354166666714,
          "durationTicks": 113,
          "midi": 64,
          "name": "E4",
          "ticks": 81120,
          "time": 109.039592,
          "velocity": 0.6299212598425197
        },
        {
          "duration": 0.1471354166666714,
          "durationTicks": 113,
          "midi": 63,
          "name": "D#4",
          "ticks": 81240,
          "time": 109.195842,
          "velocity": 0.6299212598425197
        },
        {
          "duration": 0.1471354166666714,
          "durationTicks": 113,
          "midi": 61,
          "name": "C#4",
          "ticks": 81360,
          "time": 109.352092,
          "velocity": 0.6299212598425197
        },
        {
          "duration": 0.1471354166666714,
          "durationTicks": 113,
          "midi": 59,
          "name": "B3",
          "ticks": 81480,
          "time": 109.508342,
          "velocity": 0.6299212598425197
        },
        {
          "duration": 0.2955729166666572,
          "durationTicks": 227,
          "midi": 32,
          "name": "G#1",
          "ticks": 81600,
          "time": 109.664592,
          "velocity": 0.6299212598425197
        },
        {
          "duration": 0.2955729166666572,
          "durationTicks": 227,
          "midi": 44,
          "name": "G#2",
          "ticks": 81600,
          "time": 109.664592,
          "velocity": 0.6299212598425197
        },
        {
          "duration": 0.2955729166666572,
          "durationTicks": 227,
          "midi": 39,
          "name": "D#2",
          "ticks": 81840,
          "time": 109.977092,
          "velocity": 0.6299212598425197
        },
        {
          "duration": 0.1471354166666714,
          "durationTicks": 113,
          "midi": 51,
          "name": "D#3",
          "ticks": 82080,
          "time": 110.289592,
          "velocity": 0.6299212598425197
        },
        {
          "duration": 0.1471354166666714,
          "durationTicks": 113,
          "midi": 49,
          "name": "C#3",
          "ticks": 82200,
          "time": 110.445842,
          "velocity": 0.6299212598425197
        },
        {
          "duration": 0.1471354166666714,
          "durationTicks": 113,
          "midi": 47,
          "name": "B2",
          "ticks": 82320,
          "time": 110.602092,
          "velocity": 0.6299212598425197
        },
        {
          "duration": 0.1471354166666714,
          "durationTicks": 113,
          "midi": 46,
          "name": "A#2",
          "ticks": 82440,
          "time": 110.758342,
          "velocity": 0.6299212598425197
        },
        {
          "duration": 0.2955729166666572,
          "durationTicks": 227,
          "midi": 34,
          "name": "A#1",
          "ticks": 82560,
          "time": 110.914592,
          "velocity": 0.6299212598425197
        },
        {
          "duration": 0.2955729166666572,
          "durationTicks": 227,
          "midi": 46,
          "name": "A#2",
          "ticks": 82560,
          "time": 110.914592,
          "velocity": 0.6299212598425197
        },
        {
          "duration": 0.2955729166666572,
          "durationTicks": 227,
          "midi": 52,
          "name": "E3",
          "ticks": 82800,
          "time": 111.227092,
          "velocity": 0.6299212598425197
        },
        {
          "duration": 0.2955729166666572,
          "durationTicks": 227,
          "midi": 58,
          "name": "A#3",
          "ticks": 83040,
          "time": 111.539592,
          "velocity": 0.6299212598425197
        },
        {
          "duration": 0.2955729166666572,
          "durationTicks": 227,
          "midi": 61,
          "name": "C#4",
          "ticks": 83040,
          "time": 111.539592,
          "velocity": 0.6299212598425197
        },
        {
          "duration": 0.2955729166666572,
          "durationTicks": 227,
          "midi": 52,
          "name": "E3",
          "ticks": 83280,
          "time": 111.852092,
          "velocity": 0.6299212598425197
        },
        {
          "duration": 0.2955729166666572,
          "durationTicks": 227,
          "midi": 49,
          "name": "C#3",
          "ticks": 83520,
          "time": 112.164592,
          "velocity": 0.6299212598425197
        },
        {
          "duration": 0.2955729166666572,
          "durationTicks": 227,
          "midi": 61,
          "name": "C#4",
          "ticks": 83520,
          "time": 112.164592,
          "velocity": 0.6299212598425197
        },
        {
          "duration": 0.2955729166666572,
          "durationTicks": 227,
          "midi": 47,
          "name": "B2",
          "ticks": 83760,
          "time": 112.477092,
          "velocity": 0.6299212598425197
        },
        {
          "duration": 0.2955729166666572,
          "durationTicks": 227,
          "midi": 59,
          "name": "B3",
          "ticks": 83760,
          "time": 112.477092,
          "velocity": 0.6299212598425197
        },
        {
          "duration": 0.2955729166666572,
          "durationTicks": 227,
          "midi": 46,
          "name": "A#2",
          "ticks": 84000,
          "time": 112.789592,
          "velocity": 0.6299212598425197
        },
        {
          "duration": 0.2955729166666572,
          "durationTicks": 227,
          "midi": 58,
          "name": "A#3",
          "ticks": 84000,
          "time": 112.789592,
          "velocity": 0.6299212598425197
        },
        {
          "duration": 0.2955729166666572,
          "durationTicks": 227,
          "midi": 39,
          "name": "D#2",
          "ticks": 84240,
          "time": 113.102092,
          "velocity": 0.6299212598425197
        },
        {
          "duration": 0.2955729166666572,
          "durationTicks": 227,
          "midi": 51,
          "name": "D#3",
          "ticks": 84240,
          "time": 113.102092,
          "velocity": 0.6299212598425197
        },
        {
          "duration": 0.1471354166666714,
          "durationTicks": 113,
          "midi": 44,
          "name": "G#2",
          "ticks": 84480,
          "time": 113.414592,
          "velocity": 0.6299212598425197
        },
        {
          "duration": 0.1471354166666714,
          "durationTicks": 113,
          "midi": 51,
          "name": "D#3",
          "ticks": 84600,
          "time": 113.570842,
          "velocity": 0.6299212598425197
        },
        {
          "duration": 0.1471354166666714,
          "durationTicks": 113,
          "midi": 56,
          "name": "G#3",
          "ticks": 84720,
          "time": 113.727092,
          "velocity": 0.6299212598425197
        },
        {
          "duration": 0.1471354166666714,
          "durationTicks": 113,
          "midi": 58,
          "name": "A#3",
          "ticks": 84840,
          "time": 113.883342,
          "velocity": 0.6299212598425197
        },
        {
          "duration": 0.1471354166666714,
          "durationTicks": 113,
          "midi": 59,
          "name": "B3",
          "ticks": 84960,
          "time": 114.039592,
          "velocity": 0.6299212598425197
        },
        {
          "duration": 0.1471354166666714,
          "durationTicks": 113,
          "midi": 58,
          "name": "A#3",
          "ticks": 85080,
          "time": 114.195842,
          "velocity": 0.6299212598425197
        },
        {
          "duration": 0.1471354166666714,
          "durationTicks": 113,
          "midi": 56,
          "name": "G#3",
          "ticks": 85200,
          "time": 114.352092,
          "velocity": 0.6299212598425197
        },
        {
          "duration": 0.1471354166666714,
          "durationTicks": 113,
          "midi": 51,
          "name": "D#3",
          "ticks": 85320,
          "time": 114.508342,
          "velocity": 0.6299212598425197
        },
        {
          "duration": 0.2955729166666572,
          "durationTicks": 227,
          "midi": 39,
          "name": "D#2",
          "ticks": 85440,
          "time": 114.664592,
          "velocity": 0.6299212598425197
        },
        {
          "duration": 0.2955729166666572,
          "durationTicks": 227,
          "midi": 46,
          "name": "A#2",
          "ticks": 85680,
          "time": 114.977092,
          "velocity": 0.6299212598425197
        },
        {
          "duration": 0.2955729166666572,
          "durationTicks": 227,
          "midi": 51,
          "name": "D#3",
          "ticks": 85920,
          "time": 115.289592,
          "velocity": 0.6299212598425197
        },
        {
          "duration": 0.2955729166666572,
          "durationTicks": 227,
          "midi": 46,
          "name": "A#2",
          "ticks": 86160,
          "time": 115.602092,
          "velocity": 0.6299212598425197
        },
        {
          "duration": 0.1471354166666714,
          "durationTicks": 113,
          "midi": 40,
          "name": "E2",
          "ticks": 86400,
          "time": 115.914592,
          "velocity": 0.6299212598425197
        },
        {
          "duration": 0.1471354166666714,
          "durationTicks": 113,
          "midi": 47,
          "name": "B2",
          "ticks": 86520,
          "time": 116.070842,
          "velocity": 0.6299212598425197
        },
        {
          "duration": 0.1471354166666714,
          "durationTicks": 113,
          "midi": 52,
          "name": "E3",
          "ticks": 86640,
          "time": 116.227092,
          "velocity": 0.6299212598425197
        },
        {
          "duration": 0.1471354166666714,
          "durationTicks": 113,
          "midi": 54,
          "name": "F#3",
          "ticks": 86760,
          "time": 116.383342,
          "velocity": 0.6299212598425197
        },
        {
          "duration": 0.1471354166666714,
          "durationTicks": 113,
          "midi": 56,
          "name": "G#3",
          "ticks": 86880,
          "time": 116.539592,
          "velocity": 0.6299212598425197
        },
        {
          "duration": 0.1471354166666714,
          "durationTicks": 113,
          "midi": 54,
          "name": "F#3",
          "ticks": 87000,
          "time": 116.695842,
          "velocity": 0.6299212598425197
        },
        {
          "duration": 0.1471354166666714,
          "durationTicks": 113,
          "midi": 52,
          "name": "E3",
          "ticks": 87120,
          "time": 116.852092,
          "velocity": 0.6299212598425197
        },
        {
          "duration": 0.1471354166666714,
          "durationTicks": 113,
          "midi": 47,
          "name": "B2",
          "ticks": 87240,
          "time": 117.008342,
          "velocity": 0.6299212598425197
        },
        {
          "duration": 0.2955729166666572,
          "durationTicks": 227,
          "midi": 35,
          "name": "B1",
          "ticks": 87360,
          "time": 117.164592,
          "velocity": 0.6299212598425197
        },
        {
          "duration": 0.2955729166666572,
          "durationTicks": 227,
          "midi": 42,
          "name": "F#2",
          "ticks": 87600,
          "time": 117.477092,
          "velocity": 0.6299212598425197
        },
        {
          "duration": 0.2955729166666572,
          "durationTicks": 227,
          "midi": 47,
          "name": "B2",
          "ticks": 87840,
          "time": 117.789592,
          "velocity": 0.6299212598425197
        },
        {
          "duration": 0.2955729166666572,
          "durationTicks": 227,
          "midi": 42,
          "name": "F#2",
          "ticks": 88080,
          "time": 118.102092,
          "velocity": 0.6299212598425197
        },
        {
          "duration": 0.1471354166666714,
          "durationTicks": 113,
          "midi": 37,
          "name": "C#2",
          "ticks": 88320,
          "time": 118.414592,
          "velocity": 0.6299212598425197
        },
        {
          "duration": 0.1471354166666714,
          "durationTicks": 113,
          "midi": 44,
          "name": "G#2",
          "ticks": 88440,
          "time": 118.570842,
          "velocity": 0.6299212598425197
        },
        {
          "duration": 0.1471354166666714,
          "durationTicks": 113,
          "midi": 49,
          "name": "C#3",
          "ticks": 88560,
          "time": 118.727092,
          "velocity": 0.6299212598425197
        },
        {
          "duration": 0.1471354166666714,
          "durationTicks": 113,
          "midi": 51,
          "name": "D#3",
          "ticks": 88680,
          "time": 118.883342,
          "velocity": 0.6299212598425197
        },
        {
          "duration": 0.1471354166666714,
          "durationTicks": 113,
          "midi": 52,
          "name": "E3",
          "ticks": 88800,
          "time": 119.039592,
          "velocity": 0.6299212598425197
        },
        {
          "duration": 0.1471354166666714,
          "durationTicks": 113,
          "midi": 51,
          "name": "D#3",
          "ticks": 88920,
          "time": 119.195842,
          "velocity": 0.6299212598425197
        },
        {
          "duration": 0.1471354166666714,
          "durationTicks": 113,
          "midi": 49,
          "name": "C#3",
          "ticks": 89040,
          "time": 119.352092,
          "velocity": 0.6299212598425197
        },
        {
          "duration": 0.1471354166666714,
          "durationTicks": 113,
          "midi": 44,
          "name": "G#2",
          "ticks": 89160,
          "time": 119.508342,
          "velocity": 0.6299212598425197
        },
        {
          "duration": 0.1471354166666714,
          "durationTicks": 113,
          "midi": 32,
          "name": "G#1",
          "ticks": 89280,
          "time": 119.664592,
          "velocity": 0.6299212598425197
        },
        {
          "duration": 0.1471354166666714,
          "durationTicks": 113,
          "midi": 39,
          "name": "D#2",
          "ticks": 89400,
          "time": 119.820842,
          "velocity": 0.6299212598425197
        },
        {
          "duration": 0.1471354166666714,
          "durationTicks": 113,
          "midi": 44,
          "name": "G#2",
          "ticks": 89520,
          "time": 119.977092,
          "velocity": 0.6299212598425197
        },
        {
          "duration": 0.1471354166666714,
          "durationTicks": 113,
          "midi": 46,
          "name": "A#2",
          "ticks": 89640,
          "time": 120.133342,
          "velocity": 0.6299212598425197
        },
        {
          "duration": 0.1471354166666714,
          "durationTicks": 113,
          "midi": 47,
          "name": "B2",
          "ticks": 89760,
          "time": 120.289592,
          "velocity": 0.6299212598425197
        },
        {
          "duration": 0.1471354166666714,
          "durationTicks": 113,
          "midi": 49,
          "name": "C#3",
          "ticks": 89880,
          "time": 120.445842,
          "velocity": 0.6299212598425197
        },
        {
          "duration": 0.2955729166666572,
          "durationTicks": 227,
          "midi": 51,
          "name": "D#3",
          "ticks": 90000,
          "time": 120.602092,
          "velocity": 0.6299212598425197
        },
        {
          "duration": 0.5924479166666572,
          "durationTicks": 455,
          "midi": 37,
          "name": "C#2",
          "ticks": 90240,
          "time": 120.914592,
          "velocity": 0.6299212598425197
        },
        {
          "duration": 0.5924479166666572,
          "durationTicks": 455,
          "midi": 49,
          "name": "C#3",
          "ticks": 90240,
          "time": 120.914592,
          "velocity": 0.6299212598425197
        },
        {
          "duration": 0.4440104166666714,
          "durationTicks": 341,
          "midi": 34,
          "name": "A#1",
          "ticks": 90720,
          "time": 121.539592,
          "velocity": 0.6299212598425197
        },
        {
          "duration": 0.4440104166666714,
          "durationTicks": 341,
          "midi": 46,
          "name": "A#2",
          "ticks": 90720,
          "time": 121.539592,
          "velocity": 0.6299212598425197
        },
        {
          "duration": 0.1471354166666714,
          "durationTicks": 113,
          "midi": 32,
          "name": "G#1",
          "ticks": 91080,
          "time": 122.008342,
          "velocity": 0.6299212598425197
        },
        {
          "duration": 0.1471354166666714,
          "durationTicks": 113,
          "midi": 44,
          "name": "G#2",
          "ticks": 91080,
          "time": 122.008342,
          "velocity": 0.6299212598425197
        },
        {
          "duration": 0.2955729166666572,
          "durationTicks": 227,
          "midi": 32,
          "name": "G#1",
          "ticks": 91200,
          "time": 122.164592,
          "velocity": 0.6299212598425197
        },
        {
          "duration": 0.2955729166666572,
          "durationTicks": 227,
          "midi": 44,
          "name": "G#2",
          "ticks": 91200,
          "time": 122.164592,
          "velocity": 0.6299212598425197
        },
        {
          "duration": 0.2955729166666572,
          "durationTicks": 227,
          "midi": 51,
          "name": "D#3",
          "ticks": 91440,
          "time": 122.477092,
          "velocity": 0.6299212598425197
        },
        {
          "duration": 0.5924479166666572,
          "durationTicks": 455,
          "midi": 56,
          "name": "G#3",
          "ticks": 91680,
          "time": 122.789592,
          "velocity": 0.6299212598425197
        },
        {
          "duration": 0.5924479166666572,
          "durationTicks": 455,
          "midi": 64,
          "name": "E4",
          "ticks": 92160,
          "time": 123.414592,
          "velocity": 0.6299212598425197
        },
        {
          "duration": 0.5924479166666572,
          "durationTicks": 455,
          "midi": 64,
          "name": "E4",
          "ticks": 92640,
          "time": 124.039592,
          "velocity": 0.6299212598425197
        },
        {
          "duration": 0.5924479166666572,
          "durationTicks": 455,
          "midi": 66,
          "name": "F#4",
          "ticks": 93120,
          "time": 124.664592,
          "velocity": 0.6299212598425197
        },
        {
          "duration": 0.5924479166666572,
          "durationTicks": 455,
          "midi": 66,
          "name": "F#4",
          "ticks": 93600,
          "time": 125.289592,
          "velocity": 0.6299212598425197
        },
        {
          "duration": 0.5924479166666572,
          "durationTicks": 455,
          "midi": 68,
          "name": "G#4",
          "ticks": 94080,
          "time": 125.914592,
          "velocity": 0.6299212598425197
        },
        {
          "duration": 0.5924479166666572,
          "durationTicks": 455,
          "midi": 63,
          "name": "D#4",
          "ticks": 94560,
          "time": 126.539592,
          "velocity": 0.6299212598425197
        },
        {
          "duration": 0.5924479166666572,
          "durationTicks": 455,
          "midi": 56,
          "name": "G#3",
          "ticks": 95040,
          "time": 127.164592,
          "velocity": 0.6299212598425197
        },
        {
          "duration": 0.5924479166666572,
          "durationTicks": 455,
          "midi": 63,
          "name": "D#4",
          "ticks": 95520,
          "time": 127.789592,
          "velocity": 0.6299212598425197
        },
        {
          "duration": 0.5924479166666572,
          "durationTicks": 455,
          "midi": 64,
          "name": "E4",
          "ticks": 96000,
          "time": 128.414592,
          "velocity": 0.6299212598425197
        },
        {
          "duration": 0.5924479166666572,
          "durationTicks": 455,
          "midi": 68,
          "name": "G#4",
          "ticks": 96480,
          "time": 129.039592,
          "velocity": 0.6299212598425197
        },
        {
          "duration": 0.5924479166666572,
          "durationTicks": 455,
          "midi": 66,
          "name": "F#4",
          "ticks": 96960,
          "time": 129.664592,
          "velocity": 0.6299212598425197
        },
        {
          "duration": 0.5924479166666572,
          "durationTicks": 455,
          "midi": 63,
          "name": "D#4",
          "ticks": 97440,
          "time": 130.289592,
          "velocity": 0.6299212598425197
        },
        {
          "duration": 0.5924479166666572,
          "durationTicks": 455,
          "midi": 68,
          "name": "G#4",
          "ticks": 97920,
          "time": 130.914592,
          "velocity": 0.6299212598425197
        },
        {
          "duration": 0.5924479166666572,
          "durationTicks": 455,
          "midi": 63,
          "name": "D#4",
          "ticks": 98400,
          "time": 131.539592,
          "velocity": 0.6299212598425197
        },
        {
          "duration": 0.5924479166666572,
          "durationTicks": 455,
          "midi": 71,
          "name": "B4",
          "ticks": 98880,
          "time": 132.164592,
          "velocity": 0.6299212598425197
        },
        {
          "duration": 0.5924479166666572,
          "durationTicks": 455,
          "midi": 63,
          "name": "D#4",
          "ticks": 99360,
          "time": 132.789592,
          "velocity": 0.6299212598425197
        },
        {
          "duration": 1.1861979166666856,
          "durationTicks": 911,
          "midi": 64,
          "name": "E4",
          "ticks": 99840,
          "time": 133.414592,
          "velocity": 0.6299212598425197
        },
        {
          "duration": 0.5924479166666572,
          "durationTicks": 455,
          "midi": 66,
          "name": "F#4",
          "ticks": 100800,
          "time": 134.664592,
          "velocity": 0.6299212598425197
        },
        {
          "duration": 0.5924479166666572,
          "durationTicks": 455,
          "midi": 63,
          "name": "D#4",
          "ticks": 101280,
          "time": 135.289592,
          "velocity": 0.6299212598425197
        },
        {
          "duration": 0.5924479166666572,
          "durationTicks": 455,
          "midi": 68,
          "name": "G#4",
          "ticks": 101760,
          "time": 135.914592,
          "velocity": 0.6299212598425197
        },
        {
          "duration": 0.5924479166666572,
          "durationTicks": 455,
          "midi": 63,
          "name": "D#4",
          "ticks": 102240,
          "time": 136.539592,
          "velocity": 0.6299212598425197
        },
        {
          "duration": 0.5924479166666572,
          "durationTicks": 455,
          "midi": 68,
          "name": "G#4",
          "ticks": 102720,
          "time": 137.164592,
          "velocity": 0.6299212598425197
        },
        {
          "duration": 0.5924479166666572,
          "durationTicks": 455,
          "midi": 63,
          "name": "D#4",
          "ticks": 103200,
          "time": 137.789592,
          "velocity": 0.6299212598425197
        },
        {
          "duration": 1.1861979166666856,
          "durationTicks": 911,
          "midi": 64,
          "name": "E4",
          "ticks": 103680,
          "time": 138.414592,
          "velocity": 0.6299212598425197
        },
        {
          "duration": 0.5924479166666572,
          "durationTicks": 455,
          "midi": 66,
          "name": "F#4",
          "ticks": 104640,
          "time": 139.664592,
          "velocity": 0.6299212598425197
        },
        {
          "duration": 0.5924479166666572,
          "durationTicks": 455,
          "midi": 63,
          "name": "D#4",
          "ticks": 105120,
          "time": 140.289592,
          "velocity": 0.6299212598425197
        },
        {
          "duration": 0.2955729166666572,
          "durationTicks": 227,
          "midi": 56,
          "name": "G#3",
          "ticks": 105600,
          "time": 140.914592,
          "velocity": 0.6299212598425197
        },
        {
          "duration": 0.2955729166666572,
          "durationTicks": 227,
          "midi": 63,
          "name": "D#4",
          "ticks": 105840,
          "time": 141.227092,
          "velocity": 0.6299212598425197
        },
        {
          "duration": 0.2955729166666572,
          "durationTicks": 227,
          "midi": 68,
          "name": "G#4",
          "ticks": 106080,
          "time": 141.539592,
          "velocity": 0.6299212598425197
        },
        {
          "duration": 0.2955729166666572,
          "durationTicks": 227,
          "midi": 70,
          "name": "A#4",
          "ticks": 106320,
          "time": 141.852092,
          "velocity": 0.6299212598425197
        },
        {
          "duration": 0.2955729166666572,
          "durationTicks": 227,
          "midi": 71,
          "name": "B4",
          "ticks": 106560,
          "time": 142.164592,
          "velocity": 0.6299212598425197
        },
        {
          "duration": 0.2955729166666572,
          "durationTicks": 227,
          "midi": 63,
          "name": "D#4",
          "ticks": 106800,
          "time": 142.477092,
          "velocity": 0.6299212598425197
        },
        {
          "duration": 0.5924479166666572,
          "durationTicks": 455,
          "midi": 68,
          "name": "G#4",
          "ticks": 107040,
          "time": 142.789592,
          "velocity": 0.6299212598425197
        },
        {
          "duration": 0.2955729166666572,
          "durationTicks": 227,
          "midi": 52,
          "name": "E3",
          "ticks": 107520,
          "time": 143.414592,
          "velocity": 0.6299212598425197
        },
        {
          "duration": 0.2955729166666572,
          "durationTicks": 227,
          "midi": 59,
          "name": "B3",
          "ticks": 107760,
          "time": 143.727092,
          "velocity": 0.6299212598425197
        },
        {
          "duration": 0.2955729166666572,
          "durationTicks": 227,
          "midi": 64,
          "name": "E4",
          "ticks": 108000,
          "time": 144.039592,
          "velocity": 0.6299212598425197
        },
        {
          "duration": 0.2955729166666572,
          "durationTicks": 227,
          "midi": 59,
          "name": "B3",
          "ticks": 108240,
          "time": 144.352092,
          "velocity": 0.6299212598425197
        },
        {
          "duration": 0.2955729166666572,
          "durationTicks": 227,
          "midi": 54,
          "name": "F#3",
          "ticks": 108480,
          "time": 144.664592,
          "velocity": 0.6299212598425197
        },
        {
          "duration": 0.2955729166666572,
          "durationTicks": 227,
          "midi": 61,
          "name": "C#4",
          "ticks": 108720,
          "time": 144.977092,
          "velocity": 0.6299212598425197
        },
        {
          "duration": 0.2955729166666572,
          "durationTicks": 227,
          "midi": 66,
          "name": "F#4",
          "ticks": 108960,
          "time": 145.289592,
          "velocity": 0.6299212598425197
        },
        {
          "duration": 0.2955729166666572,
          "durationTicks": 227,
          "midi": 61,
          "name": "C#4",
          "ticks": 109200,
          "time": 145.602092,
          "velocity": 0.6299212598425197
        },
        {
          "duration": 0.2955729166666572,
          "durationTicks": 227,
          "midi": 56,
          "name": "G#3",
          "ticks": 109440,
          "time": 145.914592,
          "velocity": 0.6299212598425197
        },
        {
          "duration": 0.2955729166666572,
          "durationTicks": 227,
          "midi": 63,
          "name": "D#4",
          "ticks": 109680,
          "time": 146.227092,
          "velocity": 0.6299212598425197
        },
        {
          "duration": 0.2955729166666572,
          "durationTicks": 227,
          "midi": 68,
          "name": "G#4",
          "ticks": 109920,
          "time": 146.539592,
          "velocity": 0.6299212598425197
        },
        {
          "duration": 0.2955729166666572,
          "durationTicks": 227,
          "midi": 63,
          "name": "D#4",
          "ticks": 110160,
          "time": 146.852092,
          "velocity": 0.6299212598425197
        },
        {
          "duration": 0.2955729166666572,
          "durationTicks": 227,
          "midi": 56,
          "name": "G#3",
          "ticks": 110400,
          "time": 147.164592,
          "velocity": 0.6299212598425197
        },
        {
          "duration": 0.2955729166666572,
          "durationTicks": 227,
          "midi": 68,
          "name": "G#4",
          "ticks": 110640,
          "time": 147.477092,
          "velocity": 0.6299212598425197
        },
        {
          "duration": 0.2955729166666572,
          "durationTicks": 227,
          "midi": 63,
          "name": "D#4",
          "ticks": 110880,
          "time": 147.789592,
          "velocity": 0.6299212598425197
        },
        {
          "duration": 0.2955729166666572,
          "durationTicks": 227,
          "midi": 68,
          "name": "G#4",
          "ticks": 111120,
          "time": 148.102092,
          "velocity": 0.6299212598425197
        },
        {
          "duration": 0.2955729166666572,
          "durationTicks": 227,
          "midi": 52,
          "name": "E3",
          "ticks": 111360,
          "time": 148.414592,
          "velocity": 0.6299212598425197
        },
        {
          "duration": 0.2955729166666572,
          "durationTicks": 227,
          "midi": 59,
          "name": "B3",
          "ticks": 111600,
          "time": 148.727092,
          "velocity": 0.6299212598425197
        },
        {
          "duration": 0.2955729166666572,
          "durationTicks": 227,
          "midi": 64,
          "name": "E4",
          "ticks": 111840,
          "time": 149.039592,
          "velocity": 0.6299212598425197
        },
        {
          "duration": 0.2955729166666572,
          "durationTicks": 227,
          "midi": 59,
          "name": "B3",
          "ticks": 112080,
          "time": 149.352092,
          "velocity": 0.6299212598425197
        },
        {
          "duration": 0.2955729166666572,
          "durationTicks": 227,
          "midi": 54,
          "name": "F#3",
          "ticks": 112320,
          "time": 149.664592,
          "velocity": 0.6299212598425197
        },
        {
          "duration": 0.2955729166666572,
          "durationTicks": 227,
          "midi": 61,
          "name": "C#4",
          "ticks": 112560,
          "time": 149.977092,
          "velocity": 0.6299212598425197
        },
        {
          "duration": 0.2955729166666572,
          "durationTicks": 227,
          "midi": 66,
          "name": "F#4",
          "ticks": 112800,
          "time": 150.289592,
          "velocity": 0.6299212598425197
        },
        {
          "duration": 0.2955729166666572,
          "durationTicks": 227,
          "midi": 61,
          "name": "C#4",
          "ticks": 113040,
          "time": 150.602092,
          "velocity": 0.6299212598425197
        },
        {
          "duration": 0.2955729166666572,
          "durationTicks": 227,
          "midi": 56,
          "name": "G#3",
          "ticks": 113280,
          "time": 150.914592,
          "velocity": 0.6299212598425197
        },
        {
          "duration": 0.2955729166666572,
          "durationTicks": 227,
          "midi": 63,
          "name": "D#4",
          "ticks": 113520,
          "time": 151.227092,
          "velocity": 0.6299212598425197
        },
        {
          "duration": 0.2955729166666572,
          "durationTicks": 227,
          "midi": 68,
          "name": "G#4",
          "ticks": 113760,
          "time": 151.539592,
          "velocity": 0.6299212598425197
        },
        {
          "duration": 0.2955729166666572,
          "durationTicks": 227,
          "midi": 63,
          "name": "D#4",
          "ticks": 114000,
          "time": 151.852092,
          "velocity": 0.6299212598425197
        },
        {
          "duration": 0.2955729166666572,
          "durationTicks": 227,
          "midi": 71,
          "name": "B4",
          "ticks": 114240,
          "time": 152.164592,
          "velocity": 0.6299212598425197
        },
        {
          "duration": 0.2955729166666572,
          "durationTicks": 227,
          "midi": 63,
          "name": "D#4",
          "ticks": 114480,
          "time": 152.477092,
          "velocity": 0.6299212598425197
        },
        {
          "duration": 0.2955729166666572,
          "durationTicks": 227,
          "midi": 68,
          "name": "G#4",
          "ticks": 114720,
          "time": 152.789592,
          "velocity": 0.6299212598425197
        },
        {
          "duration": 0.2955729166666572,
          "durationTicks": 227,
          "midi": 63,
          "name": "D#4",
          "ticks": 114960,
          "time": 153.102092,
          "velocity": 0.6299212598425197
        },
        {
          "duration": 0.2955729166666572,
          "durationTicks": 227,
          "midi": 52,
          "name": "E3",
          "ticks": 115200,
          "time": 153.414592,
          "velocity": 0.6299212598425197
        },
        {
          "duration": 0.2955729166666572,
          "durationTicks": 227,
          "midi": 59,
          "name": "B3",
          "ticks": 115440,
          "time": 153.727092,
          "velocity": 0.6299212598425197
        },
        {
          "duration": 0.2955729166666572,
          "durationTicks": 227,
          "midi": 64,
          "name": "E4",
          "ticks": 115680,
          "time": 154.039592,
          "velocity": 0.6299212598425197
        },
        {
          "duration": 0.2955729166666572,
          "durationTicks": 227,
          "midi": 59,
          "name": "B3",
          "ticks": 115920,
          "time": 154.352092,
          "velocity": 0.6299212598425197
        },
        {
          "duration": 0.2955729166666572,
          "durationTicks": 227,
          "midi": 54,
          "name": "F#3",
          "ticks": 116160,
          "time": 154.664592,
          "velocity": 0.6299212598425197
        },
        {
          "duration": 0.2955729166666572,
          "durationTicks": 227,
          "midi": 61,
          "name": "C#4",
          "ticks": 116400,
          "time": 154.977092,
          "velocity": 0.6299212598425197
        },
        {
          "duration": 0.2955729166666572,
          "durationTicks": 227,
          "midi": 66,
          "name": "F#4",
          "ticks": 116640,
          "time": 155.289592,
          "velocity": 0.6299212598425197
        },
        {
          "duration": 0.2955729166666572,
          "durationTicks": 227,
          "midi": 61,
          "name": "C#4",
          "ticks": 116880,
          "time": 155.602092,
          "velocity": 0.6299212598425197
        },
        {
          "duration": 0.2955729166666572,
          "durationTicks": 227,
          "midi": 56,
          "name": "G#3",
          "ticks": 117120,
          "time": 155.914592,
          "velocity": 0.6299212598425197
        },
        {
          "duration": 0.2955729166666572,
          "durationTicks": 227,
          "midi": 63,
          "name": "D#4",
          "ticks": 117360,
          "time": 156.227092,
          "velocity": 0.6299212598425197
        },
        {
          "duration": 0.2955729166666572,
          "durationTicks": 227,
          "midi": 68,
          "name": "G#4",
          "ticks": 117600,
          "time": 156.539592,
          "velocity": 0.6299212598425197
        },
        {
          "duration": 0.2955729166666572,
          "durationTicks": 227,
          "midi": 63,
          "name": "D#4",
          "ticks": 117840,
          "time": 156.852092,
          "velocity": 0.6299212598425197
        },
        {
          "duration": 0.2955729166666572,
          "durationTicks": 227,
          "midi": 56,
          "name": "G#3",
          "ticks": 118080,
          "time": 157.164592,
          "velocity": 0.6299212598425197
        },
        {
          "duration": 0.2955729166666572,
          "durationTicks": 227,
          "midi": 68,
          "name": "G#4",
          "ticks": 118320,
          "time": 157.477092,
          "velocity": 0.6299212598425197
        },
        {
          "duration": 0.2955729166666572,
          "durationTicks": 227,
          "midi": 63,
          "name": "D#4",
          "ticks": 118560,
          "time": 157.789592,
          "velocity": 0.6299212598425197
        },
        {
          "duration": 0.2955729166666572,
          "durationTicks": 227,
          "midi": 68,
          "name": "G#4",
          "ticks": 118800,
          "time": 158.102092,
          "velocity": 0.6299212598425197
        },
        {
          "duration": 0.2955729166666572,
          "durationTicks": 227,
          "midi": 52,
          "name": "E3",
          "ticks": 119040,
          "time": 158.414592,
          "velocity": 0.6299212598425197
        },
        {
          "duration": 0.2955729166666572,
          "durationTicks": 227,
          "midi": 59,
          "name": "B3",
          "ticks": 119280,
          "time": 158.727092,
          "velocity": 0.6299212598425197
        },
        {
          "duration": 0.2955729166666572,
          "durationTicks": 227,
          "midi": 64,
          "name": "E4",
          "ticks": 119520,
          "time": 159.039592,
          "velocity": 0.6299212598425197
        },
        {
          "duration": 0.2955729166666572,
          "durationTicks": 227,
          "midi": 59,
          "name": "B3",
          "ticks": 119760,
          "time": 159.352092,
          "velocity": 0.6299212598425197
        },
        {
          "duration": 0.2955729166666572,
          "durationTicks": 227,
          "midi": 54,
          "name": "F#3",
          "ticks": 120000,
          "time": 159.664592,
          "velocity": 0.6299212598425197
        },
        {
          "duration": 0.2955729166666572,
          "durationTicks": 227,
          "midi": 61,
          "name": "C#4",
          "ticks": 120240,
          "time": 159.977092,
          "velocity": 0.6299212598425197
        },
        {
          "duration": 0.2955729166666572,
          "durationTicks": 227,
          "midi": 66,
          "name": "F#4",
          "ticks": 120480,
          "time": 160.289592,
          "velocity": 0.6299212598425197
        },
        {
          "duration": 0.2955729166666572,
          "durationTicks": 227,
          "midi": 61,
          "name": "C#4",
          "ticks": 120720,
          "time": 160.602092,
          "velocity": 0.6299212598425197
        },
        {
          "duration": 0.2955729166666572,
          "durationTicks": 227,
          "midi": 56,
          "name": "G#3",
          "ticks": 120960,
          "time": 160.914592,
          "velocity": 0.6299212598425197
        },
        {
          "duration": 0.2955729166666572,
          "durationTicks": 227,
          "midi": 32,
          "name": "G#1",
          "ticks": 120960,
          "time": 160.914592,
          "velocity": 0.6299212598425197
        },
        {
          "duration": 0.2955729166666572,
          "durationTicks": 227,
          "midi": 63,
          "name": "D#4",
          "ticks": 121200,
          "time": 161.227092,
          "velocity": 0.6299212598425197
        },
        {
          "duration": 0.2955729166666572,
          "durationTicks": 227,
          "midi": 32,
          "name": "G#1",
          "ticks": 121200,
          "time": 161.227092,
          "velocity": 0.6299212598425197
        },
        {
          "duration": 0.2955729166666572,
          "durationTicks": 227,
          "midi": 68,
          "name": "G#4",
          "ticks": 121440,
          "time": 161.539592,
          "velocity": 0.6299212598425197
        },
        {
          "duration": 0.2955729166666572,
          "durationTicks": 227,
          "midi": 32,
          "name": "G#1",
          "ticks": 121440,
          "time": 161.539592,
          "velocity": 0.6299212598425197
        },
        {
          "duration": 0.2955729166666572,
          "durationTicks": 227,
          "midi": 70,
          "name": "A#4",
          "ticks": 121680,
          "time": 161.852092,
          "velocity": 0.6299212598425197
        },
        {
          "duration": 0.2955729166666572,
          "durationTicks": 227,
          "midi": 32,
          "name": "G#1",
          "ticks": 121680,
          "time": 161.852092,
          "velocity": 0.6299212598425197
        },
        {
          "duration": 0.2955729166666572,
          "durationTicks": 227,
          "midi": 71,
          "name": "B4",
          "ticks": 121920,
          "time": 162.164592,
          "velocity": 0.6299212598425197
        },
        {
          "duration": 0.2955729166666572,
          "durationTicks": 227,
          "midi": 32,
          "name": "G#1",
          "ticks": 121920,
          "time": 162.164592,
          "velocity": 0.6299212598425197
        },
        {
          "duration": 0.2955729166666572,
          "durationTicks": 227,
          "midi": 63,
          "name": "D#4",
          "ticks": 122160,
          "time": 162.477092,
          "velocity": 0.6299212598425197
        },
        {
          "duration": 0.2955729166666572,
          "durationTicks": 227,
          "midi": 32,
          "name": "G#1",
          "ticks": 122160,
          "time": 162.477092,
          "velocity": 0.6299212598425197
        },
        {
          "duration": 0.5924479166666572,
          "durationTicks": 455,
          "midi": 68,
          "name": "G#4",
          "ticks": 122400,
          "time": 162.789592,
          "velocity": 0.6299212598425197
        },
        {
          "duration": 0.2955729166666572,
          "durationTicks": 227,
          "midi": 32,
          "name": "G#1",
          "ticks": 122400,
          "time": 162.789592,
          "velocity": 0.6299212598425197
        },
        {
          "duration": 0.2955729166666572,
          "durationTicks": 227,
          "midi": 32,
          "name": "G#1",
          "ticks": 122640,
          "time": 163.102092,
          "velocity": 0.6299212598425197
        },
        {
          "duration": 1.1861979166666856,
          "durationTicks": 911,
          "midi": 32,
          "name": "G#1",
          "ticks": 122880,
          "time": 163.414592,
          "velocity": 0.6299212598425197
        },
        {
          "duration": 0.14713541666668561,
          "durationTicks": 113,
          "midi": 44,
          "name": "G#2",
          "ticks": 124800,
          "time": 165.914592,
          "velocity": 0.6299212598425197
        },
        {
          "duration": 0.14713541666668561,
          "durationTicks": 113,
          "midi": 51,
          "name": "D#3",
          "ticks": 124920,
          "time": 166.070842,
          "velocity": 0.6299212598425197
        },
        {
          "duration": 0.14713541666668561,
          "durationTicks": 113,
          "midi": 56,
          "name": "G#3",
          "ticks": 125040,
          "time": 166.227092,
          "velocity": 0.6299212598425197
        },
        {
          "duration": 0.14713541666668561,
          "durationTicks": 113,
          "midi": 58,
          "name": "A#3",
          "ticks": 125160,
          "time": 166.383342,
          "velocity": 0.6299212598425197
        },
        {
          "duration": 0.2955729166666572,
          "durationTicks": 227,
          "midi": 59,
          "name": "B3",
          "ticks": 125280,
          "time": 166.539592,
          "velocity": 0.6299212598425197
        },
        {
          "duration": 0.2955729166666572,
          "durationTicks": 227,
          "midi": 63,
          "name": "D#4",
          "ticks": 125520,
          "time": 166.852092,
          "velocity": 0.6299212598425197
        },
        {
          "duration": 0.2955729166666572,
          "durationTicks": 227,
          "midi": 51,
          "name": "D#3",
          "ticks": 125760,
          "time": 167.164592,
          "velocity": 0.6299212598425197
        },
        {
          "duration": 0.2955729166666572,
          "durationTicks": 227,
          "midi": 58,
          "name": "A#3",
          "ticks": 126000,
          "time": 167.477092,
          "velocity": 0.6299212598425197
        },
        {
          "duration": 0.5924479166666572,
          "durationTicks": 455,
          "midi": 63,
          "name": "D#4",
          "ticks": 126240,
          "time": 167.789592,
          "velocity": 0.6299212598425197
        },
        {
          "duration": 0.5924479166666572,
          "durationTicks": 455,
          "midi": 66,
          "name": "F#4",
          "ticks": 126240,
          "time": 167.789592,
          "velocity": 0.6299212598425197
        },
        {
          "duration": 0.14713541666668561,
          "durationTicks": 113,
          "midi": 40,
          "name": "E2",
          "ticks": 126720,
          "time": 168.414592,
          "velocity": 0.6299212598425197
        },
        {
          "duration": 0.14713541666668561,
          "durationTicks": 113,
          "midi": 47,
          "name": "B2",
          "ticks": 126840,
          "time": 168.570842,
          "velocity": 0.6299212598425197
        },
        {
          "duration": 0.14713541666668561,
          "durationTicks": 113,
          "midi": 52,
          "name": "E3",
          "ticks": 126960,
          "time": 168.727092,
          "velocity": 0.6299212598425197
        },
        {
          "duration": 0.14713541666668561,
          "durationTicks": 113,
          "midi": 54,
          "name": "F#3",
          "ticks": 127080,
          "time": 168.883342,
          "velocity": 0.6299212598425197
        },
        {
          "duration": 0.2955729166666572,
          "durationTicks": 227,
          "midi": 56,
          "name": "G#3",
          "ticks": 127200,
          "time": 169.039592,
          "velocity": 0.6299212598425197
        },
        {
          "duration": 0.2955729166666572,
          "durationTicks": 227,
          "midi": 59,
          "name": "B3",
          "ticks": 127440,
          "time": 169.352092,
          "velocity": 0.6299212598425197
        },
        {
          "duration": 0.2955729166666572,
          "durationTicks": 227,
          "midi": 47,
          "name": "B2",
          "ticks": 127680,
          "time": 169.664592,
          "velocity": 0.6299212598425197
        },
        {
          "duration": 0.2955729166666572,
          "durationTicks": 227,
          "midi": 54,
          "name": "F#3",
          "ticks": 127920,
          "time": 169.977092,
          "velocity": 0.6299212598425197
        },
        {
          "duration": 0.5924479166666572,
          "durationTicks": 455,
          "midi": 59,
          "name": "B3",
          "ticks": 128160,
          "time": 170.289592,
          "velocity": 0.6299212598425197
        },
        {
          "duration": 0.5924479166666572,
          "durationTicks": 455,
          "midi": 63,
          "name": "D#4",
          "ticks": 128160,
          "time": 170.289592,
          "velocity": 0.6299212598425197
        },
        {
          "duration": 0.2955729166666572,
          "durationTicks": 227,
          "midi": 37,
          "name": "C#2",
          "ticks": 128640,
          "time": 170.914592,
          "velocity": 0.6299212598425197
        },
        {
          "duration": 0.2955729166666572,
          "durationTicks": 227,
          "midi": 49,
          "name": "C#3",
          "ticks": 128640,
          "time": 170.914592,
          "velocity": 0.6299212598425197
        },
        {
          "duration": 0.2955729166666572,
          "durationTicks": 227,
          "midi": 56,
          "name": "G#3",
          "ticks": 128880,
          "time": 171.227092,
          "velocity": 0.6299212598425197
        },
        {
          "duration": 0.14713541666668561,
          "durationTicks": 113,
          "midi": 64,
          "name": "E4",
          "ticks": 129120,
          "time": 171.539592,
          "velocity": 0.6299212598425197
        },
        {
          "duration": 0.14713541666668561,
          "durationTicks": 113,
          "midi": 63,
          "name": "D#4",
          "ticks": 129240,
          "time": 171.695842,
          "velocity": 0.6299212598425197
        },
        {
          "duration": 0.14713541666668561,
          "durationTicks": 113,
          "midi": 61,
          "name": "C#4",
          "ticks": 129360,
          "time": 171.852092,
          "velocity": 0.6299212598425197
        },
        {
          "duration": 0.14713541666668561,
          "durationTicks": 113,
          "midi": 59,
          "name": "B3",
          "ticks": 129480,
          "time": 172.008342,
          "velocity": 0.6299212598425197
        },
        {
          "duration": 0.2955729166666572,
          "durationTicks": 227,
          "midi": 32,
          "name": "G#1",
          "ticks": 129600,
          "time": 172.164592,
          "velocity": 0.6299212598425197
        },
        {
          "duration": 0.2955729166666572,
          "durationTicks": 227,
          "midi": 44,
          "name": "G#2",
          "ticks": 129600,
          "time": 172.164592,
          "velocity": 0.6299212598425197
        },
        {
          "duration": 0.2955729166666572,
          "durationTicks": 227,
          "midi": 39,
          "name": "D#2",
          "ticks": 129840,
          "time": 172.477092,
          "velocity": 0.6299212598425197
        },
        {
          "duration": 0.14713541666668561,
          "durationTicks": 113,
          "midi": 51,
          "name": "D#3",
          "ticks": 130080,
          "time": 172.789592,
          "velocity": 0.6299212598425197
        },
        {
          "duration": 0.14713541666668561,
          "durationTicks": 113,
          "midi": 49,
          "name": "C#3",
          "ticks": 130200,
          "time": 172.945842,
          "velocity": 0.6299212598425197
        },
        {
          "duration": 0.14713541666668561,
          "durationTicks": 113,
          "midi": 47,
          "name": "B2",
          "ticks": 130320,
          "time": 173.102092,
          "velocity": 0.6299212598425197
        },
        {
          "duration": 0.14713541666668561,
          "durationTicks": 113,
          "midi": 46,
          "name": "A#2",
          "ticks": 130440,
          "time": 173.258342,
          "velocity": 0.6299212598425197
        },
        {
          "duration": 0.2955729166666572,
          "durationTicks": 227,
          "midi": 34,
          "name": "A#1",
          "ticks": 130560,
          "time": 173.414592,
          "velocity": 0.6299212598425197
        },
        {
          "duration": 0.2955729166666572,
          "durationTicks": 227,
          "midi": 46,
          "name": "A#2",
          "ticks": 130560,
          "time": 173.414592,
          "velocity": 0.6299212598425197
        },
        {
          "duration": 0.2955729166666572,
          "durationTicks": 227,
          "midi": 52,
          "name": "E3",
          "ticks": 130800,
          "time": 173.727092,
          "velocity": 0.6299212598425197
        },
        {
          "duration": 0.2955729166666572,
          "durationTicks": 227,
          "midi": 58,
          "name": "A#3",
          "ticks": 131040,
          "time": 174.039592,
          "velocity": 0.6299212598425197
        },
        {
          "duration": 0.2955729166666572,
          "durationTicks": 227,
          "midi": 61,
          "name": "C#4",
          "ticks": 131040,
          "time": 174.039592,
          "velocity": 0.6299212598425197
        },
        {
          "duration": 0.2955729166666572,
          "durationTicks": 227,
          "midi": 52,
          "name": "E3",
          "ticks": 131280,
          "time": 174.352092,
          "velocity": 0.6299212598425197
        },
        {
          "duration": 0.2955729166666572,
          "durationTicks": 227,
          "midi": 49,
          "name": "C#3",
          "ticks": 131520,
          "time": 174.664592,
          "velocity": 0.6299212598425197
        },
        {
          "duration": 0.2955729166666572,
          "durationTicks": 227,
          "midi": 61,
          "name": "C#4",
          "ticks": 131520,
          "time": 174.664592,
          "velocity": 0.6299212598425197
        },
        {
          "duration": 0.2955729166666572,
          "durationTicks": 227,
          "midi": 47,
          "name": "B2",
          "ticks": 131760,
          "time": 174.977092,
          "velocity": 0.6299212598425197
        },
        {
          "duration": 0.2955729166666572,
          "durationTicks": 227,
          "midi": 59,
          "name": "B3",
          "ticks": 131760,
          "time": 174.977092,
          "velocity": 0.6299212598425197
        },
        {
          "duration": 0.2955729166666572,
          "durationTicks": 227,
          "midi": 46,
          "name": "A#2",
          "ticks": 132000,
          "time": 175.289592,
          "velocity": 0.6299212598425197
        },
        {
          "duration": 0.2955729166666572,
          "durationTicks": 227,
          "midi": 58,
          "name": "A#3",
          "ticks": 132000,
          "time": 175.289592,
          "velocity": 0.6299212598425197
        },
        {
          "duration": 0.2955729166666572,
          "durationTicks": 227,
          "midi": 39,
          "name": "D#2",
          "ticks": 132240,
          "time": 175.602092,
          "velocity": 0.6299212598425197
        },
        {
          "duration": 0.2955729166666572,
          "durationTicks": 227,
          "midi": 51,
          "name": "D#3",
          "ticks": 132240,
          "time": 175.602092,
          "velocity": 0.6299212598425197
        },
        {
          "duration": 0.14713541666668561,
          "durationTicks": 113,
          "midi": 44,
          "name": "G#2",
          "ticks": 132480,
          "time": 175.914592,
          "velocity": 0.6299212598425197
        },
        {
          "duration": 0.14713541666668561,
          "durationTicks": 113,
          "midi": 51,
          "name": "D#3",
          "ticks": 132600,
          "time": 176.070842,
          "velocity": 0.6299212598425197
        },
        {
          "duration": 0.14713541666668561,
          "durationTicks": 113,
          "midi": 56,
          "name": "G#3",
          "ticks": 132720,
          "time": 176.227092,
          "velocity": 0.6299212598425197
        },
        {
          "duration": 0.14713541666668561,
          "durationTicks": 113,
          "midi": 58,
          "name": "A#3",
          "ticks": 132840,
          "time": 176.383342,
          "velocity": 0.6299212598425197
        },
        {
          "duration": 0.14713541666668561,
          "durationTicks": 113,
          "midi": 59,
          "name": "B3",
          "ticks": 132960,
          "time": 176.539592,
          "velocity": 0.6299212598425197
        },
        {
          "duration": 0.14713541666668561,
          "durationTicks": 113,
          "midi": 58,
          "name": "A#3",
          "ticks": 133080,
          "time": 176.695842,
          "velocity": 0.6299212598425197
        },
        {
          "duration": 0.14713541666668561,
          "durationTicks": 113,
          "midi": 56,
          "name": "G#3",
          "ticks": 133200,
          "time": 176.852092,
          "velocity": 0.6299212598425197
        },
        {
          "duration": 0.14713541666668561,
          "durationTicks": 113,
          "midi": 51,
          "name": "D#3",
          "ticks": 133320,
          "time": 177.008342,
          "velocity": 0.6299212598425197
        },
        {
          "duration": 0.2955729166666572,
          "durationTicks": 227,
          "midi": 39,
          "name": "D#2",
          "ticks": 133440,
          "time": 177.164592,
          "velocity": 0.6299212598425197
        },
        {
          "duration": 0.2955729166666572,
          "durationTicks": 227,
          "midi": 46,
          "name": "A#2",
          "ticks": 133680,
          "time": 177.477092,
          "velocity": 0.6299212598425197
        },
        {
          "duration": 0.2955729166666572,
          "durationTicks": 227,
          "midi": 51,
          "name": "D#3",
          "ticks": 133920,
          "time": 177.789592,
          "velocity": 0.6299212598425197
        },
        {
          "duration": 0.2955729166666572,
          "durationTicks": 227,
          "midi": 46,
          "name": "A#2",
          "ticks": 134160,
          "time": 178.102092,
          "velocity": 0.6299212598425197
        },
        {
          "duration": 0.14713541666668561,
          "durationTicks": 113,
          "midi": 40,
          "name": "E2",
          "ticks": 134400,
          "time": 178.414592,
          "velocity": 0.6299212598425197
        },
        {
          "duration": 0.14713541666668561,
          "durationTicks": 113,
          "midi": 47,
          "name": "B2",
          "ticks": 134520,
          "time": 178.570842,
          "velocity": 0.6299212598425197
        },
        {
          "duration": 0.14713541666668561,
          "durationTicks": 113,
          "midi": 52,
          "name": "E3",
          "ticks": 134640,
          "time": 178.727092,
          "velocity": 0.6299212598425197
        },
        {
          "duration": 0.14713541666668561,
          "durationTicks": 113,
          "midi": 54,
          "name": "F#3",
          "ticks": 134760,
          "time": 178.883342,
          "velocity": 0.6299212598425197
        },
        {
          "duration": 0.14713541666668561,
          "durationTicks": 113,
          "midi": 56,
          "name": "G#3",
          "ticks": 134880,
          "time": 179.039592,
          "velocity": 0.6299212598425197
        },
        {
          "duration": 0.14713541666668561,
          "durationTicks": 113,
          "midi": 54,
          "name": "F#3",
          "ticks": 135000,
          "time": 179.195842,
          "velocity": 0.6299212598425197
        },
        {
          "duration": 0.14713541666668561,
          "durationTicks": 113,
          "midi": 52,
          "name": "E3",
          "ticks": 135120,
          "time": 179.352092,
          "velocity": 0.6299212598425197
        },
        {
          "duration": 0.14713541666668561,
          "durationTicks": 113,
          "midi": 47,
          "name": "B2",
          "ticks": 135240,
          "time": 179.508342,
          "velocity": 0.6299212598425197
        },
        {
          "duration": 0.2955729166666572,
          "durationTicks": 227,
          "midi": 35,
          "name": "B1",
          "ticks": 135360,
          "time": 179.664592,
          "velocity": 0.6299212598425197
        },
        {
          "duration": 0.2955729166666572,
          "durationTicks": 227,
          "midi": 42,
          "name": "F#2",
          "ticks": 135600,
          "time": 179.977092,
          "velocity": 0.6299212598425197
        },
        {
          "duration": 0.2955729166666572,
          "durationTicks": 227,
          "midi": 47,
          "name": "B2",
          "ticks": 135840,
          "time": 180.289592,
          "velocity": 0.6299212598425197
        },
        {
          "duration": 0.2955729166666572,
          "durationTicks": 227,
          "midi": 42,
          "name": "F#2",
          "ticks": 136080,
          "time": 180.602092,
          "velocity": 0.6299212598425197
        },
        {
          "duration": 0.14713541666668561,
          "durationTicks": 113,
          "midi": 37,
          "name": "C#2",
          "ticks": 136320,
          "time": 180.914592,
          "velocity": 0.6299212598425197
        },
        {
          "duration": 0.14713541666668561,
          "durationTicks": 113,
          "midi": 44,
          "name": "G#2",
          "ticks": 136440,
          "time": 181.070842,
          "velocity": 0.6299212598425197
        },
        {
          "duration": 0.14713541666668561,
          "durationTicks": 113,
          "midi": 49,
          "name": "C#3",
          "ticks": 136560,
          "time": 181.227092,
          "velocity": 0.6299212598425197
        },
        {
          "duration": 0.14713541666668561,
          "durationTicks": 113,
          "midi": 51,
          "name": "D#3",
          "ticks": 136680,
          "time": 181.383342,
          "velocity": 0.6299212598425197
        },
        {
          "duration": 0.14713541666668561,
          "durationTicks": 113,
          "midi": 52,
          "name": "E3",
          "ticks": 136800,
          "time": 181.539592,
          "velocity": 0.6299212598425197
        },
        {
          "duration": 0.14713541666668561,
          "durationTicks": 113,
          "midi": 51,
          "name": "D#3",
          "ticks": 136920,
          "time": 181.695842,
          "velocity": 0.6299212598425197
        },
        {
          "duration": 0.14713541666668561,
          "durationTicks": 113,
          "midi": 49,
          "name": "C#3",
          "ticks": 137040,
          "time": 181.852092,
          "velocity": 0.6299212598425197
        },
        {
          "duration": 0.14713541666668561,
          "durationTicks": 113,
          "midi": 44,
          "name": "G#2",
          "ticks": 137160,
          "time": 182.008342,
          "velocity": 0.6299212598425197
        },
        {
          "duration": 0.14713541666668561,
          "durationTicks": 113,
          "midi": 32,
          "name": "G#1",
          "ticks": 137280,
          "time": 182.164592,
          "velocity": 0.6299212598425197
        },
        {
          "duration": 0.14713541666668561,
          "durationTicks": 113,
          "midi": 39,
          "name": "D#2",
          "ticks": 137400,
          "time": 182.320842,
          "velocity": 0.6299212598425197
        },
        {
          "duration": 0.14713541666668561,
          "durationTicks": 113,
          "midi": 44,
          "name": "G#2",
          "ticks": 137520,
          "time": 182.477092,
          "velocity": 0.6299212598425197
        },
        {
          "duration": 0.14713541666668561,
          "durationTicks": 113,
          "midi": 46,
          "name": "A#2",
          "ticks": 137640,
          "time": 182.633342,
          "velocity": 0.6299212598425197
        },
        {
          "duration": 0.14713541666668561,
          "durationTicks": 113,
          "midi": 47,
          "name": "B2",
          "ticks": 137760,
          "time": 182.789592,
          "velocity": 0.6299212598425197
        },
        {
          "duration": 0.14713541666668561,
          "durationTicks": 113,
          "midi": 49,
          "name": "C#3",
          "ticks": 137880,
          "time": 182.945842,
          "velocity": 0.6299212598425197
        },
        {
          "duration": 0.2955729166666572,
          "durationTicks": 227,
          "midi": 51,
          "name": "D#3",
          "ticks": 138000,
          "time": 183.102092,
          "velocity": 0.6299212598425197
        },
        {
          "duration": 0.5924479166666856,
          "durationTicks": 455,
          "midi": 37,
          "name": "C#2",
          "ticks": 138240,
          "time": 183.414592,
          "velocity": 0.6299212598425197
        },
        {
          "duration": 0.5924479166666856,
          "durationTicks": 455,
          "midi": 49,
          "name": "C#3",
          "ticks": 138240,
          "time": 183.414592,
          "velocity": 0.6299212598425197
        },
        {
          "duration": 0.4440104166666856,
          "durationTicks": 341,
          "midi": 34,
          "name": "A#1",
          "ticks": 138720,
          "time": 184.039592,
          "velocity": 0.6299212598425197
        },
        {
          "duration": 0.4440104166666856,
          "durationTicks": 341,
          "midi": 46,
          "name": "A#2",
          "ticks": 138720,
          "time": 184.039592,
          "velocity": 0.6299212598425197
        },
        {
          "duration": 0.1471354166666572,
          "durationTicks": 113,
          "midi": 32,
          "name": "G#1",
          "ticks": 139080,
          "time": 184.508342,
          "velocity": 0.6299212598425197
        },
        {
          "duration": 0.1471354166666572,
          "durationTicks": 113,
          "midi": 44,
          "name": "G#2",
          "ticks": 139080,
          "time": 184.508342,
          "velocity": 0.6299212598425197
        },
        {
          "duration": 0.2955729166666572,
          "durationTicks": 227,
          "midi": 32,
          "name": "G#1",
          "ticks": 139200,
          "time": 184.664592,
          "velocity": 0.6299212598425197
        },
        {
          "duration": 0.2955729166666572,
          "durationTicks": 227,
          "midi": 44,
          "name": "G#2",
          "ticks": 139200,
          "time": 184.664592,
          "velocity": 0.6299212598425197
        },
        {
          "duration": 0.2955729166666572,
          "durationTicks": 227,
          "midi": 51,
          "name": "D#3",
          "ticks": 139440,
          "time": 184.977092,
          "velocity": 0.6299212598425197
        },
        {
          "duration": 0.5924479166666856,
          "durationTicks": 455,
          "midi": 56,
          "name": "G#3",
          "ticks": 139680,
          "time": 185.289592,
          "velocity": 0.6299212598425197
        },
        {
          "duration": 0.3460359624999967,
          "durationTicks": 227,
          "midi": 52,
          "name": "E3",
          "ticks": 140160,
          "time": 185.914592,
          "velocity": 0.6299212598425197
        },
        {
          "duration": 0.3460359625000251,
          "durationTicks": 227,
          "midi": 59,
          "name": "B3",
          "ticks": 140400,
          "time": 186.280445,
          "velocity": 0.6299212598425197
        },
        {
          "duration": 0.3460359624999967,
          "durationTicks": 227,
          "midi": 64,
          "name": "E4",
          "ticks": 140640,
          "time": 186.646298,
          "velocity": 0.6299212598425197
        },
        {
          "duration": 0.3460359624999967,
          "durationTicks": 227,
          "midi": 66,
          "name": "F#4",
          "ticks": 140880,
          "time": 187.012151,
          "velocity": 0.6299212598425197
        },
        {
          "duration": 1.3887170124999955,
          "durationTicks": 911,
          "midi": 68,
          "name": "G#4",
          "ticks": 141120,
          "time": 187.378004,
          "velocity": 0.6299212598425197
        },
        {
          "duration": 0.3460359624999967,
          "durationTicks": 227,
          "midi": 54,
          "name": "F#3",
          "ticks": 142080,
          "time": 188.841416,
          "velocity": 0.6299212598425197
        },
        {
          "duration": 0.3460359624999967,
          "durationTicks": 227,
          "midi": 61,
          "name": "C#4",
          "ticks": 142320,
          "time": 189.207269,
          "velocity": 0.6299212598425197
        },
        {
          "duration": 0.3460359624999967,
          "durationTicks": 227,
          "midi": 66,
          "name": "F#4",
          "ticks": 142560,
          "time": 189.573122,
          "velocity": 0.6299212598425197
        },
        {
          "duration": 0.3460359624999967,
          "durationTicks": 227,
          "midi": 68,
          "name": "G#4",
          "ticks": 142800,
          "time": 189.938975,
          "velocity": 0.6299212598425197
        },
        {
          "duration": 1.3887170125000239,
          "durationTicks": 911,
          "midi": 70,
          "name": "A#4",
          "ticks": 143040,
          "time": 190.304828,
          "velocity": 0.6299212598425197
        },
        {
          "duration": 0.3460359624999967,
          "durationTicks": 227,
          "midi": 56,
          "name": "G#3",
          "ticks": 144000,
          "time": 191.76824,
          "velocity": 0.6299212598425197
        },
        {
          "duration": 0.3460359624999967,
          "durationTicks": 227,
          "midi": 63,
          "name": "D#4",
          "ticks": 144240,
          "time": 192.134093,
          "velocity": 0.6299212598425197
        },
        {
          "duration": 0.3460359624999967,
          "durationTicks": 227,
          "midi": 68,
          "name": "G#4",
          "ticks": 144480,
          "time": 192.499946,
          "velocity": 0.6299212598425197
        },
        {
          "duration": 0.3460359624999967,
          "durationTicks": 227,
          "midi": 70,
          "name": "A#4",
          "ticks": 144720,
          "time": 192.865799,
          "velocity": 0.6299212598425197
        },
        {
          "duration": 1.3887170124999955,
          "durationTicks": 911,
          "midi": 71,
          "name": "B4",
          "ticks": 144960,
          "time": 193.231652,
          "velocity": 0.6299212598425197
        },
        {
          "duration": 0.3460359624999967,
          "durationTicks": 227,
          "midi": 52,
          "name": "E3",
          "ticks": 147840,
          "time": 197.621888,
          "velocity": 0.6299212598425197
        },
        {
          "duration": 0.3460359624999967,
          "durationTicks": 227,
          "midi": 59,
          "name": "B3",
          "ticks": 148080,
          "time": 197.987741,
          "velocity": 0.6299212598425197
        },
        {
          "duration": 0.3460359625000251,
          "durationTicks": 227,
          "midi": 64,
          "name": "E4",
          "ticks": 148320,
          "time": 198.353594,
          "velocity": 0.6299212598425197
        },
        {
          "duration": 0.3460359624999967,
          "durationTicks": 227,
          "midi": 66,
          "name": "F#4",
          "ticks": 148560,
          "time": 198.719447,
          "velocity": 0.6299212598425197
        },
        {
          "duration": 1.3887170125000239,
          "durationTicks": 911,
          "midi": 68,
          "name": "G#4",
          "ticks": 148800,
          "time": 199.0853,
          "velocity": 0.6299212598425197
        },
        {
          "duration": 0.3460359624999967,
          "durationTicks": 227,
          "midi": 54,
          "name": "F#3",
          "ticks": 149760,
          "time": 200.548712,
          "velocity": 0.6299212598425197
        },
        {
          "duration": 0.3460359624999967,
          "durationTicks": 227,
          "midi": 61,
          "name": "C#4",
          "ticks": 150000,
          "time": 200.914565,
          "velocity": 0.6299212598425197
        },
        {
          "duration": 0.3460359624999967,
          "durationTicks": 227,
          "midi": 66,
          "name": "F#4",
          "ticks": 150240,
          "time": 201.280418,
          "velocity": 0.6299212598425197
        },
        {
          "duration": 0.3460359624999967,
          "durationTicks": 227,
          "midi": 68,
          "name": "G#4",
          "ticks": 150480,
          "time": 201.646271,
          "velocity": 0.6299212598425197
        },
        {
          "duration": 1.3887170124999955,
          "durationTicks": 911,
          "midi": 70,
          "name": "A#4",
          "ticks": 150720,
          "time": 202.012124,
          "velocity": 0.6299212598425197
        },
        {
          "duration": 0.3460359624999967,
          "durationTicks": 227,
          "midi": 56,
          "name": "G#3",
          "ticks": 151680,
          "time": 203.475536,
          "velocity": 0.6299212598425197
        },
        {
          "duration": 0.3460359624999967,
          "durationTicks": 227,
          "midi": 63,
          "name": "D#4",
          "ticks": 151920,
          "time": 203.841389,
          "velocity": 0.6299212598425197
        },
        {
          "duration": 0.3460359624999967,
          "durationTicks": 227,
          "midi": 68,
          "name": "G#4",
          "ticks": 152160,
          "time": 204.207242,
          "velocity": 0.6299212598425197
        },
        {
          "duration": 0.3460359624999967,
          "durationTicks": 227,
          "midi": 70,
          "name": "A#4",
          "ticks": 152400,
          "time": 204.573095,
          "velocity": 0.6299212598425197
        },
        {
          "duration": 1.3887170124999955,
          "durationTicks": 911,
          "midi": 71,
          "name": "B4",
          "ticks": 152640,
          "time": 204.938948,
          "velocity": 0.6299212598425197
        },
        {
          "duration": 0.3460359625000251,
          "durationTicks": 227,
          "midi": 56,
          "name": "G#3",
          "ticks": 153600,
          "time": 206.40236,
          "velocity": 0.6299212598425197
        },
        {
          "duration": 0.3460359624999967,
          "durationTicks": 227,
          "midi": 63,
          "name": "D#4",
          "ticks": 153840,
          "time": 206.768213,
          "velocity": 0.6299212598425197
        },
        {
          "duration": 0.3460359624999967,
          "durationTicks": 227,
          "midi": 68,
          "name": "G#4",
          "ticks": 154080,
          "time": 207.134066,
          "velocity": 0.6299212598425197
        },
        {
          "duration": 0.3460359624999967,
          "durationTicks": 227,
          "midi": 70,
          "name": "A#4",
          "ticks": 154320,
          "time": 207.499919,
          "velocity": 0.6299212598425197
        },
        {
          "duration": 1.3887170125000239,
          "durationTicks": 911,
          "midi": 71,
          "name": "B4",
          "ticks": 154560,
          "time": 207.865772,
          "velocity": 0.6299212598425197
        },
        {
          "duration": 0.3460359624999967,
          "durationTicks": 227,
          "midi": 56,
          "name": "G#3",
          "ticks": 155520,
          "time": 209.329184,
          "velocity": 0.6299212598425197
        },
        {
          "duration": 0.3460359624999967,
          "durationTicks": 227,
          "midi": 63,
          "name": "D#4",
          "ticks": 155760,
          "time": 209.695037,
          "velocity": 0.5905511811023622
        },
        {
          "duration": 0.3460359624999967,
          "durationTicks": 227,
          "midi": 68,
          "name": "G#4",
          "ticks": 156000,
          "time": 210.06089,
          "velocity": 0.5511811023622047
        },
        {
          "duration": 0.3460359625000251,
          "durationTicks": 227,
          "midi": 70,
          "name": "A#4",
          "ticks": 156240,
          "time": 210.426743,
          "velocity": 0.5039370078740157
        },
        {
          "duration": 1.3887170124999955,
          "durationTicks": 911,
          "midi": 71,
          "name": "B4",
          "ticks": 156480,
          "time": 210.792596,
          "velocity": 0.4645669291338583
        },
        {
          "duration": 0.3460359624999967,
          "durationTicks": 227,
          "midi": 56,
          "name": "G#3",
          "ticks": 157440,
          "time": 212.256008,
          "velocity": 0.2992125984251969
        },
        {
          "duration": 0.3460359624999967,
          "durationTicks": 227,
          "midi": 63,
          "name": "D#4",
          "ticks": 157680,
          "time": 212.621861,
          "velocity": 0.25196850393700787
        },
        {
          "duration": 0.3460359624999967,
          "durationTicks": 227,
          "midi": 68,
          "name": "G#4",
          "ticks": 157920,
          "time": 212.987714,
          "velocity": 0.2125984251968504
        },
        {
          "duration": 0.3460359624999967,
          "durationTicks": 227,
          "midi": 70,
          "name": "A#4",
          "ticks": 158160,
          "time": 213.353567,
          "velocity": 0.1732283464566929
        },
        {
          "duration": 1.3887170124999955,
          "durationTicks": 911,
          "midi": 71,
          "name": "B4",
          "ticks": 158400,
          "time": 213.71942,
          "velocity": 0.12598425196850394
        }
      ]
    },
    {
      "channel": 0,
      "controlChanges": {
        "7": [
          {
            "number": 7,
            "ticks": 0,
            "time": 0,
            "value": 0.7874015748031497
          },
          {
            "number": 7,
            "ticks": 0,
            "time": 0,
            "value": 0.7874015748031497
          }
        ],
        "10": [
          {
            "number": 10,
            "ticks": 0,
            "time": 0,
            "value": 0.5039370078740157
          },
          {
            "number": 10,
            "ticks": 0,
            "time": 0,
            "value": 0.5039370078740157
          }
        ],
        "91": [
          {
            "number": 91,
            "ticks": 0,
            "time": 0,
            "value": 0
          },
          {
            "number": 91,
            "ticks": 0,
            "time": 0,
            "value": 0
          }
        ],
        "93": [
          {
            "number": 93,
            "ticks": 0,
            "time": 0,
            "value": 0
          },
          {
            "number": 93,
            "ticks": 0,
            "time": 0,
            "value": 0
          }
        ],
        "121": [
          {
            "number": 121,
            "ticks": 0,
            "time": 0,
            "value": 0
          },
          {
            "number": 121,
            "ticks": 0,
            "time": 0,
            "value": 0
          }
        ]
      },
      "instrument": {
        "family": "ensemble",
        "name": "synthstrings 1",
        "number": 50
      },
      "name": "",
      "notes": [
        {
          "duration": 9.998697916666671,
          "durationTicks": 7679,
          "midi": 75,
          "name": "D#5",
          "ticks": 30720,
          "time": 43.414592,
          "velocity": 0.3858267716535433
        },
        {
          "duration": 9.998697916666671,
          "durationTicks": 7679,
          "midi": 75,
          "name": "D#5",
          "ticks": 38400,
          "time": 53.414592,
          "velocity": 0.3858267716535433
        },
        {
          "duration": 9.998697916666671,
          "durationTicks": 7679,
          "midi": 75,
          "name": "D#5",
          "ticks": 76800,
          "time": 103.414592,
          "velocity": 0.3858267716535433
        },
        {
          "duration": 9.998697916666671,
          "durationTicks": 7679,
          "midi": 75,
          "name": "D#5",
          "ticks": 84480,
          "time": 113.414592,
          "velocity": 0.3858267716535433
        },
        {
          "duration": 9.998697916666657,
          "durationTicks": 7679,
          "midi": 80,
          "name": "G#5",
          "ticks": 115200,
          "time": 153.414592,
          "velocity": 0.2047244094488189
        },
        {
          "duration": 9.998697916666657,
          "durationTicks": 7679,
          "midi": 83,
          "name": "B5",
          "ticks": 115200,
          "time": 153.414592,
          "velocity": 0.2047244094488189
        },
        {
          "duration": 9.998697916666657,
          "durationTicks": 7679,
          "midi": 87,
          "name": "D#6",
          "ticks": 115200,
          "time": 153.414592,
          "velocity": 0.2047244094488189
        },
        {
          "duration": 9.998697916666657,
          "durationTicks": 7679,
          "midi": 75,
          "name": "D#5",
          "ticks": 124800,
          "time": 165.914592,
          "velocity": 0.3858267716535433
        },
        {
          "duration": 9.998697916666657,
          "durationTicks": 7679,
          "midi": 75,
          "name": "D#5",
          "ticks": 132480,
          "time": 175.914592,
          "velocity": 0.3858267716535433
        }
      ]
    },
    {
      "channel": 0,
      "controlChanges": {
        "7": [
          {
            "number": 7,
            "ticks": 0,
            "time": 0,
            "value": 0.7874015748031497
          }
        ],
        "10": [
          {
            "number": 10,
            "ticks": 0,
            "time": 0,
            "value": 0.5039370078740157
          }
        ],
        "91": [
          {
            "number": 91,
            "ticks": 0,
            "time": 0,
            "value": 0
          }
        ],
        "93": [
          {
            "number": 93,
            "ticks": 0,
            "time": 0,
            "value": 0
          }
        ],
        "121": [
          {
            "number": 121,
            "ticks": 0,
            "time": 0,
            "value": 0
          }
        ]
      },
      "instrument": {
        "family": "synth pad",
        "name": "pad 2 (warm)",
        "number": 89
      },
      "name": "",
      "notes": [
        {
          "duration": 1.2486979166666714,
          "durationTicks": 959,
          "midi": 56,
          "name": "G#3",
          "ticks": 30720,
          "time": 43.414592,
          "velocity": 0.6299212598425197
        },
        {
          "duration": 1.2486979166666714,
          "durationTicks": 959,
          "midi": 51,
          "name": "D#3",
          "ticks": 31680,
          "time": 44.664592,
          "velocity": 0.6299212598425197
        },
        {
          "duration": 1.2486979166666714,
          "durationTicks": 959,
          "midi": 52,
          "name": "E3",
          "ticks": 32640,
          "time": 45.914592,
          "velocity": 0.6299212598425197
        },
        {
          "duration": 1.2486979166666714,
          "durationTicks": 959,
          "midi": 47,
          "name": "B2",
          "ticks": 33600,
          "time": 47.164592,
          "velocity": 0.6299212598425197
        },
        {
          "duration": 1.2486979166666714,
          "durationTicks": 959,
          "midi": 49,
          "name": "C#3",
          "ticks": 34560,
          "time": 48.414592,
          "velocity": 0.6299212598425197
        },
        {
          "duration": 1.2486979166666714,
          "durationTicks": 959,
          "midi": 44,
          "name": "G#2",
          "ticks": 35520,
          "time": 49.664592,
          "velocity": 0.6299212598425197
        },
        {
          "duration": 1.2486979166666714,
          "durationTicks": 959,
          "midi": 46,
          "name": "A#2",
          "ticks": 36480,
          "time": 50.914592,
          "velocity": 0.6299212598425197
        },
        {
          "duration": 1.2486979166666714,
          "durationTicks": 959,
          "midi": 51,
          "name": "D#3",
          "ticks": 37440,
          "time": 52.164592,
          "velocity": 0.6299212598425197
        },
        {
          "duration": 1.2486979166666714,
          "durationTicks": 959,
          "midi": 56,
          "name": "G#3",
          "ticks": 76800,
          "time": 103.414592,
          "velocity": 0.6299212598425197
        },
        {
          "duration": 1.2486979166666714,
          "durationTicks": 959,
          "midi": 51,
          "name": "D#3",
          "ticks": 77760,
          "time": 104.664592,
          "velocity": 0.6299212598425197
        },
        {
          "duration": 1.2486979166666714,
          "durationTicks": 959,
          "midi": 52,
          "name": "E3",
          "ticks": 78720,
          "time": 105.914592,
          "velocity": 0.6299212598425197
        },
        {
          "duration": 1.2486979166666714,
          "durationTicks": 959,
          "midi": 47,
          "name": "B2",
          "ticks": 79680,
          "time": 107.164592,
          "velocity": 0.6299212598425197
        },
        {
          "duration": 1.2486979166666714,
          "durationTicks": 959,
          "midi": 49,
          "name": "C#3",
          "ticks": 80640,
          "time": 108.414592,
          "velocity": 0.6299212598425197
        },
        {
          "duration": 1.2486979166666714,
          "durationTicks": 959,
          "midi": 44,
          "name": "G#2",
          "ticks": 81600,
          "time": 109.664592,
          "velocity": 0.6299212598425197
        },
        {
          "duration": 1.2486979166666714,
          "durationTicks": 959,
          "midi": 46,
          "name": "A#2",
          "ticks": 82560,
          "time": 110.914592,
          "velocity": 0.6299212598425197
        },
        {
          "duration": 1.2486979166666714,
          "durationTicks": 959,
          "midi": 51,
          "name": "D#3",
          "ticks": 83520,
          "time": 112.164592,
          "velocity": 0.6299212598425197
        },
        {
          "duration": 1.2486979166666572,
          "durationTicks": 959,
          "midi": 56,
          "name": "G#3",
          "ticks": 124800,
          "time": 165.914592,
          "velocity": 0.6299212598425197
        },
        {
          "duration": 1.2486979166666572,
          "durationTicks": 959,
          "midi": 51,
          "name": "D#3",
          "ticks": 125760,
          "time": 167.164592,
          "velocity": 0.6299212598425197
        },
        {
          "duration": 1.2486979166666572,
          "durationTicks": 959,
          "midi": 52,
          "name": "E3",
          "ticks": 126720,
          "time": 168.414592,
          "velocity": 0.6299212598425197
        },
        {
          "duration": 1.2486979166666572,
          "durationTicks": 959,
          "midi": 47,
          "name": "B2",
          "ticks": 127680,
          "time": 169.664592,
          "velocity": 0.6299212598425197
        },
        {
          "duration": 1.2486979166666572,
          "durationTicks": 959,
          "midi": 49,
          "name": "C#3",
          "ticks": 128640,
          "time": 170.914592,
          "velocity": 0.6299212598425197
        },
        {
          "duration": 1.2486979166666572,
          "durationTicks": 959,
          "midi": 44,
          "name": "G#2",
          "ticks": 129600,
          "time": 172.164592,
          "velocity": 0.6299212598425197
        },
        {
          "duration": 1.2486979166666572,
          "durationTicks": 959,
          "midi": 46,
          "name": "A#2",
          "ticks": 130560,
          "time": 173.414592,
          "velocity": 0.6299212598425197
        },
        {
          "duration": 1.2486979166666572,
          "durationTicks": 959,
          "midi": 51,
          "name": "D#3",
          "ticks": 131520,
          "time": 174.664592,
          "velocity": 0.6299212598425197
        }
      ]
    },
    {
      "channel": 0,
      "controlChanges": {
        "7": [
          {
            "number": 7,
            "ticks": 0,
            "time": 0,
            "value": 0.7874015748031497
          },
          {
            "number": 7,
            "ticks": 0,
            "time": 0,
            "value": 0.7874015748031497
          },
          {
            "number": 7,
            "ticks": 0,
            "time": 0,
            "value": 0.7874015748031497
          }
        ],
        "10": [
          {
            "number": 10,
            "ticks": 0,
            "time": 0,
            "value": 0.5039370078740157
          },
          {
            "number": 10,
            "ticks": 0,
            "time": 0,
            "value": 0.5039370078740157
          },
          {
            "number": 10,
            "ticks": 0,
            "time": 0,
            "value": 0.5039370078740157
          }
        ],
        "91": [
          {
            "number": 91,
            "ticks": 0,
            "time": 0,
            "value": 0
          },
          {
            "number": 91,
            "ticks": 0,
            "time": 0,
            "value": 0
          },
          {
            "number": 91,
            "ticks": 0,
            "time": 0,
            "value": 0
          }
        ],
        "93": [
          {
            "number": 93,
            "ticks": 0,
            "time": 0,
            "value": 0
          },
          {
            "number": 93,
            "ticks": 0,
            "time": 0,
            "value": 0
          },
          {
            "number": 93,
            "ticks": 0,
            "time": 0,
            "value": 0
          }
        ],
        "121": [
          {
            "number": 121,
            "ticks": 0,
            "time": 0,
            "value": 0
          },
          {
            "number": 121,
            "ticks": 0,
            "time": 0,
            "value": 0
          },
          {
            "number": 121,
            "ticks": 0,
            "time": 0,
            "value": 0
          }
        ]
      },
      "instrument": {
        "family": "ensemble",
        "name": "string ensemble 1",
        "number": 48
      },
      "name": "",
      "notes": [
        {
          "duration": 2.9252996125000004,
          "durationTicks": 1919,
          "midi": 87,
          "name": "D#6",
          "ticks": 0,
          "time": 0,
          "velocity": 0.25984251968503935
        },
        {
          "duration": 2.9252996125000004,
          "durationTicks": 1919,
          "midi": 87,
          "name": "D#6",
          "ticks": 1920,
          "time": 2.9268240000000003,
          "velocity": 0.29133858267716534
        },
        {
          "duration": 2.925299612500001,
          "durationTicks": 1919,
          "midi": 87,
          "name": "D#6",
          "ticks": 3840,
          "time": 5.853648000000001,
          "velocity": 0.3228346456692913
        },
        {
          "duration": 2.9252996125,
          "durationTicks": 1919,
          "midi": 87,
          "name": "D#6",
          "ticks": 5760,
          "time": 8.780472000000001,
          "velocity": 0.36220472440944884
        },
        {
          "duration": 2.9252996125,
          "durationTicks": 1919,
          "midi": 87,
          "name": "D#6",
          "ticks": 7680,
          "time": 11.707296000000001,
          "velocity": 0.3937007874015748
        },
        {
          "duration": 2.9252996125,
          "durationTicks": 1919,
          "midi": 87,
          "name": "D#6",
          "ticks": 9600,
          "time": 14.634120000000001,
          "velocity": 0.4330708661417323
        },
        {
          "duration": 2.925299612499998,
          "durationTicks": 1919,
          "midi": 87,
          "name": "D#6",
          "ticks": 11520,
          "time": 17.560944000000003,
          "velocity": 0.4645669291338583
        },
        {
          "duration": 2.925299612499998,
          "durationTicks": 1919,
          "midi": 87,
          "name": "D#6",
          "ticks": 13440,
          "time": 20.487768000000003,
          "velocity": 0.5039370078740157
        },
        {
          "duration": 9.998697916666671,
          "durationTicks": 7679,
          "midi": 75,
          "name": "D#5",
          "ticks": 30720,
          "time": 43.414592,
          "velocity": 0.3858267716535433
        },
        {
          "duration": 9.998697916666671,
          "durationTicks": 7679,
          "midi": 75,
          "name": "D#5",
          "ticks": 38400,
          "time": 53.414592,
          "velocity": 0.3858267716535433
        },
        {
          "duration": 1.2486979166666714,
          "durationTicks": 959,
          "midi": 71,
          "name": "B4",
          "ticks": 76800,
          "time": 103.414592,
          "velocity": 0.6299212598425197
        },
        {
          "duration": 1.2486979166666714,
          "durationTicks": 959,
          "midi": 75,
          "name": "D#5",
          "ticks": 77760,
          "time": 104.664592,
          "velocity": 0.6299212598425197
        },
        {
          "duration": 1.2486979166666714,
          "durationTicks": 959,
          "midi": 68,
          "name": "G#4",
          "ticks": 78720,
          "time": 105.914592,
          "velocity": 0.6299212598425197
        },
        {
          "duration": 0.6236979166666714,
          "durationTicks": 479,
          "midi": 71,
          "name": "B4",
          "ticks": 79680,
          "time": 107.164592,
          "velocity": 0.6299212598425197
        },
        {
          "duration": 0.6236979166666714,
          "durationTicks": 479,
          "midi": 78,
          "name": "F#5",
          "ticks": 80160,
          "time": 107.789592,
          "velocity": 0.6299212598425197
        },
        {
          "duration": 1.2486979166666714,
          "durationTicks": 959,
          "midi": 68,
          "name": "G#4",
          "ticks": 80640,
          "time": 108.414592,
          "velocity": 0.6299212598425197
        },
        {
          "duration": 1.2486979166666714,
          "durationTicks": 959,
          "midi": 66,
          "name": "F#4",
          "ticks": 81600,
          "time": 109.664592,
          "velocity": 0.6299212598425197
        },
        {
          "duration": 0.6236979166666714,
          "durationTicks": 479,
          "midi": 70,
          "name": "A#4",
          "ticks": 82560,
          "time": 110.914592,
          "velocity": 0.6299212598425197
        },
        {
          "duration": 0.6236979166666714,
          "durationTicks": 479,
          "midi": 63,
          "name": "D#4",
          "ticks": 83040,
          "time": 111.539592,
          "velocity": 0.6299212598425197
        },
        {
          "duration": 0.6236979166666714,
          "durationTicks": 479,
          "midi": 75,
          "name": "D#5",
          "ticks": 83520,
          "time": 112.164592,
          "velocity": 0.6299212598425197
        },
        {
          "duration": 0.6236979166666714,
          "durationTicks": 479,
          "midi": 73,
          "name": "C#5",
          "ticks": 84000,
          "time": 112.789592,
          "velocity": 0.6299212598425197
        },
        {
          "duration": 0.6236979166666714,
          "durationTicks": 479,
          "midi": 63,
          "name": "D#4",
          "ticks": 84480,
          "time": 113.414592,
          "velocity": 0.6299212598425197
        },
        {
          "duration": 0.6236979166666714,
          "durationTicks": 479,
          "midi": 71,
          "name": "B4",
          "ticks": 84960,
          "time": 114.039592,
          "velocity": 0.6299212598425197
        },
        {
          "duration": 0.6236979166666714,
          "durationTicks": 479,
          "midi": 70,
          "name": "A#4",
          "ticks": 85440,
          "time": 114.664592,
          "velocity": 0.6299212598425197
        },
        {
          "duration": 0.6236979166666714,
          "durationTicks": 479,
          "midi": 63,
          "name": "D#4",
          "ticks": 85920,
          "time": 115.289592,
          "velocity": 0.6299212598425197
        },
        {
          "duration": 1.2486979166666714,
          "durationTicks": 959,
          "midi": 76,
          "name": "E5",
          "ticks": 86400,
          "time": 115.914592,
          "velocity": 0.6299212598425197
        },
        {
          "duration": 1.2486979166666714,
          "durationTicks": 959,
          "midi": 75,
          "name": "D#5",
          "ticks": 87360,
          "time": 117.164592,
          "velocity": 0.6299212598425197
        },
        {
          "duration": 1.2486979166666714,
          "durationTicks": 959,
          "midi": 71,
          "name": "B4",
          "ticks": 88320,
          "time": 118.414592,
          "velocity": 0.6299212598425197
        },
        {
          "duration": 1.2486979166666714,
          "durationTicks": 959,
          "midi": 73,
          "name": "C#5",
          "ticks": 89280,
          "time": 119.664592,
          "velocity": 0.6299212598425197
        },
        {
          "duration": 0.6236979166666714,
          "durationTicks": 479,
          "midi": 71,
          "name": "B4",
          "ticks": 90240,
          "time": 120.914592,
          "velocity": 0.6299212598425197
        },
        {
          "duration": 0.6236979166666714,
          "durationTicks": 479,
          "midi": 70,
          "name": "A#4",
          "ticks": 90720,
          "time": 121.539592,
          "velocity": 0.6299212598425197
        },
        {
          "duration": 1.2486979166666714,
          "durationTicks": 959,
          "midi": 68,
          "name": "G#4",
          "ticks": 91200,
          "time": 122.164592,
          "velocity": 0.6299212598425197
        },
        {
          "duration": 9.998697916666686,
          "durationTicks": 7679,
          "midi": 83,
          "name": "B5",
          "ticks": 99840,
          "time": 133.414592,
          "velocity": 0.6299212598425197
        },
        {
          "duration": 0.15494791666668561,
          "durationTicks": 119,
          "midi": 83,
          "name": "B5",
          "ticks": 107520,
          "time": 143.414592,
          "velocity": 0.7559055118110236
        },
        {
          "duration": 0.15494791666668561,
          "durationTicks": 119,
          "midi": 83,
          "name": "B5",
          "ticks": 108000,
          "time": 144.039592,
          "velocity": 0.7559055118110236
        },
        {
          "duration": 0.15494791666668561,
          "durationTicks": 119,
          "midi": 83,
          "name": "B5",
          "ticks": 108480,
          "time": 144.664592,
          "velocity": 0.7559055118110236
        },
        {
          "duration": 0.15494791666668561,
          "durationTicks": 119,
          "midi": 83,
          "name": "B5",
          "ticks": 108960,
          "time": 145.289592,
          "velocity": 0.7559055118110236
        },
        {
          "duration": 0.15494791666668561,
          "durationTicks": 119,
          "midi": 83,
          "name": "B5",
          "ticks": 109440,
          "time": 145.914592,
          "velocity": 0.7559055118110236
        },
        {
          "duration": 0.15494791666668561,
          "durationTicks": 119,
          "midi": 83,
          "name": "B5",
          "ticks": 109920,
          "time": 146.539592,
          "velocity": 0.7559055118110236
        },
        {
          "duration": 0.15494791666668561,
          "durationTicks": 119,
          "midi": 83,
          "name": "B5",
          "ticks": 110400,
          "time": 147.164592,
          "velocity": 0.7559055118110236
        },
        {
          "duration": 0.15494791666668561,
          "durationTicks": 119,
          "midi": 83,
          "name": "B5",
          "ticks": 110880,
          "time": 147.789592,
          "velocity": 0.7559055118110236
        },
        {
          "duration": 0.15494791666668561,
          "durationTicks": 119,
          "midi": 83,
          "name": "B5",
          "ticks": 111360,
          "time": 148.414592,
          "velocity": 0.7559055118110236
        },
        {
          "duration": 0.15494791666668561,
          "durationTicks": 119,
          "midi": 83,
          "name": "B5",
          "ticks": 111840,
          "time": 149.039592,
          "velocity": 0.7559055118110236
        },
        {
          "duration": 0.15494791666668561,
          "durationTicks": 119,
          "midi": 83,
          "name": "B5",
          "ticks": 112320,
          "time": 149.664592,
          "velocity": 0.7559055118110236
        },
        {
          "duration": 0.15494791666668561,
          "durationTicks": 119,
          "midi": 83,
          "name": "B5",
          "ticks": 112800,
          "time": 150.289592,
          "velocity": 0.7559055118110236
        },
        {
          "duration": 0.15494791666668561,
          "durationTicks": 119,
          "midi": 83,
          "name": "B5",
          "ticks": 113280,
          "time": 150.914592,
          "velocity": 0.7559055118110236
        },
        {
          "duration": 0.1549479166666572,
          "durationTicks": 119,
          "midi": 83,
          "name": "B5",
          "ticks": 113760,
          "time": 151.539592,
          "velocity": 0.7559055118110236
        },
        {
          "duration": 0.1549479166666572,
          "durationTicks": 119,
          "midi": 82,
          "name": "A#5",
          "ticks": 114240,
          "time": 152.164592,
          "velocity": 0.7559055118110236
        },
        {
          "duration": 0.1549479166666572,
          "durationTicks": 119,
          "midi": 83,
          "name": "B5",
          "ticks": 114720,
          "time": 152.789592,
          "velocity": 0.7559055118110236
        },
        {
          "duration": 0.1549479166666572,
          "durationTicks": 119,
          "midi": 83,
          "name": "B5",
          "ticks": 115200,
          "time": 153.414592,
          "velocity": 0.7559055118110236
        },
        {
          "duration": 0.1549479166666572,
          "durationTicks": 119,
          "midi": 83,
          "name": "B5",
          "ticks": 115680,
          "time": 154.039592,
          "velocity": 0.7559055118110236
        },
        {
          "duration": 0.1549479166666572,
          "durationTicks": 119,
          "midi": 83,
          "name": "B5",
          "ticks": 116160,
          "time": 154.664592,
          "velocity": 0.7559055118110236
        },
        {
          "duration": 0.1549479166666572,
          "durationTicks": 119,
          "midi": 83,
          "name": "B5",
          "ticks": 116640,
          "time": 155.289592,
          "velocity": 0.7559055118110236
        },
        {
          "duration": 0.1549479166666572,
          "durationTicks": 119,
          "midi": 83,
          "name": "B5",
          "ticks": 117120,
          "time": 155.914592,
          "velocity": 0.7559055118110236
        },
        {
          "duration": 0.1549479166666572,
          "durationTicks": 119,
          "midi": 83,
          "name": "B5",
          "ticks": 117600,
          "time": 156.539592,
          "velocity": 0.7559055118110236
        },
        {
          "duration": 0.1549479166666572,
          "durationTicks": 119,
          "midi": 83,
          "name": "B5",
          "ticks": 118080,
          "time": 157.164592,
          "velocity": 0.7559055118110236
        },
        {
          "duration": 0.1549479166666572,
          "durationTicks": 119,
          "midi": 83,
          "name": "B5",
          "ticks": 118560,
          "time": 157.789592,
          "velocity": 0.7559055118110236
        },
        {
          "duration": 0.1549479166666572,
          "durationTicks": 119,
          "midi": 83,
          "name": "B5",
          "ticks": 119040,
          "time": 158.414592,
          "velocity": 0.7559055118110236
        },
        {
          "duration": 0.1549479166666572,
          "durationTicks": 119,
          "midi": 83,
          "name": "B5",
          "ticks": 119520,
          "time": 159.039592,
          "velocity": 0.6377952755905512
        },
        {
          "duration": 0.1549479166666572,
          "durationTicks": 119,
          "midi": 83,
          "name": "B5",
          "ticks": 120000,
          "time": 159.664592,
          "velocity": 0.5118110236220472
        },
        {
          "duration": 0.1549479166666572,
          "durationTicks": 119,
          "midi": 83,
          "name": "B5",
          "ticks": 120480,
          "time": 160.289592,
          "velocity": 0.3858267716535433
        },
        {
          "duration": 0.1549479166666572,
          "durationTicks": 119,
          "midi": 83,
          "name": "B5",
          "ticks": 120960,
          "time": 160.914592,
          "velocity": 0.25984251968503935
        },
        {
          "duration": 0.1549479166666572,
          "durationTicks": 119,
          "midi": 83,
          "name": "B5",
          "ticks": 121440,
          "time": 161.539592,
          "velocity": 0.25984251968503935
        },
        {
          "duration": 0.1549479166666572,
          "durationTicks": 119,
          "midi": 83,
          "name": "B5",
          "ticks": 121920,
          "time": 162.164592,
          "velocity": 0.25984251968503935
        },
        {
          "duration": 0.1549479166666572,
          "durationTicks": 119,
          "midi": 83,
          "name": "B5",
          "ticks": 122400,
          "time": 162.789592,
          "velocity": 0.25984251968503935
        },
        {
          "duration": 2.498697916666657,
          "durationTicks": 1919,
          "midi": 75,
          "name": "D#5",
          "ticks": 122880,
          "time": 163.414592,
          "velocity": 0.7559055118110236
        },
        {
          "duration": 2.498697916666657,
          "durationTicks": 1919,
          "midi": 80,
          "name": "G#5",
          "ticks": 122880,
          "time": 163.414592,
          "velocity": 0.7559055118110236
        },
        {
          "duration": 2.498697916666657,
          "durationTicks": 1919,
          "midi": 83,
          "name": "B5",
          "ticks": 122880,
          "time": 163.414592,
          "velocity": 0.7559055118110236
        },
        {
          "duration": 1.2486979166666572,
          "durationTicks": 959,
          "midi": 71,
          "name": "B4",
          "ticks": 124800,
          "time": 165.914592,
          "velocity": 0.6299212598425197
        },
        {
          "duration": 1.2486979166666572,
          "durationTicks": 959,
          "midi": 75,
          "name": "D#5",
          "ticks": 125760,
          "time": 167.164592,
          "velocity": 0.6299212598425197
        },
        {
          "duration": 1.2486979166666572,
          "durationTicks": 959,
          "midi": 68,
          "name": "G#4",
          "ticks": 126720,
          "time": 168.414592,
          "velocity": 0.6299212598425197
        },
        {
          "duration": 0.6236979166666572,
          "durationTicks": 479,
          "midi": 71,
          "name": "B4",
          "ticks": 127680,
          "time": 169.664592,
          "velocity": 0.6299212598425197
        },
        {
          "duration": 0.6236979166666572,
          "durationTicks": 479,
          "midi": 78,
          "name": "F#5",
          "ticks": 128160,
          "time": 170.289592,
          "velocity": 0.6299212598425197
        },
        {
          "duration": 1.2486979166666572,
          "durationTicks": 959,
          "midi": 68,
          "name": "G#4",
          "ticks": 128640,
          "time": 170.914592,
          "velocity": 0.6299212598425197
        },
        {
          "duration": 1.2486979166666572,
          "durationTicks": 959,
          "midi": 66,
          "name": "F#4",
          "ticks": 129600,
          "time": 172.164592,
          "velocity": 0.6299212598425197
        },
        {
          "duration": 0.6236979166666572,
          "durationTicks": 479,
          "midi": 70,
          "name": "A#4",
          "ticks": 130560,
          "time": 173.414592,
          "velocity": 0.6299212598425197
        },
        {
          "duration": 0.6236979166666572,
          "durationTicks": 479,
          "midi": 63,
          "name": "D#4",
          "ticks": 131040,
          "time": 174.039592,
          "velocity": 0.6299212598425197
        },
        {
          "duration": 0.6236979166666572,
          "durationTicks": 479,
          "midi": 75,
          "name": "D#5",
          "ticks": 131520,
          "time": 174.664592,
          "velocity": 0.6299212598425197
        },
        {
          "duration": 0.6236979166666572,
          "durationTicks": 479,
          "midi": 73,
          "name": "C#5",
          "ticks": 132000,
          "time": 175.289592,
          "velocity": 0.6299212598425197
        },
        {
          "duration": 0.6236979166666572,
          "durationTicks": 479,
          "midi": 63,
          "name": "D#4",
          "ticks": 132480,
          "time": 175.914592,
          "velocity": 0.6299212598425197
        },
        {
          "duration": 0.6236979166666572,
          "durationTicks": 479,
          "midi": 71,
          "name": "B4",
          "ticks": 132960,
          "time": 176.539592,
          "velocity": 0.6299212598425197
        },
        {
          "duration": 0.6236979166666572,
          "durationTicks": 479,
          "midi": 70,
          "name": "A#4",
          "ticks": 133440,
          "time": 177.164592,
          "velocity": 0.6299212598425197
        },
        {
          "duration": 0.6236979166666572,
          "durationTicks": 479,
          "midi": 63,
          "name": "D#4",
          "ticks": 133920,
          "time": 177.789592,
          "velocity": 0.6299212598425197
        },
        {
          "duration": 1.2486979166666572,
          "durationTicks": 959,
          "midi": 76,
          "name": "E5",
          "ticks": 134400,
          "time": 178.414592,
          "velocity": 0.6299212598425197
        },
        {
          "duration": 1.2486979166666572,
          "durationTicks": 959,
          "midi": 75,
          "name": "D#5",
          "ticks": 135360,
          "time": 179.664592,
          "velocity": 0.6299212598425197
        },
        {
          "duration": 1.2486979166666572,
          "durationTicks": 959,
          "midi": 71,
          "name": "B4",
          "ticks": 136320,
          "time": 180.914592,
          "velocity": 0.6299212598425197
        },
        {
          "duration": 1.2486979166666572,
          "durationTicks": 959,
          "midi": 73,
          "name": "C#5",
          "ticks": 137280,
          "time": 182.164592,
          "velocity": 0.6299212598425197
        },
        {
          "duration": 0.6236979166666572,
          "durationTicks": 479,
          "midi": 71,
          "name": "B4",
          "ticks": 138240,
          "time": 183.414592,
          "velocity": 0.6299212598425197
        },
        {
          "duration": 0.6236979166666572,
          "durationTicks": 479,
          "midi": 70,
          "name": "A#4",
          "ticks": 138720,
          "time": 184.039592,
          "velocity": 0.6299212598425197
        },
        {
          "duration": 1.2486979166666572,
          "durationTicks": 959,
          "midi": 68,
          "name": "G#4",
          "ticks": 139200,
          "time": 184.664592,
          "velocity": 0.6299212598425197
        },
        {
          "duration": 2.925299612499998,
          "durationTicks": 1919,
          "midi": 87,
          "name": "D#6",
          "ticks": 140160,
          "time": 185.914592,
          "velocity": 0.25984251968503935
        },
        {
          "duration": 2.925299612499998,
          "durationTicks": 1919,
          "midi": 87,
          "name": "D#6",
          "ticks": 142080,
          "time": 188.841416,
          "velocity": 0.25984251968503935
        },
        {
          "duration": 2.925299612499998,
          "durationTicks": 1919,
          "midi": 87,
          "name": "D#6",
          "ticks": 144000,
          "time": 191.76824,
          "velocity": 0.25984251968503935
        },
        {
          "duration": 2.925299612499998,
          "durationTicks": 1919,
          "midi": 87,
          "name": "D#6",
          "ticks": 145920,
          "time": 194.695064,
          "velocity": 0.25984251968503935
        },
        {
          "duration": 2.925299612499998,
          "durationTicks": 1919,
          "midi": 87,
          "name": "D#6",
          "ticks": 147840,
          "time": 197.621888,
          "velocity": 0.25984251968503935
        },
        {
          "duration": 2.925299612499998,
          "durationTicks": 1919,
          "midi": 87,
          "name": "D#6",
          "ticks": 149760,
          "time": 200.548712,
          "velocity": 0.25984251968503935
        },
        {
          "duration": 2.925299612499998,
          "durationTicks": 1919,
          "midi": 87,
          "name": "D#6",
          "ticks": 151680,
          "time": 203.475536,
          "velocity": 0.25984251968503935
        },
        {
          "duration": 2.925299612499998,
          "durationTicks": 1919,
          "midi": 87,
          "name": "D#6",
          "ticks": 153600,
          "time": 206.40236,
          "velocity": 0.5039370078740157
        }
      ]
    },
    {
      "channel": 0,
      "controlChanges": {
        "7": [
          {
            "number": 7,
            "ticks": 0,
            "time": 0,
            "value": 0.7874015748031497
          },
          {
            "number": 7,
            "ticks": 0,
            "time": 0,
            "value": 0.7874015748031497
          },
          {
            "number": 7,
            "ticks": 0,
            "time": 0,
            "value": 0.7874015748031497
          }
        ],
        "10": [
          {
            "number": 10,
            "ticks": 0,
            "time": 0,
            "value": 0.5039370078740157
          },
          {
            "number": 10,
            "ticks": 0,
            "time": 0,
            "value": 0.5039370078740157
          },
          {
            "number": 10,
            "ticks": 0,
            "time": 0,
            "value": 0.5039370078740157
          }
        ],
        "91": [
          {
            "number": 91,
            "ticks": 0,
            "time": 0,
            "value": 0
          },
          {
            "number": 91,
            "ticks": 0,
            "time": 0,
            "value": 0
          },
          {
            "number": 91,
            "ticks": 0,
            "time": 0,
            "value": 0
          }
        ],
        "93": [
          {
            "number": 93,
            "ticks": 0,
            "time": 0,
            "value": 0
          },
          {
            "number": 93,
            "ticks": 0,
            "time": 0,
            "value": 0
          },
          {
            "number": 93,
            "ticks": 0,
            "time": 0,
            "value": 0
          }
        ],
        "121": [
          {
            "number": 121,
            "ticks": 0,
            "time": 0,
            "value": 0
          },
          {
            "number": 121,
            "ticks": 0,
            "time": 0,
            "value": 0
          },
          {
            "number": 121,
            "ticks": 0,
            "time": 0,
            "value": 0
          }
        ]
      },
      "instrument": {
        "family": "ensemble",
        "name": "string ensemble 1",
        "number": 48
      },
      "name": "",
      "notes": [
        {
          "duration": 1.2486979166666679,
          "durationTicks": 959,
          "midi": 47,
          "name": "B2",
          "ticks": 15360,
          "time": 23.414592000000003,
          "velocity": 0.5039370078740157
        },
        {
          "duration": 1.2486979166666679,
          "durationTicks": 959,
          "midi": 42,
          "name": "F#2",
          "ticks": 16320,
          "time": 24.664592000000003,
          "velocity": 0.5039370078740157
        },
        {
          "duration": 1.2486979166666679,
          "durationTicks": 959,
          "midi": 39,
          "name": "D#2",
          "ticks": 17280,
          "time": 25.914592000000003,
          "velocity": 0.5039370078740157
        },
        {
          "duration": 1.2486979166666679,
          "durationTicks": 959,
          "midi": 44,
          "name": "G#2",
          "ticks": 18240,
          "time": 27.164592000000003,
          "velocity": 0.5039370078740157
        },
        {
          "duration": 1.2486979166666679,
          "durationTicks": 959,
          "midi": 40,
          "name": "E2",
          "ticks": 19200,
          "time": 28.414592000000003,
          "velocity": 0.5039370078740157
        },
        {
          "duration": 1.2486979166666679,
          "durationTicks": 959,
          "midi": 42,
          "name": "F#2",
          "ticks": 20160,
          "time": 29.664592000000003,
          "velocity": 0.5039370078740157
        },
        {
          "duration": 1.2486979166666679,
          "durationTicks": 959,
          "midi": 44,
          "name": "G#2",
          "ticks": 21120,
          "time": 30.914592000000003,
          "velocity": 0.5039370078740157
        },
        {
          "duration": 1.2486979166666714,
          "durationTicks": 959,
          "midi": 44,
          "name": "G#2",
          "ticks": 22080,
          "time": 32.164592,
          "velocity": 0.5039370078740157
        },
        {
          "duration": 1.2486979166666714,
          "durationTicks": 959,
          "midi": 40,
          "name": "E2",
          "ticks": 23040,
          "time": 33.414592,
          "velocity": 0.5039370078740157
        },
        {
          "duration": 1.2486979166666714,
          "durationTicks": 959,
          "midi": 42,
          "name": "F#2",
          "ticks": 24000,
          "time": 34.664592,
          "velocity": 0.5039370078740157
        },
        {
          "duration": 1.2486979166666714,
          "durationTicks": 959,
          "midi": 39,
          "name": "D#2",
          "ticks": 24960,
          "time": 35.914592,
          "velocity": 0.5039370078740157
        },
        {
          "duration": 1.2486979166666714,
          "durationTicks": 959,
          "midi": 44,
          "name": "G#2",
          "ticks": 25920,
          "time": 37.164592,
          "velocity": 0.5039370078740157
        },
        {
          "duration": 1.2486979166666714,
          "durationTicks": 959,
          "midi": 40,
          "name": "E2",
          "ticks": 26880,
          "time": 38.414592,
          "velocity": 0.5039370078740157
        },
        {
          "duration": 1.2486979166666714,
          "durationTicks": 959,
          "midi": 42,
          "name": "F#2",
          "ticks": 27840,
          "time": 39.664592,
          "velocity": 0.5039370078740157
        },
        {
          "duration": 2.4986979166666714,
          "durationTicks": 1919,
          "midi": 44,
          "name": "G#2",
          "ticks": 28800,
          "time": 40.914592,
          "velocity": 0.5039370078740157
        },
        {
          "duration": 1.2486979166666714,
          "durationTicks": 959,
          "midi": 56,
          "name": "G#3",
          "ticks": 30720,
          "time": 43.414592,
          "velocity": 0.3858267716535433
        },
        {
          "duration": 1.2486979166666714,
          "durationTicks": 959,
          "midi": 51,
          "name": "D#3",
          "ticks": 31680,
          "time": 44.664592,
          "velocity": 0.3858267716535433
        },
        {
          "duration": 1.2486979166666714,
          "durationTicks": 959,
          "midi": 52,
          "name": "E3",
          "ticks": 32640,
          "time": 45.914592,
          "velocity": 0.3858267716535433
        },
        {
          "duration": 1.2486979166666714,
          "durationTicks": 959,
          "midi": 47,
          "name": "B2",
          "ticks": 33600,
          "time": 47.164592,
          "velocity": 0.3858267716535433
        },
        {
          "duration": 1.2486979166666714,
          "durationTicks": 959,
          "midi": 49,
          "name": "C#3",
          "ticks": 34560,
          "time": 48.414592,
          "velocity": 0.3858267716535433
        },
        {
          "duration": 1.2486979166666714,
          "durationTicks": 959,
          "midi": 44,
          "name": "G#2",
          "ticks": 35520,
          "time": 49.664592,
          "velocity": 0.3858267716535433
        },
        {
          "duration": 1.2486979166666714,
          "durationTicks": 959,
          "midi": 46,
          "name": "A#2",
          "ticks": 36480,
          "time": 50.914592,
          "velocity": 0.3858267716535433
        },
        {
          "duration": 1.2486979166666714,
          "durationTicks": 959,
          "midi": 51,
          "name": "D#3",
          "ticks": 37440,
          "time": 52.164592,
          "velocity": 0.3858267716535433
        },
        {
          "duration": 1.2486979166666714,
          "durationTicks": 959,
          "midi": 40,
          "name": "E2",
          "ticks": 46080,
          "time": 63.414592,
          "velocity": 0.6299212598425197
        },
        {
          "duration": 1.2486979166666714,
          "durationTicks": 959,
          "midi": 42,
          "name": "F#2",
          "ticks": 47040,
          "time": 64.664592,
          "velocity": 0.6299212598425197
        },
        {
          "duration": 1.2486979166666714,
          "durationTicks": 959,
          "midi": 39,
          "name": "D#2",
          "ticks": 48000,
          "time": 65.914592,
          "velocity": 0.6299212598425197
        },
        {
          "duration": 1.2486979166666714,
          "durationTicks": 959,
          "midi": 44,
          "name": "G#2",
          "ticks": 48960,
          "time": 67.164592,
          "velocity": 0.6299212598425197
        },
        {
          "duration": 1.2486979166666714,
          "durationTicks": 959,
          "midi": 40,
          "name": "E2",
          "ticks": 49920,
          "time": 68.414592,
          "velocity": 0.6299212598425197
        },
        {
          "duration": 1.2486979166666714,
          "durationTicks": 959,
          "midi": 42,
          "name": "F#2",
          "ticks": 50880,
          "time": 69.664592,
          "velocity": 0.6299212598425197
        },
        {
          "duration": 2.4986979166666714,
          "durationTicks": 1919,
          "midi": 44,
          "name": "G#2",
          "ticks": 51840,
          "time": 70.914592,
          "velocity": 0.6299212598425197
        },
        {
          "duration": 1.2486979166666714,
          "durationTicks": 959,
          "midi": 40,
          "name": "E2",
          "ticks": 53760,
          "time": 73.414592,
          "velocity": 0.6299212598425197
        },
        {
          "duration": 1.2486979166666714,
          "durationTicks": 959,
          "midi": 42,
          "name": "F#2",
          "ticks": 54720,
          "time": 74.664592,
          "velocity": 0.6299212598425197
        },
        {
          "duration": 1.2486979166666714,
          "durationTicks": 959,
          "midi": 39,
          "name": "D#2",
          "ticks": 55680,
          "time": 75.914592,
          "velocity": 0.6299212598425197
        },
        {
          "duration": 1.2486979166666714,
          "durationTicks": 959,
          "midi": 44,
          "name": "G#2",
          "ticks": 56640,
          "time": 77.164592,
          "velocity": 0.6299212598425197
        },
        {
          "duration": 1.2486979166666714,
          "durationTicks": 959,
          "midi": 40,
          "name": "E2",
          "ticks": 57600,
          "time": 78.414592,
          "velocity": 0.6299212598425197
        },
        {
          "duration": 1.2486979166666714,
          "durationTicks": 959,
          "midi": 42,
          "name": "F#2",
          "ticks": 58560,
          "time": 79.664592,
          "velocity": 0.6299212598425197
        },
        {
          "duration": 2.4986979166666714,
          "durationTicks": 1919,
          "midi": 44,
          "name": "G#2",
          "ticks": 59520,
          "time": 80.914592,
          "velocity": 0.6299212598425197
        },
        {
          "duration": 1.2486979166666714,
          "durationTicks": 959,
          "midi": 40,
          "name": "E2",
          "ticks": 61440,
          "time": 83.414592,
          "velocity": 0.6299212598425197
        },
        {
          "duration": 1.2486979166666714,
          "durationTicks": 959,
          "midi": 42,
          "name": "F#2",
          "ticks": 62400,
          "time": 84.664592,
          "velocity": 0.6299212598425197
        },
        {
          "duration": 1.2486979166666714,
          "durationTicks": 959,
          "midi": 39,
          "name": "D#2",
          "ticks": 63360,
          "time": 85.914592,
          "velocity": 0.6299212598425197
        },
        {
          "duration": 1.2486979166666714,
          "durationTicks": 959,
          "midi": 44,
          "name": "G#2",
          "ticks": 64320,
          "time": 87.164592,
          "velocity": 0.6299212598425197
        },
        {
          "duration": 1.2486979166666714,
          "durationTicks": 959,
          "midi": 40,
          "name": "E2",
          "ticks": 65280,
          "time": 88.414592,
          "velocity": 0.6299212598425197
        },
        {
          "duration": 1.2486979166666714,
          "durationTicks": 959,
          "midi": 42,
          "name": "F#2",
          "ticks": 66240,
          "time": 89.664592,
          "velocity": 0.6299212598425197
        },
        {
          "duration": 2.4986979166666714,
          "durationTicks": 1919,
          "midi": 44,
          "name": "G#2",
          "ticks": 67200,
          "time": 90.914592,
          "velocity": 0.6299212598425197
        },
        {
          "duration": 1.2486979166666714,
          "durationTicks": 959,
          "midi": 40,
          "name": "E2",
          "ticks": 69120,
          "time": 93.414592,
          "velocity": 0.6299212598425197
        },
        {
          "duration": 1.2486979166666714,
          "durationTicks": 959,
          "midi": 42,
          "name": "F#2",
          "ticks": 70080,
          "time": 94.664592,
          "velocity": 0.6299212598425197
        },
        {
          "duration": 1.2486979166666714,
          "durationTicks": 959,
          "midi": 39,
          "name": "D#2",
          "ticks": 71040,
          "time": 95.914592,
          "velocity": 0.6299212598425197
        },
        {
          "duration": 1.2486979166666714,
          "durationTicks": 959,
          "midi": 44,
          "name": "G#2",
          "ticks": 72000,
          "time": 97.164592,
          "velocity": 0.6299212598425197
        },
        {
          "duration": 1.2486979166666714,
          "durationTicks": 959,
          "midi": 56,
          "name": "G#3",
          "ticks": 76800,
          "time": 103.414592,
          "velocity": 0.3858267716535433
        },
        {
          "duration": 1.2486979166666714,
          "durationTicks": 959,
          "midi": 51,
          "name": "D#3",
          "ticks": 77760,
          "time": 104.664592,
          "velocity": 0.3858267716535433
        },
        {
          "duration": 1.2486979166666714,
          "durationTicks": 959,
          "midi": 52,
          "name": "E3",
          "ticks": 78720,
          "time": 105.914592,
          "velocity": 0.3858267716535433
        },
        {
          "duration": 1.2486979166666714,
          "durationTicks": 959,
          "midi": 47,
          "name": "B2",
          "ticks": 79680,
          "time": 107.164592,
          "velocity": 0.3858267716535433
        },
        {
          "duration": 1.2486979166666714,
          "durationTicks": 959,
          "midi": 49,
          "name": "C#3",
          "ticks": 80640,
          "time": 108.414592,
          "velocity": 0.3858267716535433
        },
        {
          "duration": 1.2486979166666714,
          "durationTicks": 959,
          "midi": 44,
          "name": "G#2",
          "ticks": 81600,
          "time": 109.664592,
          "velocity": 0.3858267716535433
        },
        {
          "duration": 1.2486979166666714,
          "durationTicks": 959,
          "midi": 46,
          "name": "A#2",
          "ticks": 82560,
          "time": 110.914592,
          "velocity": 0.3858267716535433
        },
        {
          "duration": 1.2486979166666714,
          "durationTicks": 959,
          "midi": 51,
          "name": "D#3",
          "ticks": 83520,
          "time": 112.164592,
          "velocity": 0.3858267716535433
        },
        {
          "duration": 1.2486979166666856,
          "durationTicks": 959,
          "midi": 40,
          "name": "E2",
          "ticks": 99840,
          "time": 133.414592,
          "velocity": 0.3858267716535433
        },
        {
          "duration": 1.2486979166666856,
          "durationTicks": 959,
          "midi": 42,
          "name": "F#2",
          "ticks": 100800,
          "time": 134.664592,
          "velocity": 0.3858267716535433
        },
        {
          "duration": 2.4986979166666856,
          "durationTicks": 1919,
          "midi": 44,
          "name": "G#2",
          "ticks": 101760,
          "time": 135.914592,
          "velocity": 0.3858267716535433
        },
        {
          "duration": 1.2486979166666856,
          "durationTicks": 959,
          "midi": 40,
          "name": "E2",
          "ticks": 103680,
          "time": 138.414592,
          "velocity": 0.3858267716535433
        },
        {
          "duration": 1.2486979166666856,
          "durationTicks": 959,
          "midi": 42,
          "name": "F#2",
          "ticks": 104640,
          "time": 139.664592,
          "velocity": 0.3858267716535433
        },
        {
          "duration": 2.4986979166666856,
          "durationTicks": 1919,
          "midi": 44,
          "name": "G#2",
          "ticks": 105600,
          "time": 140.914592,
          "velocity": 0.3858267716535433
        },
        {
          "duration": 1.2486979166666856,
          "durationTicks": 959,
          "midi": 40,
          "name": "E2",
          "ticks": 107520,
          "time": 143.414592,
          "velocity": 0.3858267716535433
        },
        {
          "duration": 1.2486979166666856,
          "durationTicks": 959,
          "midi": 42,
          "name": "F#2",
          "ticks": 108480,
          "time": 144.664592,
          "velocity": 0.3858267716535433
        },
        {
          "duration": 2.4986979166666856,
          "durationTicks": 1919,
          "midi": 44,
          "name": "G#2",
          "ticks": 109440,
          "time": 145.914592,
          "velocity": 0.3858267716535433
        },
        {
          "duration": 1.2486979166666856,
          "durationTicks": 959,
          "midi": 40,
          "name": "E2",
          "ticks": 111360,
          "time": 148.414592,
          "velocity": 0.3858267716535433
        },
        {
          "duration": 1.2486979166666856,
          "durationTicks": 959,
          "midi": 42,
          "name": "F#2",
          "ticks": 112320,
          "time": 149.664592,
          "velocity": 0.3858267716535433
        },
        {
          "duration": 2.498697916666657,
          "durationTicks": 1919,
          "midi": 44,
          "name": "G#2",
          "ticks": 113280,
          "time": 150.914592,
          "velocity": 0.3858267716535433
        },
        {
          "duration": 1.2486979166666572,
          "durationTicks": 959,
          "midi": 40,
          "name": "E2",
          "ticks": 115200,
          "time": 153.414592,
          "velocity": 0.3858267716535433
        },
        {
          "duration": 1.2486979166666572,
          "durationTicks": 959,
          "midi": 42,
          "name": "F#2",
          "ticks": 116160,
          "time": 154.664592,
          "velocity": 0.3858267716535433
        },
        {
          "duration": 2.498697916666657,
          "durationTicks": 1919,
          "midi": 44,
          "name": "G#2",
          "ticks": 117120,
          "time": 155.914592,
          "velocity": 0.3858267716535433
        },
        {
          "duration": 1.2486979166666572,
          "durationTicks": 959,
          "midi": 40,
          "name": "E2",
          "ticks": 119040,
          "time": 158.414592,
          "velocity": 0.3858267716535433
        },
        {
          "duration": 1.2486979166666572,
          "durationTicks": 959,
          "midi": 42,
          "name": "F#2",
          "ticks": 120000,
          "time": 159.664592,
          "velocity": 0.3858267716535433
        },
        {
          "duration": 2.498697916666657,
          "durationTicks": 1919,
          "midi": 44,
          "name": "G#2",
          "ticks": 120960,
          "time": 160.914592,
          "velocity": 0.3858267716535433
        },
        {
          "duration": 1.2486979166666572,
          "durationTicks": 959,
          "midi": 39,
          "name": "D#2",
          "ticks": 123840,
          "time": 164.664592,
          "velocity": 0.3858267716535433
        },
        {
          "duration": 1.2486979166666572,
          "durationTicks": 959,
          "midi": 56,
          "name": "G#3",
          "ticks": 124800,
          "time": 165.914592,
          "velocity": 0.3858267716535433
        },
        {
          "duration": 1.2486979166666572,
          "durationTicks": 959,
          "midi": 51,
          "name": "D#3",
          "ticks": 125760,
          "time": 167.164592,
          "velocity": 0.3858267716535433
        },
        {
          "duration": 1.2486979166666572,
          "durationTicks": 959,
          "midi": 52,
          "name": "E3",
          "ticks": 126720,
          "time": 168.414592,
          "velocity": 0.3858267716535433
        },
        {
          "duration": 1.2486979166666572,
          "durationTicks": 959,
          "midi": 47,
          "name": "B2",
          "ticks": 127680,
          "time": 169.664592,
          "velocity": 0.3858267716535433
        },
        {
          "duration": 1.2486979166666572,
          "durationTicks": 959,
          "midi": 49,
          "name": "C#3",
          "ticks": 128640,
          "time": 170.914592,
          "velocity": 0.3858267716535433
        },
        {
          "duration": 1.2486979166666572,
          "durationTicks": 959,
          "midi": 44,
          "name": "G#2",
          "ticks": 129600,
          "time": 172.164592,
          "velocity": 0.3858267716535433
        },
        {
          "duration": 1.2486979166666572,
          "durationTicks": 959,
          "midi": 46,
          "name": "A#2",
          "ticks": 130560,
          "time": 173.414592,
          "velocity": 0.3858267716535433
        },
        {
          "duration": 1.2486979166666572,
          "durationTicks": 959,
          "midi": 51,
          "name": "D#3",
          "ticks": 131520,
          "time": 174.664592,
          "velocity": 0.3858267716535433
        }
      ]
    },
    {
      "channel": 0,
      "controlChanges": {
        "7": [
          {
            "number": 7,
            "ticks": 0,
            "time": 0,
            "value": 0.7480314960629921
          }
        ],
        "10": [
          {
            "number": 10,
            "ticks": 0,
            "time": 0,
            "value": 0.5039370078740157
          }
        ],
        "91": [
          {
            "number": 91,
            "ticks": 0,
            "time": 0,
            "value": 0
          }
        ],
        "93": [
          {
            "number": 93,
            "ticks": 0,
            "time": 0,
            "value": 0
          }
        ],
        "121": [
          {
            "number": 121,
            "ticks": 0,
            "time": 0,
            "value": 0
          }
        ]
      },
      "instrument": {
        "family": "piano",
        "name": "electric piano 2",
        "number": 5
      },
      "name": "",
      "notes": [
        {
          "duration": 0.6236979166666714,
          "durationTicks": 479,
          "midi": 54,
          "name": "F#3",
          "ticks": 28800,
          "time": 40.914592,
          "velocity": 0.6299212598425197
        },
        {
          "duration": 0.6236979166666714,
          "durationTicks": 479,
          "midi": 54,
          "name": "F#3",
          "ticks": 29280,
          "time": 41.539592,
          "velocity": 0.6299212598425197
        },
        {
          "duration": 0.3111979166666714,
          "durationTicks": 239,
          "midi": 54,
          "name": "F#3",
          "ticks": 29760,
          "time": 42.164592,
          "velocity": 0.6299212598425197
        },
        {
          "duration": 0.3111979166666714,
          "durationTicks": 239,
          "midi": 36,
          "name": "C2",
          "ticks": 30000,
          "time": 42.477092,
          "velocity": 0.6299212598425197
        },
        {
          "duration": 0.3111979166666714,
          "durationTicks": 239,
          "midi": 54,
          "name": "F#3",
          "ticks": 30000,
          "time": 42.477092,
          "velocity": 0.6299212598425197
        },
        {
          "duration": 0.3111979166666714,
          "durationTicks": 239,
          "midi": 38,
          "name": "D2",
          "ticks": 30240,
          "time": 42.789592,
          "velocity": 0.6299212598425197
        },
        {
          "duration": 0.3111979166666714,
          "durationTicks": 239,
          "midi": 54,
          "name": "F#3",
          "ticks": 30240,
          "time": 42.789592,
          "velocity": 0.6299212598425197
        },
        {
          "duration": 0.3111979166666714,
          "durationTicks": 239,
          "midi": 36,
          "name": "C2",
          "ticks": 30480,
          "time": 43.102092,
          "velocity": 0.6299212598425197
        },
        {
          "duration": 0.3111979166666714,
          "durationTicks": 239,
          "midi": 54,
          "name": "F#3",
          "ticks": 30480,
          "time": 43.102092,
          "velocity": 0.6299212598425197
        },
        {
          "duration": 0.3111979166666714,
          "durationTicks": 239,
          "midi": 54,
          "name": "F#3",
          "ticks": 30720,
          "time": 43.414592,
          "velocity": 0.6299212598425197
        },
        {
          "duration": 1.5611979166666714,
          "durationTicks": 1199,
          "midi": 36,
          "name": "C2",
          "ticks": 30720,
          "time": 43.414592,
          "velocity": 0.6299212598425197
        },
        {
          "duration": 0.3111979166666714,
          "durationTicks": 239,
          "midi": 54,
          "name": "F#3",
          "ticks": 30960,
          "time": 43.727092,
          "velocity": 0.6299212598425197
        },
        {
          "duration": 0.3111979166666714,
          "durationTicks": 239,
          "midi": 38,
          "name": "D2",
          "ticks": 31200,
          "time": 44.039592,
          "velocity": 0.6299212598425197
        },
        {
          "duration": 0.3111979166666714,
          "durationTicks": 239,
          "midi": 54,
          "name": "F#3",
          "ticks": 31200,
          "time": 44.039592,
          "velocity": 0.6299212598425197
        },
        {
          "duration": 0.3111979166666714,
          "durationTicks": 239,
          "midi": 54,
          "name": "F#3",
          "ticks": 31440,
          "time": 44.352092,
          "velocity": 0.6299212598425197
        },
        {
          "duration": 0.3111979166666714,
          "durationTicks": 239,
          "midi": 54,
          "name": "F#3",
          "ticks": 31680,
          "time": 44.664592,
          "velocity": 0.6299212598425197
        },
        {
          "duration": 0.3111979166666714,
          "durationTicks": 239,
          "midi": 54,
          "name": "F#3",
          "ticks": 31920,
          "time": 44.977092,
          "velocity": 0.6299212598425197
        },
        {
          "duration": 0.9361979166666714,
          "durationTicks": 719,
          "midi": 36,
          "name": "C2",
          "ticks": 31920,
          "time": 44.977092,
          "velocity": 0.6299212598425197
        },
        {
          "duration": 0.3111979166666714,
          "durationTicks": 239,
          "midi": 38,
          "name": "D2",
          "ticks": 32160,
          "time": 45.289592,
          "velocity": 0.6299212598425197
        },
        {
          "duration": 0.3111979166666714,
          "durationTicks": 239,
          "midi": 54,
          "name": "F#3",
          "ticks": 32160,
          "time": 45.289592,
          "velocity": 0.6299212598425197
        },
        {
          "duration": 0.3111979166666714,
          "durationTicks": 239,
          "midi": 54,
          "name": "F#3",
          "ticks": 32400,
          "time": 45.602092,
          "velocity": 0.6299212598425197
        },
        {
          "duration": 0.3111979166666714,
          "durationTicks": 239,
          "midi": 54,
          "name": "F#3",
          "ticks": 32640,
          "time": 45.914592,
          "velocity": 0.6299212598425197
        },
        {
          "duration": 1.5611979166666714,
          "durationTicks": 1199,
          "midi": 36,
          "name": "C2",
          "ticks": 32640,
          "time": 45.914592,
          "velocity": 0.6299212598425197
        },
        {
          "duration": 0.3111979166666714,
          "durationTicks": 239,
          "midi": 54,
          "name": "F#3",
          "ticks": 32880,
          "time": 46.227092,
          "velocity": 0.6299212598425197
        },
        {
          "duration": 0.3111979166666714,
          "durationTicks": 239,
          "midi": 38,
          "name": "D2",
          "ticks": 33120,
          "time": 46.539592,
          "velocity": 0.6299212598425197
        },
        {
          "duration": 0.3111979166666714,
          "durationTicks": 239,
          "midi": 54,
          "name": "F#3",
          "ticks": 33120,
          "time": 46.539592,
          "velocity": 0.6299212598425197
        },
        {
          "duration": 0.3111979166666714,
          "durationTicks": 239,
          "midi": 54,
          "name": "F#3",
          "ticks": 33360,
          "time": 46.852092,
          "velocity": 0.6299212598425197
        },
        {
          "duration": 0.3111979166666714,
          "durationTicks": 239,
          "midi": 54,
          "name": "F#3",
          "ticks": 33600,
          "time": 47.164592,
          "velocity": 0.6299212598425197
        },
        {
          "duration": 0.3111979166666714,
          "durationTicks": 239,
          "midi": 54,
          "name": "F#3",
          "ticks": 33840,
          "time": 47.477092,
          "velocity": 0.6299212598425197
        },
        {
          "duration": 0.9361979166666714,
          "durationTicks": 719,
          "midi": 36,
          "name": "C2",
          "ticks": 33840,
          "time": 47.477092,
          "velocity": 0.6299212598425197
        },
        {
          "duration": 0.3111979166666714,
          "durationTicks": 239,
          "midi": 38,
          "name": "D2",
          "ticks": 34080,
          "time": 47.789592,
          "velocity": 0.6299212598425197
        },
        {
          "duration": 0.3111979166666714,
          "durationTicks": 239,
          "midi": 54,
          "name": "F#3",
          "ticks": 34080,
          "time": 47.789592,
          "velocity": 0.6299212598425197
        },
        {
          "duration": 0.3111979166666714,
          "durationTicks": 239,
          "midi": 54,
          "name": "F#3",
          "ticks": 34320,
          "time": 48.102092,
          "velocity": 0.6299212598425197
        },
        {
          "duration": 0.3111979166666714,
          "durationTicks": 239,
          "midi": 54,
          "name": "F#3",
          "ticks": 34560,
          "time": 48.414592,
          "velocity": 0.6299212598425197
        },
        {
          "duration": 1.5611979166666714,
          "durationTicks": 1199,
          "midi": 36,
          "name": "C2",
          "ticks": 34560,
          "time": 48.414592,
          "velocity": 0.6299212598425197
        },
        {
          "duration": 0.3111979166666714,
          "durationTicks": 239,
          "midi": 54,
          "name": "F#3",
          "ticks": 34800,
          "time": 48.727092,
          "velocity": 0.6299212598425197
        },
        {
          "duration": 0.3111979166666714,
          "durationTicks": 239,
          "midi": 38,
          "name": "D2",
          "ticks": 35040,
          "time": 49.039592,
          "velocity": 0.6299212598425197
        },
        {
          "duration": 0.3111979166666714,
          "durationTicks": 239,
          "midi": 54,
          "name": "F#3",
          "ticks": 35040,
          "time": 49.039592,
          "velocity": 0.6299212598425197
        },
        {
          "duration": 0.3111979166666714,
          "durationTicks": 239,
          "midi": 54,
          "name": "F#3",
          "ticks": 35280,
          "time": 49.352092,
          "velocity": 0.6299212598425197
        },
        {
          "duration": 0.3111979166666714,
          "durationTicks": 239,
          "midi": 54,
          "name": "F#3",
          "ticks": 35520,
          "time": 49.664592,
          "velocity": 0.6299212598425197
        },
        {
          "duration": 0.3111979166666714,
          "durationTicks": 239,
          "midi": 54,
          "name": "F#3",
          "ticks": 35760,
          "time": 49.977092,
          "velocity": 0.6299212598425197
        },
        {
          "duration": 0.9361979166666714,
          "durationTicks": 719,
          "midi": 36,
          "name": "C2",
          "ticks": 35760,
          "time": 49.977092,
          "velocity": 0.6299212598425197
        },
        {
          "duration": 0.3111979166666714,
          "durationTicks": 239,
          "midi": 38,
          "name": "D2",
          "ticks": 36000,
          "time": 50.289592,
          "velocity": 0.6299212598425197
        },
        {
          "duration": 0.3111979166666714,
          "durationTicks": 239,
          "midi": 54,
          "name": "F#3",
          "ticks": 36000,
          "time": 50.289592,
          "velocity": 0.6299212598425197
        },
        {
          "duration": 0.3111979166666714,
          "durationTicks": 239,
          "midi": 54,
          "name": "F#3",
          "ticks": 36240,
          "time": 50.602092,
          "velocity": 0.6299212598425197
        },
        {
          "duration": 0.3111979166666714,
          "durationTicks": 239,
          "midi": 54,
          "name": "F#3",
          "ticks": 36480,
          "time": 50.914592,
          "velocity": 0.6299212598425197
        },
        {
          "duration": 1.5611979166666714,
          "durationTicks": 1199,
          "midi": 36,
          "name": "C2",
          "ticks": 36480,
          "time": 50.914592,
          "velocity": 0.6299212598425197
        },
        {
          "duration": 0.3111979166666714,
          "durationTicks": 239,
          "midi": 54,
          "name": "F#3",
          "ticks": 36720,
          "time": 51.227092,
          "velocity": 0.6299212598425197
        },
        {
          "duration": 0.3111979166666714,
          "durationTicks": 239,
          "midi": 38,
          "name": "D2",
          "ticks": 36960,
          "time": 51.539592,
          "velocity": 0.6299212598425197
        },
        {
          "duration": 0.3111979166666714,
          "durationTicks": 239,
          "midi": 54,
          "name": "F#3",
          "ticks": 36960,
          "time": 51.539592,
          "velocity": 0.6299212598425197
        },
        {
          "duration": 0.3111979166666714,
          "durationTicks": 239,
          "midi": 54,
          "name": "F#3",
          "ticks": 37200,
          "time": 51.852092,
          "velocity": 0.6299212598425197
        },
        {
          "duration": 0.3111979166666714,
          "durationTicks": 239,
          "midi": 54,
          "name": "F#3",
          "ticks": 37440,
          "time": 52.164592,
          "velocity": 0.6299212598425197
        },
        {
          "duration": 0.3111979166666714,
          "durationTicks": 239,
          "midi": 54,
          "name": "F#3",
          "ticks": 37680,
          "time": 52.477092,
          "velocity": 0.6299212598425197
        },
        {
          "duration": 0.9361979166666714,
          "durationTicks": 719,
          "midi": 36,
          "name": "C2",
          "ticks": 37680,
          "time": 52.477092,
          "velocity": 0.6299212598425197
        },
        {
          "duration": 0.3111979166666714,
          "durationTicks": 239,
          "midi": 38,
          "name": "D2",
          "ticks": 37920,
          "time": 52.789592,
          "velocity": 0.6299212598425197
        },
        {
          "duration": 0.3111979166666714,
          "durationTicks": 239,
          "midi": 54,
          "name": "F#3",
          "ticks": 37920,
          "time": 52.789592,
          "velocity": 0.6299212598425197
        },
        {
          "duration": 0.3111979166666714,
          "durationTicks": 239,
          "midi": 54,
          "name": "F#3",
          "ticks": 38160,
          "time": 53.102092,
          "velocity": 0.6299212598425197
        },
        {
          "duration": 0.3111979166666714,
          "durationTicks": 239,
          "midi": 54,
          "name": "F#3",
          "ticks": 38400,
          "time": 53.414592,
          "velocity": 0.6299212598425197
        },
        {
          "duration": 1.5611979166666714,
          "durationTicks": 1199,
          "midi": 36,
          "name": "C2",
          "ticks": 38400,
          "time": 53.414592,
          "velocity": 0.6299212598425197
        },
        {
          "duration": 0.3111979166666714,
          "durationTicks": 239,
          "midi": 54,
          "name": "F#3",
          "ticks": 38640,
          "time": 53.727092,
          "velocity": 0.6299212598425197
        },
        {
          "duration": 0.3111979166666714,
          "durationTicks": 239,
          "midi": 38,
          "name": "D2",
          "ticks": 38880,
          "time": 54.039592,
          "velocity": 0.6299212598425197
        },
        {
          "duration": 0.3111979166666714,
          "durationTicks": 239,
          "midi": 54,
          "name": "F#3",
          "ticks": 38880,
          "time": 54.039592,
          "velocity": 0.6299212598425197
        },
        {
          "duration": 0.3111979166666714,
          "durationTicks": 239,
          "midi": 54,
          "name": "F#3",
          "ticks": 39120,
          "time": 54.352092,
          "velocity": 0.6299212598425197
        },
        {
          "duration": 0.3111979166666714,
          "durationTicks": 239,
          "midi": 54,
          "name": "F#3",
          "ticks": 39360,
          "time": 54.664592,
          "velocity": 0.6299212598425197
        },
        {
          "duration": 0.3111979166666714,
          "durationTicks": 239,
          "midi": 54,
          "name": "F#3",
          "ticks": 39600,
          "time": 54.977092,
          "velocity": 0.6299212598425197
        },
        {
          "duration": 0.9361979166666714,
          "durationTicks": 719,
          "midi": 36,
          "name": "C2",
          "ticks": 39600,
          "time": 54.977092,
          "velocity": 0.6299212598425197
        },
        {
          "duration": 0.3111979166666714,
          "durationTicks": 239,
          "midi": 38,
          "name": "D2",
          "ticks": 39840,
          "time": 55.289592,
          "velocity": 0.6299212598425197
        },
        {
          "duration": 0.3111979166666714,
          "durationTicks": 239,
          "midi": 54,
          "name": "F#3",
          "ticks": 39840,
          "time": 55.289592,
          "velocity": 0.6299212598425197
        },
        {
          "duration": 0.3111979166666714,
          "durationTicks": 239,
          "midi": 54,
          "name": "F#3",
          "ticks": 40080,
          "time": 55.602092,
          "velocity": 0.6299212598425197
        },
        {
          "duration": 0.3111979166666714,
          "durationTicks": 239,
          "midi": 54,
          "name": "F#3",
          "ticks": 40320,
          "time": 55.914592,
          "velocity": 0.6299212598425197
        },
        {
          "duration": 1.5611979166666714,
          "durationTicks": 1199,
          "midi": 36,
          "name": "C2",
          "ticks": 40320,
          "time": 55.914592,
          "velocity": 0.6299212598425197
        },
        {
          "duration": 0.3111979166666714,
          "durationTicks": 239,
          "midi": 54,
          "name": "F#3",
          "ticks": 40560,
          "time": 56.227092,
          "velocity": 0.6299212598425197
        },
        {
          "duration": 0.3111979166666714,
          "durationTicks": 239,
          "midi": 38,
          "name": "D2",
          "ticks": 40800,
          "time": 56.539592,
          "velocity": 0.6299212598425197
        },
        {
          "duration": 0.3111979166666714,
          "durationTicks": 239,
          "midi": 54,
          "name": "F#3",
          "ticks": 40800,
          "time": 56.539592,
          "velocity": 0.6299212598425197
        },
        {
          "duration": 0.3111979166666714,
          "durationTicks": 239,
          "midi": 54,
          "name": "F#3",
          "ticks": 41040,
          "time": 56.852092,
          "velocity": 0.6299212598425197
        },
        {
          "duration": 0.3111979166666714,
          "durationTicks": 239,
          "midi": 54,
          "name": "F#3",
          "ticks": 41280,
          "time": 57.164592,
          "velocity": 0.6299212598425197
        },
        {
          "duration": 0.3111979166666714,
          "durationTicks": 239,
          "midi": 54,
          "name": "F#3",
          "ticks": 41520,
          "time": 57.477092,
          "velocity": 0.6299212598425197
        },
        {
          "duration": 0.9361979166666714,
          "durationTicks": 719,
          "midi": 36,
          "name": "C2",
          "ticks": 41520,
          "time": 57.477092,
          "velocity": 0.6299212598425197
        },
        {
          "duration": 0.3111979166666714,
          "durationTicks": 239,
          "midi": 38,
          "name": "D2",
          "ticks": 41760,
          "time": 57.789592,
          "velocity": 0.6299212598425197
        },
        {
          "duration": 0.3111979166666714,
          "durationTicks": 239,
          "midi": 54,
          "name": "F#3",
          "ticks": 41760,
          "time": 57.789592,
          "velocity": 0.6299212598425197
        },
        {
          "duration": 0.3111979166666714,
          "durationTicks": 239,
          "midi": 54,
          "name": "F#3",
          "ticks": 42000,
          "time": 58.102092,
          "velocity": 0.6299212598425197
        },
        {
          "duration": 0.3111979166666714,
          "durationTicks": 239,
          "midi": 54,
          "name": "F#3",
          "ticks": 42240,
          "time": 58.414592,
          "velocity": 0.6299212598425197
        },
        {
          "duration": 1.5611979166666714,
          "durationTicks": 1199,
          "midi": 36,
          "name": "C2",
          "ticks": 42240,
          "time": 58.414592,
          "velocity": 0.6299212598425197
        },
        {
          "duration": 0.3111979166666714,
          "durationTicks": 239,
          "midi": 54,
          "name": "F#3",
          "ticks": 42480,
          "time": 58.727092,
          "velocity": 0.6299212598425197
        },
        {
          "duration": 0.3111979166666714,
          "durationTicks": 239,
          "midi": 38,
          "name": "D2",
          "ticks": 42720,
          "time": 59.039592,
          "velocity": 0.6299212598425197
        },
        {
          "duration": 0.3111979166666714,
          "durationTicks": 239,
          "midi": 54,
          "name": "F#3",
          "ticks": 42720,
          "time": 59.039592,
          "velocity": 0.6299212598425197
        },
        {
          "duration": 0.3111979166666714,
          "durationTicks": 239,
          "midi": 54,
          "name": "F#3",
          "ticks": 42960,
          "time": 59.352092,
          "velocity": 0.6299212598425197
        },
        {
          "duration": 0.3111979166666714,
          "durationTicks": 239,
          "midi": 54,
          "name": "F#3",
          "ticks": 43200,
          "time": 59.664592,
          "velocity": 0.6299212598425197
        },
        {
          "duration": 0.3111979166666714,
          "durationTicks": 239,
          "midi": 54,
          "name": "F#3",
          "ticks": 43440,
          "time": 59.977092,
          "velocity": 0.6299212598425197
        },
        {
          "duration": 0.9361979166666714,
          "durationTicks": 719,
          "midi": 36,
          "name": "C2",
          "ticks": 43440,
          "time": 59.977092,
          "velocity": 0.6299212598425197
        },
        {
          "duration": 0.3111979166666714,
          "durationTicks": 239,
          "midi": 38,
          "name": "D2",
          "ticks": 43680,
          "time": 60.289592,
          "velocity": 0.6299212598425197
        },
        {
          "duration": 0.3111979166666714,
          "durationTicks": 239,
          "midi": 54,
          "name": "F#3",
          "ticks": 43680,
          "time": 60.289592,
          "velocity": 0.6299212598425197
        },
        {
          "duration": 0.3111979166666714,
          "durationTicks": 239,
          "midi": 54,
          "name": "F#3",
          "ticks": 43920,
          "time": 60.602092,
          "velocity": 0.6299212598425197
        },
        {
          "duration": 0.3111979166666714,
          "durationTicks": 239,
          "midi": 54,
          "name": "F#3",
          "ticks": 44160,
          "time": 60.914592,
          "velocity": 0.6299212598425197
        },
        {
          "duration": 1.5611979166666714,
          "durationTicks": 1199,
          "midi": 36,
          "name": "C2",
          "ticks": 44160,
          "time": 60.914592,
          "velocity": 0.6299212598425197
        },
        {
          "duration": 0.3111979166666714,
          "durationTicks": 239,
          "midi": 54,
          "name": "F#3",
          "ticks": 44400,
          "time": 61.227092,
          "velocity": 0.6299212598425197
        },
        {
          "duration": 0.3111979166666714,
          "durationTicks": 239,
          "midi": 38,
          "name": "D2",
          "ticks": 44640,
          "time": 61.539592,
          "velocity": 0.6299212598425197
        },
        {
          "duration": 0.3111979166666714,
          "durationTicks": 239,
          "midi": 54,
          "name": "F#3",
          "ticks": 44640,
          "time": 61.539592,
          "velocity": 0.6299212598425197
        },
        {
          "duration": 0.3111979166666714,
          "durationTicks": 239,
          "midi": 54,
          "name": "F#3",
          "ticks": 44880,
          "time": 61.852092,
          "velocity": 0.6299212598425197
        },
        {
          "duration": 0.3111979166666714,
          "durationTicks": 239,
          "midi": 54,
          "name": "F#3",
          "ticks": 45120,
          "time": 62.164592,
          "velocity": 0.6299212598425197
        },
        {
          "duration": 0.3111979166666714,
          "durationTicks": 239,
          "midi": 54,
          "name": "F#3",
          "ticks": 45360,
          "time": 62.477092,
          "velocity": 0.6299212598425197
        },
        {
          "duration": 0.9361979166666714,
          "durationTicks": 719,
          "midi": 36,
          "name": "C2",
          "ticks": 45360,
          "time": 62.477092,
          "velocity": 0.6299212598425197
        },
        {
          "duration": 0.3111979166666714,
          "durationTicks": 239,
          "midi": 38,
          "name": "D2",
          "ticks": 45600,
          "time": 62.789592,
          "velocity": 0.6299212598425197
        },
        {
          "duration": 0.3111979166666714,
          "durationTicks": 239,
          "midi": 54,
          "name": "F#3",
          "ticks": 45600,
          "time": 62.789592,
          "velocity": 0.6299212598425197
        },
        {
          "duration": 0.3111979166666714,
          "durationTicks": 239,
          "midi": 54,
          "name": "F#3",
          "ticks": 45840,
          "time": 63.102092,
          "velocity": 0.6299212598425197
        },
        {
          "duration": 0.3111979166666714,
          "durationTicks": 239,
          "midi": 54,
          "name": "F#3",
          "ticks": 46080,
          "time": 63.414592,
          "velocity": 0.6299212598425197
        },
        {
          "duration": 1.5611979166666714,
          "durationTicks": 1199,
          "midi": 36,
          "name": "C2",
          "ticks": 46080,
          "time": 63.414592,
          "velocity": 0.6299212598425197
        },
        {
          "duration": 0.3111979166666714,
          "durationTicks": 239,
          "midi": 54,
          "name": "F#3",
          "ticks": 46320,
          "time": 63.727092,
          "velocity": 0.6299212598425197
        },
        {
          "duration": 0.3111979166666714,
          "durationTicks": 239,
          "midi": 38,
          "name": "D2",
          "ticks": 46560,
          "time": 64.039592,
          "velocity": 0.6299212598425197
        },
        {
          "duration": 0.3111979166666714,
          "durationTicks": 239,
          "midi": 54,
          "name": "F#3",
          "ticks": 46560,
          "time": 64.039592,
          "velocity": 0.6299212598425197
        },
        {
          "duration": 0.3111979166666714,
          "durationTicks": 239,
          "midi": 54,
          "name": "F#3",
          "ticks": 46800,
          "time": 64.352092,
          "velocity": 0.6299212598425197
        },
        {
          "duration": 0.3111979166666714,
          "durationTicks": 239,
          "midi": 54,
          "name": "F#3",
          "ticks": 47040,
          "time": 64.664592,
          "velocity": 0.6299212598425197
        },
        {
          "duration": 0.3111979166666714,
          "durationTicks": 239,
          "midi": 54,
          "name": "F#3",
          "ticks": 47280,
          "time": 64.977092,
          "velocity": 0.6299212598425197
        },
        {
          "duration": 0.9361979166666714,
          "durationTicks": 719,
          "midi": 36,
          "name": "C2",
          "ticks": 47280,
          "time": 64.977092,
          "velocity": 0.6299212598425197
        },
        {
          "duration": 0.3111979166666714,
          "durationTicks": 239,
          "midi": 38,
          "name": "D2",
          "ticks": 47520,
          "time": 65.289592,
          "velocity": 0.6299212598425197
        },
        {
          "duration": 0.3111979166666714,
          "durationTicks": 239,
          "midi": 54,
          "name": "F#3",
          "ticks": 47520,
          "time": 65.289592,
          "velocity": 0.6299212598425197
        },
        {
          "duration": 0.3111979166666714,
          "durationTicks": 239,
          "midi": 54,
          "name": "F#3",
          "ticks": 47760,
          "time": 65.602092,
          "velocity": 0.6299212598425197
        },
        {
          "duration": 0.3111979166666714,
          "durationTicks": 239,
          "midi": 54,
          "name": "F#3",
          "ticks": 48000,
          "time": 65.914592,
          "velocity": 0.6299212598425197
        },
        {
          "duration": 1.5611979166666714,
          "durationTicks": 1199,
          "midi": 36,
          "name": "C2",
          "ticks": 48000,
          "time": 65.914592,
          "velocity": 0.6299212598425197
        },
        {
          "duration": 0.3111979166666714,
          "durationTicks": 239,
          "midi": 54,
          "name": "F#3",
          "ticks": 48240,
          "time": 66.227092,
          "velocity": 0.6299212598425197
        },
        {
          "duration": 0.3111979166666714,
          "durationTicks": 239,
          "midi": 38,
          "name": "D2",
          "ticks": 48480,
          "time": 66.539592,
          "velocity": 0.6299212598425197
        },
        {
          "duration": 0.3111979166666714,
          "durationTicks": 239,
          "midi": 54,
          "name": "F#3",
          "ticks": 48480,
          "time": 66.539592,
          "velocity": 0.6299212598425197
        },
        {
          "duration": 0.3111979166666714,
          "durationTicks": 239,
          "midi": 54,
          "name": "F#3",
          "ticks": 48720,
          "time": 66.852092,
          "velocity": 0.6299212598425197
        },
        {
          "duration": 0.3111979166666714,
          "durationTicks": 239,
          "midi": 54,
          "name": "F#3",
          "ticks": 48960,
          "time": 67.164592,
          "velocity": 0.6299212598425197
        },
        {
          "duration": 0.3111979166666714,
          "durationTicks": 239,
          "midi": 54,
          "name": "F#3",
          "ticks": 49200,
          "time": 67.477092,
          "velocity": 0.6299212598425197
        },
        {
          "duration": 0.9361979166666714,
          "durationTicks": 719,
          "midi": 36,
          "name": "C2",
          "ticks": 49200,
          "time": 67.477092,
          "velocity": 0.6299212598425197
        },
        {
          "duration": 0.3111979166666714,
          "durationTicks": 239,
          "midi": 38,
          "name": "D2",
          "ticks": 49440,
          "time": 67.789592,
          "velocity": 0.6299212598425197
        },
        {
          "duration": 0.3111979166666714,
          "durationTicks": 239,
          "midi": 54,
          "name": "F#3",
          "ticks": 49440,
          "time": 67.789592,
          "velocity": 0.6299212598425197
        },
        {
          "duration": 0.3111979166666714,
          "durationTicks": 239,
          "midi": 54,
          "name": "F#3",
          "ticks": 49680,
          "time": 68.102092,
          "velocity": 0.6299212598425197
        },
        {
          "duration": 0.3111979166666714,
          "durationTicks": 239,
          "midi": 54,
          "name": "F#3",
          "ticks": 49920,
          "time": 68.414592,
          "velocity": 0.6299212598425197
        },
        {
          "duration": 1.5611979166666714,
          "durationTicks": 1199,
          "midi": 36,
          "name": "C2",
          "ticks": 49920,
          "time": 68.414592,
          "velocity": 0.6299212598425197
        },
        {
          "duration": 0.3111979166666714,
          "durationTicks": 239,
          "midi": 54,
          "name": "F#3",
          "ticks": 50160,
          "time": 68.727092,
          "velocity": 0.6299212598425197
        },
        {
          "duration": 0.3111979166666714,
          "durationTicks": 239,
          "midi": 38,
          "name": "D2",
          "ticks": 50400,
          "time": 69.039592,
          "velocity": 0.6299212598425197
        },
        {
          "duration": 0.3111979166666714,
          "durationTicks": 239,
          "midi": 54,
          "name": "F#3",
          "ticks": 50400,
          "time": 69.039592,
          "velocity": 0.6299212598425197
        },
        {
          "duration": 0.3111979166666714,
          "durationTicks": 239,
          "midi": 54,
          "name": "F#3",
          "ticks": 50640,
          "time": 69.352092,
          "velocity": 0.6299212598425197
        },
        {
          "duration": 0.3111979166666714,
          "durationTicks": 239,
          "midi": 54,
          "name": "F#3",
          "ticks": 50880,
          "time": 69.664592,
          "velocity": 0.6299212598425197
        },
        {
          "duration": 0.3111979166666714,
          "durationTicks": 239,
          "midi": 54,
          "name": "F#3",
          "ticks": 51120,
          "time": 69.977092,
          "velocity": 0.6299212598425197
        },
        {
          "duration": 0.9361979166666714,
          "durationTicks": 719,
          "midi": 36,
          "name": "C2",
          "ticks": 51120,
          "time": 69.977092,
          "velocity": 0.6299212598425197
        },
        {
          "duration": 0.3111979166666714,
          "durationTicks": 239,
          "midi": 38,
          "name": "D2",
          "ticks": 51360,
          "time": 70.289592,
          "velocity": 0.6299212598425197
        },
        {
          "duration": 0.3111979166666714,
          "durationTicks": 239,
          "midi": 54,
          "name": "F#3",
          "ticks": 51360,
          "time": 70.289592,
          "velocity": 0.6299212598425197
        },
        {
          "duration": 0.3111979166666714,
          "durationTicks": 239,
          "midi": 54,
          "name": "F#3",
          "ticks": 51600,
          "time": 70.602092,
          "velocity": 0.6299212598425197
        },
        {
          "duration": 0.3111979166666714,
          "durationTicks": 239,
          "midi": 54,
          "name": "F#3",
          "ticks": 51840,
          "time": 70.914592,
          "velocity": 0.6299212598425197
        },
        {
          "duration": 1.5611979166666714,
          "durationTicks": 1199,
          "midi": 36,
          "name": "C2",
          "ticks": 51840,
          "time": 70.914592,
          "velocity": 0.6299212598425197
        },
        {
          "duration": 0.3111979166666714,
          "durationTicks": 239,
          "midi": 54,
          "name": "F#3",
          "ticks": 52080,
          "time": 71.227092,
          "velocity": 0.6299212598425197
        },
        {
          "duration": 0.3111979166666714,
          "durationTicks": 239,
          "midi": 38,
          "name": "D2",
          "ticks": 52320,
          "time": 71.539592,
          "velocity": 0.6299212598425197
        },
        {
          "duration": 0.3111979166666714,
          "durationTicks": 239,
          "midi": 54,
          "name": "F#3",
          "ticks": 52320,
          "time": 71.539592,
          "velocity": 0.6299212598425197
        },
        {
          "duration": 0.3111979166666714,
          "durationTicks": 239,
          "midi": 54,
          "name": "F#3",
          "ticks": 52560,
          "time": 71.852092,
          "velocity": 0.6299212598425197
        },
        {
          "duration": 0.3111979166666714,
          "durationTicks": 239,
          "midi": 54,
          "name": "F#3",
          "ticks": 52800,
          "time": 72.164592,
          "velocity": 0.6299212598425197
        },
        {
          "duration": 0.3111979166666714,
          "durationTicks": 239,
          "midi": 54,
          "name": "F#3",
          "ticks": 53040,
          "time": 72.477092,
          "velocity": 0.6299212598425197
        },
        {
          "duration": 0.9361979166666714,
          "durationTicks": 719,
          "midi": 36,
          "name": "C2",
          "ticks": 53040,
          "time": 72.477092,
          "velocity": 0.6299212598425197
        },
        {
          "duration": 0.3111979166666714,
          "durationTicks": 239,
          "midi": 38,
          "name": "D2",
          "ticks": 53280,
          "time": 72.789592,
          "velocity": 0.6299212598425197
        },
        {
          "duration": 0.3111979166666714,
          "durationTicks": 239,
          "midi": 54,
          "name": "F#3",
          "ticks": 53280,
          "time": 72.789592,
          "velocity": 0.6299212598425197
        },
        {
          "duration": 0.3111979166666714,
          "durationTicks": 239,
          "midi": 54,
          "name": "F#3",
          "ticks": 53520,
          "time": 73.102092,
          "velocity": 0.6299212598425197
        },
        {
          "duration": 0.3111979166666714,
          "durationTicks": 239,
          "midi": 54,
          "name": "F#3",
          "ticks": 53760,
          "time": 73.414592,
          "velocity": 0.6299212598425197
        },
        {
          "duration": 1.5611979166666714,
          "durationTicks": 1199,
          "midi": 36,
          "name": "C2",
          "ticks": 53760,
          "time": 73.414592,
          "velocity": 0.6299212598425197
        },
        {
          "duration": 0.3111979166666714,
          "durationTicks": 239,
          "midi": 54,
          "name": "F#3",
          "ticks": 54000,
          "time": 73.727092,
          "velocity": 0.6299212598425197
        },
        {
          "duration": 0.3111979166666714,
          "durationTicks": 239,
          "midi": 38,
          "name": "D2",
          "ticks": 54240,
          "time": 74.039592,
          "velocity": 0.6299212598425197
        },
        {
          "duration": 0.3111979166666714,
          "durationTicks": 239,
          "midi": 54,
          "name": "F#3",
          "ticks": 54240,
          "time": 74.039592,
          "velocity": 0.6299212598425197
        },
        {
          "duration": 0.3111979166666714,
          "durationTicks": 239,
          "midi": 54,
          "name": "F#3",
          "ticks": 54480,
          "time": 74.352092,
          "velocity": 0.6299212598425197
        },
        {
          "duration": 0.3111979166666714,
          "durationTicks": 239,
          "midi": 54,
          "name": "F#3",
          "ticks": 54720,
          "time": 74.664592,
          "velocity": 0.6299212598425197
        },
        {
          "duration": 0.3111979166666714,
          "durationTicks": 239,
          "midi": 54,
          "name": "F#3",
          "ticks": 54960,
          "time": 74.977092,
          "velocity": 0.6299212598425197
        },
        {
          "duration": 0.9361979166666714,
          "durationTicks": 719,
          "midi": 36,
          "name": "C2",
          "ticks": 54960,
          "time": 74.977092,
          "velocity": 0.6299212598425197
        },
        {
          "duration": 0.3111979166666714,
          "durationTicks": 239,
          "midi": 38,
          "name": "D2",
          "ticks": 55200,
          "time": 75.289592,
          "velocity": 0.6299212598425197
        },
        {
          "duration": 0.3111979166666714,
          "durationTicks": 239,
          "midi": 54,
          "name": "F#3",
          "ticks": 55200,
          "time": 75.289592,
          "velocity": 0.6299212598425197
        },
        {
          "duration": 0.3111979166666714,
          "durationTicks": 239,
          "midi": 54,
          "name": "F#3",
          "ticks": 55440,
          "time": 75.602092,
          "velocity": 0.6299212598425197
        },
        {
          "duration": 0.3111979166666714,
          "durationTicks": 239,
          "midi": 54,
          "name": "F#3",
          "ticks": 55680,
          "time": 75.914592,
          "velocity": 0.6299212598425197
        },
        {
          "duration": 1.5611979166666714,
          "durationTicks": 1199,
          "midi": 36,
          "name": "C2",
          "ticks": 55680,
          "time": 75.914592,
          "velocity": 0.6299212598425197
        },
        {
          "duration": 0.3111979166666714,
          "durationTicks": 239,
          "midi": 54,
          "name": "F#3",
          "ticks": 55920,
          "time": 76.227092,
          "velocity": 0.6299212598425197
        },
        {
          "duration": 0.3111979166666714,
          "durationTicks": 239,
          "midi": 38,
          "name": "D2",
          "ticks": 56160,
          "time": 76.539592,
          "velocity": 0.6299212598425197
        },
        {
          "duration": 0.3111979166666714,
          "durationTicks": 239,
          "midi": 54,
          "name": "F#3",
          "ticks": 56160,
          "time": 76.539592,
          "velocity": 0.6299212598425197
        },
        {
          "duration": 0.3111979166666714,
          "durationTicks": 239,
          "midi": 54,
          "name": "F#3",
          "ticks": 56400,
          "time": 76.852092,
          "velocity": 0.6299212598425197
        },
        {
          "duration": 0.3111979166666714,
          "durationTicks": 239,
          "midi": 54,
          "name": "F#3",
          "ticks": 56640,
          "time": 77.164592,
          "velocity": 0.6299212598425197
        },
        {
          "duration": 0.3111979166666714,
          "durationTicks": 239,
          "midi": 54,
          "name": "F#3",
          "ticks": 56880,
          "time": 77.477092,
          "velocity": 0.6299212598425197
        },
        {
          "duration": 0.9361979166666714,
          "durationTicks": 719,
          "midi": 36,
          "name": "C2",
          "ticks": 56880,
          "time": 77.477092,
          "velocity": 0.6299212598425197
        },
        {
          "duration": 0.3111979166666714,
          "durationTicks": 239,
          "midi": 38,
          "name": "D2",
          "ticks": 57120,
          "time": 77.789592,
          "velocity": 0.6299212598425197
        },
        {
          "duration": 0.3111979166666714,
          "durationTicks": 239,
          "midi": 54,
          "name": "F#3",
          "ticks": 57120,
          "time": 77.789592,
          "velocity": 0.6299212598425197
        },
        {
          "duration": 0.3111979166666714,
          "durationTicks": 239,
          "midi": 54,
          "name": "F#3",
          "ticks": 57360,
          "time": 78.102092,
          "velocity": 0.6299212598425197
        },
        {
          "duration": 0.3111979166666714,
          "durationTicks": 239,
          "midi": 54,
          "name": "F#3",
          "ticks": 57600,
          "time": 78.414592,
          "velocity": 0.6299212598425197
        },
        {
          "duration": 1.5611979166666714,
          "durationTicks": 1199,
          "midi": 36,
          "name": "C2",
          "ticks": 57600,
          "time": 78.414592,
          "velocity": 0.6299212598425197
        },
        {
          "duration": 0.3111979166666714,
          "durationTicks": 239,
          "midi": 54,
          "name": "F#3",
          "ticks": 57840,
          "time": 78.727092,
          "velocity": 0.6299212598425197
        },
        {
          "duration": 0.3111979166666714,
          "durationTicks": 239,
          "midi": 38,
          "name": "D2",
          "ticks": 58080,
          "time": 79.039592,
          "velocity": 0.6299212598425197
        },
        {
          "duration": 0.3111979166666714,
          "durationTicks": 239,
          "midi": 54,
          "name": "F#3",
          "ticks": 58080,
          "time": 79.039592,
          "velocity": 0.6299212598425197
        },
        {
          "duration": 0.3111979166666714,
          "durationTicks": 239,
          "midi": 54,
          "name": "F#3",
          "ticks": 58320,
          "time": 79.352092,
          "velocity": 0.6299212598425197
        },
        {
          "duration": 0.3111979166666714,
          "durationTicks": 239,
          "midi": 54,
          "name": "F#3",
          "ticks": 58560,
          "time": 79.664592,
          "velocity": 0.6299212598425197
        },
        {
          "duration": 0.3111979166666714,
          "durationTicks": 239,
          "midi": 54,
          "name": "F#3",
          "ticks": 58800,
          "time": 79.977092,
          "velocity": 0.6299212598425197
        },
        {
          "duration": 0.9361979166666714,
          "durationTicks": 719,
          "midi": 36,
          "name": "C2",
          "ticks": 58800,
          "time": 79.977092,
          "velocity": 0.6299212598425197
        },
        {
          "duration": 0.3111979166666714,
          "durationTicks": 239,
          "midi": 38,
          "name": "D2",
          "ticks": 59040,
          "time": 80.289592,
          "velocity": 0.6299212598425197
        },
        {
          "duration": 0.3111979166666714,
          "durationTicks": 239,
          "midi": 54,
          "name": "F#3",
          "ticks": 59040,
          "time": 80.289592,
          "velocity": 0.6299212598425197
        },
        {
          "duration": 0.3111979166666714,
          "durationTicks": 239,
          "midi": 54,
          "name": "F#3",
          "ticks": 59280,
          "time": 80.602092,
          "velocity": 0.6299212598425197
        },
        {
          "duration": 0.3111979166666714,
          "durationTicks": 239,
          "midi": 54,
          "name": "F#3",
          "ticks": 59520,
          "time": 80.914592,
          "velocity": 0.6299212598425197
        },
        {
          "duration": 1.5611979166666714,
          "durationTicks": 1199,
          "midi": 36,
          "name": "C2",
          "ticks": 59520,
          "time": 80.914592,
          "velocity": 0.6299212598425197
        },
        {
          "duration": 0.3111979166666714,
          "durationTicks": 239,
          "midi": 54,
          "name": "F#3",
          "ticks": 59760,
          "time": 81.227092,
          "velocity": 0.6299212598425197
        },
        {
          "duration": 0.3111979166666714,
          "durationTicks": 239,
          "midi": 38,
          "name": "D2",
          "ticks": 60000,
          "time": 81.539592,
          "velocity": 0.6299212598425197
        },
        {
          "duration": 0.3111979166666714,
          "durationTicks": 239,
          "midi": 54,
          "name": "F#3",
          "ticks": 60000,
          "time": 81.539592,
          "velocity": 0.6299212598425197
        },
        {
          "duration": 0.3111979166666714,
          "durationTicks": 239,
          "midi": 54,
          "name": "F#3",
          "ticks": 60240,
          "time": 81.852092,
          "velocity": 0.6299212598425197
        },
        {
          "duration": 0.3111979166666714,
          "durationTicks": 239,
          "midi": 54,
          "name": "F#3",
          "ticks": 60480,
          "time": 82.164592,
          "velocity": 0.6299212598425197
        },
        {
          "duration": 0.3111979166666714,
          "durationTicks": 239,
          "midi": 54,
          "name": "F#3",
          "ticks": 60720,
          "time": 82.477092,
          "velocity": 0.6299212598425197
        },
        {
          "duration": 0.9361979166666714,
          "durationTicks": 719,
          "midi": 36,
          "name": "C2",
          "ticks": 60720,
          "time": 82.477092,
          "velocity": 0.6299212598425197
        },
        {
          "duration": 0.3111979166666714,
          "durationTicks": 239,
          "midi": 38,
          "name": "D2",
          "ticks": 60960,
          "time": 82.789592,
          "velocity": 0.6299212598425197
        },
        {
          "duration": 0.3111979166666714,
          "durationTicks": 239,
          "midi": 54,
          "name": "F#3",
          "ticks": 60960,
          "time": 82.789592,
          "velocity": 0.6299212598425197
        },
        {
          "duration": 0.3111979166666714,
          "durationTicks": 239,
          "midi": 54,
          "name": "F#3",
          "ticks": 61200,
          "time": 83.102092,
          "velocity": 0.6299212598425197
        },
        {
          "duration": 0.3111979166666714,
          "durationTicks": 239,
          "midi": 54,
          "name": "F#3",
          "ticks": 61440,
          "time": 83.414592,
          "velocity": 0.6299212598425197
        },
        {
          "duration": 1.5611979166666714,
          "durationTicks": 1199,
          "midi": 36,
          "name": "C2",
          "ticks": 61440,
          "time": 83.414592,
          "velocity": 0.6299212598425197
        },
        {
          "duration": 0.3111979166666714,
          "durationTicks": 239,
          "midi": 54,
          "name": "F#3",
          "ticks": 61680,
          "time": 83.727092,
          "velocity": 0.6299212598425197
        },
        {
          "duration": 0.3111979166666714,
          "durationTicks": 239,
          "midi": 38,
          "name": "D2",
          "ticks": 61920,
          "time": 84.039592,
          "velocity": 0.6299212598425197
        },
        {
          "duration": 0.3111979166666714,
          "durationTicks": 239,
          "midi": 54,
          "name": "F#3",
          "ticks": 61920,
          "time": 84.039592,
          "velocity": 0.6299212598425197
        },
        {
          "duration": 0.3111979166666714,
          "durationTicks": 239,
          "midi": 54,
          "name": "F#3",
          "ticks": 62160,
          "time": 84.352092,
          "velocity": 0.6299212598425197
        },
        {
          "duration": 0.3111979166666714,
          "durationTicks": 239,
          "midi": 54,
          "name": "F#3",
          "ticks": 62400,
          "time": 84.664592,
          "velocity": 0.6299212598425197
        },
        {
          "duration": 0.3111979166666714,
          "durationTicks": 239,
          "midi": 54,
          "name": "F#3",
          "ticks": 62640,
          "time": 84.977092,
          "velocity": 0.6299212598425197
        },
        {
          "duration": 0.9361979166666714,
          "durationTicks": 719,
          "midi": 36,
          "name": "C2",
          "ticks": 62640,
          "time": 84.977092,
          "velocity": 0.6299212598425197
        },
        {
          "duration": 0.3111979166666714,
          "durationTicks": 239,
          "midi": 38,
          "name": "D2",
          "ticks": 62880,
          "time": 85.289592,
          "velocity": 0.6299212598425197
        },
        {
          "duration": 0.3111979166666714,
          "durationTicks": 239,
          "midi": 54,
          "name": "F#3",
          "ticks": 62880,
          "time": 85.289592,
          "velocity": 0.6299212598425197
        },
        {
          "duration": 0.3111979166666714,
          "durationTicks": 239,
          "midi": 54,
          "name": "F#3",
          "ticks": 63120,
          "time": 85.602092,
          "velocity": 0.6299212598425197
        },
        {
          "duration": 0.3111979166666714,
          "durationTicks": 239,
          "midi": 54,
          "name": "F#3",
          "ticks": 63360,
          "time": 85.914592,
          "velocity": 0.6299212598425197
        },
        {
          "duration": 1.5611979166666714,
          "durationTicks": 1199,
          "midi": 36,
          "name": "C2",
          "ticks": 63360,
          "time": 85.914592,
          "velocity": 0.6299212598425197
        },
        {
          "duration": 0.3111979166666714,
          "durationTicks": 239,
          "midi": 54,
          "name": "F#3",
          "ticks": 63600,
          "time": 86.227092,
          "velocity": 0.6299212598425197
        },
        {
          "duration": 0.3111979166666714,
          "durationTicks": 239,
          "midi": 38,
          "name": "D2",
          "ticks": 63840,
          "time": 86.539592,
          "velocity": 0.6299212598425197
        },
        {
          "duration": 0.3111979166666714,
          "durationTicks": 239,
          "midi": 54,
          "name": "F#3",
          "ticks": 63840,
          "time": 86.539592,
          "velocity": 0.6299212598425197
        },
        {
          "duration": 0.3111979166666714,
          "durationTicks": 239,
          "midi": 54,
          "name": "F#3",
          "ticks": 64080,
          "time": 86.852092,
          "velocity": 0.6299212598425197
        },
        {
          "duration": 0.3111979166666714,
          "durationTicks": 239,
          "midi": 54,
          "name": "F#3",
          "ticks": 64320,
          "time": 87.164592,
          "velocity": 0.6299212598425197
        },
        {
          "duration": 0.3111979166666714,
          "durationTicks": 239,
          "midi": 54,
          "name": "F#3",
          "ticks": 64560,
          "time": 87.477092,
          "velocity": 0.6299212598425197
        },
        {
          "duration": 0.9361979166666714,
          "durationTicks": 719,
          "midi": 36,
          "name": "C2",
          "ticks": 64560,
          "time": 87.477092,
          "velocity": 0.6299212598425197
        },
        {
          "duration": 0.3111979166666714,
          "durationTicks": 239,
          "midi": 38,
          "name": "D2",
          "ticks": 64800,
          "time": 87.789592,
          "velocity": 0.6299212598425197
        },
        {
          "duration": 0.3111979166666714,
          "durationTicks": 239,
          "midi": 54,
          "name": "F#3",
          "ticks": 64800,
          "time": 87.789592,
          "velocity": 0.6299212598425197
        },
        {
          "duration": 0.3111979166666714,
          "durationTicks": 239,
          "midi": 54,
          "name": "F#3",
          "ticks": 65040,
          "time": 88.102092,
          "velocity": 0.6299212598425197
        },
        {
          "duration": 0.3111979166666714,
          "durationTicks": 239,
          "midi": 54,
          "name": "F#3",
          "ticks": 65280,
          "time": 88.414592,
          "velocity": 0.6299212598425197
        },
        {
          "duration": 1.5611979166666714,
          "durationTicks": 1199,
          "midi": 36,
          "name": "C2",
          "ticks": 65280,
          "time": 88.414592,
          "velocity": 0.6299212598425197
        },
        {
          "duration": 0.3111979166666714,
          "durationTicks": 239,
          "midi": 54,
          "name": "F#3",
          "ticks": 65520,
          "time": 88.727092,
          "velocity": 0.6299212598425197
        },
        {
          "duration": 0.3111979166666714,
          "durationTicks": 239,
          "midi": 38,
          "name": "D2",
          "ticks": 65760,
          "time": 89.039592,
          "velocity": 0.6299212598425197
        },
        {
          "duration": 0.3111979166666714,
          "durationTicks": 239,
          "midi": 54,
          "name": "F#3",
          "ticks": 65760,
          "time": 89.039592,
          "velocity": 0.6299212598425197
        },
        {
          "duration": 0.3111979166666714,
          "durationTicks": 239,
          "midi": 54,
          "name": "F#3",
          "ticks": 66000,
          "time": 89.352092,
          "velocity": 0.6299212598425197
        },
        {
          "duration": 0.3111979166666714,
          "durationTicks": 239,
          "midi": 54,
          "name": "F#3",
          "ticks": 66240,
          "time": 89.664592,
          "velocity": 0.6299212598425197
        },
        {
          "duration": 0.3111979166666714,
          "durationTicks": 239,
          "midi": 54,
          "name": "F#3",
          "ticks": 66480,
          "time": 89.977092,
          "velocity": 0.6299212598425197
        },
        {
          "duration": 0.9361979166666714,
          "durationTicks": 719,
          "midi": 36,
          "name": "C2",
          "ticks": 66480,
          "time": 89.977092,
          "velocity": 0.6299212598425197
        },
        {
          "duration": 0.3111979166666714,
          "durationTicks": 239,
          "midi": 38,
          "name": "D2",
          "ticks": 66720,
          "time": 90.289592,
          "velocity": 0.6299212598425197
        },
        {
          "duration": 0.3111979166666714,
          "durationTicks": 239,
          "midi": 54,
          "name": "F#3",
          "ticks": 66720,
          "time": 90.289592,
          "velocity": 0.6299212598425197
        },
        {
          "duration": 0.3111979166666714,
          "durationTicks": 239,
          "midi": 54,
          "name": "F#3",
          "ticks": 66960,
          "time": 90.602092,
          "velocity": 0.6299212598425197
        },
        {
          "duration": 0.3111979166666714,
          "durationTicks": 239,
          "midi": 54,
          "name": "F#3",
          "ticks": 67200,
          "time": 90.914592,
          "velocity": 0.6299212598425197
        },
        {
          "duration": 1.5611979166666714,
          "durationTicks": 1199,
          "midi": 36,
          "name": "C2",
          "ticks": 67200,
          "time": 90.914592,
          "velocity": 0.6299212598425197
        },
        {
          "duration": 0.3111979166666714,
          "durationTicks": 239,
          "midi": 54,
          "name": "F#3",
          "ticks": 67440,
          "time": 91.227092,
          "velocity": 0.6299212598425197
        },
        {
          "duration": 0.3111979166666714,
          "durationTicks": 239,
          "midi": 38,
          "name": "D2",
          "ticks": 67680,
          "time": 91.539592,
          "velocity": 0.6299212598425197
        },
        {
          "duration": 0.3111979166666714,
          "durationTicks": 239,
          "midi": 54,
          "name": "F#3",
          "ticks": 67680,
          "time": 91.539592,
          "velocity": 0.6299212598425197
        },
        {
          "duration": 0.3111979166666714,
          "durationTicks": 239,
          "midi": 54,
          "name": "F#3",
          "ticks": 67920,
          "time": 91.852092,
          "velocity": 0.6299212598425197
        },
        {
          "duration": 0.3111979166666714,
          "durationTicks": 239,
          "midi": 54,
          "name": "F#3",
          "ticks": 68160,
          "time": 92.164592,
          "velocity": 0.6299212598425197
        },
        {
          "duration": 0.3111979166666714,
          "durationTicks": 239,
          "midi": 54,
          "name": "F#3",
          "ticks": 68400,
          "time": 92.477092,
          "velocity": 0.6299212598425197
        },
        {
          "duration": 0.9361979166666714,
          "durationTicks": 719,
          "midi": 36,
          "name": "C2",
          "ticks": 68400,
          "time": 92.477092,
          "velocity": 0.6299212598425197
        },
        {
          "duration": 0.3111979166666714,
          "durationTicks": 239,
          "midi": 38,
          "name": "D2",
          "ticks": 68640,
          "time": 92.789592,
          "velocity": 0.6299212598425197
        },
        {
          "duration": 0.3111979166666714,
          "durationTicks": 239,
          "midi": 54,
          "name": "F#3",
          "ticks": 68640,
          "time": 92.789592,
          "velocity": 0.6299212598425197
        },
        {
          "duration": 0.3111979166666714,
          "durationTicks": 239,
          "midi": 54,
          "name": "F#3",
          "ticks": 68880,
          "time": 93.102092,
          "velocity": 0.6299212598425197
        },
        {
          "duration": 0.3111979166666714,
          "durationTicks": 239,
          "midi": 54,
          "name": "F#3",
          "ticks": 69120,
          "time": 93.414592,
          "velocity": 0.6299212598425197
        },
        {
          "duration": 1.5611979166666714,
          "durationTicks": 1199,
          "midi": 36,
          "name": "C2",
          "ticks": 69120,
          "time": 93.414592,
          "velocity": 0.6299212598425197
        },
        {
          "duration": 0.3111979166666714,
          "durationTicks": 239,
          "midi": 54,
          "name": "F#3",
          "ticks": 69360,
          "time": 93.727092,
          "velocity": 0.6299212598425197
        },
        {
          "duration": 0.3111979166666714,
          "durationTicks": 239,
          "midi": 38,
          "name": "D2",
          "ticks": 69600,
          "time": 94.039592,
          "velocity": 0.6299212598425197
        },
        {
          "duration": 0.3111979166666714,
          "durationTicks": 239,
          "midi": 54,
          "name": "F#3",
          "ticks": 69600,
          "time": 94.039592,
          "velocity": 0.6299212598425197
        },
        {
          "duration": 0.3111979166666714,
          "durationTicks": 239,
          "midi": 54,
          "name": "F#3",
          "ticks": 69840,
          "time": 94.352092,
          "velocity": 0.6299212598425197
        },
        {
          "duration": 0.3111979166666714,
          "durationTicks": 239,
          "midi": 54,
          "name": "F#3",
          "ticks": 70080,
          "time": 94.664592,
          "velocity": 0.6299212598425197
        },
        {
          "duration": 0.3111979166666714,
          "durationTicks": 239,
          "midi": 54,
          "name": "F#3",
          "ticks": 70320,
          "time": 94.977092,
          "velocity": 0.6299212598425197
        },
        {
          "duration": 0.9361979166666714,
          "durationTicks": 719,
          "midi": 36,
          "name": "C2",
          "ticks": 70320,
          "time": 94.977092,
          "velocity": 0.6299212598425197
        },
        {
          "duration": 0.3111979166666714,
          "durationTicks": 239,
          "midi": 38,
          "name": "D2",
          "ticks": 70560,
          "time": 95.289592,
          "velocity": 0.6299212598425197
        },
        {
          "duration": 0.3111979166666714,
          "durationTicks": 239,
          "midi": 54,
          "name": "F#3",
          "ticks": 70560,
          "time": 95.289592,
          "velocity": 0.6299212598425197
        },
        {
          "duration": 0.3111979166666714,
          "durationTicks": 239,
          "midi": 54,
          "name": "F#3",
          "ticks": 70800,
          "time": 95.602092,
          "velocity": 0.6299212598425197
        },
        {
          "duration": 0.3111979166666714,
          "durationTicks": 239,
          "midi": 54,
          "name": "F#3",
          "ticks": 71040,
          "time": 95.914592,
          "velocity": 0.6299212598425197
        },
        {
          "duration": 1.5611979166666714,
          "durationTicks": 1199,
          "midi": 36,
          "name": "C2",
          "ticks": 71040,
          "time": 95.914592,
          "velocity": 0.6299212598425197
        },
        {
          "duration": 0.3111979166666714,
          "durationTicks": 239,
          "midi": 54,
          "name": "F#3",
          "ticks": 71280,
          "time": 96.227092,
          "velocity": 0.6299212598425197
        },
        {
          "duration": 0.3111979166666714,
          "durationTicks": 239,
          "midi": 38,
          "name": "D2",
          "ticks": 71520,
          "time": 96.539592,
          "velocity": 0.6299212598425197
        },
        {
          "duration": 0.3111979166666714,
          "durationTicks": 239,
          "midi": 54,
          "name": "F#3",
          "ticks": 71520,
          "time": 96.539592,
          "velocity": 0.6299212598425197
        },
        {
          "duration": 0.3111979166666714,
          "durationTicks": 239,
          "midi": 54,
          "name": "F#3",
          "ticks": 71760,
          "time": 96.852092,
          "velocity": 0.6299212598425197
        },
        {
          "duration": 0.3111979166666714,
          "durationTicks": 239,
          "midi": 54,
          "name": "F#3",
          "ticks": 72000,
          "time": 97.164592,
          "velocity": 0.6299212598425197
        },
        {
          "duration": 0.3111979166666714,
          "durationTicks": 239,
          "midi": 54,
          "name": "F#3",
          "ticks": 72240,
          "time": 97.477092,
          "velocity": 0.6299212598425197
        },
        {
          "duration": 0.9361979166666714,
          "durationTicks": 719,
          "midi": 36,
          "name": "C2",
          "ticks": 72240,
          "time": 97.477092,
          "velocity": 0.6299212598425197
        },
        {
          "duration": 0.3111979166666714,
          "durationTicks": 239,
          "midi": 38,
          "name": "D2",
          "ticks": 72480,
          "time": 97.789592,
          "velocity": 0.6299212598425197
        },
        {
          "duration": 0.3111979166666714,
          "durationTicks": 239,
          "midi": 54,
          "name": "F#3",
          "ticks": 72480,
          "time": 97.789592,
          "velocity": 0.6299212598425197
        },
        {
          "duration": 0.3111979166666714,
          "durationTicks": 239,
          "midi": 54,
          "name": "F#3",
          "ticks": 72720,
          "time": 98.102092,
          "velocity": 0.6299212598425197
        },
        {
          "duration": 0.3111979166666714,
          "durationTicks": 239,
          "midi": 54,
          "name": "F#3",
          "ticks": 72960,
          "time": 98.414592,
          "velocity": 0.6299212598425197
        },
        {
          "duration": 0.3111979166666714,
          "durationTicks": 239,
          "midi": 49,
          "name": "C#3",
          "ticks": 72960,
          "time": 98.414592,
          "velocity": 0.6299212598425197
        },
        {
          "duration": 0.3111979166666714,
          "durationTicks": 239,
          "midi": 54,
          "name": "F#3",
          "ticks": 73200,
          "time": 98.727092,
          "velocity": 0.6299212598425197
        },
        {
          "duration": 0.3111979166666714,
          "durationTicks": 239,
          "midi": 54,
          "name": "F#3",
          "ticks": 73440,
          "time": 99.039592,
          "velocity": 0.6299212598425197
        },
        {
          "duration": 0.3111979166666714,
          "durationTicks": 239,
          "midi": 54,
          "name": "F#3",
          "ticks": 73680,
          "time": 99.352092,
          "velocity": 0.6299212598425197
        },
        {
          "duration": 0.3111979166666714,
          "durationTicks": 239,
          "midi": 54,
          "name": "F#3",
          "ticks": 73920,
          "time": 99.664592,
          "velocity": 0.6299212598425197
        },
        {
          "duration": 0.3111979166666714,
          "durationTicks": 239,
          "midi": 54,
          "name": "F#3",
          "ticks": 74160,
          "time": 99.977092,
          "velocity": 0.6299212598425197
        },
        {
          "duration": 0.3111979166666714,
          "durationTicks": 239,
          "midi": 54,
          "name": "F#3",
          "ticks": 74400,
          "time": 100.289592,
          "velocity": 0.6299212598425197
        },
        {
          "duration": 0.3111979166666714,
          "durationTicks": 239,
          "midi": 54,
          "name": "F#3",
          "ticks": 74640,
          "time": 100.602092,
          "velocity": 0.6299212598425197
        },
        {
          "duration": 0.3111979166666714,
          "durationTicks": 239,
          "midi": 54,
          "name": "F#3",
          "ticks": 74880,
          "time": 100.914592,
          "velocity": 0.6299212598425197
        },
        {
          "duration": 0.3111979166666714,
          "durationTicks": 239,
          "midi": 54,
          "name": "F#3",
          "ticks": 75120,
          "time": 101.227092,
          "velocity": 0.6299212598425197
        },
        {
          "duration": 0.3111979166666714,
          "durationTicks": 239,
          "midi": 54,
          "name": "F#3",
          "ticks": 75360,
          "time": 101.539592,
          "velocity": 0.6299212598425197
        },
        {
          "duration": 0.3111979166666714,
          "durationTicks": 239,
          "midi": 54,
          "name": "F#3",
          "ticks": 75600,
          "time": 101.852092,
          "velocity": 0.6299212598425197
        },
        {
          "duration": 0.3111979166666714,
          "durationTicks": 239,
          "midi": 54,
          "name": "F#3",
          "ticks": 75840,
          "time": 102.164592,
          "velocity": 0.6299212598425197
        },
        {
          "duration": 0.3111979166666714,
          "durationTicks": 239,
          "midi": 54,
          "name": "F#3",
          "ticks": 76080,
          "time": 102.477092,
          "velocity": 0.6299212598425197
        },
        {
          "duration": 0.9361979166666714,
          "durationTicks": 719,
          "midi": 36,
          "name": "C2",
          "ticks": 76080,
          "time": 102.477092,
          "velocity": 0.6299212598425197
        },
        {
          "duration": 0.3111979166666714,
          "durationTicks": 239,
          "midi": 38,
          "name": "D2",
          "ticks": 76320,
          "time": 102.789592,
          "velocity": 0.6299212598425197
        },
        {
          "duration": 0.3111979166666714,
          "durationTicks": 239,
          "midi": 54,
          "name": "F#3",
          "ticks": 76320,
          "time": 102.789592,
          "velocity": 0.6299212598425197
        },
        {
          "duration": 0.3111979166666714,
          "durationTicks": 239,
          "midi": 54,
          "name": "F#3",
          "ticks": 76560,
          "time": 103.102092,
          "velocity": 0.6299212598425197
        },
        {
          "duration": 0.3111979166666714,
          "durationTicks": 239,
          "midi": 54,
          "name": "F#3",
          "ticks": 76800,
          "time": 103.414592,
          "velocity": 0.6299212598425197
        },
        {
          "duration": 1.5611979166666714,
          "durationTicks": 1199,
          "midi": 36,
          "name": "C2",
          "ticks": 76800,
          "time": 103.414592,
          "velocity": 0.6299212598425197
        },
        {
          "duration": 0.3111979166666714,
          "durationTicks": 239,
          "midi": 54,
          "name": "F#3",
          "ticks": 77040,
          "time": 103.727092,
          "velocity": 0.6299212598425197
        },
        {
          "duration": 0.3111979166666714,
          "durationTicks": 239,
          "midi": 38,
          "name": "D2",
          "ticks": 77280,
          "time": 104.039592,
          "velocity": 0.6299212598425197
        },
        {
          "duration": 0.3111979166666714,
          "durationTicks": 239,
          "midi": 54,
          "name": "F#3",
          "ticks": 77280,
          "time": 104.039592,
          "velocity": 0.6299212598425197
        },
        {
          "duration": 0.3111979166666714,
          "durationTicks": 239,
          "midi": 54,
          "name": "F#3",
          "ticks": 77520,
          "time": 104.352092,
          "velocity": 0.6299212598425197
        },
        {
          "duration": 0.3111979166666714,
          "durationTicks": 239,
          "midi": 54,
          "name": "F#3",
          "ticks": 77760,
          "time": 104.664592,
          "velocity": 0.6299212598425197
        },
        {
          "duration": 0.3111979166666714,
          "durationTicks": 239,
          "midi": 54,
          "name": "F#3",
          "ticks": 78000,
          "time": 104.977092,
          "velocity": 0.6299212598425197
        },
        {
          "duration": 0.9361979166666714,
          "durationTicks": 719,
          "midi": 36,
          "name": "C2",
          "ticks": 78000,
          "time": 104.977092,
          "velocity": 0.6299212598425197
        },
        {
          "duration": 0.3111979166666714,
          "durationTicks": 239,
          "midi": 38,
          "name": "D2",
          "ticks": 78240,
          "time": 105.289592,
          "velocity": 0.6299212598425197
        },
        {
          "duration": 0.3111979166666714,
          "durationTicks": 239,
          "midi": 54,
          "name": "F#3",
          "ticks": 78240,
          "time": 105.289592,
          "velocity": 0.6299212598425197
        },
        {
          "duration": 0.3111979166666714,
          "durationTicks": 239,
          "midi": 54,
          "name": "F#3",
          "ticks": 78480,
          "time": 105.602092,
          "velocity": 0.6299212598425197
        },
        {
          "duration": 0.3111979166666714,
          "durationTicks": 239,
          "midi": 54,
          "name": "F#3",
          "ticks": 78720,
          "time": 105.914592,
          "velocity": 0.6299212598425197
        },
        {
          "duration": 1.5611979166666714,
          "durationTicks": 1199,
          "midi": 36,
          "name": "C2",
          "ticks": 78720,
          "time": 105.914592,
          "velocity": 0.6299212598425197
        },
        {
          "duration": 0.3111979166666714,
          "durationTicks": 239,
          "midi": 54,
          "name": "F#3",
          "ticks": 78960,
          "time": 106.227092,
          "velocity": 0.6299212598425197
        },
        {
          "duration": 0.3111979166666714,
          "durationTicks": 239,
          "midi": 38,
          "name": "D2",
          "ticks": 79200,
          "time": 106.539592,
          "velocity": 0.6299212598425197
        },
        {
          "duration": 0.3111979166666714,
          "durationTicks": 239,
          "midi": 54,
          "name": "F#3",
          "ticks": 79200,
          "time": 106.539592,
          "velocity": 0.6299212598425197
        },
        {
          "duration": 0.3111979166666714,
          "durationTicks": 239,
          "midi": 54,
          "name": "F#3",
          "ticks": 79440,
          "time": 106.852092,
          "velocity": 0.6299212598425197
        },
        {
          "duration": 0.3111979166666714,
          "durationTicks": 239,
          "midi": 54,
          "name": "F#3",
          "ticks": 79680,
          "time": 107.164592,
          "velocity": 0.6299212598425197
        },
        {
          "duration": 0.3111979166666714,
          "durationTicks": 239,
          "midi": 54,
          "name": "F#3",
          "ticks": 79920,
          "time": 107.477092,
          "velocity": 0.6299212598425197
        },
        {
          "duration": 0.9361979166666714,
          "durationTicks": 719,
          "midi": 36,
          "name": "C2",
          "ticks": 79920,
          "time": 107.477092,
          "velocity": 0.6299212598425197
        },
        {
          "duration": 0.3111979166666714,
          "durationTicks": 239,
          "midi": 38,
          "name": "D2",
          "ticks": 80160,
          "time": 107.789592,
          "velocity": 0.6299212598425197
        },
        {
          "duration": 0.3111979166666714,
          "durationTicks": 239,
          "midi": 54,
          "name": "F#3",
          "ticks": 80160,
          "time": 107.789592,
          "velocity": 0.6299212598425197
        },
        {
          "duration": 0.3111979166666714,
          "durationTicks": 239,
          "midi": 54,
          "name": "F#3",
          "ticks": 80400,
          "time": 108.102092,
          "velocity": 0.6299212598425197
        },
        {
          "duration": 0.3111979166666714,
          "durationTicks": 239,
          "midi": 54,
          "name": "F#3",
          "ticks": 80640,
          "time": 108.414592,
          "velocity": 0.6299212598425197
        },
        {
          "duration": 1.5611979166666714,
          "durationTicks": 1199,
          "midi": 36,
          "name": "C2",
          "ticks": 80640,
          "time": 108.414592,
          "velocity": 0.6299212598425197
        },
        {
          "duration": 0.3111979166666714,
          "durationTicks": 239,
          "midi": 54,
          "name": "F#3",
          "ticks": 80880,
          "time": 108.727092,
          "velocity": 0.6299212598425197
        },
        {
          "duration": 0.3111979166666714,
          "durationTicks": 239,
          "midi": 38,
          "name": "D2",
          "ticks": 81120,
          "time": 109.039592,
          "velocity": 0.6299212598425197
        },
        {
          "duration": 0.3111979166666714,
          "durationTicks": 239,
          "midi": 54,
          "name": "F#3",
          "ticks": 81120,
          "time": 109.039592,
          "velocity": 0.6299212598425197
        },
        {
          "duration": 0.3111979166666714,
          "durationTicks": 239,
          "midi": 54,
          "name": "F#3",
          "ticks": 81360,
          "time": 109.352092,
          "velocity": 0.6299212598425197
        },
        {
          "duration": 0.3111979166666714,
          "durationTicks": 239,
          "midi": 54,
          "name": "F#3",
          "ticks": 81600,
          "time": 109.664592,
          "velocity": 0.6299212598425197
        },
        {
          "duration": 0.3111979166666714,
          "durationTicks": 239,
          "midi": 54,
          "name": "F#3",
          "ticks": 81840,
          "time": 109.977092,
          "velocity": 0.6299212598425197
        },
        {
          "duration": 0.9361979166666714,
          "durationTicks": 719,
          "midi": 36,
          "name": "C2",
          "ticks": 81840,
          "time": 109.977092,
          "velocity": 0.6299212598425197
        },
        {
          "duration": 0.3111979166666714,
          "durationTicks": 239,
          "midi": 38,
          "name": "D2",
          "ticks": 82080,
          "time": 110.289592,
          "velocity": 0.6299212598425197
        },
        {
          "duration": 0.3111979166666714,
          "durationTicks": 239,
          "midi": 54,
          "name": "F#3",
          "ticks": 82080,
          "time": 110.289592,
          "velocity": 0.6299212598425197
        },
        {
          "duration": 0.3111979166666714,
          "durationTicks": 239,
          "midi": 54,
          "name": "F#3",
          "ticks": 82320,
          "time": 110.602092,
          "velocity": 0.6299212598425197
        },
        {
          "duration": 0.3111979166666714,
          "durationTicks": 239,
          "midi": 54,
          "name": "F#3",
          "ticks": 82560,
          "time": 110.914592,
          "velocity": 0.6299212598425197
        },
        {
          "duration": 1.5611979166666714,
          "durationTicks": 1199,
          "midi": 36,
          "name": "C2",
          "ticks": 82560,
          "time": 110.914592,
          "velocity": 0.6299212598425197
        },
        {
          "duration": 0.3111979166666714,
          "durationTicks": 239,
          "midi": 54,
          "name": "F#3",
          "ticks": 82800,
          "time": 111.227092,
          "velocity": 0.6299212598425197
        },
        {
          "duration": 0.3111979166666714,
          "durationTicks": 239,
          "midi": 38,
          "name": "D2",
          "ticks": 83040,
          "time": 111.539592,
          "velocity": 0.6299212598425197
        },
        {
          "duration": 0.3111979166666714,
          "durationTicks": 239,
          "midi": 54,
          "name": "F#3",
          "ticks": 83040,
          "time": 111.539592,
          "velocity": 0.6299212598425197
        },
        {
          "duration": 0.3111979166666714,
          "durationTicks": 239,
          "midi": 54,
          "name": "F#3",
          "ticks": 83280,
          "time": 111.852092,
          "velocity": 0.6299212598425197
        },
        {
          "duration": 0.3111979166666714,
          "durationTicks": 239,
          "midi": 54,
          "name": "F#3",
          "ticks": 83520,
          "time": 112.164592,
          "velocity": 0.6299212598425197
        },
        {
          "duration": 0.3111979166666714,
          "durationTicks": 239,
          "midi": 54,
          "name": "F#3",
          "ticks": 83760,
          "time": 112.477092,
          "velocity": 0.6299212598425197
        },
        {
          "duration": 0.9361979166666714,
          "durationTicks": 719,
          "midi": 36,
          "name": "C2",
          "ticks": 83760,
          "time": 112.477092,
          "velocity": 0.6299212598425197
        },
        {
          "duration": 0.3111979166666714,
          "durationTicks": 239,
          "midi": 38,
          "name": "D2",
          "ticks": 84000,
          "time": 112.789592,
          "velocity": 0.6299212598425197
        },
        {
          "duration": 0.3111979166666714,
          "durationTicks": 239,
          "midi": 54,
          "name": "F#3",
          "ticks": 84000,
          "time": 112.789592,
          "velocity": 0.6299212598425197
        },
        {
          "duration": 0.3111979166666714,
          "durationTicks": 239,
          "midi": 54,
          "name": "F#3",
          "ticks": 84240,
          "time": 113.102092,
          "velocity": 0.6299212598425197
        },
        {
          "duration": 0.3111979166666714,
          "durationTicks": 239,
          "midi": 54,
          "name": "F#3",
          "ticks": 84480,
          "time": 113.414592,
          "velocity": 0.6299212598425197
        },
        {
          "duration": 1.5611979166666714,
          "durationTicks": 1199,
          "midi": 36,
          "name": "C2",
          "ticks": 84480,
          "time": 113.414592,
          "velocity": 0.6299212598425197
        },
        {
          "duration": 0.3111979166666714,
          "durationTicks": 239,
          "midi": 54,
          "name": "F#3",
          "ticks": 84720,
          "time": 113.727092,
          "velocity": 0.6299212598425197
        },
        {
          "duration": 0.3111979166666714,
          "durationTicks": 239,
          "midi": 38,
          "name": "D2",
          "ticks": 84960,
          "time": 114.039592,
          "velocity": 0.6299212598425197
        },
        {
          "duration": 0.3111979166666714,
          "durationTicks": 239,
          "midi": 54,
          "name": "F#3",
          "ticks": 84960,
          "time": 114.039592,
          "velocity": 0.6299212598425197
        },
        {
          "duration": 0.3111979166666714,
          "durationTicks": 239,
          "midi": 54,
          "name": "F#3",
          "ticks": 85200,
          "time": 114.352092,
          "velocity": 0.6299212598425197
        },
        {
          "duration": 0.3111979166666714,
          "durationTicks": 239,
          "midi": 54,
          "name": "F#3",
          "ticks": 85440,
          "time": 114.664592,
          "velocity": 0.6299212598425197
        },
        {
          "duration": 0.3111979166666714,
          "durationTicks": 239,
          "midi": 54,
          "name": "F#3",
          "ticks": 85680,
          "time": 114.977092,
          "velocity": 0.6299212598425197
        },
        {
          "duration": 0.9361979166666714,
          "durationTicks": 719,
          "midi": 36,
          "name": "C2",
          "ticks": 85680,
          "time": 114.977092,
          "velocity": 0.6299212598425197
        },
        {
          "duration": 0.3111979166666714,
          "durationTicks": 239,
          "midi": 38,
          "name": "D2",
          "ticks": 85920,
          "time": 115.289592,
          "velocity": 0.6299212598425197
        },
        {
          "duration": 0.3111979166666714,
          "durationTicks": 239,
          "midi": 54,
          "name": "F#3",
          "ticks": 85920,
          "time": 115.289592,
          "velocity": 0.6299212598425197
        },
        {
          "duration": 0.3111979166666714,
          "durationTicks": 239,
          "midi": 54,
          "name": "F#3",
          "ticks": 86160,
          "time": 115.602092,
          "velocity": 0.6299212598425197
        },
        {
          "duration": 0.3111979166666714,
          "durationTicks": 239,
          "midi": 54,
          "name": "F#3",
          "ticks": 86400,
          "time": 115.914592,
          "velocity": 0.6299212598425197
        },
        {
          "duration": 1.5611979166666714,
          "durationTicks": 1199,
          "midi": 36,
          "name": "C2",
          "ticks": 86400,
          "time": 115.914592,
          "velocity": 0.6299212598425197
        },
        {
          "duration": 0.3111979166666714,
          "durationTicks": 239,
          "midi": 54,
          "name": "F#3",
          "ticks": 86640,
          "time": 116.227092,
          "velocity": 0.6299212598425197
        },
        {
          "duration": 0.3111979166666714,
          "durationTicks": 239,
          "midi": 38,
          "name": "D2",
          "ticks": 86880,
          "time": 116.539592,
          "velocity": 0.6299212598425197
        },
        {
          "duration": 0.3111979166666714,
          "durationTicks": 239,
          "midi": 54,
          "name": "F#3",
          "ticks": 86880,
          "time": 116.539592,
          "velocity": 0.6299212598425197
        },
        {
          "duration": 0.3111979166666714,
          "durationTicks": 239,
          "midi": 54,
          "name": "F#3",
          "ticks": 87120,
          "time": 116.852092,
          "velocity": 0.6299212598425197
        },
        {
          "duration": 0.3111979166666714,
          "durationTicks": 239,
          "midi": 54,
          "name": "F#3",
          "ticks": 87360,
          "time": 117.164592,
          "velocity": 0.6299212598425197
        },
        {
          "duration": 0.3111979166666714,
          "durationTicks": 239,
          "midi": 54,
          "name": "F#3",
          "ticks": 87600,
          "time": 117.477092,
          "velocity": 0.6299212598425197
        },
        {
          "duration": 0.9361979166666714,
          "durationTicks": 719,
          "midi": 36,
          "name": "C2",
          "ticks": 87600,
          "time": 117.477092,
          "velocity": 0.6299212598425197
        },
        {
          "duration": 0.3111979166666714,
          "durationTicks": 239,
          "midi": 38,
          "name": "D2",
          "ticks": 87840,
          "time": 117.789592,
          "velocity": 0.6299212598425197
        },
        {
          "duration": 0.3111979166666714,
          "durationTicks": 239,
          "midi": 54,
          "name": "F#3",
          "ticks": 87840,
          "time": 117.789592,
          "velocity": 0.6299212598425197
        },
        {
          "duration": 0.3111979166666714,
          "durationTicks": 239,
          "midi": 54,
          "name": "F#3",
          "ticks": 88080,
          "time": 118.102092,
          "velocity": 0.6299212598425197
        },
        {
          "duration": 0.3111979166666714,
          "durationTicks": 239,
          "midi": 54,
          "name": "F#3",
          "ticks": 88320,
          "time": 118.414592,
          "velocity": 0.6299212598425197
        },
        {
          "duration": 1.5611979166666714,
          "durationTicks": 1199,
          "midi": 36,
          "name": "C2",
          "ticks": 88320,
          "time": 118.414592,
          "velocity": 0.6299212598425197
        },
        {
          "duration": 0.3111979166666714,
          "durationTicks": 239,
          "midi": 54,
          "name": "F#3",
          "ticks": 88560,
          "time": 118.727092,
          "velocity": 0.6299212598425197
        },
        {
          "duration": 0.3111979166666714,
          "durationTicks": 239,
          "midi": 38,
          "name": "D2",
          "ticks": 88800,
          "time": 119.039592,
          "velocity": 0.6299212598425197
        },
        {
          "duration": 0.3111979166666714,
          "durationTicks": 239,
          "midi": 54,
          "name": "F#3",
          "ticks": 88800,
          "time": 119.039592,
          "velocity": 0.6299212598425197
        },
        {
          "duration": 0.3111979166666714,
          "durationTicks": 239,
          "midi": 54,
          "name": "F#3",
          "ticks": 89040,
          "time": 119.352092,
          "velocity": 0.6299212598425197
        },
        {
          "duration": 0.3111979166666714,
          "durationTicks": 239,
          "midi": 54,
          "name": "F#3",
          "ticks": 89280,
          "time": 119.664592,
          "velocity": 0.6299212598425197
        },
        {
          "duration": 0.3111979166666714,
          "durationTicks": 239,
          "midi": 54,
          "name": "F#3",
          "ticks": 89520,
          "time": 119.977092,
          "velocity": 0.6299212598425197
        },
        {
          "duration": 0.9361979166666714,
          "durationTicks": 719,
          "midi": 36,
          "name": "C2",
          "ticks": 89520,
          "time": 119.977092,
          "velocity": 0.6299212598425197
        },
        {
          "duration": 0.3111979166666714,
          "durationTicks": 239,
          "midi": 38,
          "name": "D2",
          "ticks": 89760,
          "time": 120.289592,
          "velocity": 0.6299212598425197
        },
        {
          "duration": 0.3111979166666714,
          "durationTicks": 239,
          "midi": 54,
          "name": "F#3",
          "ticks": 89760,
          "time": 120.289592,
          "velocity": 0.6299212598425197
        },
        {
          "duration": 0.3111979166666714,
          "durationTicks": 239,
          "midi": 54,
          "name": "F#3",
          "ticks": 90000,
          "time": 120.602092,
          "velocity": 0.6299212598425197
        },
        {
          "duration": 0.3111979166666714,
          "durationTicks": 239,
          "midi": 54,
          "name": "F#3",
          "ticks": 90240,
          "time": 120.914592,
          "velocity": 0.6299212598425197
        },
        {
          "duration": 1.5611979166666714,
          "durationTicks": 1199,
          "midi": 36,
          "name": "C2",
          "ticks": 90240,
          "time": 120.914592,
          "velocity": 0.6299212598425197
        },
        {
          "duration": 0.3111979166666714,
          "durationTicks": 239,
          "midi": 54,
          "name": "F#3",
          "ticks": 90480,
          "time": 121.227092,
          "velocity": 0.6299212598425197
        },
        {
          "duration": 0.3111979166666714,
          "durationTicks": 239,
          "midi": 38,
          "name": "D2",
          "ticks": 90720,
          "time": 121.539592,
          "velocity": 0.6299212598425197
        },
        {
          "duration": 0.3111979166666714,
          "durationTicks": 239,
          "midi": 54,
          "name": "F#3",
          "ticks": 90720,
          "time": 121.539592,
          "velocity": 0.6299212598425197
        },
        {
          "duration": 0.3111979166666714,
          "durationTicks": 239,
          "midi": 54,
          "name": "F#3",
          "ticks": 90960,
          "time": 121.852092,
          "velocity": 0.6299212598425197
        },
        {
          "duration": 0.3111979166666714,
          "durationTicks": 239,
          "midi": 54,
          "name": "F#3",
          "ticks": 91200,
          "time": 122.164592,
          "velocity": 0.6299212598425197
        },
        {
          "duration": 0.3111979166666714,
          "durationTicks": 239,
          "midi": 54,
          "name": "F#3",
          "ticks": 91440,
          "time": 122.477092,
          "velocity": 0.6299212598425197
        },
        {
          "duration": 0.9361979166666714,
          "durationTicks": 719,
          "midi": 36,
          "name": "C2",
          "ticks": 91440,
          "time": 122.477092,
          "velocity": 0.6299212598425197
        },
        {
          "duration": 0.3111979166666714,
          "durationTicks": 239,
          "midi": 38,
          "name": "D2",
          "ticks": 91680,
          "time": 122.789592,
          "velocity": 0.6299212598425197
        },
        {
          "duration": 0.3111979166666714,
          "durationTicks": 239,
          "midi": 54,
          "name": "F#3",
          "ticks": 91680,
          "time": 122.789592,
          "velocity": 0.6299212598425197
        },
        {
          "duration": 0.3111979166666714,
          "durationTicks": 239,
          "midi": 54,
          "name": "F#3",
          "ticks": 91920,
          "time": 123.102092,
          "velocity": 0.6299212598425197
        },
        {
          "duration": 1.2486979166666856,
          "durationTicks": 959,
          "midi": 36,
          "name": "C2",
          "ticks": 99840,
          "time": 133.414592,
          "velocity": 0.12598425196850394
        },
        {
          "duration": 0.6236979166666856,
          "durationTicks": 479,
          "midi": 38,
          "name": "D2",
          "ticks": 100320,
          "time": 134.039592,
          "velocity": 0.14173228346456693
        },
        {
          "duration": 1.2486979166666856,
          "durationTicks": 959,
          "midi": 36,
          "name": "C2",
          "ticks": 100800,
          "time": 134.664592,
          "velocity": 0.15748031496062992
        },
        {
          "duration": 0.6236979166666856,
          "durationTicks": 479,
          "midi": 38,
          "name": "D2",
          "ticks": 101280,
          "time": 135.289592,
          "velocity": 0.1732283464566929
        },
        {
          "duration": 1.2486979166666856,
          "durationTicks": 959,
          "midi": 36,
          "name": "C2",
          "ticks": 101760,
          "time": 135.914592,
          "velocity": 0.1889763779527559
        },
        {
          "duration": 0.6236979166666856,
          "durationTicks": 479,
          "midi": 38,
          "name": "D2",
          "ticks": 102240,
          "time": 136.539592,
          "velocity": 0.2125984251968504
        },
        {
          "duration": 1.2486979166666856,
          "durationTicks": 959,
          "midi": 36,
          "name": "C2",
          "ticks": 102720,
          "time": 137.164592,
          "velocity": 0.2283464566929134
        },
        {
          "duration": 0.6236979166666856,
          "durationTicks": 479,
          "midi": 38,
          "name": "D2",
          "ticks": 103200,
          "time": 137.789592,
          "velocity": 0.2440944881889764
        },
        {
          "duration": 1.2486979166666856,
          "durationTicks": 959,
          "midi": 36,
          "name": "C2",
          "ticks": 103680,
          "time": 138.414592,
          "velocity": 0.25984251968503935
        },
        {
          "duration": 0.6236979166666856,
          "durationTicks": 479,
          "midi": 38,
          "name": "D2",
          "ticks": 104160,
          "time": 139.039592,
          "velocity": 0.2755905511811024
        },
        {
          "duration": 1.2486979166666856,
          "durationTicks": 959,
          "midi": 36,
          "name": "C2",
          "ticks": 104640,
          "time": 139.664592,
          "velocity": 0.2992125984251969
        },
        {
          "duration": 0.6236979166666856,
          "durationTicks": 479,
          "midi": 38,
          "name": "D2",
          "ticks": 105120,
          "time": 140.289592,
          "velocity": 0.31496062992125984
        },
        {
          "duration": 1.2486979166666856,
          "durationTicks": 959,
          "midi": 36,
          "name": "C2",
          "ticks": 105600,
          "time": 140.914592,
          "velocity": 0.33070866141732286
        },
        {
          "duration": 0.6236979166666856,
          "durationTicks": 479,
          "midi": 38,
          "name": "D2",
          "ticks": 106080,
          "time": 141.539592,
          "velocity": 0.3464566929133858
        },
        {
          "duration": 1.2486979166666856,
          "durationTicks": 959,
          "midi": 36,
          "name": "C2",
          "ticks": 106560,
          "time": 142.164592,
          "velocity": 0.36220472440944884
        },
        {
          "duration": 0.6236979166666856,
          "durationTicks": 479,
          "midi": 38,
          "name": "D2",
          "ticks": 107040,
          "time": 142.789592,
          "velocity": 0.3858267716535433
        },
        {
          "duration": 1.2486979166666856,
          "durationTicks": 959,
          "midi": 36,
          "name": "C2",
          "ticks": 107520,
          "time": 143.414592,
          "velocity": 0.3858267716535433
        },
        {
          "duration": 0.6236979166666856,
          "durationTicks": 479,
          "midi": 38,
          "name": "D2",
          "ticks": 108000,
          "time": 144.039592,
          "velocity": 0.3858267716535433
        },
        {
          "duration": 1.2486979166666856,
          "durationTicks": 959,
          "midi": 36,
          "name": "C2",
          "ticks": 108480,
          "time": 144.664592,
          "velocity": 0.3858267716535433
        },
        {
          "duration": 0.6236979166666856,
          "durationTicks": 479,
          "midi": 38,
          "name": "D2",
          "ticks": 108960,
          "time": 145.289592,
          "velocity": 0.3858267716535433
        },
        {
          "duration": 1.2486979166666856,
          "durationTicks": 959,
          "midi": 36,
          "name": "C2",
          "ticks": 109440,
          "time": 145.914592,
          "velocity": 0.3858267716535433
        },
        {
          "duration": 0.6236979166666856,
          "durationTicks": 479,
          "midi": 38,
          "name": "D2",
          "ticks": 109920,
          "time": 146.539592,
          "velocity": 0.3858267716535433
        },
        {
          "duration": 1.2486979166666856,
          "durationTicks": 959,
          "midi": 36,
          "name": "C2",
          "ticks": 110400,
          "time": 147.164592,
          "velocity": 0.3858267716535433
        },
        {
          "duration": 0.6236979166666856,
          "durationTicks": 479,
          "midi": 38,
          "name": "D2",
          "ticks": 110880,
          "time": 147.789592,
          "velocity": 0.3858267716535433
        },
        {
          "duration": 1.2486979166666856,
          "durationTicks": 959,
          "midi": 36,
          "name": "C2",
          "ticks": 111360,
          "time": 148.414592,
          "velocity": 0.3858267716535433
        },
        {
          "duration": 0.6236979166666856,
          "durationTicks": 479,
          "midi": 38,
          "name": "D2",
          "ticks": 111840,
          "time": 149.039592,
          "velocity": 0.3858267716535433
        },
        {
          "duration": 1.2486979166666856,
          "durationTicks": 959,
          "midi": 36,
          "name": "C2",
          "ticks": 112320,
          "time": 149.664592,
          "velocity": 0.3858267716535433
        },
        {
          "duration": 0.6236979166666856,
          "durationTicks": 479,
          "midi": 38,
          "name": "D2",
          "ticks": 112800,
          "time": 150.289592,
          "velocity": 0.3858267716535433
        },
        {
          "duration": 1.2486979166666572,
          "durationTicks": 959,
          "midi": 36,
          "name": "C2",
          "ticks": 113280,
          "time": 150.914592,
          "velocity": 0.3858267716535433
        },
        {
          "duration": 0.6236979166666572,
          "durationTicks": 479,
          "midi": 38,
          "name": "D2",
          "ticks": 113760,
          "time": 151.539592,
          "velocity": 0.3858267716535433
        },
        {
          "duration": 1.2486979166666572,
          "durationTicks": 959,
          "midi": 36,
          "name": "C2",
          "ticks": 114240,
          "time": 152.164592,
          "velocity": 0.3858267716535433
        },
        {
          "duration": 0.6236979166666572,
          "durationTicks": 479,
          "midi": 38,
          "name": "D2",
          "ticks": 114720,
          "time": 152.789592,
          "velocity": 0.3858267716535433
        },
        {
          "duration": 1.2486979166666572,
          "durationTicks": 959,
          "midi": 36,
          "name": "C2",
          "ticks": 115200,
          "time": 153.414592,
          "velocity": 0.3858267716535433
        },
        {
          "duration": 0.6236979166666572,
          "durationTicks": 479,
          "midi": 38,
          "name": "D2",
          "ticks": 115680,
          "time": 154.039592,
          "velocity": 0.3858267716535433
        },
        {
          "duration": 1.2486979166666572,
          "durationTicks": 959,
          "midi": 36,
          "name": "C2",
          "ticks": 116160,
          "time": 154.664592,
          "velocity": 0.3858267716535433
        },
        {
          "duration": 0.6236979166666572,
          "durationTicks": 479,
          "midi": 38,
          "name": "D2",
          "ticks": 116640,
          "time": 155.289592,
          "velocity": 0.3858267716535433
        },
        {
          "duration": 1.2486979166666572,
          "durationTicks": 959,
          "midi": 36,
          "name": "C2",
          "ticks": 117120,
          "time": 155.914592,
          "velocity": 0.3858267716535433
        },
        {
          "duration": 0.6236979166666572,
          "durationTicks": 479,
          "midi": 38,
          "name": "D2",
          "ticks": 117600,
          "time": 156.539592,
          "velocity": 0.3858267716535433
        },
        {
          "duration": 1.2486979166666572,
          "durationTicks": 959,
          "midi": 36,
          "name": "C2",
          "ticks": 118080,
          "time": 157.164592,
          "velocity": 0.3858267716535433
        },
        {
          "duration": 0.6236979166666572,
          "durationTicks": 479,
          "midi": 38,
          "name": "D2",
          "ticks": 118560,
          "time": 157.789592,
          "velocity": 0.3858267716535433
        },
        {
          "duration": 1.2486979166666572,
          "durationTicks": 959,
          "midi": 36,
          "name": "C2",
          "ticks": 119040,
          "time": 158.414592,
          "velocity": 0.3858267716535433
        },
        {
          "duration": 0.6236979166666572,
          "durationTicks": 479,
          "midi": 38,
          "name": "D2",
          "ticks": 119520,
          "time": 159.039592,
          "velocity": 0.3858267716535433
        },
        {
          "duration": 1.2486979166666572,
          "durationTicks": 959,
          "midi": 36,
          "name": "C2",
          "ticks": 120000,
          "time": 159.664592,
          "velocity": 0.3858267716535433
        },
        {
          "duration": 0.6236979166666572,
          "durationTicks": 479,
          "midi": 38,
          "name": "D2",
          "ticks": 120480,
          "time": 160.289592,
          "velocity": 0.3858267716535433
        },
        {
          "duration": 0.3111979166666572,
          "durationTicks": 239,
          "midi": 54,
          "name": "F#3",
          "ticks": 120960,
          "time": 160.914592,
          "velocity": 0.3858267716535433
        },
        {
          "duration": 1.2486979166666572,
          "durationTicks": 959,
          "midi": 36,
          "name": "C2",
          "ticks": 120960,
          "time": 160.914592,
          "velocity": 0.3858267716535433
        },
        {
          "duration": 0.3111979166666572,
          "durationTicks": 239,
          "midi": 54,
          "name": "F#3",
          "ticks": 121200,
          "time": 161.227092,
          "velocity": 0.3858267716535433
        },
        {
          "duration": 0.6236979166666572,
          "durationTicks": 479,
          "midi": 38,
          "name": "D2",
          "ticks": 121440,
          "time": 161.539592,
          "velocity": 0.3858267716535433
        },
        {
          "duration": 1.2486979166666572,
          "durationTicks": 959,
          "midi": 36,
          "name": "C2",
          "ticks": 121920,
          "time": 162.164592,
          "velocity": 0.3858267716535433
        },
        {
          "duration": 0.6236979166666572,
          "durationTicks": 479,
          "midi": 38,
          "name": "D2",
          "ticks": 122400,
          "time": 162.789592,
          "velocity": 0.3858267716535433
        },
        {
          "duration": 0.3111979166666572,
          "durationTicks": 239,
          "midi": 38,
          "name": "D2",
          "ticks": 124080,
          "time": 164.977092,
          "velocity": 0.3858267716535433
        },
        {
          "duration": 0.3111979166666572,
          "durationTicks": 239,
          "midi": 38,
          "name": "D2",
          "ticks": 124320,
          "time": 165.289592,
          "velocity": 0.3858267716535433
        },
        {
          "duration": 0.3111979166666572,
          "durationTicks": 239,
          "midi": 38,
          "name": "D2",
          "ticks": 124560,
          "time": 165.602092,
          "velocity": 0.3858267716535433
        },
        {
          "duration": 0.3111979166666572,
          "durationTicks": 239,
          "midi": 54,
          "name": "F#3",
          "ticks": 124800,
          "time": 165.914592,
          "velocity": 0.3858267716535433
        },
        {
          "duration": 1.5611979166666572,
          "durationTicks": 1199,
          "midi": 36,
          "name": "C2",
          "ticks": 124800,
          "time": 165.914592,
          "velocity": 0.3858267716535433
        },
        {
          "duration": 0.3111979166666572,
          "durationTicks": 239,
          "midi": 54,
          "name": "F#3",
          "ticks": 125040,
          "time": 166.227092,
          "velocity": 0.3858267716535433
        },
        {
          "duration": 0.3111979166666572,
          "durationTicks": 239,
          "midi": 38,
          "name": "D2",
          "ticks": 125280,
          "time": 166.539592,
          "velocity": 0.3858267716535433
        },
        {
          "duration": 0.3111979166666572,
          "durationTicks": 239,
          "midi": 54,
          "name": "F#3",
          "ticks": 125280,
          "time": 166.539592,
          "velocity": 0.3858267716535433
        },
        {
          "duration": 0.3111979166666572,
          "durationTicks": 239,
          "midi": 54,
          "name": "F#3",
          "ticks": 125520,
          "time": 166.852092,
          "velocity": 0.3858267716535433
        },
        {
          "duration": 0.3111979166666572,
          "durationTicks": 239,
          "midi": 54,
          "name": "F#3",
          "ticks": 125760,
          "time": 167.164592,
          "velocity": 0.3858267716535433
        },
        {
          "duration": 0.3111979166666572,
          "durationTicks": 239,
          "midi": 54,
          "name": "F#3",
          "ticks": 126000,
          "time": 167.477092,
          "velocity": 0.3858267716535433
        },
        {
          "duration": 0.9361979166666572,
          "durationTicks": 719,
          "midi": 36,
          "name": "C2",
          "ticks": 126000,
          "time": 167.477092,
          "velocity": 0.3858267716535433
        },
        {
          "duration": 0.3111979166666572,
          "durationTicks": 239,
          "midi": 38,
          "name": "D2",
          "ticks": 126240,
          "time": 167.789592,
          "velocity": 0.3858267716535433
        },
        {
          "duration": 0.3111979166666572,
          "durationTicks": 239,
          "midi": 54,
          "name": "F#3",
          "ticks": 126240,
          "time": 167.789592,
          "velocity": 0.3858267716535433
        },
        {
          "duration": 0.3111979166666572,
          "durationTicks": 239,
          "midi": 54,
          "name": "F#3",
          "ticks": 126480,
          "time": 168.102092,
          "velocity": 0.3858267716535433
        },
        {
          "duration": 0.3111979166666572,
          "durationTicks": 239,
          "midi": 54,
          "name": "F#3",
          "ticks": 126720,
          "time": 168.414592,
          "velocity": 0.3858267716535433
        },
        {
          "duration": 1.5611979166666572,
          "durationTicks": 1199,
          "midi": 36,
          "name": "C2",
          "ticks": 126720,
          "time": 168.414592,
          "velocity": 0.3858267716535433
        },
        {
          "duration": 0.3111979166666572,
          "durationTicks": 239,
          "midi": 54,
          "name": "F#3",
          "ticks": 126960,
          "time": 168.727092,
          "velocity": 0.3858267716535433
        },
        {
          "duration": 0.3111979166666572,
          "durationTicks": 239,
          "midi": 38,
          "name": "D2",
          "ticks": 127200,
          "time": 169.039592,
          "velocity": 0.3858267716535433
        },
        {
          "duration": 0.3111979166666572,
          "durationTicks": 239,
          "midi": 54,
          "name": "F#3",
          "ticks": 127200,
          "time": 169.039592,
          "velocity": 0.3858267716535433
        },
        {
          "duration": 0.3111979166666572,
          "durationTicks": 239,
          "midi": 54,
          "name": "F#3",
          "ticks": 127440,
          "time": 169.352092,
          "velocity": 0.3858267716535433
        },
        {
          "duration": 0.3111979166666572,
          "durationTicks": 239,
          "midi": 54,
          "name": "F#3",
          "ticks": 127680,
          "time": 169.664592,
          "velocity": 0.3858267716535433
        },
        {
          "duration": 0.3111979166666572,
          "durationTicks": 239,
          "midi": 54,
          "name": "F#3",
          "ticks": 127920,
          "time": 169.977092,
          "velocity": 0.3858267716535433
        },
        {
          "duration": 0.9361979166666572,
          "durationTicks": 719,
          "midi": 36,
          "name": "C2",
          "ticks": 127920,
          "time": 169.977092,
          "velocity": 0.3858267716535433
        },
        {
          "duration": 0.3111979166666572,
          "durationTicks": 239,
          "midi": 38,
          "name": "D2",
          "ticks": 128160,
          "time": 170.289592,
          "velocity": 0.3858267716535433
        },
        {
          "duration": 0.3111979166666572,
          "durationTicks": 239,
          "midi": 54,
          "name": "F#3",
          "ticks": 128160,
          "time": 170.289592,
          "velocity": 0.3858267716535433
        },
        {
          "duration": 0.3111979166666572,
          "durationTicks": 239,
          "midi": 54,
          "name": "F#3",
          "ticks": 128400,
          "time": 170.602092,
          "velocity": 0.3858267716535433
        },
        {
          "duration": 0.3111979166666572,
          "durationTicks": 239,
          "midi": 54,
          "name": "F#3",
          "ticks": 128640,
          "time": 170.914592,
          "velocity": 0.3858267716535433
        },
        {
          "duration": 1.5611979166666572,
          "durationTicks": 1199,
          "midi": 36,
          "name": "C2",
          "ticks": 128640,
          "time": 170.914592,
          "velocity": 0.3858267716535433
        },
        {
          "duration": 0.3111979166666572,
          "durationTicks": 239,
          "midi": 54,
          "name": "F#3",
          "ticks": 128880,
          "time": 171.227092,
          "velocity": 0.3858267716535433
        },
        {
          "duration": 0.3111979166666572,
          "durationTicks": 239,
          "midi": 38,
          "name": "D2",
          "ticks": 129120,
          "time": 171.539592,
          "velocity": 0.3858267716535433
        },
        {
          "duration": 0.3111979166666572,
          "durationTicks": 239,
          "midi": 54,
          "name": "F#3",
          "ticks": 129120,
          "time": 171.539592,
          "velocity": 0.3858267716535433
        },
        {
          "duration": 0.3111979166666572,
          "durationTicks": 239,
          "midi": 54,
          "name": "F#3",
          "ticks": 129360,
          "time": 171.852092,
          "velocity": 0.3858267716535433
        },
        {
          "duration": 0.3111979166666572,
          "durationTicks": 239,
          "midi": 54,
          "name": "F#3",
          "ticks": 129600,
          "time": 172.164592,
          "velocity": 0.3858267716535433
        },
        {
          "duration": 0.3111979166666572,
          "durationTicks": 239,
          "midi": 54,
          "name": "F#3",
          "ticks": 129840,
          "time": 172.477092,
          "velocity": 0.3858267716535433
        },
        {
          "duration": 0.9361979166666572,
          "durationTicks": 719,
          "midi": 36,
          "name": "C2",
          "ticks": 129840,
          "time": 172.477092,
          "velocity": 0.3858267716535433
        },
        {
          "duration": 0.3111979166666572,
          "durationTicks": 239,
          "midi": 38,
          "name": "D2",
          "ticks": 130080,
          "time": 172.789592,
          "velocity": 0.3858267716535433
        },
        {
          "duration": 0.3111979166666572,
          "durationTicks": 239,
          "midi": 54,
          "name": "F#3",
          "ticks": 130080,
          "time": 172.789592,
          "velocity": 0.3858267716535433
        },
        {
          "duration": 0.3111979166666572,
          "durationTicks": 239,
          "midi": 54,
          "name": "F#3",
          "ticks": 130320,
          "time": 173.102092,
          "velocity": 0.3858267716535433
        },
        {
          "duration": 0.3111979166666572,
          "durationTicks": 239,
          "midi": 54,
          "name": "F#3",
          "ticks": 130560,
          "time": 173.414592,
          "velocity": 0.3858267716535433
        },
        {
          "duration": 1.5611979166666572,
          "durationTicks": 1199,
          "midi": 36,
          "name": "C2",
          "ticks": 130560,
          "time": 173.414592,
          "velocity": 0.3858267716535433
        },
        {
          "duration": 0.3111979166666572,
          "durationTicks": 239,
          "midi": 54,
          "name": "F#3",
          "ticks": 130800,
          "time": 173.727092,
          "velocity": 0.3858267716535433
        },
        {
          "duration": 0.3111979166666572,
          "durationTicks": 239,
          "midi": 38,
          "name": "D2",
          "ticks": 131040,
          "time": 174.039592,
          "velocity": 0.3858267716535433
        },
        {
          "duration": 0.3111979166666572,
          "durationTicks": 239,
          "midi": 54,
          "name": "F#3",
          "ticks": 131040,
          "time": 174.039592,
          "velocity": 0.3858267716535433
        },
        {
          "duration": 0.3111979166666572,
          "durationTicks": 239,
          "midi": 54,
          "name": "F#3",
          "ticks": 131280,
          "time": 174.352092,
          "velocity": 0.3858267716535433
        },
        {
          "duration": 0.3111979166666572,
          "durationTicks": 239,
          "midi": 54,
          "name": "F#3",
          "ticks": 131520,
          "time": 174.664592,
          "velocity": 0.3858267716535433
        },
        {
          "duration": 0.3111979166666572,
          "durationTicks": 239,
          "midi": 54,
          "name": "F#3",
          "ticks": 131760,
          "time": 174.977092,
          "velocity": 0.3858267716535433
        },
        {
          "duration": 0.9361979166666572,
          "durationTicks": 719,
          "midi": 36,
          "name": "C2",
          "ticks": 131760,
          "time": 174.977092,
          "velocity": 0.3858267716535433
        },
        {
          "duration": 0.3111979166666572,
          "durationTicks": 239,
          "midi": 38,
          "name": "D2",
          "ticks": 132000,
          "time": 175.289592,
          "velocity": 0.3858267716535433
        },
        {
          "duration": 0.3111979166666572,
          "durationTicks": 239,
          "midi": 54,
          "name": "F#3",
          "ticks": 132000,
          "time": 175.289592,
          "velocity": 0.3858267716535433
        },
        {
          "duration": 0.3111979166666572,
          "durationTicks": 239,
          "midi": 54,
          "name": "F#3",
          "ticks": 132240,
          "time": 175.602092,
          "velocity": 0.3858267716535433
        },
        {
          "duration": 0.3111979166666572,
          "durationTicks": 239,
          "midi": 54,
          "name": "F#3",
          "ticks": 132480,
          "time": 175.914592,
          "velocity": 0.3858267716535433
        },
        {
          "duration": 1.5611979166666572,
          "durationTicks": 1199,
          "midi": 36,
          "name": "C2",
          "ticks": 132480,
          "time": 175.914592,
          "velocity": 0.3858267716535433
        },
        {
          "duration": 0.3111979166666572,
          "durationTicks": 239,
          "midi": 54,
          "name": "F#3",
          "ticks": 132720,
          "time": 176.227092,
          "velocity": 0.3858267716535433
        },
        {
          "duration": 0.3111979166666572,
          "durationTicks": 239,
          "midi": 38,
          "name": "D2",
          "ticks": 132960,
          "time": 176.539592,
          "velocity": 0.3858267716535433
        },
        {
          "duration": 0.3111979166666572,
          "durationTicks": 239,
          "midi": 54,
          "name": "F#3",
          "ticks": 132960,
          "time": 176.539592,
          "velocity": 0.3858267716535433
        },
        {
          "duration": 0.3111979166666572,
          "durationTicks": 239,
          "midi": 54,
          "name": "F#3",
          "ticks": 133200,
          "time": 176.852092,
          "velocity": 0.3858267716535433
        },
        {
          "duration": 0.3111979166666572,
          "durationTicks": 239,
          "midi": 54,
          "name": "F#3",
          "ticks": 133440,
          "time": 177.164592,
          "velocity": 0.3858267716535433
        },
        {
          "duration": 0.3111979166666572,
          "durationTicks": 239,
          "midi": 54,
          "name": "F#3",
          "ticks": 133680,
          "time": 177.477092,
          "velocity": 0.3858267716535433
        },
        {
          "duration": 0.9361979166666572,
          "durationTicks": 719,
          "midi": 36,
          "name": "C2",
          "ticks": 133680,
          "time": 177.477092,
          "velocity": 0.3858267716535433
        },
        {
          "duration": 0.3111979166666572,
          "durationTicks": 239,
          "midi": 38,
          "name": "D2",
          "ticks": 133920,
          "time": 177.789592,
          "velocity": 0.3858267716535433
        },
        {
          "duration": 0.3111979166666572,
          "durationTicks": 239,
          "midi": 54,
          "name": "F#3",
          "ticks": 133920,
          "time": 177.789592,
          "velocity": 0.3858267716535433
        },
        {
          "duration": 0.3111979166666572,
          "durationTicks": 239,
          "midi": 54,
          "name": "F#3",
          "ticks": 134160,
          "time": 178.102092,
          "velocity": 0.3858267716535433
        },
        {
          "duration": 0.3111979166666572,
          "durationTicks": 239,
          "midi": 54,
          "name": "F#3",
          "ticks": 134400,
          "time": 178.414592,
          "velocity": 0.3858267716535433
        },
        {
          "duration": 1.5611979166666572,
          "durationTicks": 1199,
          "midi": 36,
          "name": "C2",
          "ticks": 134400,
          "time": 178.414592,
          "velocity": 0.3858267716535433
        },
        {
          "duration": 0.3111979166666572,
          "durationTicks": 239,
          "midi": 54,
          "name": "F#3",
          "ticks": 134640,
          "time": 178.727092,
          "velocity": 0.3858267716535433
        },
        {
          "duration": 0.3111979166666572,
          "durationTicks": 239,
          "midi": 38,
          "name": "D2",
          "ticks": 134880,
          "time": 179.039592,
          "velocity": 0.3858267716535433
        },
        {
          "duration": 0.3111979166666572,
          "durationTicks": 239,
          "midi": 54,
          "name": "F#3",
          "ticks": 134880,
          "time": 179.039592,
          "velocity": 0.3858267716535433
        },
        {
          "duration": 0.3111979166666572,
          "durationTicks": 239,
          "midi": 54,
          "name": "F#3",
          "ticks": 135120,
          "time": 179.352092,
          "velocity": 0.3858267716535433
        },
        {
          "duration": 0.3111979166666572,
          "durationTicks": 239,
          "midi": 54,
          "name": "F#3",
          "ticks": 135360,
          "time": 179.664592,
          "velocity": 0.3858267716535433
        },
        {
          "duration": 0.3111979166666572,
          "durationTicks": 239,
          "midi": 54,
          "name": "F#3",
          "ticks": 135600,
          "time": 179.977092,
          "velocity": 0.3858267716535433
        },
        {
          "duration": 0.9361979166666572,
          "durationTicks": 719,
          "midi": 36,
          "name": "C2",
          "ticks": 135600,
          "time": 179.977092,
          "velocity": 0.3858267716535433
        },
        {
          "duration": 0.3111979166666572,
          "durationTicks": 239,
          "midi": 38,
          "name": "D2",
          "ticks": 135840,
          "time": 180.289592,
          "velocity": 0.3858267716535433
        },
        {
          "duration": 0.3111979166666572,
          "durationTicks": 239,
          "midi": 54,
          "name": "F#3",
          "ticks": 135840,
          "time": 180.289592,
          "velocity": 0.3858267716535433
        },
        {
          "duration": 0.3111979166666572,
          "durationTicks": 239,
          "midi": 54,
          "name": "F#3",
          "ticks": 136080,
          "time": 180.602092,
          "velocity": 0.3858267716535433
        },
        {
          "duration": 0.3111979166666572,
          "durationTicks": 239,
          "midi": 54,
          "name": "F#3",
          "ticks": 136320,
          "time": 180.914592,
          "velocity": 0.3858267716535433
        },
        {
          "duration": 1.5611979166666572,
          "durationTicks": 1199,
          "midi": 36,
          "name": "C2",
          "ticks": 136320,
          "time": 180.914592,
          "velocity": 0.3858267716535433
        },
        {
          "duration": 0.3111979166666572,
          "durationTicks": 239,
          "midi": 54,
          "name": "F#3",
          "ticks": 136560,
          "time": 181.227092,
          "velocity": 0.3858267716535433
        },
        {
          "duration": 0.3111979166666572,
          "durationTicks": 239,
          "midi": 38,
          "name": "D2",
          "ticks": 136800,
          "time": 181.539592,
          "velocity": 0.3858267716535433
        },
        {
          "duration": 0.3111979166666572,
          "durationTicks": 239,
          "midi": 54,
          "name": "F#3",
          "ticks": 136800,
          "time": 181.539592,
          "velocity": 0.3858267716535433
        },
        {
          "duration": 0.3111979166666572,
          "durationTicks": 239,
          "midi": 54,
          "name": "F#3",
          "ticks": 137040,
          "time": 181.852092,
          "velocity": 0.3858267716535433
        },
        {
          "duration": 0.3111979166666572,
          "durationTicks": 239,
          "midi": 54,
          "name": "F#3",
          "ticks": 137280,
          "time": 182.164592,
          "velocity": 0.3858267716535433
        },
        {
          "duration": 0.3111979166666572,
          "durationTicks": 239,
          "midi": 54,
          "name": "F#3",
          "ticks": 137520,
          "time": 182.477092,
          "velocity": 0.3858267716535433
        },
        {
          "duration": 0.9361979166666572,
          "durationTicks": 719,
          "midi": 36,
          "name": "C2",
          "ticks": 137520,
          "time": 182.477092,
          "velocity": 0.3858267716535433
        },
        {
          "duration": 0.3111979166666572,
          "durationTicks": 239,
          "midi": 38,
          "name": "D2",
          "ticks": 137760,
          "time": 182.789592,
          "velocity": 0.3858267716535433
        },
        {
          "duration": 0.3111979166666572,
          "durationTicks": 239,
          "midi": 54,
          "name": "F#3",
          "ticks": 137760,
          "time": 182.789592,
          "velocity": 0.3858267716535433
        },
        {
          "duration": 0.3111979166666572,
          "durationTicks": 239,
          "midi": 54,
          "name": "F#3",
          "ticks": 138000,
          "time": 183.102092,
          "velocity": 0.3858267716535433
        },
        {
          "duration": 0.3111979166666572,
          "durationTicks": 239,
          "midi": 54,
          "name": "F#3",
          "ticks": 138240,
          "time": 183.414592,
          "velocity": 0.3858267716535433
        },
        {
          "duration": 1.5611979166666572,
          "durationTicks": 1199,
          "midi": 36,
          "name": "C2",
          "ticks": 138240,
          "time": 183.414592,
          "velocity": 0.3858267716535433
        },
        {
          "duration": 0.3111979166666572,
          "durationTicks": 239,
          "midi": 54,
          "name": "F#3",
          "ticks": 138480,
          "time": 183.727092,
          "velocity": 0.3858267716535433
        },
        {
          "duration": 0.3111979166666572,
          "durationTicks": 239,
          "midi": 38,
          "name": "D2",
          "ticks": 138720,
          "time": 184.039592,
          "velocity": 0.3858267716535433
        },
        {
          "duration": 0.3111979166666572,
          "durationTicks": 239,
          "midi": 54,
          "name": "F#3",
          "ticks": 138720,
          "time": 184.039592,
          "velocity": 0.3858267716535433
        },
        {
          "duration": 0.3111979166666572,
          "durationTicks": 239,
          "midi": 54,
          "name": "F#3",
          "ticks": 138960,
          "time": 184.352092,
          "velocity": 0.3858267716535433
        },
        {
          "duration": 0.3111979166666572,
          "durationTicks": 239,
          "midi": 54,
          "name": "F#3",
          "ticks": 139200,
          "time": 184.664592,
          "velocity": 0.3858267716535433
        },
        {
          "duration": 0.3111979166666572,
          "durationTicks": 239,
          "midi": 54,
          "name": "F#3",
          "ticks": 139440,
          "time": 184.977092,
          "velocity": 0.3858267716535433
        },
        {
          "duration": 0.9361979166666572,
          "durationTicks": 719,
          "midi": 36,
          "name": "C2",
          "ticks": 139440,
          "time": 184.977092,
          "velocity": 0.3858267716535433
        },
        {
          "duration": 0.3111979166666572,
          "durationTicks": 239,
          "midi": 38,
          "name": "D2",
          "ticks": 139680,
          "time": 185.289592,
          "velocity": 0.3858267716535433
        },
        {
          "duration": 0.3111979166666572,
          "durationTicks": 239,
          "midi": 54,
          "name": "F#3",
          "ticks": 139680,
          "time": 185.289592,
          "velocity": 0.3858267716535433
        },
        {
          "duration": 0.3111979166666572,
          "durationTicks": 239,
          "midi": 54,
          "name": "F#3",
          "ticks": 139920,
          "time": 185.602092,
          "velocity": 0.3858267716535433
        }
      ]
    },
    {
      "channel": 0,
      "controlChanges": {
        "7": [
          {
            "number": 7,
            "ticks": 0,
            "time": 0,
            "value": 0.7874015748031497
          }
        ],
        "10": [
          {
            "number": 10,
            "ticks": 0,
            "time": 0,
            "value": 0.5039370078740157
          }
        ],
        "91": [
          {
            "number": 91,
            "ticks": 0,
            "time": 0,
            "value": 0
          }
        ],
        "93": [
          {
            "number": 93,
            "ticks": 0,
            "time": 0,
            "value": 0
          }
        ],
        "121": [
          {
            "number": 121,
            "ticks": 0,
            "time": 0,
            "value": 0
          }
        ]
      },
      "instrument": {
        "family": "ensemble",
        "name": "string ensemble 1",
        "number": 48
      },
      "name": "",
      "notes": [
        {
          "duration": 1.2486979166666714,
          "durationTicks": 959,
          "midi": 84,
          "name": "C6",
          "ticks": 30720,
          "time": 43.414592,
          "velocity": 0.3858267716535433
        },
        {
          "duration": 1.2486979166666714,
          "durationTicks": 959,
          "midi": 84,
          "name": "C6",
          "ticks": 31680,
          "time": 44.664592,
          "velocity": 0.2992125984251969
        },
        {
          "duration": 1.2486979166666714,
          "durationTicks": 959,
          "midi": 84,
          "name": "C6",
          "ticks": 32640,
          "time": 45.914592,
          "velocity": 0.2125984251968504
        },
        {
          "duration": 1.2486979166666714,
          "durationTicks": 959,
          "midi": 84,
          "name": "C6",
          "ticks": 33600,
          "time": 47.164592,
          "velocity": 0.12598425196850394
        },
        {
          "duration": 2.4986979166666714,
          "durationTicks": 1919,
          "midi": 84,
          "name": "C6",
          "ticks": 72960,
          "time": 98.414592,
          "velocity": 0.5039370078740157
        },
        {
          "duration": 2.4986979166666714,
          "durationTicks": 1919,
          "midi": 84,
          "name": "C6",
          "ticks": 74880,
          "time": 100.914592,
          "velocity": 0.5039370078740157
        },
        {
          "duration": 1.2486979166666714,
          "durationTicks": 959,
          "midi": 84,
          "name": "C6",
          "ticks": 76800,
          "time": 103.414592,
          "velocity": 0.3858267716535433
        },
        {
          "duration": 1.2486979166666714,
          "durationTicks": 959,
          "midi": 84,
          "name": "C6",
          "ticks": 77760,
          "time": 104.664592,
          "velocity": 0.2992125984251969
        },
        {
          "duration": 1.2486979166666714,
          "durationTicks": 959,
          "midi": 84,
          "name": "C6",
          "ticks": 78720,
          "time": 105.914592,
          "velocity": 0.2125984251968504
        },
        {
          "duration": 1.2486979166666714,
          "durationTicks": 959,
          "midi": 84,
          "name": "C6",
          "ticks": 79680,
          "time": 107.164592,
          "velocity": 0.12598425196850394
        },
        {
          "duration": 0.6236979166666714,
          "durationTicks": 479,
          "midi": 84,
          "name": "C6",
          "ticks": 92160,
          "time": 123.414592,
          "velocity": 0.5039370078740157
        },
        {
          "duration": 0.6236979166666714,
          "durationTicks": 479,
          "midi": 84,
          "name": "C6",
          "ticks": 92640,
          "time": 124.039592,
          "velocity": 0.5039370078740157
        },
        {
          "duration": 0.6236979166666714,
          "durationTicks": 479,
          "midi": 84,
          "name": "C6",
          "ticks": 93120,
          "time": 124.664592,
          "velocity": 0.5039370078740157
        },
        {
          "duration": 0.6236979166666714,
          "durationTicks": 479,
          "midi": 84,
          "name": "C6",
          "ticks": 93600,
          "time": 125.289592,
          "velocity": 0.5039370078740157
        },
        {
          "duration": 0.6236979166666714,
          "durationTicks": 479,
          "midi": 84,
          "name": "C6",
          "ticks": 94080,
          "time": 125.914592,
          "velocity": 0.5039370078740157
        },
        {
          "duration": 0.6236979166666714,
          "durationTicks": 479,
          "midi": 84,
          "name": "C6",
          "ticks": 94560,
          "time": 126.539592,
          "velocity": 0.5039370078740157
        },
        {
          "duration": 0.6236979166666714,
          "durationTicks": 479,
          "midi": 84,
          "name": "C6",
          "ticks": 95040,
          "time": 127.164592,
          "velocity": 0.5039370078740157
        },
        {
          "duration": 0.6236979166666856,
          "durationTicks": 479,
          "midi": 84,
          "name": "C6",
          "ticks": 95520,
          "time": 127.789592,
          "velocity": 0.5039370078740157
        },
        {
          "duration": 0.6236979166666856,
          "durationTicks": 479,
          "midi": 84,
          "name": "C6",
          "ticks": 96000,
          "time": 128.414592,
          "velocity": 0.5039370078740157
        },
        {
          "duration": 0.6236979166666856,
          "durationTicks": 479,
          "midi": 84,
          "name": "C6",
          "ticks": 96480,
          "time": 129.039592,
          "velocity": 0.5039370078740157
        },
        {
          "duration": 0.6236979166666856,
          "durationTicks": 479,
          "midi": 84,
          "name": "C6",
          "ticks": 96960,
          "time": 129.664592,
          "velocity": 0.5039370078740157
        },
        {
          "duration": 0.6236979166666856,
          "durationTicks": 479,
          "midi": 84,
          "name": "C6",
          "ticks": 97440,
          "time": 130.289592,
          "velocity": 0.5039370078740157
        },
        {
          "duration": 0.6236979166666856,
          "durationTicks": 479,
          "midi": 84,
          "name": "C6",
          "ticks": 97920,
          "time": 130.914592,
          "velocity": 0.5039370078740157
        },
        {
          "duration": 0.6236979166666856,
          "durationTicks": 479,
          "midi": 84,
          "name": "C6",
          "ticks": 98400,
          "time": 131.539592,
          "velocity": 0.5039370078740157
        },
        {
          "duration": 0.6236979166666856,
          "durationTicks": 479,
          "midi": 84,
          "name": "C6",
          "ticks": 98880,
          "time": 132.164592,
          "velocity": 0.5039370078740157
        },
        {
          "duration": 0.6236979166666856,
          "durationTicks": 479,
          "midi": 84,
          "name": "C6",
          "ticks": 99360,
          "time": 132.789592,
          "velocity": 0.5039370078740157
        }
      ]
    }
  ]
}
